<?xml version="1.0" encoding="utf-8"?>
<!-- Generator: Adobe Illustrator 16.0.0, SVG Export Plug-In . SVG Version: 6.00 Build 0)  -->
<!DOCTYPE svg PUBLIC "-//W3C//DTD SVG 1.1//EN" "http://www.w3.org/Graphics/SVG/1.1/DTD/svg11.dtd">
<svg version="1.1" id="Layer_1" xmlns="http://www.w3.org/2000/svg" xmlns:xlink="http://www.w3.org/1999/xlink" x="0px" y="0px"
	 width="143.333px" height="51.667px" viewBox="0 0 143.333 51.667" enable-background="new 0 0 143.333 51.667"
	 xml:space="preserve">
<g>
	<defs>
		<rect id="SVGID_1_" x="9.92" y="10.804" width="124.92" height="33.484"/>
	</defs>
	<clipPath id="SVGID_2_">
		<use xlink:href="#SVGID_1_"  overflow="visible"/>
	</clipPath>
	<path clip-path="url(#SVGID_2_)" fill="#98846D" d="M10.37,42.319V42.31c0-1.09,0.847-1.981,2.005-1.981
		c0.69,0,1.105,0.185,1.505,0.527l-0.532,0.638c-0.294-0.246-0.557-0.388-0.999-0.388c-0.613,0-1.1,0.54-1.1,1.192v0.012
		c0,0.699,0.482,1.212,1.16,1.212c0.304,0,0.578-0.076,0.793-0.231v-0.543h-0.848v-0.727h1.661v1.66
		c-0.393,0.334-0.933,0.607-1.633,0.607C11.188,44.289,10.37,43.452,10.37,42.319"/>
</g>
<polygon fill="#98846D" points="17.067,40.395 17.067,44.223 19.983,44.223 19.983,43.473 17.904,43.473 17.904,42.67 19.708,42.67 
	19.708,41.92 17.904,41.92 17.904,41.145 19.953,41.145 19.953,40.395 "/>
<g>
	<defs>
		<rect id="SVGID_3_" x="9.92" y="10.804" width="124.92" height="33.484"/>
	</defs>
	<clipPath id="SVGID_4_">
		<use xlink:href="#SVGID_3_"  overflow="visible"/>
	</clipPath>
	<path clip-path="url(#SVGID_4_)" fill="#98846D" d="M25.992,42.319V42.31c0-0.658-0.48-1.204-1.158-1.204
		c-0.679,0-1.15,0.536-1.15,1.192v0.012c0,0.657,0.482,1.201,1.162,1.201C25.522,43.511,25.992,42.976,25.992,42.319 M22.803,42.319
		V42.31c0-1.09,0.858-1.981,2.043-1.981c1.179,0,2.027,0.881,2.027,1.97v0.012c0,1.086-0.86,1.979-2.039,1.979
		C23.651,44.289,22.803,43.409,22.803,42.319"/>
	<path clip-path="url(#SVGID_4_)" fill="#98846D" d="M31.558,42.255c0.411,0,0.646-0.217,0.646-0.543V41.7
		c0-0.358-0.252-0.542-0.662-0.542h-0.835v1.098H31.558z M29.863,40.394h1.752c0.485,0,0.863,0.139,1.113,0.389
		c0.215,0.213,0.329,0.515,0.329,0.875v0.012c0,0.618-0.332,1.008-0.819,1.185l0.936,1.368h-0.986l-0.82-1.224h-0.012h-0.649v1.224
		h-0.844V40.394z"/>
	<path clip-path="url(#SVGID_4_)" fill="#98846D" d="M35.89,42.319V42.31c0-1.09,0.848-1.981,2.007-1.981
		c0.687,0,1.104,0.185,1.503,0.527l-0.531,0.638c-0.295-0.246-0.557-0.388-1-0.388c-0.611,0-1.1,0.54-1.1,1.192v0.012
		c0,0.699,0.482,1.212,1.159,1.212c0.308,0,0.58-0.076,0.794-0.231v-0.543h-0.848v-0.727h1.663v1.66
		c-0.392,0.334-0.936,0.607-1.634,0.607C36.711,44.289,35.89,43.452,35.89,42.319"/>
</g>
<polygon fill="#98846D" points="42.588,40.395 42.588,44.223 45.5,44.223 45.5,43.473 43.425,43.473 43.425,42.67 45.229,42.67 
	45.229,41.92 43.425,41.92 43.425,41.145 45.476,41.145 45.476,40.395 "/>
<polygon fill="#98846D" points="48.222,40.395 48.222,41.174 49.387,41.174 49.387,44.223 50.229,44.223 50.229,41.174 
	51.394,41.174 51.394,40.395 "/>
<g>
	<defs>
		<rect id="SVGID_5_" x="9.92" y="10.804" width="124.92" height="33.484"/>
	</defs>
	<clipPath id="SVGID_6_">
		<use xlink:href="#SVGID_5_"  overflow="visible"/>
	</clipPath>
	<path clip-path="url(#SVGID_6_)" fill="#98846D" d="M57.133,42.319V42.31c0-0.658-0.48-1.204-1.158-1.204
		c-0.677,0-1.15,0.536-1.15,1.192v0.012c0,0.657,0.484,1.201,1.162,1.201C56.662,43.511,57.133,42.976,57.133,42.319 M53.946,42.319
		V42.31c0-1.09,0.859-1.981,2.041-1.981c1.18,0,2.025,0.881,2.025,1.97v0.012c0,1.086-0.857,1.979-2.037,1.979
		C54.793,44.289,53.946,43.409,53.946,42.319"/>
</g>
<polygon fill="#98846D" points="63.045,40.385 62.187,42.987 61.393,40.395 60.491,40.395 61.799,44.251 62.532,44.251 
	63.396,41.748 64.259,44.251 64.992,44.251 66.3,40.395 65.418,40.395 64.625,42.987 63.767,40.385 "/>
<polygon fill="#98846D" points="71.735,40.395 71.735,42.75 69.94,40.395 69.166,40.395 69.166,44.223 69.994,44.223 69.994,41.791 
	71.85,44.223 72.566,44.223 72.566,40.395 "/>
<g>
	<defs>
		<rect id="SVGID_7_" x="9.92" y="10.804" width="124.92" height="33.484"/>
	</defs>
	<clipPath id="SVGID_8_">
		<use xlink:href="#SVGID_7_"  overflow="visible"/>
	</clipPath>
	<path clip-path="url(#SVGID_8_)" fill="#98846D" d="M79.549,42.583v-2.188h0.84v2.164c0,0.626,0.312,0.946,0.828,0.946
		c0.512,0,0.823-0.31,0.823-0.918v-2.192h0.845v2.158c0,1.163-0.651,1.73-1.678,1.73C80.176,44.284,79.549,43.709,79.549,42.583"/>
</g>
<polygon fill="#98846D" points="88.556,40.395 88.556,42.75 86.761,40.395 85.983,40.395 85.983,44.223 86.815,44.223 
	86.815,41.791 88.67,44.223 89.387,44.223 89.387,40.395 "/>
<rect x="92.585" y="40.395" fill="#98846D" width="0.842" height="3.827"/>
<polygon fill="#98846D" points="99.23,40.395 98.228,43.09 97.228,40.395 96.297,40.395 97.848,44.251 98.588,44.251 
	100.137,40.395 "/>
<polygon fill="#98846D" points="102.971,40.395 102.971,44.223 105.884,44.223 105.884,43.473 103.807,43.473 103.807,42.67 
	105.612,42.67 105.612,41.92 103.807,41.92 103.807,41.145 105.858,41.145 105.858,40.395 "/>
<g>
	<defs>
		<rect id="SVGID_9_" x="9.92" y="10.804" width="124.92" height="33.484"/>
	</defs>
	<clipPath id="SVGID_10_">
		<use xlink:href="#SVGID_9_"  overflow="visible"/>
	</clipPath>
	<path clip-path="url(#SVGID_10_)" fill="#98846D" d="M110.571,42.255c0.41,0,0.646-0.217,0.646-0.543V41.7
		c0-0.358-0.255-0.542-0.664-0.542h-0.836v1.098H110.571z M108.877,40.394h1.749c0.485,0,0.863,0.139,1.114,0.389
		c0.215,0.213,0.329,0.515,0.329,0.875v0.012c0,0.618-0.335,1.008-0.82,1.185l0.935,1.368H111.2l-0.821-1.224h-0.011h-0.65v1.224
		h-0.84V40.394z"/>
	<path clip-path="url(#SVGID_10_)" fill="#98846D" d="M114.809,43.665l0.498-0.594c0.346,0.28,0.705,0.463,1.143,0.463
		c0.345,0,0.553-0.138,0.553-0.361v-0.009c0-0.215-0.131-0.325-0.773-0.486c-0.77-0.198-1.267-0.412-1.267-1.171v-0.013
		c0-0.695,0.556-1.153,1.34-1.153c0.556,0,1.033,0.172,1.422,0.485l-0.438,0.636c-0.336-0.236-0.674-0.376-0.995-0.376
		c-0.325,0-0.492,0.147-0.492,0.332v0.01c0,0.252,0.166,0.333,0.827,0.504c0.775,0.202,1.214,0.48,1.214,1.148v0.01
		c0,0.762-0.58,1.189-1.406,1.189C115.852,44.279,115.27,44.077,114.809,43.665"/>
</g>
<rect x="120.85" y="40.395" fill="#98846D" width="0.844" height="3.827"/>
<polygon fill="#98846D" points="124.622,40.395 124.622,41.174 125.785,41.174 125.785,44.223 126.625,44.223 126.625,41.174 
	127.792,41.174 127.792,40.395 "/>
<polygon fill="#98846D" points="133.112,40.395 132.18,41.931 131.268,40.395 130.285,40.395 131.757,42.714 131.757,44.223 
	132.598,44.223 132.598,42.697 134.069,40.395 "/>
<g>
	<defs>
		<rect id="SVGID_11_" x="9.92" y="10.804" width="124.92" height="33.484"/>
	</defs>
	<clipPath id="SVGID_12_">
		<use xlink:href="#SVGID_11_"  overflow="visible"/>
	</clipPath>
	<path clip-path="url(#SVGID_12_)" fill="#98846D" d="M11.137,28.216h-0.645l0.073-0.336h0.66c0.2-1.302,1.059-2.097,1.866-2.097
		c0.172,0,0.299,0.1,0.299,0.267c0,0.206-0.052,0.439-0.247,0.439c-0.22,0-0.318-0.217-0.613-0.217
		c-0.293,0-0.359,0.408-0.427,0.796l-0.139,0.812h0.765l-0.071,0.336h-0.779c-0.282,1.393-0.722,2.732-1.127,4.079l-0.453,0.164
		l-0.075-0.052L11.137,28.216z"/>
	<path clip-path="url(#SVGID_12_)" fill="#98846D" d="M15.042,28.749c0-0.345-0.065-0.712-0.533-0.712
		c-0.787,0-1.092,1.304-1.092,1.923c0,0.422,0.1,0.761,0.533,0.761C14.756,30.72,15.042,29.33,15.042,28.749 M15.788,29.068
		c0,0.974-0.725,1.907-1.811,1.907c-0.819,0-1.307-0.62-1.307-1.287c0-1.079,0.861-1.906,1.819-1.906
		C15.37,27.782,15.788,28.356,15.788,29.068"/>
	<path clip-path="url(#SVGID_12_)" fill="#98846D" d="M16.814,29.215c0.041-0.157,0.133-0.486,0.133-0.579
		c0-0.062-0.007-0.148-0.092-0.148c-0.168,0-0.421,0.268-0.521,0.384l-0.118-0.148c0.225-0.293,0.812-0.939,1.197-0.939
		c0.206,0,0.279,0.112,0.279,0.298c0,0.349-0.211,0.873-0.298,1.2l0.012,0.015c0.269-0.399,0.8-1.513,1.334-1.513
		c0.18,0,0.278,0.085,0.278,0.26c0,0.204-0.098,0.486-0.324,0.486c-0.136,0-0.188-0.042-0.301-0.042c-0.339,0-0.845,0.867-1.2,1.768
		c-0.087,0.219-0.145,0.492-0.179,0.552c-0.062,0.087-0.147,0.102-0.354,0.102c-0.245,0-0.306-0.061-0.306-0.121
		c0-0.033,0.094-0.38,0.132-0.492L16.814,29.215z"/>
	<path clip-path="url(#SVGID_12_)" fill="#98846D" d="M23.734,28.04h0.385c0.788,0,1.213-0.298,1.213-1.229
		c0-0.699-0.447-1.149-1.15-1.149c-0.235,0-0.339,0.023-0.448,0.031V28.04z M22.726,26.213c0-0.576-0.314-0.599-0.559-0.599h-0.142
		v-0.237c0.252,0,0.741,0.031,1.221,0.031c0.474,0,0.849-0.031,1.27-0.031c0.989,0,1.873,0.268,1.873,1.385
		c0,0.712-0.473,1.144-1.096,1.388l1.345,2.015c0.223,0.331,0.379,0.424,0.766,0.472v0.236c-0.26,0-0.513-0.031-0.771-0.031
		c-0.244,0-0.496,0.031-0.74,0.031c-0.607-0.794-1.125-1.646-1.64-2.551h-0.518v1.685c0,0.608,0.284,0.63,0.646,0.63h0.142v0.236
		c-0.449,0-0.906-0.031-1.356-0.031c-0.376,0-0.747,0.031-1.142,0.031v-0.236h0.142c0.292,0,0.559-0.133,0.559-0.423V26.213z"/>
	<path clip-path="url(#SVGID_12_)" fill="#98846D" d="M29.539,28.449c0.426,0,0.488-0.007,0.488-0.29c0-0.3-0.196-0.655-0.55-0.655
		c-0.483,0-0.751,0.456-0.837,0.945H29.539z M30.91,30.006c-0.316,0.555-0.851,0.985-1.514,0.985c-0.991,0-1.527-0.913-1.527-1.811
		c0-0.992,0.669-1.961,1.739-1.961c0.812,0,1.253,0.6,1.236,1.381l-0.092,0.085h-2.127c0,0.801,0.369,1.597,1.222,1.597
		c0.376,0,0.683-0.141,0.936-0.425L30.91,30.006z"/>
	<path clip-path="url(#SVGID_12_)" fill="#98846D" d="M31.743,25.929c0-0.173-0.025-0.244-0.207-0.313
		c-0.085-0.033-0.17-0.074-0.258-0.106v-0.186c0.355-0.089,0.874-0.285,1.261-0.467l0.086,0.071v5.467
		c0,0.226,0.188,0.241,0.409,0.241h0.087v0.237c-0.301-0.016-0.597-0.031-0.907-0.031c-0.322,0-0.643,0.016-0.936,0.031v-0.237
		c0.251,0,0.465,0,0.465-0.241V25.929z"/>
	<path clip-path="url(#SVGID_12_)" fill="#98846D" d="M34.412,26.12c-0.267,0-0.479-0.214-0.479-0.482
		c0-0.26,0.212-0.479,0.479-0.479c0.269,0,0.481,0.22,0.481,0.479C34.893,25.906,34.681,26.12,34.412,26.12 M34.852,30.449
		c0,0.187,0.184,0.187,0.379,0.187h0.116v0.238c-0.297-0.015-0.597-0.031-0.894-0.031c-0.322,0-0.64,0.017-0.946,0.031v-0.238h0.054
		c0.23,0,0.41,0,0.41-0.233v-2.228c0-0.127-0.014-0.175-0.19-0.221c-0.092-0.023-0.18-0.055-0.274-0.079v-0.188
		c0.244-0.062,0.511-0.157,0.718-0.229c0.179-0.065,0.368-0.168,0.54-0.237l0.087,0.069V30.449z"/>
	<path clip-path="url(#SVGID_12_)" fill="#98846D" d="M37.359,29.441c0.48,0,0.589-0.479,0.589-0.874c0-0.384-0.14-1.11-0.645-1.11
		c-0.513,0-0.623,0.543-0.623,0.946C36.68,28.795,36.861,29.441,37.359,29.441 M37.688,30.992c-0.487,0-1.29,0.094-1.29,0.695
		c0,0.524,0.431,0.702,1.006,0.702c0.529,0,1.261-0.284,1.261-0.827C38.665,31.046,38.113,30.992,37.688,30.992 M36.569,29.583
		c-0.447-0.205-0.772-0.589-0.772-1.104c0-0.793,0.789-1.256,1.513-1.256c0.362,0,0.655,0.053,0.961,0.201
		c0.093,0.05,0.237,0.05,0.355,0.05h0.685v0.393h-0.607c0.095,0.219,0.127,0.409,0.127,0.612c0,0.759-0.74,1.246-1.488,1.246
		c-0.174,0-0.347-0.024-0.514-0.071l-0.187,0.158c-0.026,0.401,0.292,0.411,0.597,0.411c0.347,0,0.694-0.044,1.039-0.044
		c0.547,0,1.033,0.245,1.033,0.854c0,1.211-1.211,1.637-2.049,1.637c-0.74,0-1.511-0.262-1.511-0.841
		c0-0.521,0.347-0.679,0.929-0.922v-0.015c-0.534-0.051-0.796-0.304-0.796-0.838L36.569,29.583z"/>
	<path clip-path="url(#SVGID_12_)" fill="#98846D" d="M40.618,26.12c-0.268,0-0.482-0.214-0.482-0.482
		c0-0.26,0.214-0.479,0.482-0.479s0.48,0.22,0.48,0.479C41.098,25.906,40.886,26.12,40.618,26.12 M41.061,30.449
		c0,0.187,0.178,0.187,0.375,0.187h0.119v0.238c-0.297-0.015-0.598-0.031-0.897-0.031c-0.323,0-0.639,0.017-0.945,0.031v-0.238
		h0.054c0.229,0,0.409,0,0.409-0.233v-2.228c0-0.127-0.014-0.175-0.188-0.221c-0.095-0.023-0.182-0.055-0.275-0.079v-0.188
		c0.243-0.062,0.511-0.157,0.715-0.229c0.183-0.065,0.371-0.168,0.544-0.237l0.089,0.069V30.449z"/>
	<path clip-path="url(#SVGID_12_)" fill="#98846D" d="M43.027,29.126c0,0.662,0.204,1.582,0.969,1.582
		c0.734,0,0.889-0.758,0.889-1.465c0-0.565-0.189-1.741-0.952-1.741C43.099,27.502,43.027,28.489,43.027,29.126 M43.949,27.221
		c1.142,0,1.898,0.732,1.898,1.837c0,1.067-0.836,1.933-1.898,1.933c-1.111,0-1.884-0.802-1.884-1.886
		C42.065,28.04,42.845,27.221,43.949,27.221"/>
	<path clip-path="url(#SVGID_12_)" fill="#98846D" d="M46.359,30.636h0.054c0.23,0,0.409,0,0.409-0.234v-2.227
		c0-0.129-0.015-0.177-0.188-0.222c-0.094-0.022-0.182-0.056-0.275-0.081v-0.188c0.243-0.062,0.511-0.157,0.716-0.228
		c0.182-0.066,0.37-0.168,0.543-0.236l0.087,0.068v0.505c0.347-0.235,0.749-0.573,1.229-0.573c0.567,0,0.976,0.276,0.976,1.015v2.18
		c0,0.221,0.197,0.221,0.387,0.221h0.094v0.236c-0.299-0.015-0.591-0.03-0.89-0.03c-0.314,0-0.621,0.016-0.938,0.03v-0.236h0.078
		c0.158,0,0.385,0,0.385-0.203v-1.968c0-0.48-0.243-0.661-0.596-0.661c-0.26,0-0.552,0.155-0.725,0.266v2.379
		c0,0.188,0.181,0.188,0.378,0.188H48.2v0.236c-0.297-0.015-0.598-0.03-0.898-0.03c-0.322,0-0.637,0.016-0.943,0.03V30.636z"/>
	<path clip-path="url(#SVGID_12_)" fill="#98846D" d="M50.887,32.016c0.363-0.096,0.891-0.328,0.891-0.778
		c0-0.578-0.702-0.278-0.702-0.899c0-0.315,0.26-0.599,0.583-0.599c0.513,0,0.763,0.44,0.763,0.907c0,0.855-0.631,1.378-1.408,1.581
		L50.887,32.016z"/>
	<path clip-path="url(#SVGID_12_)" fill="#98846D" d="M57.059,29.985c0,0.635,0.345,0.651,0.747,0.651h0.127v0.237
		c-0.403,0-0.796-0.031-1.196-0.031c-0.434,0-0.859,0.031-1.309,0.031v-0.237h0.127c0.236,0,0.496-0.006,0.496-0.635v-3.767
		c0-0.525-0.151-0.621-0.528-0.621h-0.095v-0.235c0.285,0,0.7,0.03,1.103,0.03c0.41,0,0.795-0.03,1.15-0.03
		c1.072,0,1.853,0.354,1.853,1.504c0,0.923-0.656,1.513-1.524,1.598c-0.244,0.015-0.449,0.015-0.628,0.015v-0.233h0.166
		c0.637,0,0.928-0.568,0.928-1.346c0-0.76-0.378-1.253-1.19-1.253h-0.227V29.985z"/>
	<path clip-path="url(#SVGID_12_)" fill="#98846D" d="M61.633,28.449c0.425,0,0.489-0.007,0.489-0.29c0-0.3-0.198-0.655-0.551-0.655
		c-0.48,0-0.75,0.456-0.836,0.945H61.633z M63.004,30.006c-0.315,0.555-0.851,0.985-1.513,0.985c-0.991,0-1.528-0.913-1.528-1.811
		c0-0.992,0.671-1.961,1.741-1.961c0.81,0,1.252,0.6,1.236,1.381l-0.094,0.085H60.72c0,0.801,0.371,1.597,1.219,1.597
		c0.379,0,0.687-0.141,0.939-0.425L63.004,30.006z"/>
	<path clip-path="url(#SVGID_12_)" fill="#98846D" d="M65.595,29.105c-0.435,0.139-1.159,0.289-1.159,0.841
		c0,0.337,0.175,0.511,0.48,0.511c0.363,0,0.593-0.298,0.679-0.419V29.105z M65.595,28.395c0-0.458-0.269-0.639-0.623-0.639
		c-0.456,0-0.575,0.117-0.606,0.559c-0.016,0.213-0.441,0.316-0.561,0.316c-0.086,0-0.149-0.065-0.149-0.184
		c0-0.307,0.192-0.535,0.434-0.66c0.26-0.135,0.552-0.285,0.851-0.458c0.172-0.103,0.316-0.108,0.471-0.108
		c0.694,0,1.065,0.36,1.065,1.049v1.604c0,0.34,0.023,0.582,0.244,0.582c0.07,0,0.172-0.055,0.22-0.102l0.101,0.141
		c-0.236,0.291-0.447,0.495-0.826,0.495c-0.377,0-0.568-0.258-0.598-0.62c-0.347,0.338-0.702,0.62-1.205,0.62
		c-0.471,0-0.86-0.289-0.86-0.809c0-0.614,0.506-0.805,1.065-1.008l0.977-0.34V28.395z"/>
	<path clip-path="url(#SVGID_12_)" fill="#98846D" d="M70.618,30.039c-0.378,0.551-0.764,0.953-1.489,0.953
		c-1.055,0-1.654-0.715-1.654-1.754c0-1.102,0.891-2.017,1.992-2.017c0.529,0,1.032,0.125,1.032,0.589
		c0,0.237-0.186,0.418-0.423,0.418c-0.418,0-0.347-0.661-0.929-0.661c-0.561,0-0.836,0.456-0.836,1.111
		c0,0.753,0.339,1.685,1.213,1.685c0.426,0,0.63-0.166,0.951-0.48L70.618,30.039z"/>
	<path clip-path="url(#SVGID_12_)" fill="#98846D" d="M72.681,28.449c0.427,0,0.488-0.007,0.488-0.29c0-0.3-0.196-0.655-0.55-0.655
		c-0.48,0-0.748,0.456-0.836,0.945H72.681z M74.052,30.006c-0.315,0.555-0.852,0.985-1.513,0.985c-0.991,0-1.526-0.913-1.526-1.811
		c0-0.992,0.668-1.961,1.74-1.961c0.809,0,1.253,0.6,1.236,1.381l-0.095,0.085h-2.125c0,0.801,0.37,1.597,1.219,1.597
		c0.379,0,0.687-0.141,0.937-0.425L74.052,30.006z"/>
	<path clip-path="url(#SVGID_12_)" fill="#98846D" d="M79.545,26.307c0-0.354-0.253-0.646-0.623-0.646
		c-0.33,0-0.572,0.268-0.572,0.58c0,0.435,0.354,0.735,0.701,0.921C79.334,26.951,79.545,26.676,79.545,26.307 M77.815,28.882
		c0,0.764,0.65,1.354,1.408,1.354c0.584,0,0.884-0.22,1.269-0.623c-0.536-0.754-1.222-1.386-2.017-1.857
		C78.104,28.04,77.815,28.395,77.815,28.882 M81.383,26.772c0.36,0.016,0.73,0.03,1.092,0.03c0.371,0,0.734-0.015,1.103-0.03v0.238
		c-0.142,0-0.28,0.013-0.424,0.029c-0.797,0.057-1.474,1.495-1.929,2.048c0.33,0.495,0.896,1.327,1.566,1.327
		c0.375,0,0.598-0.17,0.834-0.454l0.164,0.127c-0.337,0.511-0.863,0.961-1.501,0.961c-0.812,0-1.262-0.615-1.664-1.236
		c-0.479,0.612-1.149,1.179-1.968,1.179c-0.93,0-1.6-0.691-1.6-1.621c0-0.763,0.599-1.399,1.238-1.739
		c-0.363-0.267-0.592-0.638-0.592-1.096c0-0.699,0.67-1.156,1.323-1.156c0.505,0,1.118,0.222,1.118,0.818
		c0,0.575-0.449,0.818-0.885,1.079c0.721,0.395,1.332,0.967,1.807,1.606c0.188-0.309,0.826-1.276,0.826-1.593
		c0-0.279-0.299-0.297-0.51-0.289V26.772z"/>
	<path clip-path="url(#SVGID_12_)" fill="#98846D" d="M91.538,26.181c0.055-0.149,0.102-0.252,0.102-0.33
		c0-0.197-0.181-0.236-0.442-0.236c-0.21,0-0.384,0.039-0.384,0.196c0,0.118,0.062,0.229,0.127,0.377l0.297,0.702h0.016
		L91.538,26.181z M90.891,28.528l-1.039,2.464h-0.269l-1.985-4.678c-0.156-0.369-0.258-0.699-0.686-0.699h-0.115v-0.237
		c0.297,0,0.754,0.031,1.135,0.031c0.328,0,0.74-0.031,0.99-0.031v0.237H88.85c-0.178,0-0.336,0.03-0.336,0.18
		c0,0.103,0.069,0.339,0.268,0.812l1.289,3.031l0.639-1.536l-0.982-2.273c-0.08-0.183-0.277-0.213-0.48-0.213v-0.237
		c0.368,0,0.738,0.031,1.109,0.031c0.293,0,0.574-0.031,0.865-0.031c0.252,0,0.506,0.031,0.756,0.031
		c0.236,0,0.474-0.031,0.711-0.031v0.237h-0.11c-0.396,0-0.487,0.149-0.687,0.599l-0.465,1.076l0.971,2.284l1.213-3.307
		c0.045-0.134,0.117-0.33,0.117-0.433c0-0.173-0.144-0.22-0.471-0.22H93.16v-0.237c0.261,0,0.521,0.031,0.78,0.031
		c0.236,0,0.465-0.031,0.701-0.031v0.237h-0.094c-0.238,0-0.371,0.266-0.466,0.508l-1.858,4.869h-0.277L90.891,28.528z"/>
	<path clip-path="url(#SVGID_12_)" fill="#98846D" d="M95.233,29.126c0,0.662,0.203,1.582,0.969,1.582
		c0.732,0,0.889-0.758,0.889-1.465c0-0.565-0.188-1.741-0.955-1.741C95.305,27.502,95.233,28.489,95.233,29.126 M96.155,27.221
		c1.14,0,1.896,0.732,1.896,1.837c0,1.067-0.836,1.933-1.896,1.933c-1.11,0-1.885-0.802-1.885-1.886
		C94.27,28.04,95.051,27.221,96.155,27.221"/>
	<path clip-path="url(#SVGID_12_)" fill="#98846D" d="M99.91,30.457c0,0.18,0.214,0.18,0.583,0.18h0.12v0.236
		c-0.37-0.008-0.742-0.03-1.113-0.03c-0.328,0-0.651,0.022-0.983,0.03v-0.236h0.078c0.269,0,0.432-0.03,0.432-0.203V28.29
		c0-0.259-0.045-0.336-0.242-0.368c-0.085-0.016-0.166-0.031-0.253-0.048v-0.187c0.419-0.081,0.843-0.262,1.293-0.466l0.086,0.046
		v0.544h0.017c0.141-0.229,0.495-0.59,0.905-0.59c0.267,0,0.503,0.125,0.503,0.466c0,0.298-0.197,0.464-0.441,0.464
		c-0.306,0-0.306-0.301-0.549-0.301c-0.19,0-0.435,0.148-0.435,0.537V30.457z"/>
	<path clip-path="url(#SVGID_12_)" fill="#98846D" d="M102.131,25.929c0-0.173-0.025-0.244-0.203-0.313
		c-0.089-0.033-0.176-0.074-0.265-0.106v-0.186c0.358-0.089,0.877-0.285,1.263-0.467l0.086,0.071v5.467
		c0,0.226,0.19,0.241,0.409,0.241h0.088v0.237c-0.3-0.016-0.599-0.031-0.905-0.031c-0.324,0-0.645,0.016-0.94,0.031v-0.237
		c0.255,0,0.468,0,0.468-0.241V25.929z"/>
	<path clip-path="url(#SVGID_12_)" fill="#98846D" d="M106.596,28.072c-0.143-0.292-0.466-0.504-0.781-0.504
		c-0.707,0-0.914,0.755-0.914,1.376c0,0.845,0.429,1.513,1.049,1.513c0.254,0,0.51-0.133,0.646-0.234V28.072z M107.477,30.489
		l0.457-0.04v0.198c-0.096,0.013-0.361,0.08-0.63,0.156c-0.274,0.087-0.543,0.156-0.639,0.188l-0.062-0.047v-0.479
		c-0.394,0.338-0.639,0.526-1.188,0.526c-0.766,0-1.396-0.733-1.396-1.655c0-1.227,0.953-2.116,1.93-2.116
		c0.275,0,0.464,0.04,0.646,0.118v-1.606l-0.529-0.19v-0.133c0.441-0.149,0.898-0.322,1.316-0.552l0.094,0.065V30.489z"/>
	<path clip-path="url(#SVGID_12_)" fill="#98846D" d="M113.39,26.258h-0.015l-0.733,2.229h1.47L113.39,26.258z M112.24,29.748
		c-0.077,0.27-0.173,0.476-0.173,0.614c0,0.234,0.333,0.274,0.589,0.274h0.087v0.237c-0.312-0.016-0.636-0.031-0.951-0.031
		c-0.283,0-0.566,0.016-0.851,0.031v-0.237h0.049c0.308,0,0.563-0.179,0.683-0.511l1.261-3.614c0.103-0.292,0.245-0.683,0.291-0.977
		c0.247-0.086,0.567-0.243,0.717-0.337c0.024-0.01,0.04-0.018,0.063-0.018c0.022,0,0.041,0,0.055,0.024
		c0.023,0.062,0.046,0.134,0.07,0.197l1.451,4.118c0.094,0.277,0.187,0.565,0.289,0.805c0.096,0.22,0.26,0.312,0.521,0.312h0.047
		v0.237c-0.353-0.016-0.708-0.031-1.086-0.031c-0.388,0-0.78,0.016-1.183,0.031v-0.237h0.088c0.18,0,0.488-0.03,0.488-0.227
		c0-0.103-0.068-0.313-0.156-0.567l-0.309-0.913h-1.787L112.24,29.748z"/>
	<path clip-path="url(#SVGID_12_)" fill="#98846D" d="M118.249,30.333c-0.008,0.273,0.143,0.304,0.566,0.304h0.15v0.236
		c-0.392-0.015-0.779-0.03-1.173-0.03c-0.33,0-0.655,0.016-0.985,0.03v-0.236h0.182c0.246,0,0.377-0.007,0.377-0.299v-2.559h-0.559
		v-0.143c0.189-0.085,0.371-0.195,0.559-0.313v-0.551c0-0.553,0.238-1.001,0.622-1.379c0.37-0.363,0.632-0.536,0.922-0.536
		c0.315,0,0.545,0.127,0.545,0.497c0,0.229-0.142,0.434-0.388,0.434c-0.234,0-0.234-0.395-0.528-0.395
		c-0.25,0-0.29,0.261-0.29,0.536v1.41h0.885v0.439h-0.885V30.333z"/>
	<path clip-path="url(#SVGID_12_)" fill="#98846D" d="M120.911,30.333c-0.008,0.273,0.141,0.304,0.567,0.304h0.147v0.236
		c-0.393-0.015-0.777-0.03-1.172-0.03c-0.33,0-0.654,0.016-0.983,0.03v-0.236h0.179c0.246,0,0.377-0.007,0.377-0.299v-2.559h-0.556
		v-0.143c0.188-0.085,0.368-0.195,0.556-0.313v-0.551c0-0.553,0.24-1.001,0.627-1.379c0.366-0.363,0.627-0.536,0.918-0.536
		c0.316,0,0.545,0.127,0.545,0.497c0,0.229-0.142,0.434-0.386,0.434c-0.237,0-0.237-0.395-0.53-0.395
		c-0.25,0-0.289,0.261-0.289,0.536v1.41h0.883v0.439h-0.883V30.333z"/>
	<path clip-path="url(#SVGID_12_)" fill="#98846D" d="M124.288,29.105c-0.432,0.139-1.157,0.289-1.157,0.841
		c0,0.337,0.175,0.511,0.481,0.511c0.361,0,0.591-0.298,0.676-0.419V29.105z M124.288,28.395c0-0.458-0.268-0.639-0.62-0.639
		c-0.458,0-0.575,0.117-0.608,0.559c-0.017,0.213-0.439,0.316-0.56,0.316c-0.085,0-0.147-0.065-0.147-0.184
		c0-0.307,0.188-0.535,0.434-0.66c0.257-0.135,0.549-0.285,0.85-0.458c0.174-0.103,0.314-0.108,0.473-0.108
		c0.693,0,1.061,0.36,1.061,1.049v1.604c0,0.34,0.025,0.582,0.246,0.582c0.073,0,0.174-0.055,0.221-0.102l0.102,0.141
		c-0.235,0.291-0.447,0.495-0.826,0.495s-0.566-0.258-0.6-0.62c-0.346,0.338-0.699,0.62-1.205,0.62
		c-0.471,0-0.857-0.289-0.857-0.809c0-0.614,0.503-0.805,1.064-1.008l0.975-0.34V28.395z"/>
	<path clip-path="url(#SVGID_12_)" fill="#98846D" d="M126.95,26.12c-0.268,0-0.48-0.214-0.48-0.482c0-0.26,0.213-0.479,0.48-0.479
		s0.482,0.22,0.482,0.479C127.432,25.906,127.217,26.12,126.95,26.12 M127.391,30.449c0,0.187,0.182,0.187,0.379,0.187h0.115v0.238
		c-0.297-0.015-0.596-0.031-0.896-0.031c-0.323,0-0.64,0.017-0.944,0.031v-0.238h0.055c0.227,0,0.408,0,0.408-0.233v-2.228
		c0-0.127-0.014-0.175-0.188-0.221c-0.096-0.023-0.182-0.055-0.275-0.079v-0.188c0.242-0.062,0.512-0.157,0.713-0.229
		c0.183-0.065,0.375-0.168,0.545-0.237l0.088,0.069V30.449z"/>
	<path clip-path="url(#SVGID_12_)" fill="#98846D" d="M129.619,30.457c0,0.18,0.214,0.18,0.583,0.18h0.117v0.236
		c-0.367-0.008-0.737-0.03-1.107-0.03c-0.334,0-0.654,0.022-0.986,0.03v-0.236h0.08c0.268,0,0.434-0.03,0.434-0.203V28.29
		c0-0.259-0.049-0.336-0.245-0.368c-0.087-0.016-0.164-0.031-0.251-0.048v-0.187c0.416-0.081,0.841-0.262,1.291-0.466l0.085,0.046
		v0.544h0.017c0.141-0.229,0.498-0.59,0.905-0.59c0.269,0,0.505,0.125,0.505,0.466c0,0.298-0.198,0.464-0.441,0.464
		c-0.308,0-0.308-0.301-0.552-0.301c-0.19,0-0.434,0.148-0.434,0.537V30.457z"/>
	<path clip-path="url(#SVGID_12_)" fill="#98846D" d="M133.518,28.284c-0.041-0.442-0.205-0.78-0.709-0.78
		c-0.268,0-0.533,0.166-0.533,0.474c0,0.858,1.627,0.662,1.627,1.857c0,0.851-0.684,1.157-1.338,1.157
		c-0.379,0-0.662-0.112-0.93-0.204l-0.068-0.875l0.22-0.046c0.046,0.432,0.306,0.841,0.769,0.841c0.309,0,0.592-0.172,0.592-0.519
		c0-0.757-1.58-0.629-1.58-1.843c0-0.693,0.535-1.126,1.257-1.126c0.356,0,0.631,0.078,0.93,0.188
		c-0.021,0.284-0.038,0.561-0.017,0.836L133.518,28.284z"/>
	<path clip-path="url(#SVGID_12_)" fill="#98846D" d="M12.99,19.306c0,0.624,0,1.141,1.252,1.141c1.652,0,2.194-1.126,2.194-1.987
		c0-1.986-1.237-2.43-2.613-2.43H12.99V19.306z M12.99,15.583h0.529c1.124,0,2.11-0.36,2.11-2.11c0-1.597-0.943-1.835-2.056-1.835
		c-0.18,0-0.374,0.016-0.583,0.028V15.583z M10.364,20.531c0.695,0.04,1.264-0.14,1.264-0.932v-7.042
		c0-0.974-0.527-0.987-1.264-1.001v-0.361c0.391,0,0.78,0.024,1.154,0.024h0.43c0.792,0,1.305-0.024,1.807-0.024
		c1.027,0,3.237,0.292,3.237,2.25c0,1.294-1.169,1.959-2.238,2.209v0.028c1.041-0.058,3.127,0.639,3.127,2.598
		c0,1.485-1.279,2.611-3.737,2.611c-0.653,0-1.305-0.026-1.96-0.026c-0.611,0-1.222,0.013-1.82,0.026V20.531z"/>
	<path clip-path="url(#SVGID_12_)" fill="#98846D" d="M21.478,15.584h1.834c1.125,0,1.125-0.877,1.167-1.194h0.277
		c-0.027,0.304-0.056,1.056-0.056,1.556c0,0.446,0.071,1.096,0.056,1.539h-0.277c0-1.331-0.444-1.331-1.515-1.331h-1.486v2.362
		c0,1.541,0.055,1.93,1.43,1.93h0.863c1.36-0.068,1.972-0.25,2.514-1.737l0.332,0.058c-0.222,0.692-0.432,1.403-0.57,2.125
		c-1.387,0-2.777-0.027-4.166-0.027c-1.029,0-2.056,0-3.083,0.027V20.53c1.209,0,1.318-0.223,1.318-1.569v-6.169
		c0-1.139-0.223-1.192-1.318-1.235v-0.362c0.93,0.026,1.876,0.026,2.806,0.026c1.331,0,2.651,0,4-0.026v2.071l-0.278,0.067
		c-0.208-1.304-0.833-1.693-2.223-1.693h-1.625V15.584z"/>
	<path clip-path="url(#SVGID_12_)" fill="#98846D" d="M30.799,11.638c-0.349,0-0.584,0.043-0.834,0.082v4.071
		c0.209,0.042,0.499,0.07,0.736,0.07c1.707,0,2.376-1.124,2.376-2.125C33.078,12.528,32.439,11.638,30.799,11.638 M29.965,16.306
		v3.222c0,0.972,0.527,0.989,1.263,1.003v0.36c-0.666,0-1.261-0.027-1.876-0.027c-0.665,0-1.319,0.013-2.013,0.027v-0.36
		c0.694,0.04,1.264-0.141,1.264-0.932v-7.043c0-0.973-0.527-0.986-1.264-1v-0.361c0.765,0.013,1.431,0.024,2.111,0.024
		c0.488,0,0.973-0.024,1.862-0.024c2.625,0,3.209,1.472,3.209,2.458c0,1.181-0.888,2.058-1.974,2.377
		c1.265,1.847,1.932,2.958,2.529,3.626c0.445,0.498,0.861,0.875,1.57,0.875v0.36c-0.347,0-0.695-0.027-1.041-0.027
		c-0.388,0-0.792,0.013-1.182,0.027c-1.263-1.39-2.194-3.015-3.195-4.585H29.965z"/>
	<path clip-path="url(#SVGID_12_)" fill="#98846D" d="M42.621,12.638c0.152-0.151,0.512-0.514,0.512-0.762
		c0-0.32-0.403-0.32-0.778-0.32l0.001-0.361c0.598,0.013,1.208,0.024,1.792,0.024c0.457,0,0.889-0.012,1.333-0.024v0.361
		c-0.777,0-1.236,0.124-2.487,1.431l-2.376,2.486c1.405,1.541,2.765,3.11,4.21,4.611c0.459,0.446,0.904,0.446,1.195,0.446v0.36
		c-0.444-0.014-0.904-0.026-1.348-0.026c-0.333,0-0.666,0.013-1,0.026c-1.375-1.669-2.873-3.208-4.323-4.82L42.621,12.638z
		 M36.675,20.531c0.736-0.014,1.262-0.03,1.262-1.003v-6.971c0-0.974-0.526-0.987-1.262-1.001v-0.361
		c0.654,0.013,1.29,0.024,1.916,0.024c0.641,0,1.279-0.012,1.765-0.024v0.361c-0.529,0.014-1.056,0.027-1.056,1.001v6.971
		c0,0.973,0.527,0.989,1.112,1.003v0.36c-0.514,0-1.112-0.026-1.723-0.026c-0.667,0-1.32,0.013-2.014,0.026V20.531z"/>
	<path clip-path="url(#SVGID_12_)" fill="#98846D" d="M54.052,20.891c-1.181-0.026-2.348-0.026-3.528-0.026
		c-1.237,0-2.459,0-3.68,0.026v-0.36c0.692,0.04,1.263-0.14,1.263-0.931v-7.043c0-0.974-0.528-0.988-1.263-1.001v-0.362
		c0.65,0.015,1.292,0.026,1.916,0.026c0.638,0,1.277-0.012,1.973-0.026v0.362c-0.737,0.013-1.266,0.027-1.266,1.001v6.431
		c0,1.028,0.223,1.458,2.197,1.458c1.609,0,2.165-0.389,2.597-1.736l0.304,0.056L54.052,20.891z"/>
	<path clip-path="url(#SVGID_12_)" fill="#98846D" d="M57.956,15.584h1.831c1.127,0,1.127-0.877,1.17-1.194h0.276
		c-0.028,0.304-0.055,1.056-0.055,1.556c0,0.446,0.069,1.096,0.055,1.539h-0.276c0-1.331-0.445-1.331-1.516-1.331h-1.485v2.362
		c0,1.541,0.055,1.93,1.43,1.93h0.862c1.361-0.068,1.972-0.25,2.514-1.737l0.333,0.058c-0.222,0.692-0.43,1.403-0.571,2.125
		c-1.387,0-2.777-0.027-4.167-0.027c-1.027,0-2.056,0-3.084,0.027V20.53c1.212,0,1.323-0.223,1.323-1.569v-6.169
		c0-1.139-0.225-1.192-1.323-1.235v-0.362c0.931,0.026,1.878,0.026,2.809,0.026c1.332,0,2.652,0,4.001-0.026v2.071l-0.278,0.067
		c-0.209-1.304-0.835-1.693-2.225-1.693h-1.624V15.584z"/>
	<path clip-path="url(#SVGID_12_)" fill="#98846D" d="M69.206,19.529c0,0.971,0.53,0.988,1.265,1.002v0.36
		c-0.694-0.015-1.334-0.027-1.971-0.027c-0.626,0-1.266,0.013-1.92,0.027v-0.36c0.739-0.014,1.265-0.031,1.265-1.002v-3.359
		l-2.905-4.003c-0.4-0.568-0.471-0.542-1.289-0.61v-0.361c0.264,0.014,1.289,0.025,1.93,0.025c0.572,0,1.128-0.025,1.695-0.025
		v0.361c-0.223,0-0.778,0-0.778,0.291c0,0.166,0.196,0.487,0.459,0.862l1.944,2.736l1.82-2.486c0.167-0.237,0.541-0.681,0.541-1.002
		c0-0.401-0.278-0.401-0.987-0.401v-0.361c0.53,0.014,1.07,0.025,1.598,0.025c0.376,0,0.751-0.025,1.139-0.025v0.361
		c-0.583,0.014-0.846,0.39-1.154,0.806l-2.652,3.584V19.529z"/>
	<path clip-path="url(#SVGID_12_)" fill="#98846D" d="M86.696,13.708h-0.348c-0.266-1.625-1.417-2.277-2.973-2.277
		c-1.6,0-3.92,1.068-3.92,4.402c0,2.807,2.002,4.82,4.142,4.82c1.375,0,2.515-0.943,2.791-2.402l0.322,0.083l-0.322,2.029
		c-0.581,0.359-2.151,0.736-3.067,0.736c-3.252,0-5.309-2.101-5.309-5.227c0-2.845,2.542-4.889,5.268-4.889
		c1.125,0,2.207,0.363,3.276,0.736L86.696,13.708z"/>
	<path clip-path="url(#SVGID_12_)" fill="#98846D" d="M90.362,15.584h1.836c1.123,0,1.123-0.877,1.164-1.194h0.279
		c-0.029,0.304-0.059,1.056-0.059,1.556c0,0.446,0.072,1.096,0.059,1.539h-0.279c0-1.331-0.443-1.331-1.512-1.331h-1.488v2.362
		c0,1.541,0.057,1.93,1.434,1.93h0.859c1.36-0.068,1.973-0.25,2.515-1.737l0.332,0.058c-0.22,0.692-0.431,1.403-0.569,2.125
		c-1.39,0-2.779-0.027-4.167-0.027c-1.028,0-2.056,0-3.084,0.027V20.53c1.209,0,1.317-0.223,1.317-1.569v-6.169
		c0-1.139-0.219-1.192-1.317-1.235v-0.362c0.931,0.026,1.876,0.026,2.808,0.026c1.334,0,2.651,0,4-0.026v2.071l-0.278,0.067
		c-0.209-1.304-0.833-1.693-2.224-1.693h-1.625V15.584z"/>
	<path clip-path="url(#SVGID_12_)" fill="#98846D" d="M105.782,21.015h-0.32l-7.266-7.975v5.182c0,1.918,0.154,2.309,1.654,2.309
		v0.36c-0.611,0-1.236-0.026-1.848-0.026s-1.236,0.012-1.848,0.026v-0.36c0.848,0,1.486,0,1.486-1.766V13.18
		c0-1.193-0.514-1.624-1.708-1.624v-0.361c0.429,0.013,0.849,0.024,1.276,0.024c0.377,0,0.767-0.024,1.141-0.024
		c0.57,0.848,1.859,2.109,3.443,3.861c1.182,1.308,2.486,2.682,3.432,3.709v-5.529c0-1.278-0.292-1.666-1.682-1.68v-0.361
		c0.642,0.013,1.293,0.024,1.932,0.024c0.543,0,1.068-0.024,1.613-0.024v0.361c-0.85,0-1.307,0.068-1.307,1.431V21.015z"/>
	<path clip-path="url(#SVGID_12_)" fill="#98846D" d="M116.2,13.014h-0.376c-0.042-0.751,0-1.249-1.11-1.249h-2.111v7.764
		c0,0.971,0.527,0.988,1.264,1.002v0.36c-0.669,0-1.264-0.026-1.876-0.026c-0.668,0-1.319,0.012-2.015,0.026v-0.36
		c0.736-0.014,1.266-0.031,1.266-1.002v-7.764h-1.82c-1.25,0-1.304,0.347-1.541,1.249h-0.361l0.152-2.209h0.278
		c0.151,0.375,0.528,0.39,0.876,0.39h6.307c0.498,0,0.848-0.125,0.902-0.39h0.292L116.2,13.014z"/>
	<path clip-path="url(#SVGID_12_)" fill="#98846D" d="M119.67,15.584h1.836c1.125,0,1.125-0.877,1.166-1.194h0.278
		c-0.028,0.304-0.058,1.056-0.058,1.556c0,0.446,0.072,1.096,0.058,1.539h-0.278c0-1.331-0.445-1.331-1.514-1.331h-1.488v2.362
		c0,1.541,0.059,1.93,1.432,1.93h0.863c1.36-0.068,1.971-0.25,2.512-1.737l0.336,0.058c-0.223,0.692-0.434,1.403-0.569,2.125
		c-1.39,0-2.78-0.027-4.168-0.027c-1.026,0-2.058,0-3.085,0.027V20.53c1.209,0,1.32-0.223,1.32-1.569v-6.169
		c0-1.139-0.223-1.192-1.32-1.235v-0.362c0.932,0.026,1.874,0.026,2.807,0.026c1.334,0,2.653,0,4-0.026v2.071l-0.279,0.067
		c-0.205-1.304-0.832-1.693-2.223-1.693h-1.625V15.584z"/>
	<path clip-path="url(#SVGID_12_)" fill="#98846D" d="M128.993,11.638c-0.348,0-0.584,0.043-0.834,0.082v4.071
		c0.207,0.042,0.5,0.07,0.737,0.07c1.708,0,2.375-1.124,2.375-2.125C131.271,12.528,130.631,11.638,128.993,11.638 M128.159,16.306
		v3.222c0,0.972,0.526,0.989,1.266,1.003v0.36c-0.668,0-1.266-0.027-1.877-0.027c-0.666,0-1.316,0.013-2.014,0.027v-0.36
		c0.697,0.04,1.264-0.141,1.264-0.932v-7.043c0-0.973-0.526-0.986-1.264-1v-0.361c0.764,0.013,1.43,0.024,2.112,0.024
		c0.485,0,0.972-0.024,1.86-0.024c2.625,0,3.209,1.472,3.209,2.458c0,1.181-0.889,2.058-1.971,2.377
		c1.262,1.847,1.93,2.958,2.527,3.626c0.445,0.498,0.859,0.875,1.568,0.875v0.36c-0.346,0-0.695-0.027-1.041-0.027
		c-0.389,0-0.791,0.013-1.18,0.027c-1.265-1.39-2.195-3.015-3.195-4.585H128.159z"/>
</g>
<rect x="9.92" y="35.958" fill="#98846D" width="124.9" height="0.462"/>
</svg>
