<svg id="Layer_1" data-name="Layer 1" xmlns="http://www.w3.org/2000/svg" viewBox="0 0 3240 936"><defs><style>.cls-1{fill:#fff;}</style></defs><title>BerkleyCenter_Logo_whitetext</title><path class="cls-1" d="M293.89,788.74v-.19c0-24,18.68-43.7,44.24-43.7,15.22,0,24.36,4.08,33.18,11.63l-11.73,14.07c-6.47-5.42-12.3-8.57-22-8.57C324,762,313.3,773.89,313.3,788.3v.25c0,15.42,10.61,26.72,25.57,26.72,6.72,0,12.75-1.67,17.47-5.06v-12H337.66v-16h36.65v36.63a54.7,54.7,0,0,1-36,13.42C311.94,832.21,293.89,813.74,293.89,788.74Z"/><path class="cls-1" d="M441.63,746.31h63.68v16.55H460.09v17.08h39.8v16.55h-39.8v17.72H506v16.53H441.63Z"/><path class="cls-1" d="M568.15,788.74v-.19c0-24,18.92-43.7,45.05-43.7s44.7,19.42,44.7,43.45v.25c0,24-18.95,43.66-45,43.66S568.15,812.79,568.15,788.74Zm70.34,0v-.19c0-14.51-10.61-26.57-25.55-26.57s-25.35,11.84-25.35,26.32v.25C587.59,803,598.21,815,613.2,815S638.49,803.22,638.49,788.74Z"/><path class="cls-1" d="M723.87,746.31H762.5c10.73,0,19.07,3,24.56,8.55,4.76,4.72,7.27,11.35,7.27,19.3v.26c0,13.64-7.34,22.24-18.07,26.14l20.64,30.18H775.15l-18.08-27H742.48v27H723.87Zm37.4,41c9.05,0,14.24-4.78,14.24-12v-.26c0-7.92-5.57-12-14.61-12H742.48v24.22Z"/><path class="cls-1" d="M856.81,788.74v-.19c0-24,18.7-43.7,44.28-43.7,15.15,0,24.35,4.08,33.14,11.63l-11.71,14.07c-6.51-5.42-12.28-8.57-22-8.57-13.49,0-24.25,11.91-24.25,26.32v.25c0,15.42,10.62,26.72,25.57,26.72,6.78,0,12.77-1.67,17.5-5.06v-12H900.58v-16h36.68v36.63a54.7,54.7,0,0,1-36,13.42C874.92,832.21,856.81,813.74,856.81,788.74Z"/><path class="cls-1" d="M1004.57,746.31h63.69v16.55H1023v17.08h39.79v16.55H1023v17.72h45.79v16.53h-64.26Z"/><path class="cls-1" d="M1154.53,763.48h-25.7V746.31h70v17.17h-25.67v67.26h-18.58Z"/><path class="cls-1" d="M1255.09,788.74v-.19c0-24,19-43.7,45-43.7s44.71,19.42,44.71,43.45v.25c0,24-18.9,43.66-45,43.66S1255.09,812.79,1255.09,788.74Zm70.32,0v-.19c0-14.51-10.61-26.57-25.58-26.57s-25.34,11.84-25.34,26.32v.25c0,14.47,10.67,26.48,25.6,26.48S1325.41,803.22,1325.41,788.74Z"/><path class="cls-1" d="M1399.47,746.31h19.89l17.5,57.16,18.94-57.37h15.92l18.94,57.37,17.5-57.16h19.41l-28.83,85h-16.15l-19-55.22-19.07,55.22h-16.18Z"/><path class="cls-1" d="M1590.8,746.31h17.1l39.59,52v-52h18.32v84.43H1650l-40.94-53.63v53.63H1590.8Z"/><path class="cls-1" d="M1819.84,794.57V746.31h18.53v47.74c0,13.79,6.91,20.87,18.28,20.87s18.17-6.85,18.17-20.25V746.31h18.61v47.63c0,25.61-14.37,38.17-37,38.17S1819.84,819.4,1819.84,794.57Z"/><path class="cls-1" d="M1961.77,746.31h17.16l39.58,52v-52h18.35v84.43H2021l-40.92-53.63v53.63h-18.35Z"/><path class="cls-1" d="M2107.4,746.31H2126v84.43H2107.4Z"/><path class="cls-1" d="M2189.27,746.31h20.55l22,59.45L2254,746.31h20l-34.16,85h-16.36Z"/><path class="cls-1" d="M2336.48,746.31h63.68v16.55h-45.22v17.08h39.79v16.55h-39.79v17.72h45.82v16.53h-64.28Z"/><path class="cls-1" d="M2466.76,746.31h38.58c10.72,0,19.06,3,24.58,8.55,4.73,4.72,7.27,11.35,7.27,19.3v.26c0,13.64-7.39,22.24-18.11,26.14l20.62,30.18H2518l-18.11-27h-14.6v27h-18.53Zm37.35,41c9,0,14.26-4.78,14.26-12v-.26c0-7.92-5.6-12-14.63-12h-18.45v24.22Z"/><path class="cls-1" d="M2597.6,818.44l11-13.13c7.61,6.22,15.56,10.22,25.22,10.22,7.6,0,12.17-3,12.17-7.95v-.2c0-4.73-2.88-7.17-17-10.72-17-4.38-28-9.1-28-25.84v-.27c0-15.32,12.29-25.45,29.57-25.45a48.86,48.86,0,0,1,31.38,10.73l-9.69,14c-7.42-5.18-14.83-8.28-21.92-8.28s-10.87,3.22-10.87,7.33v.22c0,5.56,3.65,7.35,18.22,11.12,17.13,4.45,26.79,10.61,26.79,25.33v.22c0,16.81-12.8,26.19-31,26.19A53.65,53.65,0,0,1,2597.6,818.44Z"/><path class="cls-1" d="M2730.87,746.31h18.59v84.43h-18.59Z"/><path class="cls-1" d="M2839.71,763.48H2814V746.31H2884v17.17h-25.69v67.26h-18.55Z"/><path class="cls-1" d="M2971.43,797.46,2939,746.31h21.72l20.12,33.9,20.54-33.9h21.09L2990,797.1v33.64h-18.55Z"/><path class="cls-1" d="M310.82,477.68H296.58l1.62-7.4h14.55C317.18,441.52,336.1,424,353.91,424c3.81,0,6.61,2.22,6.61,5.88,0,4.55-1.16,9.69-5.44,9.69-4.87,0-7-4.73-13.53-4.73s-7.92,9-9.42,17.5l-3.06,17.93h16.87l-1.58,7.4H327.17c-6.22,30.73-15.9,60.27-24.84,90l-10,3.62-1.63-1.16Z"/><path class="cls-1" d="M413.41,496.47c0,21.47-16,42.06-40,42.06-18.07,0-28.84-13.68-28.84-28.39,0-23.8,19-42,40.13-42C404.19,468.13,413.41,480.78,413.41,496.47Zm-16.45-7c0-7.63-1.46-15.72-11.77-15.72-17.34,0-24.1,28.78-24.1,42.43,0,9.28,2.22,16.78,11.77,16.78C390.66,532.92,397,502.25,397,489.43Z"/><path class="cls-1" d="M436.05,499.72C437,496.22,439,489,439,486.93c0-1.35-.15-3.27-2-3.27-3.69,0-9.31,5.92-11.48,8.47l-2.65-3.28c5-6.47,17.95-20.72,26.45-20.72,4.54,0,6.16,2.5,6.16,6.6,0,7.65-4.68,19.28-6.6,26.46l.28.31c5.91-8.81,17.65-33.37,29.4-33.37,4,0,6.16,1.87,6.16,5.73,0,4.51-2.17,10.73-7.17,10.73-3,0-4.13-.93-6.62-.93-7.49,0-18.65,19.15-26.47,39-1.92,4.79-3.2,10.84-3.95,12.16-1.38,1.92-3.24,2.22-7.81,2.22-5.44,0-6.74-1.32-6.74-2.66a106,106,0,0,1,2.92-10.84Z"/><path class="cls-1" d="M566.44,433.49c0-12.7-6.92-13.19-12.33-13.19H551v-5.23c5.55,0,16.33.68,26.92.68s18.74-.68,28-.68c21.85,0,41.34,5.89,41.34,30.54,0,15.69-10.43,25.23-24.18,30.6l29.69,44.45c4.89,7.32,8.35,9.36,16.89,10.4v5.24c-5.74,0-11.32-.69-17-.69-5.38,0-10.94.69-16.32.69C622.91,518.76,611.47,500,600.13,480H588.7v37.17c0,13.42,6.26,13.88,14.22,13.88h3.16v5.24c-9.91,0-20-.69-29.9-.69-8.32,0-16.49.69-25.19.69v-5.24h3.12c6.45,0,12.33-2.92,12.33-9.31Zm22.26,40.29h8.49c17.38,0,26.76-6.57,26.76-27.1,0-15.44-9.86-25.33-25.34-25.33a91,91,0,0,0-9.91.66Z"/><path class="cls-1" d="M747,517.18c-7,12.21-18.77,21.72-33.39,21.72-21.85,0-33.66-20.14-33.66-39.95,0-21.9,14.74-43.23,38.36-43.23,17.89,0,27.64,13.21,27.27,30.45l-2,1.88H696.55c0,17.66,8.14,35.21,26.94,35.21a26.34,26.34,0,0,0,20.66-9.38ZM716.72,482.8c9.37,0,10.76-.13,10.76-6.4,0-6.62-4.32-14.45-12.14-14.45C704.69,462,698.8,472,696.9,482.8Z"/><path class="cls-1" d="M765.35,427.24c0-3.84-.54-5.39-4.54-6.94-1.88-.73-3.78-1.62-5.72-2.32v-4.13a171.47,171.47,0,0,0,27.81-10.27l1.9,1.59V525.72c0,5,4.16,5.34,9,5.34h1.92v5.24c-6.63-.32-13.19-.69-20-.69-7.12,0-14.21.37-20.67.69v-5.24c5.55,0,10.26,0,10.26-5.34Z"/><path class="cls-1" d="M833.93,526.93c0,4.13,4.06,4.13,8.37,4.13h2.55v5.24c-6.54-.32-13.18-.69-19.74-.69-7.11,0-14.09.37-20.86.69v-5.24h1.21c5,0,9,0,9-5.17V476.75c0-2.79-.32-3.86-4.19-4.86-2-.51-4-1.23-6-1.78V466c5.38-1.4,11.28-3.49,15.84-5.08,4-1.42,8.12-3.66,11.92-5.19l1.92,1.53Zm-9.71-95.51a10.6,10.6,0,1,1,10.61-10.63A10.55,10.55,0,0,1,824.22,431.42Z"/><path class="cls-1" d="M871.79,507.83c-9.86-4.52-17-13-17-24.34,0-17.5,17.38-27.77,33.35-27.77,8,0,14.43,1.19,21.18,4.5,2.08,1.08,5.24,1.08,7.83,1.08h15.13V470H918.91a32.55,32.55,0,0,1,2.78,13.53c0,16.71-16.32,27.47-32.83,27.47a42.62,42.62,0,0,1-11.34-1.56l-4.11,3.48c-.56,8.87,6.43,9.06,13.15,9.06,7.67,0,15.32-.93,22.94-.93,12,0,22.78,5.4,22.78,18.79,0,26.72-26.72,36.13-45.19,36.13-16.33,0-33.32-5.78-33.32-18.57,0-11.5,7.62-15,20.48-20.34v-.34c-11.8-1.07-17.57-6.66-17.57-18.42ZM896.5,538.9C885.75,538.9,868,541,868,554.24c0,11.57,9.5,15.45,22.2,15.45,11.66,0,27.8-6.24,27.8-18.23C918,540.13,905.85,538.9,896.5,538.9Zm-7.29-34.19c10.58,0,13-10.59,13-19.3,0-8.49-3.09-24.5-14.23-24.5-11.31,0-13.73,12-13.73,20.87C874.25,490.45,878.23,504.71,889.21,504.71Z"/><path class="cls-1" d="M970.89,526.93c0,4.13,3.92,4.13,8.26,4.13h2.65v5.24c-6.6-.32-13.23-.69-19.83-.69-7.09,0-14.09.37-20.83.69v-5.24h1.19c5.06,0,9,0,9-5.17V476.75c0-2.79-.32-3.86-4.16-4.86-2.09-.51-4-1.23-6.07-1.78V466c5.37-1.4,11.28-3.49,15.79-5.08,4-1.42,8.17-3.66,12-5.19l2,1.53Zm-9.76-95.51a10.6,10.6,0,1,1,10.57-10.63A10.59,10.59,0,0,1,961.13,431.42Z"/><path class="cls-1" d="M1034.58,455.72c25.19,0,41.87,16.17,41.87,40.5,0,23.56-18.42,42.68-41.87,42.68-24.49,0-41.55-17.7-41.55-41.64C993,473.78,1010.23,455.72,1034.58,455.72Zm-20.33,42c0,14.62,4.5,34.91,21.37,34.91,16.17,0,19.61-16.7,19.61-32.3,0-12.49-4.17-38.41-21-38.41C1015.82,462,1014.25,483.66,1014.25,497.75Z"/><path class="cls-1" d="M1087.75,531.06h1.19c5.06,0,9,0,9-5.17V476.75c0-2.79-.34-3.86-4.16-4.86-2.06-.51-4-1.23-6.06-1.78V466c5.38-1.4,11.27-3.49,15.8-5.08,4-1.42,8.15-3.66,12-5.19l1.9,1.53V468.4c7.65-5.24,16.53-12.68,27.09-12.68,12.52,0,21.54,6.09,21.54,22.39V526.2c0,4.86,4.37,4.86,8.54,4.86h2.08v5.24c-6.6-.32-13-.69-19.64-.69-6.93,0-13.7.37-20.69.69v-5.24h1.75c3.45,0,8.49,0,8.49-4.49V483.15c0-10.59-5.38-14.56-13.16-14.56-5.75,0-12.19,3.44-16,5.87v52.47c0,4.13,4,4.13,8.33,4.13h2.61v5.24c-6.59-.32-13.22-.69-19.81-.69-7.12,0-14,.37-20.82.69Z"/><path class="cls-1" d="M1187.6,561.49c8-2.1,19.66-7.25,19.66-17.16,0-12.75-15.48-6.14-15.48-19.84,0-6.94,5.75-13.21,12.87-13.21,11.3,0,16.81,9.73,16.81,20,0,18.89-13.9,30.39-31.06,34.9Z"/><path class="cls-1" d="M1323.75,516.7c0,14,7.63,14.36,16.49,14.36H1343v5.24c-8.9,0-17.55-.69-26.39-.69-9.56,0-18.94.69-28.86.69v-5.24h2.81c5.19,0,10.92-.15,10.92-14V434c0-11.62-3.32-13.69-11.63-13.69h-2.1v-5.23c6.26,0,15.44.68,24.31.68,9.06,0,17.56-.68,25.38-.68,23.66,0,40.85,7.8,40.85,33.18,0,20.34-14.44,33.38-33.6,35.24-5.37.33-9.87.33-13.84.33v-5.17h3.66c14,0,20.46-12.52,20.46-29.69,0-16.73-8.34-27.61-26.23-27.61h-5Z"/><path class="cls-1" d="M1454.9,517.18c-7,12.21-18.77,21.72-33.36,21.72-21.88,0-33.71-20.14-33.71-39.95,0-21.9,14.79-43.23,38.4-43.23,17.87,0,27.62,13.21,27.26,30.45l-2.08,1.88h-46.89c0,17.66,8.18,35.21,26.88,35.21a26.38,26.38,0,0,0,20.72-9.38Zm-30.23-34.38c9.37,0,10.77-.13,10.77-6.4,0-6.62-4.37-14.45-12.15-14.45-10.59,0-16.53,10.08-18.44,20.85Z"/><path class="cls-1" d="M1512.05,481.63c0-10.1-5.94-14.11-13.75-14.11-10,0-12.65,2.59-13.37,12.32-.33,4.73-9.71,7-12.36,7-1.9,0-3.28-1.42-3.28-4,0-6.77,4.22-11.79,9.57-14.56,5.74-3,12.16-6.29,18.76-10.12,3.8-2.27,7-2.4,10.39-2.4,15.3,0,23.49,8,23.49,23.12v35.42c0,7.49.52,12.84,5.38,12.84a8.59,8.59,0,0,0,4.87-2.25L1544,528c-5.21,6.42-9.87,10.92-18.21,10.92s-12.51-5.72-13.21-13.68c-7.64,7.44-15.46,13.68-26.58,13.68-10.38,0-18.94-6.39-18.94-17.89,0-13.51,11.14-17.7,23.46-22.2l21.56-7.48Zm0,15.63c-9.58,3.1-25.55,6.41-25.55,18.56,0,7.44,3.83,11.28,10.59,11.28,8,0,13.06-6.57,15-9.22Z"/><path class="cls-1" d="M1622.85,517.88c-8.34,12.14-16.85,21-32.84,21-23.26,0-36.47-15.76-36.47-38.7,0-24.3,19.63-44.48,43.94-44.48,11.65,0,22.74,2.78,22.74,13a9.14,9.14,0,0,1-9.32,9.21c-9.23,0-7.67-14.58-20.51-14.58-12.36,0-18.43,10.07-18.43,24.51,0,16.62,7.47,37.14,26.75,37.14,9.4,0,13.9-3.65,21-10.56Z"/><path class="cls-1" d="M1698.6,517.18c-7,12.21-18.78,21.72-33.37,21.72-21.87,0-33.67-20.14-33.67-39.95,0-21.9,14.74-43.23,38.38-43.23,17.86,0,27.64,13.21,27.28,30.45l-2.12,1.88h-46.87c0,17.66,8.15,35.21,26.9,35.21a26.27,26.27,0,0,0,20.67-9.38Zm-30.24-34.38c9.41,0,10.75-.13,10.75-6.4,0-6.62-4.31-14.45-12.14-14.45-10.59,0-16.48,10.08-18.44,20.85Z"/><path class="cls-1" d="M1860.29,445.82c7.94.36,16.13.67,24.11.67,8.17,0,16.18-.31,24.31-.67v5.23a76,76,0,0,0-9.36.69c-17.57,1.2-32.48,33-42.56,45.15,7.31,10.94,19.78,29.31,34.56,29.31,8.29,0,13.19-3.78,18.4-10.06l3.63,2.79c-7.42,11.28-19.05,21.2-33.13,21.2-17.9,0-27.81-13.56-36.68-27.25-10.57,13.53-25.37,26-43.41,26-20.5,0-35.26-15.27-35.26-35.76,0-16.86,13.19-30.9,27.26-38.4-8-5.88-13-14.05-13-24.14,0-15.45,14.78-25.53,29.17-25.53,11.15,0,24.7,4.89,24.7,18.05,0,12.7-9.92,18.09-19.51,23.79,15.87,8.72,29.37,21.37,39.83,35.46,4.15-6.81,18.24-28.16,18.24-35.12,0-6.2-6.61-6.56-11.27-6.4Zm-78.71,46.55c0,16.84,14.38,29.89,31.09,29.89,12.86,0,19.47-4.86,28-13.76a146.62,146.62,0,0,0-44.49-41C1788,473.78,1781.58,481.63,1781.58,492.37Zm38.18-56.81c0-7.81-5.56-14.21-13.71-14.21a12.62,12.62,0,0,0-12.66,12.79c0,9.57,7.84,16.19,15.49,20.32C1815.11,449.76,1819.76,443.71,1819.76,435.56Z"/><path class="cls-1" d="M2070,484.57l-22.89,54.33h-5.92L1997.4,435.72c-3.45-8.15-5.7-15.42-15.11-15.42h-2.59v-5.23c6.6,0,16.66.68,25,.68,7.27,0,16.33-.68,21.89-.68v5.23H2025c-4,0-7.46.66-7.46,4,0,2.24,1.54,7.48,5.93,17.88L2052,509,2066,475.15,2044.32,425c-1.73-4-6.09-4.69-10.57-4.69v-5.23c8.12,0,16.28.68,24.46.68,6.46,0,12.69-.68,19.11-.68,5.54,0,11.15.68,16.68.68,5.19,0,10.42-.68,15.67-.68v5.23h-2.46c-8.69,0-10.75,3.27-15.13,13.19l-10.28,23.76,21.45,50.39L2130,434.69c1-2.93,2.59-7.3,2.59-9.54,0-3.8-3.13-4.85-10.38-4.85h-2.11v-5.23c5.71,0,11.45.68,17.2.68,5.19,0,10.26-.68,15.45-.68v5.23h-2.07c-5.21,0-8.19,5.86-10.25,11.22l-41,107.38h-6.12Zm14.3-51.79c1.18-3.3,2.23-5.54,2.23-7.28,0-4.35-4-5.2-9.77-5.2-4.63,0-8.45.85-8.45,4.31,0,2.63,1.36,5.05,2.78,8.32l6.56,15.49h.34Z"/><path class="cls-1" d="M2186.11,455.72c25.16,0,41.85,16.17,41.85,40.5,0,23.56-18.44,42.68-41.85,42.68-24.46,0-41.54-17.7-41.54-41.64C2144.57,473.78,2161.78,455.72,2186.11,455.72Zm-20.31,42c0,14.62,4.49,34.91,21.36,34.91,16.15,0,19.6-16.7,19.6-32.3,0-12.49-4.14-38.41-21-38.41C2167.35,462,2165.8,483.66,2165.8,497.75Z"/><path class="cls-1" d="M2269,527.1c0,4,4.69,4,12.84,4h2.64v5.24c-8.13-.19-16.35-.69-24.53-.69-7.26,0-14.39.5-21.7.69v-5.24H2240c5.9,0,9.54-.65,9.54-4.49V479.32c0-5.72-1-7.43-5.39-8.12l-5.57-1.09V466c9.24-1.78,18.6-5.77,28.52-10.27l1.92,1v12h.35c3.11-5,10.92-13,20-13,5.89,0,11.08,2.78,11.08,10.27,0,6.57-4.33,10.22-9.71,10.22-6.75,0-6.75-6.61-12.14-6.61-4.18,0-9.56,3.29-9.56,11.83Z"/><path class="cls-1" d="M2318,427.24c0-3.84-.55-5.39-4.51-6.94-1.95-.73-3.83-1.62-5.8-2.32v-4.13a171.06,171.06,0,0,0,27.84-10.27l1.92,1.59V525.72c0,5,4.19,5.34,9,5.34h1.93v5.24c-6.61-.32-13.2-.69-20-.69-7.13,0-14.2.37-20.73.69v-5.24c5.61,0,10.31,0,10.31-5.34Z"/><path class="cls-1" d="M2435.88,527.8l10.09-.87v4.36c-2.11.29-8,1.77-13.91,3.48-6.06,1.91-12,3.42-14.08,4.13l-1.36-1V527.29c-8.7,7.48-14.08,11.61-26.22,11.61-16.89,0-30.77-16.16-30.77-36.5,0-27.08,21-46.68,42.56-46.68,6,0,10.22.85,14.28,2.6V422.87l-11.71-4.19v-2.93c9.76-3.28,19.82-7.1,29-12.17l2.08,1.44Zm-19.41-53.34c-3.18-6.42-10.29-11.1-17.24-11.1-15.63,0-20.16,16.65-20.16,30.37,0,18.64,9.43,33.37,23.12,33.37,5.59,0,11.24-2.94,14.28-5.16Z"/><path class="cls-1" d="M2540.93,511.46c-1.7,5.94-3.81,10.48-3.81,13.55,0,5.2,7.31,6,13,6h1.9v5.24c-6.9-.32-14-.69-21-.69-6.26,0-12.47.37-18.75.69v-5.24h1.07c6.77,0,12.44-4,15.07-11.28l27.8-79.7c2.27-6.46,5.39-15.09,6.43-21.54a93.23,93.23,0,0,0,15.82-7.47,4,4,0,0,1,1.38-.36c.49,0,.89,0,1.21.54.51,1.37,1,2.95,1.56,4.34l32,90.87c2.07,6.1,4.1,12.47,6.37,17.7,2.1,4.87,5.71,6.9,11.46,6.9h1v5.24c-7.77-.32-15.61-.69-23.94-.69-8.53,0-17.21.37-26.09.69v-5.24h1.94c4,0,10.78-.65,10.78-5,0-2.24-1.53-6.91-3.47-12.51l-6.79-20.14h-39.42Zm25.37-77H2566l-16.16,49.16h32.44Z"/><path class="cls-1" d="M2673.47,524.36c-.16,6,3.14,6.7,12.52,6.7h3.28v5.24c-8.64-.32-17.19-.69-25.88-.69-7.27,0-14.42.37-21.71.69v-5.24h4c5.41,0,8.32-.15,8.32-6.57V468h-12.32v-3.15A99.58,99.58,0,0,0,2654,458V445.82c0-12.2,5.24-22.07,13.72-30.42,8.18-8,13.93-11.82,20.32-11.82,7,0,12,2.83,12,11,0,5-3.14,9.54-8.54,9.54-5.19,0-5.19-8.69-11.67-8.69-5.53,0-6.4,5.75-6.4,11.84v31.08H2693V468h-19.48Z"/><path class="cls-1" d="M2732.17,524.36c-.17,6,3.12,6.7,12.54,6.7H2748v5.24c-8.67-.32-17.16-.69-25.85-.69-7.31,0-14.45.37-21.72.69v-5.24h4c5.4,0,8.32-.15,8.32-6.57V468h-12.3v-3.15a103.13,103.13,0,0,0,12.3-6.93V445.82c0-12.2,5.26-22.07,13.81-30.42,8.08-8,13.81-11.82,20.25-11.82,7,0,12,2.83,12,11,0,5-3.1,9.54-8.48,9.54s-5.25-8.69-11.67-8.69c-5.55,0-6.42,5.75-6.42,11.84v31.08h19.5V468h-19.5Z"/><path class="cls-1" d="M2806.67,481.63c0-10.1-5.9-14.11-13.68-14.11-10.06,0-12.7,2.59-13.38,12.32-.39,4.73-9.72,7-12.36,7-1.9,0-3.25-1.42-3.25-4,0-6.77,4.15-11.79,9.54-14.56,5.68-3,12.12-6.29,18.73-10.12,3.83-2.27,7-2.4,10.45-2.4,15.29,0,23.4,8,23.4,23.12v35.42c0,7.49.56,12.84,5.42,12.84a8.25,8.25,0,0,0,4.85-2.25l2.25,3.13c-5.19,6.42-9.87,10.92-18.23,10.92s-12.51-5.72-13.2-13.68c-7.64,7.44-15.45,13.68-26.57,13.68-10.41,0-18.93-6.39-18.93-17.89,0-13.51,11.1-17.7,23.49-22.2l21.47-7.48Zm0,15.63c-9.51,3.1-25.52,6.41-25.52,18.56,0,7.44,3.84,11.28,10.61,11.28,8,0,13-6.57,14.91-9.22Z"/><path class="cls-1" d="M2875.14,526.93c0,4.13,4,4.13,8.34,4.13h2.59v5.24c-6.6-.32-13.16-.69-19.81-.69-7.1,0-14.08.37-20.81.69v-5.24h1.2c5,0,9,0,9-5.17V476.75c0-2.79-.33-3.86-4.14-4.86-2.09-.51-4-1.23-6.08-1.78V466c5.35-1.4,11.27-3.49,15.74-5.08,4-1.42,8.24-3.66,12-5.19l1.91,1.53Zm-9.74-95.51A10.6,10.6,0,1,1,2876,420.79,10.55,10.55,0,0,1,2865.4,431.42Z"/><path class="cls-1" d="M2924.26,527.1c0,4,4.73,4,12.88,4h2.61v5.24c-8.17-.19-16.32-.69-24.46-.69-7.37,0-14.44.5-21.76.69v-5.24h1.76c5.91,0,9.56-.65,9.56-4.49V479.32c0-5.72-1.08-7.43-5.41-8.12-1.88-.36-3.63-.72-5.53-1.09V466c9.19-1.78,18.55-5.77,28.47-10.27l1.88,1v12h.39c3.11-5,10.95-13,20-13,5.92,0,11.12,2.78,11.12,10.27,0,6.57-4.35,10.22-9.74,10.22-6.76,0-6.76-6.61-12.14-6.61-4.19,0-9.59,3.29-9.59,11.83Z"/><path class="cls-1" d="M3010.29,479.17c-.92-9.75-4.54-17.22-15.63-17.22-5.91,0-11.8,3.68-11.8,10.44,0,18.94,35.92,14.62,35.92,41,0,18.76-15.08,25.52-29.52,25.52-8.34,0-14.63-2.46-20.51-4.5l-1.53-19.29,4.86-1c1,9.55,6.75,18.58,17,18.58,6.79,0,13.07-3.82,13.07-11.46,0-16.71-34.9-13.89-34.9-40.65,0-15.31,11.8-24.83,27.73-24.83,7.88,0,13.94,1.72,20.53,4.13a120,120,0,0,0-.36,18.43Z"/><path class="cls-1" d="M293.78,308.14c15.33.89,27.87-3.08,27.87-20.5V132.26c0-21.47-11.61-21.77-27.87-22.06v-8c8.61,0,17.19.59,25.44.59h9.5c17.47,0,28.78-.59,39.85-.59,22.66,0,71.42,6.44,71.42,49.64,0,28.55-25.8,43.22-49.38,48.72v.63c23-1.24,69,14.11,69,57.31,0,32.78-28.2,57.6-82.42,57.6-14.4,0-28.8-.61-43.23-.61-13.46,0-27,.29-40.14.61ZM351.7,199h11.66c24.78,0,46.56-7.95,46.56-46.56,0-35.22-20.82-40.45-45.35-40.45-4,0-8.28.3-12.87.6Zm0,82.12c0,13.78,0,25.12,27.6,25.12,36.44,0,48.39-24.83,48.39-43.81,0-43.82-27.27-53.6-57.61-53.6H351.7Z"/><path class="cls-1" d="M538.92,199h40.44c24.82,0,24.82-19.34,25.73-26.32h6.13C610.63,179.43,610,196,610,207c0,9.84,1.56,24.2,1.22,34h-6.13c0-29.38-9.8-29.38-33.39-29.38H538.92V263.7c0,34,1.2,42.58,31.55,42.58h19c30-1.52,43.49-5.51,55.45-38.31l7.33,1.26c-4.91,15.29-9.53,30.94-12.57,46.87-30.61,0-61.29-.61-91.92-.61-22.67,0-45.33,0-68,.61v-8c26.69,0,29.08-4.93,29.08-34.63V137.45c0-25.12-4.9-26.32-29.08-27.25v-8c20.53.59,41.38.59,61.91.59,29.39,0,58.47,0,88.24-.59v45.69l-6.14,1.49c-4.6-28.74-18.38-37.35-49-37.35H538.92Z"/><path class="cls-1" d="M726.13,215V286c0,21.43,11.66,21.8,27.87,22.1v8c-14.69,0-27.83-.61-41.37-.61-14.69,0-29.1.29-44.42.61v-8c15.32.89,27.88-3.08,27.88-20.5V132.26c0-21.47-11.61-21.77-27.88-22.06v-8c16.87.32,31.56.59,46.58.59,10.75,0,21.45-.59,41.05-.59,57.92,0,70.8,32.5,70.8,54.23,0,26.07-19.62,45.39-43.54,52.44,27.89,40.72,42.61,65.25,55.79,80,9.82,11,19,19.31,34.62,19.31v8c-7.67,0-15.32-.61-23-.61-8.55,0-17.45.29-26,.61C796.6,285.45,776.09,249.59,754,215ZM744.52,112a101.2,101.2,0,0,0-18.39,1.82v89.78a92.26,92.26,0,0,0,16.23,1.54c37.67,0,52.41-24.78,52.41-46.89C794.77,131.62,780.71,112,744.52,112Z"/><path class="cls-1" d="M874.14,308.14c16.22-.3,27.84-.67,27.84-22.1V132.26c0-21.47-11.62-21.77-27.84-22.06v-8c14.41.32,28.45.59,42.25.59,14.13,0,28.22-.27,38.94-.59v8c-11.66.29-23.31.59-23.31,22.06V286c0,21.43,11.65,21.8,24.55,22.1v8c-11.36,0-24.55-.61-38-.61-14.7,0-29.1.29-44.4.61Zm131.13-174c3.36-3.37,11.33-11.37,11.33-16.83,0-7.06-8.9-7.06-17.19-7.06l0-8c13.19.32,26.66.59,39.54.59,10.08,0,19.61-.27,29.4-.59v8c-17.15,0-27.25,2.74-54.87,31.54l-52.37,54.87c31,34,61,68.6,92.84,101.72,10.12,9.81,19.93,9.81,26.35,9.81v8c-9.79-.32-19.91-.61-29.74-.61-7.33,0-14.67.29-22,.61-30.34-36.8-63.38-70.77-95.33-106.34Z"/><path class="cls-1" d="M1257.43,316.1c-26-.61-51.79-.61-77.83-.61-27.29,0-54.24,0-81.18.61v-8c15.31.89,27.88-3.08,27.88-20.5V132.26c0-21.47-11.65-21.77-27.88-22.06v-8c14.37.32,28.51.59,42.28.59,14.07,0,28.18-.27,43.51-.59v8c-16.24.29-27.91.59-27.91,22.06V274.12c0,22.66,4.91,32.16,48.44,32.16,35.52,0,47.78-8.56,57.31-38.31l6.71,1.26Z"/><path class="cls-1" d="M1343.53,199h40.41c24.85,0,24.85-19.34,25.78-26.32h6.12c-.65,6.71-1.22,23.27-1.22,34.3,0,9.84,1.5,24.2,1.22,34h-6.12c0-29.38-9.83-29.38-33.43-29.38h-32.76V263.7c0,34,1.19,42.58,31.54,42.58h19c30-1.52,43.51-5.51,55.46-38.31l7.34,1.26c-4.91,15.29-9.5,30.94-12.59,46.87-30.6,0-61.25-.61-91.91-.61-22.66,0-45.33,0-68,.61v-8c26.69,0,29.16-4.93,29.16-34.63V137.45c0-25.12-5-26.32-29.16-27.25v-8c20.53.59,41.41.59,61.94.59,29.39,0,58.5,0,88.24-.59v45.69l-6.13,1.49C1423.8,120.64,1410,112,1379.36,112h-35.83Z"/><path class="cls-1" d="M1591.71,286c0,21.43,11.65,21.8,27.88,22.1v8c-15.3-.32-29.41-.61-43.48-.61-13.81,0-27.92.29-42.33.61v-8c16.27-.3,27.89-.67,27.89-22.1V212l-64.07-88.29c-8.82-12.53-10.38-12-28.43-13.46v-8c5.8.32,28.43.59,42.58.59,12.58,0,24.83-.59,37.37-.59v8c-4.91,0-17.15,0-17.15,6.42,0,3.67,4.31,10.74,10.12,19L1585,196l40.14-54.84c3.68-5.24,12-15,12-22.1,0-8.85-6.13-8.85-21.77-8.85v-8c11.68.32,23.61.59,35.24.59,8.31,0,16.57-.59,25.13-.59v8c-12.86.29-18.67,8.57-25.46,17.75L1591.71,207Z"/><path class="cls-1" d="M1977.47,157.69h-7.66c-5.86-35.86-31.24-50.25-65.56-50.25-35.27,0-86.44,23.58-86.44,97.1,0,61.92,44.15,106.32,91.33,106.32,30.34,0,55.48-20.8,61.57-53l7.09,1.83-7.09,44.73c-12.84,8-47.48,16.23-67.69,16.23-71.72,0-117.07-46.29-117.07-115.26,0-62.75,56.08-107.8,116.15-107.8,24.83,0,48.71,8,72.33,16.22Z"/><path class="cls-1" d="M2058.34,199h40.49c24.79,0,24.79-19.34,25.71-26.32h6.16c-.66,6.71-1.29,23.27-1.29,34.3,0,9.84,1.56,24.2,1.29,34h-6.16c0-29.38-9.81-29.38-33.36-29.38h-32.84V263.7c0,34,1.26,42.58,31.61,42.58h19c30-1.52,43.54-5.51,55.5-38.31l7.32,1.26c-4.88,15.29-9.49,30.94-12.56,46.87-30.64,0-61.31-.61-91.91-.61-22.69,0-45.36,0-68,.61v-8c26.68,0,29.07-4.93,29.07-34.63V137.45c0-25.12-4.85-26.32-29.07-27.25v-8c20.53.59,41.38.59,61.91.59,29.44,0,58.49,0,88.24-.59v45.69l-6.11,1.49c-4.63-28.74-18.41-37.35-49.07-37.35h-35.85Z"/><path class="cls-1" d="M2398.47,318.85h-7L2231.16,142.94V257.25c0,42.28,3.39,50.89,36.49,50.89v8c-13.5,0-27.29-.61-40.75-.61s-27.28.29-40.78.61v-8c18.69,0,32.82,0,32.82-38.91V146c0-26.32-11.34-35.83-37.71-35.83v-8c9.49.32,18.72.59,28.16.59,8.32,0,16.9-.59,25.16-.59,12.57,18.72,41,46.58,76,85.21,26.06,28.81,54.85,59.14,75.68,81.82v-122c0-28.19-6.42-36.75-37.06-37v-8c14.13.32,28.51.59,42.59.59,12,0,23.59-.59,35.58-.59v8c-18.74,0-28.83,1.5-28.83,31.54Z"/><path class="cls-1" d="M2628.28,142.35H2620c-.93-16.54,0-27.55-24.51-27.55h-46.54V286c0,21.43,11.63,21.8,27.85,22.1v8c-14.76,0-27.85-.61-41.38-.61-14.73,0-29.08.29-44.42.61v-8c16.23-.3,27.9-.67,27.9-22.1V114.8h-40.14c-27.59,0-28.78,7.65-34,27.55h-7.95l3.36-48.73h6.16c3.34,8.29,11.65,8.58,19.3,8.58h139.12c11,0,18.71-2.73,19.91-8.58H2631Z"/><path class="cls-1" d="M2704.84,199h40.45c24.85,0,24.85-19.34,25.74-26.32h6.14c-.61,6.71-1.23,23.27-1.23,34.3,0,9.84,1.55,24.2,1.23,34H2771c0-29.38-9.83-29.38-33.37-29.38h-32.82V263.7c0,34,1.27,42.58,31.55,42.58h19.06c30-1.52,43.48-5.51,55.41-38.31l7.39,1.26c-4.87,15.29-9.53,30.94-12.54,46.87-30.68,0-61.31-.61-91.95-.61-22.65,0-45.36,0-68,.61v-8c26.67,0,29.09-4.93,29.09-34.63V137.45c0-25.12-4.87-26.32-29.09-27.25v-8c20.55.59,41.36.59,61.89.59,29.44,0,58.54,0,88.24-.59v45.69l-6.14,1.49c-4.52-28.74-18.39-37.35-49-37.35h-35.83Z"/><path class="cls-1" d="M2892.07,215V286c0,21.43,11.61,21.8,27.9,22.1v8c-14.73,0-27.9-.61-41.4-.61-14.68,0-29,.29-44.39.61v-8c15.35.89,27.86-3.08,27.86-20.5V132.26c0-21.47-11.61-21.77-27.86-22.06v-8c16.83.32,31.55.59,46.57.59,10.7,0,21.42-.59,41.05-.59,57.87,0,70.77,32.5,70.77,54.23,0,26.07-19.62,45.39-43.47,52.44,27.85,40.72,42.57,65.25,55.75,80,9.83,11,19,19.31,34.6,19.31v8c-7.65,0-15.33-.61-23-.61-8.58,0-17.45.29-26,.61C2962.57,285.45,2942,249.59,2920,215ZM2910.47,112a101,101,0,0,0-18.4,1.82v89.78a92,92,0,0,0,16.26,1.54c37.66,0,52.4-24.78,52.4-46.89C2960.73,131.62,2946.62,112,2910.47,112Z"/><polygon class="cls-1" points="283.98 667.49 283.98 648.43 3039.03 648.43 3039.03 667.49 283.98 667.49 283.98 667.49"/></svg>