<?xml version="1.0" encoding="UTF-8"?>
<svg width="244px" height="150px" viewBox="0 0 244 150" version="1.1" xmlns="http://www.w3.org/2000/svg" xmlns:xlink="http://www.w3.org/1999/xlink">
    <!-- Generator: Sketch 47.1 (45422) - http://www.bohemiancoding.com/sketch -->
    <title>Desktop</title>
    <desc>Created with Sketch.</desc>
    <defs>
        <rect id="path-1" x="0.149083503" y="0" width="243.45336" height="65.2985743"></rect>
        <rect id="path-3" x="0.149083503" y="0" width="243.45336" height="65.2985743"></rect>
        <rect id="path-5" x="0.149083503" y="0" width="243.45336" height="65.2985743"></rect>
        <rect id="path-7" x="0.149083503" y="0" width="243.45336" height="65.2985743"></rect>
        <rect id="path-9" x="0.149083503" y="0" width="243.45336" height="65.2985743"></rect>
    </defs>
    <g id="Page-1" stroke="none" stroke-width="1" fill="none" fill-rule="evenodd">
        <g id="Desktop">
            <g id="berkley" transform="translate(0.000000, 42.000000)">
                <g id="Clipped">
                    <mask id="mask-2" fill="white">
                        <use xlink:href="#path-1"></use>
                    </mask>
                    <g id="SVGID_1_"></g>
                    <path d="M1.04358452,61.4224033 L1.04358452,61.4224033 C1.04358452,59.2855397 2.68350305,57.5462322 4.9694501,57.5462322 C6.31120163,57.5462322 7.10631365,57.8940937 7.90142566,58.5898167 L6.85784114,59.8321792 C6.26150713,59.3849287 5.76456212,59.0867617 4.9197556,59.0867617 C3.72708758,59.0867617 2.78289206,60.1303462 2.78289206,61.4224033 L2.78289206,61.4720978 C2.78289206,62.8138493 3.72708758,63.8574338 5.0191446,63.8574338 C5.61547862,63.8574338 6.11242363,63.7083503 6.55967413,63.4101833 L6.55967413,62.3169043 L4.9197556,62.3169043 L4.9197556,60.8757637 L8.14989817,60.8757637 L8.14989817,64.1059063 C7.40448065,64.7519348 6.31120163,65.2985743 4.9694501,65.2985743 C2.58411405,65.2985743 1.04358452,63.6089613 1.04358452,61.4224033" id="Shape" fill="#98846D" fill-rule="nonzero" mask="url(#mask-2)"></path>
                </g>
                <polygon id="Shape" fill="#98846D" fill-rule="nonzero" points="14.0635438 57.6953157 14.0635438 65.1494908 19.7287169 65.1494908 19.7287169 63.6586558 15.7034623 63.6586558 15.7034623 62.0684318 19.2317719 62.0684318 19.2317719 60.6769857 15.7034623 60.6769857 15.7034623 59.1364562 19.6790224 59.1364562 19.6790224 57.6953157"></polygon>
                <g id="Group">
                    <g id="Clipped">
                        <mask id="mask-4" fill="white">
                            <use xlink:href="#path-3"></use>
                        </mask>
                        <g id="SVGID_3_"></g>
                        <path d="M31.4566191,61.4224033 L31.4566191,61.4224033 C31.4566191,60.1303462 30.5124236,59.0370672 29.2203666,59.0370672 C27.8786151,59.0370672 26.9841141,60.0806517 26.9841141,61.3727088 L26.9841141,61.4224033 C26.9841141,62.7144603 27.9283096,63.7580448 29.2203666,63.7580448 C30.5621181,63.7580448 31.4566191,62.7144603 31.4566191,61.4224033 M25.2448065,61.4224033 L25.2448065,61.4224033 C25.2448065,59.2855397 26.9344196,57.5462322 29.2203666,57.5462322 C31.5063136,57.5462322 33.1462322,59.2855397 33.1462322,61.3727088 L33.1462322,61.4224033 C33.1462322,63.5592668 31.4566191,65.2985743 29.1706721,65.2985743 C26.8847251,65.2985743 25.2448065,63.5592668 25.2448065,61.4224033" id="Shape" fill="#98846D" fill-rule="nonzero" mask="url(#mask-4)"></path>
                    </g>
                    <g id="Clipped">
                        <mask id="mask-6" fill="white">
                            <use xlink:href="#path-5"></use>
                        </mask>
                        <g id="SVGID_5_"></g>
                        <path d="M42.2900204,61.3230143 C43.0851324,61.3230143 43.5323829,60.8757637 43.5323829,60.2297352 L43.5323829,60.1800407 C43.5323829,59.4843177 43.0354379,59.1364562 42.2403259,59.1364562 L40.6501018,59.1364562 L40.6501018,61.2733198 L42.2900204,61.2733198 L42.2900204,61.3230143 Z M39.0101833,57.6953157 L42.3894094,57.6953157 C43.3336049,57.6953157 44.0790224,57.9934827 44.5759674,58.4407332 C45.0232179,58.8879837 45.2219959,59.4346232 45.2219959,60.1800407 L45.2219959,60.2297352 C45.2219959,61.4224033 44.5759674,62.2175153 43.6317719,62.5156823 L45.4704684,65.1494908 L43.5323829,65.1494908 L41.9421589,62.7641548 L41.8924644,62.7641548 L40.6501018,62.7641548 L40.6501018,65.1494908 L39.0101833,65.1494908 L39.0101833,57.6953157 L39.0101833,57.6953157 Z" id="Shape" fill="#98846D" fill-rule="nonzero" mask="url(#mask-6)"></path>
                    </g>
                    <g id="Clipped">
                        <mask id="mask-8" fill="white">
                            <use xlink:href="#path-7"></use>
                        </mask>
                        <g id="SVGID_7_"></g>
                        <path d="M50.7380855,61.4224033 L50.7380855,61.4224033 C50.7380855,59.2855397 52.3780041,57.5462322 54.6639511,57.5462322 C56.0057026,57.5462322 56.8008147,57.8940937 57.5959267,58.5898167 L56.5523422,59.8321792 C55.9560081,59.3849287 55.4590631,59.0867617 54.6142566,59.0867617 C53.4215886,59.0867617 52.4773931,60.1303462 52.4773931,61.4224033 L52.4773931,61.4720978 C52.4773931,62.8138493 53.4215886,63.8574338 54.7136456,63.8574338 C55.3099796,63.8574338 55.8566191,63.7083503 56.2541752,63.4101833 L56.2541752,62.3169043 L54.6142566,62.3169043 L54.6142566,60.8757637 L57.8940937,60.8757637 L57.8940937,64.1059063 C57.1486762,64.7519348 56.0553971,65.2985743 54.7136456,65.2985743 C52.3780041,65.2985743 50.7380855,63.6089613 50.7380855,61.4224033" id="Shape" fill="#98846D" fill-rule="nonzero" mask="url(#mask-8)"></path>
                    </g>
                </g>
                <polygon id="Shape" fill="#98846D" fill-rule="nonzero" points="63.8077393 57.6953157 63.8077393 65.1494908 69.4729124 65.1494908 69.4729124 63.6586558 65.4476578 63.6586558 65.4476578 62.0684318 68.9262729 62.0684318 68.9262729 60.6769857 65.4476578 60.6769857 65.4476578 59.1364562 69.4729124 59.1364562 69.4729124 57.6953157"></polygon>
                <polygon id="Shape" fill="#98846D" fill-rule="nonzero" points="74.790224 57.6953157 74.790224 59.1861507 77.0264766 59.1861507 77.0264766 65.1494908 78.6663951 65.1494908 78.6663951 59.1861507 81.0020367 59.1861507 81.0020367 57.6953157"></polygon>
                <g id="Clipped">
                    <mask id="mask-10" fill="white">
                        <use xlink:href="#path-9"></use>
                    </mask>
                    <g id="SVGID_9_"></g>
                    <path d="M92.1336049,61.4224033 L92.1336049,61.4224033 C92.1336049,60.1303462 91.1894094,59.0370672 89.8973523,59.0370672 C88.6052953,59.0370672 87.6610998,60.0806517 87.6610998,61.3727088 L87.6610998,61.4224033 C87.6610998,62.7144603 88.6052953,63.7580448 89.8973523,63.7580448 C91.1894094,63.7580448 92.1336049,62.7144603 92.1336049,61.4224033 M85.9714868,61.4224033 L85.9714868,61.4224033 C85.9714868,59.2855397 87.6610998,57.5462322 89.9470468,57.5462322 C92.2329939,57.5462322 93.8729124,59.2855397 93.8729124,61.3727088 L93.8729124,61.4224033 C93.8729124,63.5592668 92.1832994,65.2985743 89.8973523,65.2985743 C87.6114053,65.2985743 85.9714868,63.5592668 85.9714868,61.4224033" id="Shape" fill="#98846D" fill-rule="nonzero" mask="url(#mask-10)"></path>
                </g>
                <polygon id="Shape" fill="#98846D" fill-rule="nonzero" points="103.662729 57.6456212 102.022811 62.7144603 100.482281 57.6953157 98.693279 57.6953157 101.227699 65.1991853 102.668839 65.1991853 104.358452 60.2794297 106.048065 65.1991853 107.489206 65.1991853 110.023625 57.6953157 108.284318 57.6953157 106.743788 62.7144603 105.10387 57.6456212"></polygon>
                <polygon id="Shape" fill="#98846D" fill-rule="nonzero" points="120.608554 57.6953157 120.608554 62.2672098 117.129939 57.6953157 115.589409 57.6953157 115.589409 65.1494908 117.229328 65.1494908 117.229328 60.4285132 120.857026 65.1494908 122.248473 65.1494908 122.248473 57.6953157"></polygon>
                <path d="M135.864766,61.9690428 L135.864766,57.6953157 L137.504684,57.6953157 L137.504684,61.9193483 C137.504684,63.1120163 138.101018,63.7580448 139.094908,63.7580448 C140.088798,63.7580448 140.685132,63.1617108 140.685132,61.9690428 L140.685132,57.6953157 L142.325051,57.6953157 L142.325051,61.8696538 C142.325051,64.1059063 141.082688,65.2488798 139.045214,65.2488798 C137.057434,65.2488798 135.864766,64.1556008 135.864766,61.9690428" id="Shape" fill="#98846D" fill-rule="nonzero"></path>
                <polygon id="Shape" fill="#98846D" fill-rule="nonzero" points="153.406925 57.6953157 153.406925 62.2672098 149.92831 57.6953157 148.38778 57.6953157 148.38778 65.1494908 150.027699 65.1494908 150.027699 60.4285132 153.655397 65.1494908 155.046843 65.1494908 155.046843 57.6953157"></polygon>
                <rect id="Rectangle-path" fill="#98846D" fill-rule="nonzero" x="161.258656" y="57.6953157" width="1.63991853" height="7.45417515"></rect>
                <polygon id="Shape" fill="#98846D" fill-rule="nonzero" points="174.179226 57.6953157 172.241141 62.9132383 170.303055 57.6953157 168.514053 57.6953157 171.495723 65.1991853 172.936864 65.1991853 175.968228 57.6953157"></polygon>
                <polygon id="Shape" fill="#98846D" fill-rule="nonzero" points="181.484318 57.6953157 181.484318 65.1494908 187.199185 65.1494908 187.199185 63.6586558 183.124236 63.6586558 183.124236 62.0684318 186.652546 62.0684318 186.652546 60.6769857 183.124236 60.6769857 183.124236 59.1364562 187.099796 59.1364562 187.099796 57.6953157"></polygon>
                <g id="Group" transform="translate(192.814664, 57.148676)" fill-rule="nonzero" fill="#98846D">
                    <path d="M3.52830957,4.17433809 C4.32342159,4.17433809 4.7706721,3.72708758 4.7706721,3.08105906 L4.7706721,3.03136456 C4.7706721,2.33564155 4.27372709,1.98778004 3.47861507,1.98778004 L1.83869654,1.98778004 L1.83869654,4.12464358 L3.52830957,4.12464358 L3.52830957,4.17433809 Z M0.198778004,0.546639511 L3.57800407,0.546639511 C4.52219959,0.546639511 5.26761711,0.844806517 5.76456212,1.29205703 C6.21181263,1.73930754 6.41059063,2.28594705 6.41059063,3.03136456 L6.41059063,3.08105906 C6.41059063,4.27372709 5.76456212,5.0688391 4.8203666,5.36700611 L6.65906314,8.00081466 L4.7209776,8.00081466 L3.13075356,5.61547862 L3.08105906,5.61547862 L1.83869654,5.61547862 L1.83869654,8.00081466 L0.198778004,8.00081466 L0.198778004,0.546639511 L0.198778004,0.546639511 Z" id="Shape"></path>
                    <path d="M11.7279022,6.90753564 L12.6720978,5.76456212 C13.3678208,6.31120163 14.0138493,6.65906314 14.9083503,6.65906314 C15.6040733,6.65906314 16.0016293,6.41059063 16.0016293,5.96334012 L16.0016293,5.96334012 C16.0016293,5.51608961 15.7531568,5.31731161 14.5107943,5.0191446 C13.0199593,4.62158859 12.0260692,4.22403259 12.0260692,2.73319756 L12.0260692,2.68350305 C12.0260692,1.34175153 13.1193483,0.447250509 14.6598778,0.447250509 C15.7531568,0.447250509 16.6476578,0.745417515 17.3930754,1.39144603 L16.5482688,2.63380855 C15.9022403,2.18655804 15.2065173,1.93808554 14.6101833,1.93808554 C13.9641548,1.93808554 13.6659878,2.23625255 13.6659878,2.58411405 L13.6659878,2.63380855 C13.6659878,3.13075356 13.9641548,3.27983707 15.2562118,3.57800407 C16.7470468,3.97556008 17.6415479,4.52219959 17.6415479,5.81425662 L17.6415479,5.86395112 C17.6415479,7.35478615 16.4985743,8.19959267 14.9083503,8.19959267 C13.7653768,8.10020367 12.6224033,7.70264766 11.7279022,6.90753564" id="Shape"></path>
                </g>
                <rect id="Rectangle-path" fill="#98846D" fill-rule="nonzero" x="216.320163" y="57.6953157" width="1.63991853" height="7.45417515"></rect>
                <polygon id="Shape" fill="#98846D" fill-rule="nonzero" points="223.674949 57.6953157 223.674949 59.1861507 225.960896 59.1861507 225.960896 65.1494908 227.600815 65.1494908 227.600815 59.1861507 229.886762 59.1861507 229.886762 57.6953157"></polygon>
                <polygon id="Shape" fill="#98846D" fill-rule="nonzero" points="240.272912 57.6953157 238.434216 60.6769857 236.645214 57.6953157 234.756823 57.6953157 237.589409 62.2175153 237.589409 65.1494908 239.279022 65.1494908 239.279022 62.1678208 242.111609 57.6953157"></polygon>
                <g id="Group" transform="translate(0.496945, 0.000000)" fill-rule="nonzero" fill="#98846D">
                    <path d="M2.03747454,33.9413442 L0.795112016,33.9413442 L0.944195519,33.2953157 L2.23625255,33.2953157 C2.63380855,30.7608961 4.32342159,29.2203666 5.86395112,29.2203666 C6.16211813,29.2203666 6.46028513,29.4191446 6.46028513,29.7670061 C6.46028513,30.1645621 6.36089613,30.6118126 6.01303462,30.6118126 C5.56578411,30.6118126 5.41670061,30.1645621 4.8203666,30.1645621 C4.22403259,30.1645621 4.12464358,30.9596741 3.97556008,31.7050916 L3.67739308,33.2953157 L5.16822811,33.2953157 L5.0191446,33.9413442 L3.52830957,33.9413442 C2.98167006,36.6745418 2.13686354,39.2586558 1.34175153,41.8924644 L0.447250509,42.1906314 L0.298167006,42.0912424 L2.03747454,33.9413442 Z" id="Shape"></path>
                    <path d="M9.6407332,34.9849287 C9.6407332,34.2892057 9.49164969,33.5934827 8.59714868,33.5934827 C7.05661914,33.5934827 6.46028513,36.1279022 6.46028513,37.3702648 C6.46028513,38.2150713 6.65906314,38.8610998 7.50386965,38.8610998 C9.09409369,38.8114053 9.6407332,36.0782077 9.6407332,34.9849287 M11.0818737,35.5812627 C11.0818737,37.4696538 9.6904277,39.3083503 7.55356415,39.3083503 C5.96334012,39.3083503 5.0191446,38.1156823 5.0191446,36.8236253 C5.0191446,34.6867617 6.70875764,33.0965377 8.54745418,33.0965377 C10.2867617,33.0965377 11.0818737,34.1898167 11.0818737,35.5812627" id="Shape"></path>
                    <path d="M13.0696538,35.8794297 C13.1193483,35.5812627 13.3181263,34.9352342 13.3181263,34.7364562 C13.3181263,34.6370672 13.3181263,34.4382892 13.1193483,34.4382892 C12.8211813,34.4382892 12.2745418,34.9849287 12.1254582,35.1837067 L11.8769857,34.8855397 C12.3242363,34.2892057 13.4672098,33.0468432 14.2126273,33.0468432 C14.6101833,33.0468432 14.7592668,33.2456212 14.7592668,33.6431772 C14.7592668,34.3389002 14.3617108,35.3824847 14.1629328,35.9788187 L14.2126273,36.0285132 C14.7592668,35.2334012 15.8028513,33.0965377 16.8464358,33.0965377 C17.1942974,33.0965377 17.3930754,33.2953157 17.3930754,33.5934827 C17.3930754,33.9910387 17.1942974,34.5376782 16.7470468,34.5376782 C16.4985743,34.5376782 16.3991853,34.4879837 16.1507128,34.4879837 C15.5046843,34.4879837 14.5107943,36.1775967 13.8150713,37.9169043 C13.6162933,38.3641548 13.5169043,38.8610998 13.4672098,39.0101833 C13.3678208,39.2089613 13.1690428,39.2089613 12.7714868,39.2089613 C12.3242363,39.2089613 12.1751527,39.1095723 12.1751527,38.9604888 C12.1751527,38.9107943 12.3739308,38.2150713 12.4236253,38.0162933 L13.0696538,35.8794297 Z" id="Shape"></path>
                    <path d="M26.5368635,33.5934827 L27.2822811,33.5934827 C28.8228106,33.5934827 29.6676171,32.9971487 29.6676171,31.2081466 C29.6676171,29.8663951 28.8228106,28.9718941 27.4313646,28.9718941 C26.9841141,28.9718941 26.785336,29.0215886 26.586558,29.0215886 C26.5368635,29.0215886 26.5368635,33.5934827 26.5368635,33.5934827 Z M24.598778,30.0651731 C24.598778,28.9718941 24.002444,28.8725051 23.505499,28.8725051 L23.207332,28.8725051 L23.207332,28.4252546 C23.704277,28.4252546 24.6484725,28.4749491 25.592668,28.4749491 C26.5368635,28.4749491 27.2325866,28.4252546 28.0773931,28.4252546 C30.0154786,28.4252546 31.7050916,28.9718941 31.7050916,31.1087576 C31.7050916,32.5002037 30.7608961,33.3450102 29.5682281,33.8419552 L32.2020367,37.7678208 C32.6492872,38.4138493 32.9474542,38.6126273 33.6928717,38.7120163 L33.6928717,39.1592668 C33.1959267,39.1592668 32.6989817,39.1095723 32.2020367,39.1095723 C31.7547862,39.1095723 31.2578411,39.1592668 30.7608961,39.1592668 C29.5682281,37.6187373 28.5743381,35.9291242 27.5804481,34.1898167 L26.586558,34.1898167 L26.586558,37.4696538 C26.586558,38.6623218 27.1331976,38.6623218 27.8289206,38.6623218 L28.1270876,38.6623218 L28.1270876,39.1095723 C27.2822811,39.1095723 26.38778,39.0598778 25.493279,39.0598778 C24.797556,39.0598778 24.002444,39.1095723 23.2570265,39.1095723 L23.2570265,38.6623218 L23.5551935,38.6623218 C24.1515275,38.6623218 24.6484725,38.4138493 24.6484725,37.8175153 C24.598778,37.8672098 24.598778,30.0651731 24.598778,30.0651731 Z" id="Shape"></path>
                    <path d="M37.8672098,34.3885947 C38.7120163,34.3885947 38.8114053,34.3885947 38.8114053,33.7922607 C38.8114053,33.1959267 38.4138493,32.5002037 37.7181263,32.5002037 C36.7739308,32.5002037 36.2272912,33.3947047 36.0782077,34.3389002 L37.8672098,34.3885947 L37.8672098,34.3885947 Z M40.5507128,37.4199593 C39.9543788,38.5132383 38.9107943,39.3580448 37.6187373,39.3580448 C35.6806517,39.3580448 34.6370672,37.5690428 34.6370672,35.8297352 C34.6370672,33.8916497 35.9291242,32.0032587 38.0162933,32.0032587 C39.6065173,32.0032587 40.4513238,33.1959267 40.4016293,34.6867617 L40.2028513,34.8855397 L36.0285132,34.8855397 C36.0285132,36.4757637 36.7242363,38.0162933 38.4138493,38.0162933 C39.1095723,38.0162933 39.7556008,37.7181263 40.2525458,37.1714868 L40.5507128,37.4199593 Z" id="Shape"></path>
                    <path d="M42.1906314,29.4688391 C42.1906314,29.1706721 42.1409369,29.0215886 41.7930754,28.8725051 C41.5942974,28.8228106 41.4949084,28.7234216 41.2961303,28.6737271 L41.2961303,28.3258656 C41.9918534,28.1270876 43.0354379,27.7295316 43.7808554,27.4313646 L43.9796334,27.5804481 L43.9796334,38.2647658 C43.9796334,38.7120163 44.3274949,38.7120163 44.7747454,38.7120163 L44.9735234,38.7120163 L44.9735234,39.1592668 C44.3771894,39.1095723 43.8305499,39.1095723 43.2342159,39.1095723 C42.5881874,39.1095723 41.9918534,39.1592668 41.3955193,39.1592668 L41.3955193,38.7120163 C41.8924644,38.7120163 42.2900204,38.7120163 42.2900204,38.2647658 L42.1906314,29.4688391 L42.1906314,29.4688391 Z" id="Shape"></path>
                    <path d="M47.3588595,29.8663951 C46.81222,29.8663951 46.414664,29.4191446 46.414664,28.9221996 C46.414664,28.4252546 46.8619145,27.9780041 47.3588595,27.9780041 C47.905499,27.9780041 48.303055,28.4252546 48.303055,28.9221996 C48.3527495,29.4191446 47.905499,29.8663951 47.3588595,29.8663951 L47.3588595,29.8663951 Z M48.203666,38.2647658 C48.203666,38.6126273 48.5515275,38.6126273 48.9490835,38.6126273 L49.1478615,38.6126273 L49.1478615,39.0598778 C48.5515275,39.0101833 47.9551935,39.0101833 47.408554,39.0101833 C46.7625255,39.0101833 46.1661914,39.0598778 45.5698574,39.0598778 L45.5698574,38.6126273 L45.6692464,38.6126273 C46.1164969,38.6126273 46.4643585,38.6126273 46.4643585,38.1653768 L46.4643585,33.8419552 C46.4643585,33.5934827 46.414664,33.4940937 46.1164969,33.3947047 C45.9177189,33.3450102 45.7686354,33.2953157 45.5698574,33.2456212 L45.5698574,32.8977597 C46.0171079,32.7983707 46.5637475,32.5995927 46.9613035,32.4505092 C47.309165,32.3014257 47.6570265,32.1523422 48.004888,32.0032587 L48.203666,32.1523422 L48.203666,38.2647658 L48.203666,38.2647658 Z" id="Shape"></path>
                    <path d="M53.1234216,36.3266802 C54.0676171,36.3266802 54.2663951,35.3824847 54.2663951,34.5873727 C54.2663951,33.8419552 53.9682281,32.4505092 53.0240326,32.4505092 C52.0301426,32.4505092 51.8313646,33.5437882 51.8313646,34.2892057 C51.7816701,35.0346232 52.1792261,36.3266802 53.1234216,36.3266802 L53.1234216,36.3266802 Z M53.7694501,39.3580448 C52.8252546,39.3580448 51.2847251,39.5568228 51.2847251,40.6997963 C51.2847251,41.7433809 52.1295316,42.0415479 53.2725051,42.0415479 C54.3160896,42.0415479 55.7572301,41.4949084 55.7572301,40.4513238 C55.6578411,39.4574338 54.6142566,39.3580448 53.7694501,39.3580448 L53.7694501,39.3580448 Z M51.5828921,36.5751527 C50.7380855,36.1775967 50.092057,35.4321792 50.092057,34.4382892 C50.092057,32.8977597 51.6325866,32.0032587 53.0240326,32.0032587 C53.7197556,32.0032587 54.3160896,32.1026477 54.8627291,32.4008147 C55.0615071,32.5002037 55.3099796,32.5002037 55.5584521,32.5002037 L56.9002037,32.5002037 L56.9002037,33.2456212 L55.7075356,33.2456212 C55.9063136,33.6928717 55.9560081,34.0407332 55.9560081,34.4382892 C55.9560081,35.9291242 54.5148676,36.8733198 53.0737271,36.8733198 C52.7755601,36.8733198 52.3780041,36.8236253 52.0798371,36.7242363 L51.7319756,37.0224033 C51.6822811,37.8175153 52.3283096,37.8175153 52.8749491,37.8175153 C53.5706721,37.8175153 54.2167006,37.7678208 54.9124236,37.7678208 C56.0057026,37.7678208 56.9002037,38.2150713 56.9002037,39.4077393 C56.9002037,41.7930754 54.5148676,42.5881874 52.8749491,42.5881874 C51.4338086,42.5881874 49.9429735,42.0912424 49.9429735,40.9482688 C49.9429735,39.9543788 50.6386965,39.6065173 51.7816701,39.1592668 L51.7816701,39.1095723 C50.7380855,39.0101833 50.2411405,38.5132383 50.2411405,37.4696538 L51.5828921,36.5751527 Z" id="Shape"></path>
                    <path d="M59.4843177,29.8663951 C58.9376782,29.8663951 58.5401222,29.4191446 58.5401222,28.9221996 C58.5401222,28.4252546 58.9873727,27.9780041 59.4843177,27.9780041 C60.0309572,27.9780041 60.4285132,28.4252546 60.4285132,28.9221996 C60.3788187,29.4191446 59.9812627,29.8663951 59.4843177,29.8663951 L59.4843177,29.8663951 Z M60.3291242,38.2647658 C60.3291242,38.6126273 60.6769857,38.6126273 61.0248473,38.6126273 L61.2236253,38.6126273 L61.2236253,39.0598778 C60.6272912,39.0101833 60.0309572,39.0101833 59.4843177,39.0101833 C58.8382892,39.0101833 58.2419552,39.0598778 57.6456212,39.0598778 L57.6456212,38.6126273 L57.7450102,38.6126273 C58.1922607,38.6126273 58.5401222,38.6126273 58.5401222,38.1653768 L58.5401222,33.8419552 C58.5401222,33.5934827 58.4904277,33.4940937 58.1922607,33.3947047 C57.9934827,33.3450102 57.8443992,33.2953157 57.6456212,33.2456212 L57.6456212,32.8977597 C58.0928717,32.7983707 58.6395112,32.5995927 59.0370672,32.4505092 C59.3849287,32.3014257 59.7327902,32.1523422 60.1303462,32.0032587 L60.3291242,32.1523422 L60.3291242,38.2647658 L60.3291242,38.2647658 Z" id="Shape"></path>
                    <path d="M64.1556008,35.6806517 C64.1556008,36.9727088 64.5531568,38.7617108 66.0439919,38.7617108 C67.4851324,38.7617108 67.7832994,37.2708758 67.7832994,35.8794297 C67.7832994,34.7861507 67.4354379,32.5002037 65.9446029,32.5002037 C64.3046843,32.5498982 64.1556008,34.4879837 64.1556008,35.6806517 M65.9942974,32.0032587 C68.2305499,32.0032587 69.6716904,33.4443992 69.6716904,35.5812627 C69.6716904,37.6684318 68.0814664,39.3580448 65.9942974,39.3580448 C63.8574338,39.3580448 62.3169043,37.7678208 62.3169043,35.6806517 C62.3169043,33.5934827 63.8077393,32.0032587 65.9942974,32.0032587" id="Shape"></path>
                    <path d="M70.6655804,38.6623218 L70.7649695,38.6623218 C71.21222,38.6623218 71.5600815,38.6623218 71.5600815,38.2150713 L71.5600815,33.8916497 C71.5600815,33.6431772 71.510387,33.5437882 71.21222,33.4443992 C71.013442,33.3947047 70.8643585,33.3450102 70.6655804,33.2953157 L70.6655804,32.9474542 C71.112831,32.8480652 71.6594705,32.6492872 72.0570265,32.5002037 C72.404888,32.3511202 72.7527495,32.2020367 73.1503055,32.0529532 L73.3490835,32.2020367 L73.3490835,33.1462322 C74.0448065,32.6989817 74.8399185,32.0529532 75.7344196,32.0529532 C76.8276986,32.0529532 77.6228106,32.5995927 77.6228106,34.0407332 L77.6228106,38.3144603 C77.6228106,38.7617108 78.0203666,38.7617108 78.3682281,38.7617108 L78.5670061,38.7617108 L78.5670061,39.2089613 C77.9706721,39.1592668 77.4240326,39.1592668 76.8276986,39.1592668 C76.2313646,39.1592668 75.6350305,39.2089613 74.989002,39.2089613 L74.989002,38.7617108 L75.1380855,38.7617108 C75.4362525,38.7617108 75.8835031,38.7617108 75.8835031,38.3641548 L75.8835031,34.5376782 C75.8835031,33.5934827 75.4362525,33.2456212 74.7405295,33.2456212 C74.2435845,33.2456212 73.6472505,33.5437882 73.3490835,33.7425662 L73.3490835,38.3641548 C73.3490835,38.7120163 73.696945,38.7120163 74.094501,38.7120163 L74.293279,38.7120163 L74.293279,39.1592668 C73.696945,39.1095723 73.100611,39.1095723 72.5539715,39.1095723 C71.907943,39.1095723 71.311609,39.1592668 70.7152749,39.1592668 L70.7152749,38.7120163 L70.6655804,38.7120163 L70.6655804,38.6623218 Z" id="Shape"></path>
                    <path d="M79.4615071,41.3458248 C80.1572301,41.1470468 81.2008147,40.6997963 81.2008147,39.8549898 C81.2008147,38.7617108 79.8590631,39.3083503 79.8590631,38.1156823 C79.8590631,37.5193483 80.3560081,36.9230143 81.0020367,36.9230143 C81.9959267,36.9230143 82.4928717,37.7678208 82.4928717,38.6623218 C82.4928717,40.3519348 81.3002037,41.3458248 79.7596741,41.7433809 L79.4615071,41.3458248 Z" id="Shape"></path>
                    <path d="M91.5372709,37.3702648 C91.5372709,38.6126273 92.2329939,38.6126273 93.0281059,38.6126273 L93.2765784,38.6126273 L93.2765784,39.0598778 C92.4814664,39.0598778 91.7360489,39.0101833 90.9409369,39.0101833 C90.0961303,39.0101833 89.2513238,39.0598778 88.4065173,39.0598778 L88.4065173,38.6126273 L88.6549898,38.6126273 C89.1022403,38.6126273 89.5991853,38.6126273 89.5991853,37.3702648 L89.5991853,30.0154786 C89.5991853,28.9718941 89.3010183,28.8228106 88.5556008,28.8228106 L88.3568228,28.8228106 L88.3568228,28.3755601 C88.9034623,28.3755601 89.6985743,28.4252546 90.4936864,28.4252546 C91.2887984,28.4252546 92.0342159,28.3755601 92.7299389,28.3755601 C94.8171079,28.3755601 96.3576375,29.0712831 96.3576375,31.3075356 C96.3576375,33.0965377 95.0655804,34.2395112 93.3759674,34.4382892 C92.9287169,34.4879837 92.5311609,34.4879837 92.1832994,34.4879837 L92.1832994,34.0407332 L92.4814664,34.0407332 C93.7238289,34.0407332 94.3201629,32.9474542 94.3201629,31.4069246 C94.3201629,29.9160896 93.5747454,28.9718941 91.9845214,28.9718941 L91.5372709,28.9718941 L91.5372709,37.4199593 L91.5372709,37.4199593 L91.5372709,37.3702648 Z" id="Shape"></path>
                    <path d="M100.432587,34.3885947 C101.277393,34.3885947 101.376782,34.3885947 101.376782,33.7922607 C101.376782,33.1959267 100.979226,32.5002037 100.283503,32.5002037 C99.3393075,32.5002037 98.792668,33.3947047 98.6435845,34.3389002 L100.432587,34.3885947 L100.432587,34.3885947 Z M103.11609,37.4199593 C102.519756,38.5132383 101.476171,39.3580448 100.184114,39.3580448 C98.2460285,39.3580448 97.202444,37.5690428 97.202444,35.8297352 C97.202444,33.8916497 98.5441955,32.0032587 100.58167,32.0032587 C102.171894,32.0032587 103.016701,33.1959267 102.967006,34.6867617 L102.768228,34.8855397 L98.59389,34.8855397 C98.59389,36.4757637 99.289613,38.0162933 100.979226,38.0162933 C101.724644,38.0162933 102.320978,37.7181263 102.817923,37.1714868 L103.11609,37.4199593 Z" id="Shape"></path>
                    <path d="M108.184929,35.6806517 C107.340122,35.9788187 105.948676,36.2769857 105.948676,37.3205703 C105.948676,37.9665988 106.296538,38.3144603 106.892872,38.3144603 C107.588595,38.3144603 108.035845,37.7181263 108.234623,37.4696538 L108.184929,35.6806517 L108.184929,35.6806517 Z M108.184929,34.2892057 C108.184929,33.3947047 107.638289,33.0468432 106.992261,33.0468432 C106.09776,33.0468432 105.898982,33.2456212 105.799593,34.1401222 C105.749898,34.5873727 104.954786,34.7364562 104.706314,34.7364562 C104.507536,34.7364562 104.408147,34.5873727 104.408147,34.3885947 C104.408147,33.7922607 104.756008,33.3450102 105.252953,33.0965377 C105.749898,32.8480652 106.346232,32.5002037 106.892872,32.2020367 C107.191039,32.0032587 107.489206,32.0032587 107.837067,32.0032587 C109.178819,32.0032587 109.924236,32.6989817 109.924236,34.0407332 L109.924236,37.1714868 C109.924236,37.8672098 109.973931,38.3144603 110.371487,38.3144603 C110.52057,38.3144603 110.669654,38.2150713 110.818737,38.1156823 L111.017515,38.4138493 C110.570265,39.0101833 110.172709,39.3580448 109.427291,39.3580448 C108.681874,39.3580448 108.334012,38.8610998 108.234623,38.1653768 C107.5389,38.8114053 106.892872,39.3580448 105.849287,39.3580448 C104.905092,39.3580448 104.159674,38.7617108 104.159674,37.7678208 C104.159674,36.5751527 105.153564,36.1775967 106.246843,35.7800407 L108.135234,35.0843177 L108.135234,34.2892057 L108.184929,34.2892057 Z" id="Shape"></path>
                    <path d="M117.925051,37.4696538 C117.179633,38.5629328 116.434216,39.3083503 115.04277,39.3083503 C113.005295,39.3083503 111.812627,37.9169043 111.812627,35.9291242 C111.812627,33.7922607 113.551935,32.0032587 115.688798,32.0032587 C116.732383,32.0032587 117.676578,32.2517312 117.676578,33.1462322 C117.676578,33.5934827 117.328717,33.9910387 116.831772,33.9910387 C115.986965,33.9910387 116.136049,32.6989817 114.993075,32.6989817 C113.899796,32.6989817 113.402851,33.5934827 113.402851,34.8358452 C113.402851,36.3266802 114.04888,38.1156823 115.788187,38.1156823 C116.632994,38.1156823 116.980855,37.8175153 117.626884,37.1714868 L117.925051,37.4696538 Z" id="Shape"></path>
                    <path d="M121.950305,34.3885947 C122.795112,34.3885947 122.894501,34.3885947 122.894501,33.7922607 C122.894501,33.1959267 122.496945,32.5002037 121.801222,32.5002037 C120.857026,32.5002037 120.310387,33.3947047 120.210998,34.3389002 L121.950305,34.3885947 L121.950305,34.3885947 Z M124.633809,37.4199593 C124.037475,38.5132383 122.99389,39.3580448 121.701833,39.3580448 C119.763747,39.3580448 118.720163,37.5690428 118.720163,35.8297352 C118.720163,33.8916497 120.01222,32.0032587 122.099389,32.0032587 C123.689613,32.0032587 124.53442,33.1959267 124.484725,34.6867617 L124.285947,34.8855397 L120.111609,34.8855397 C120.111609,36.4757637 120.807332,38.0162933 122.496945,38.0162933 C123.242363,38.0162933 123.838697,37.7181263 124.335642,37.1714868 L124.633809,37.4199593 Z" id="Shape"></path>
                    <path d="M135.367821,30.2142566 C135.367821,29.5185336 134.870876,28.9718941 134.175153,28.9718941 C133.529124,28.9718941 133.081874,29.5185336 133.081874,30.1148676 C133.081874,30.9596741 133.777597,31.5560081 134.423625,31.9038697 C134.970265,31.4566191 135.367821,30.9596741 135.367821,30.2142566 L135.367821,30.2142566 Z M131.988595,35.2334012 C131.988595,36.7242363 133.230957,37.8672098 134.721792,37.8672098 C135.864766,37.8672098 136.4611,37.4199593 137.206517,36.6745418 C136.162933,35.1837067 134.821181,33.9910387 133.280652,33.0468432 C132.535234,33.5934827 131.988595,34.2892057 131.988595,35.2334012 L131.988595,35.2334012 Z M138.945825,31.1087576 C139.641548,31.1584521 140.386965,31.1584521 141.082688,31.1584521 C141.778411,31.1584521 142.523829,31.1087576 143.219552,31.1087576 L143.219552,31.5560081 C142.921385,31.5560081 142.672912,31.6057026 142.374745,31.6057026 C140.834216,31.7050916 139.492464,34.4879837 138.597963,35.5812627 C139.243992,36.5254582 140.337271,38.1653768 141.629328,38.1653768 C142.325051,38.1653768 142.821996,37.8672098 143.219552,37.2708758 L143.517719,37.5193483 C142.87169,38.5132383 141.828106,39.3580448 140.585743,39.3580448 C138.995519,39.3580448 138.101018,38.1653768 137.305906,36.9727088 C136.361711,38.1653768 135.069654,39.2586558 133.47943,39.2586558 C131.640733,39.2586558 130.348676,37.9169043 130.348676,36.1279022 C130.348676,34.6370672 131.541344,33.3947047 132.734012,32.7486762 C132.038289,32.2020367 131.591039,31.5063136 131.591039,30.6118126 C131.591039,29.2700611 132.883096,28.3755601 134.175153,28.3755601 C135.119348,28.3755601 136.361711,28.8228106 136.361711,29.9657841 C136.361711,31.0590631 135.516904,31.5560081 134.622403,32.1026477 C136.013849,32.8480652 137.206517,33.9910387 138.150713,35.2334012 C138.498574,34.6370672 139.740937,32.7486762 139.740937,32.1026477 C139.740937,31.5560081 139.144603,31.5063136 138.747047,31.5063136 L138.747047,31.1087576 L138.945825,31.1087576 L138.945825,31.1087576 Z" id="Shape"></path>
                    <path d="M158.724236,29.9657841 C158.823625,29.6676171 158.923014,29.4688391 158.923014,29.3197556 C158.923014,28.9221996 158.575153,28.8725051 158.078208,28.8725051 C157.680652,28.8725051 157.33279,28.9221996 157.33279,29.2700611 C157.33279,29.4688391 157.432179,29.7173116 157.581263,30.0154786 L158.177597,31.3572301 L158.227291,31.3572301 L158.724236,29.9657841 Z M157.481874,34.5376782 L155.444399,39.3580448 L154.89776,39.3580448 L151.021589,30.2142566 C150.723422,29.5185336 150.524644,28.8725051 149.679837,28.8725051 L149.481059,28.8725051 L149.481059,28.4252546 C150.077393,28.4252546 150.971894,28.4749491 151.717312,28.4749491 C152.36334,28.4749491 153.158452,28.4252546 153.655397,28.4252546 L153.655397,28.8725051 L153.506314,28.8725051 C153.158452,28.8725051 152.860285,28.9221996 152.860285,29.2203666 C152.860285,29.4191446 153.009369,29.8663951 153.406925,30.8105906 L155.89165,36.7242363 L157.134012,33.6928717 L155.245621,29.2700611 C155.096538,28.9221996 154.698982,28.8228106 154.301426,28.8228106 L154.301426,28.3755601 C154.997149,28.3755601 155.742566,28.4252546 156.438289,28.4252546 C157.034623,28.4252546 157.531568,28.3755601 158.127902,28.3755601 C158.624847,28.3755601 159.121792,28.4252546 159.618737,28.4252546 C160.115682,28.4252546 160.562933,28.3755601 161.010183,28.3755601 L161.010183,28.8228106 L160.811405,28.8228106 C160.016293,28.8228106 159.86721,29.1209776 159.469654,30.0154786 L158.575153,32.1523422 L160.463544,36.5751527 L162.84888,30.1148676 C162.898574,29.8663951 163.047658,29.4688391 163.047658,29.2700611 C163.047658,28.9718941 162.749491,28.8228106 162.103462,28.8228106 L161.904684,28.8228106 L161.904684,28.3755601 C162.401629,28.3755601 162.898574,28.4252546 163.395519,28.4252546 C163.84277,28.4252546 164.29002,28.3755601 164.737271,28.3755601 L164.737271,28.8228106 L164.538493,28.8228106 C164.091242,28.8228106 163.84277,29.3197556 163.643992,29.8167006 L159.966599,39.3580448 L159.519348,39.3580448 L157.481874,34.5376782 Z" id="Shape"></path>
                    <path d="M165.929939,35.6806517 C165.929939,36.9727088 166.327495,38.7617108 167.81833,38.7617108 C169.25947,38.7617108 169.557637,37.2708758 169.557637,35.8794297 C169.557637,34.7861507 169.209776,32.5002037 167.718941,32.5002037 C166.079022,32.5498982 165.929939,34.4879837 165.929939,35.6806517 M167.718941,32.0032587 C169.955193,32.0032587 171.396334,33.4443992 171.396334,35.5812627 C171.396334,37.6684318 169.80611,39.3580448 167.718941,39.3580448 C165.582077,39.3580448 164.041548,37.7678208 164.041548,35.6806517 C164.041548,33.5934827 165.582077,32.0032587 167.718941,32.0032587" id="Shape"></path>
                    <path d="M175.024033,38.3144603 C175.024033,38.6623218 175.471283,38.6623218 176.167006,38.6623218 L176.415479,38.6623218 L176.415479,39.1095723 C175.719756,39.1095723 174.974338,39.0598778 174.228921,39.0598778 C173.582892,39.0598778 172.986558,39.1095723 172.290835,39.1095723 L172.290835,38.6623218 L172.439919,38.6623218 C172.986558,38.6623218 173.284725,38.6126273 173.284725,38.2647658 L173.284725,34.0904277 C173.284725,33.5934827 173.235031,33.4443992 172.837475,33.3947047 C172.638697,33.3450102 172.539308,33.3450102 172.34053,33.2953157 L172.34053,32.9474542 C173.185336,32.7983707 173.980448,32.4505092 174.825255,32.0529532 L175.024033,32.1026477 L175.024033,33.1959267 L175.073727,33.1959267 C175.371894,32.7486762 176.017923,32.0529532 176.813035,32.0529532 C177.359674,32.0529532 177.75723,32.3014257 177.75723,32.9474542 C177.75723,33.5437882 177.359674,33.8419552 176.912424,33.8419552 C176.31609,33.8419552 176.31609,33.2456212 175.819145,33.2456212 C175.471283,33.2456212 174.974338,33.5437882 174.974338,34.2892057 L174.974338,38.3144603 L175.024033,38.3144603 L175.024033,38.3144603 Z" id="Shape"></path>
                    <path d="M179.347454,29.4688391 C179.347454,29.1706721 179.29776,29.0215886 178.949898,28.8725051 C178.75112,28.8228106 178.602037,28.7234216 178.452953,28.6737271 L178.452953,28.3258656 C179.148676,28.1270876 180.192261,27.7295316 180.937678,27.4313646 L181.136456,27.5804481 L181.136456,38.2647658 C181.136456,38.7120163 181.484318,38.7120163 181.931568,38.7120163 L182.130346,38.7120163 L182.130346,39.1592668 C181.534012,39.1095723 180.937678,39.1095723 180.391039,39.1095723 C179.74501,39.1095723 179.148676,39.1592668 178.552342,39.1592668 L178.552342,38.7120163 C179.049287,38.7120163 179.446843,38.7120163 179.446843,38.2647658 L179.347454,29.4688391 L179.347454,29.4688391 Z" id="Shape"></path>
                    <path d="M188.043992,33.6431772 C187.745825,33.0468432 187.149491,32.6989817 186.503462,32.6989817 C185.161711,32.6989817 184.71446,34.1898167 184.71446,35.3824847 C184.71446,37.0224033 185.559267,38.3144603 186.751935,38.3144603 C187.24888,38.3144603 187.745825,38.0659878 187.994297,37.8672098 L188.043992,33.6431772 L188.043992,33.6431772 Z M189.783299,38.3641548 L190.6778,38.3144603 L190.6778,38.7120163 C190.479022,38.7617108 189.982077,38.8610998 189.485132,39.0101833 C188.938493,39.2089613 188.391853,39.3083503 188.24277,39.3580448 L188.143381,39.2586558 L188.143381,38.3144603 C187.397963,38.9604888 186.901018,39.3580448 185.807739,39.3580448 C184.316904,39.3580448 183.074542,37.9169043 183.074542,36.1279022 C183.074542,33.7425662 184.913238,32.0032587 186.851324,32.0032587 C187.397963,32.0032587 187.745825,32.0529532 188.093686,32.2020367 L188.093686,29.0712831 L187.050102,28.7234216 L187.050102,28.4252546 C187.894908,28.1270876 188.789409,27.7792261 189.634216,27.3319756 L189.832994,27.4810591 L189.783299,38.3641548 L189.783299,38.3641548 Z" id="Shape"></path>
                    <path d="M201.312424,30.1148676 L201.312424,30.1148676 L199.821589,34.4382892 L202.70387,34.4382892 L201.312424,30.1148676 Z M199.026477,36.9230143 C198.877393,37.4696538 198.72831,37.8672098 198.72831,38.1156823 C198.72831,38.5629328 199.374338,38.6623218 199.871283,38.6623218 L200.070061,38.6623218 L200.070061,39.1095723 C199.473727,39.0598778 198.827699,39.0598778 198.231365,39.0598778 C197.684725,39.0598778 197.138086,39.1095723 196.591446,39.1095723 L196.591446,38.6623218 L196.690835,38.6623218 C197.287169,38.6623218 197.784114,38.3144603 198.032587,37.6684318 L200.517312,30.6118126 C200.71609,30.0154786 200.964562,29.2700611 201.113646,28.7234216 C201.560896,28.5246436 202.206925,28.2761711 202.505092,28.0773931 C202.554786,28.0276986 202.554786,28.0276986 202.604481,28.0276986 C202.654175,28.0276986 202.654175,28.0276986 202.70387,28.0773931 C202.753564,28.1767821 202.753564,28.3258656 202.852953,28.4749491 L205.68554,36.4757637 C205.884318,37.0224033 206.033401,37.5690428 206.281874,38.0659878 C206.480652,38.5132383 206.778819,38.6623218 207.275764,38.6623218 L207.375153,38.6623218 L207.375153,39.1095723 C206.67943,39.0598778 205.983707,39.0598778 205.238289,39.0598778 C204.492872,39.0598778 203.747454,39.1095723 202.952342,39.1095723 L202.952342,38.6623218 L203.15112,38.6623218 C203.498982,38.6623218 204.095316,38.6126273 204.095316,38.2150713 C204.095316,38.0162933 203.946232,37.6187373 203.797149,37.1217923 L203.200815,35.3327902 L199.7222,35.3327902 L199.026477,36.9230143 Z" id="Shape"></path>
                    <path d="M210.804073,38.0659878 C210.804073,38.6126273 211.10224,38.6623218 211.897352,38.6623218 L212.195519,38.6623218 L212.195519,39.1095723 C211.450102,39.0598778 210.704684,39.0598778 209.909572,39.0598778 C209.263544,39.0598778 208.617515,39.1095723 207.971487,39.1095723 L207.971487,38.6623218 L208.319348,38.6623218 C208.766599,38.6623218 209.064766,38.6623218 209.064766,38.0659878 L209.064766,33.0965377 L207.971487,33.0965377 L207.971487,32.7983707 C208.319348,32.5995927 208.66721,32.4008147 209.064766,32.2020367 L209.064766,31.1087576 C209.064766,30.0154786 209.512016,29.1706721 210.307128,28.4252546 C211.002851,27.7295316 211.499796,27.3816701 212.09613,27.3816701 C212.692464,27.3816701 213.189409,27.6301426 213.189409,28.3258656 C213.189409,28.7731161 212.891242,29.1706721 212.443992,29.1706721 C211.996741,29.1706721 211.996741,28.4252546 211.400407,28.4252546 C210.903462,28.4252546 210.804073,28.9221996 210.804073,29.4688391 L210.804073,32.2020367 L212.543381,32.2020367 L212.543381,33.0468432 L210.804073,33.0468432 L210.804073,38.0659878 L210.804073,38.0659878 Z" id="Shape"></path>
                    <path d="M215.972301,38.0659878 C215.972301,38.6126273 216.270468,38.6623218 217.06558,38.6623218 L217.363747,38.6623218 L217.363747,39.1095723 C216.61833,39.0598778 215.872912,39.0598778 215.0778,39.0598778 C214.431772,39.0598778 213.785743,39.1095723 213.139715,39.1095723 L213.139715,38.6623218 L213.487576,38.6623218 C213.934827,38.6623218 214.232994,38.6623218 214.232994,38.0659878 L214.232994,33.0965377 L213.139715,33.0965377 L213.139715,32.7983707 C213.487576,32.5995927 213.835438,32.4008147 214.232994,32.2020367 L214.232994,31.1087576 C214.232994,30.0154786 214.680244,29.1706721 215.475356,28.4252546 C216.171079,27.7295316 216.668024,27.3816701 217.264358,27.3816701 C217.860692,27.3816701 218.357637,27.6301426 218.357637,28.3258656 C218.357637,28.7731161 218.05947,29.1706721 217.61222,29.1706721 C217.164969,29.1706721 217.164969,28.4252546 216.568635,28.4252546 C216.07169,28.4252546 215.972301,28.9221996 215.972301,29.4688391 L215.972301,32.2020367 L217.711609,32.2020367 L217.711609,33.0468432 L215.972301,33.0468432 L215.972301,38.0659878 L215.972301,38.0659878 Z" id="Shape"></path>
                    <path d="M222.531976,35.6806517 C221.687169,35.9788187 220.295723,36.2769857 220.295723,37.3205703 C220.295723,37.9665988 220.643585,38.3144603 221.239919,38.3144603 C221.935642,38.3144603 222.382892,37.7181263 222.58167,37.4696538 L222.58167,35.6806517 L222.531976,35.6806517 Z M222.531976,34.2892057 C222.531976,33.3947047 221.985336,33.0468432 221.289613,33.0468432 C220.395112,33.0468432 220.196334,33.2456212 220.096945,34.1401222 C220.047251,34.5873727 219.252138,34.7364562 219.003666,34.7364562 C218.804888,34.7364562 218.705499,34.5873727 218.705499,34.3885947 C218.705499,33.7922607 219.05336,33.3450102 219.550305,33.0965377 C220.047251,32.8480652 220.643585,32.5002037 221.190224,32.2020367 C221.488391,32.0032587 221.786558,32.0032587 222.13442,32.0032587 C223.476171,32.0032587 224.221589,32.6989817 224.221589,34.0407332 L224.221589,37.1714868 C224.221589,37.8672098 224.271283,38.3144603 224.668839,38.3144603 C224.817923,38.3144603 224.967006,38.2150713 225.11609,38.1156823 L225.314868,38.4138493 C224.867617,39.0101833 224.470061,39.3580448 223.724644,39.3580448 C222.979226,39.3580448 222.631365,38.8610998 222.531976,38.1653768 C221.836253,38.8114053 221.190224,39.3580448 220.14664,39.3580448 C219.202444,39.3580448 218.457026,38.7617108 218.457026,37.7678208 C218.457026,36.5751527 219.401222,36.1775967 220.544196,35.7800407 L222.432587,35.0843177 L222.531976,34.2892057 L222.531976,34.2892057 Z" id="Shape"></path>
                    <path d="M227.749898,29.8663951 C227.203259,29.8663951 226.805703,29.4191446 226.805703,28.9221996 C226.805703,28.4252546 227.252953,27.9780041 227.749898,27.9780041 C228.296538,27.9780041 228.694094,28.4252546 228.694094,28.9221996 C228.694094,29.4191446 228.246843,29.8663951 227.749898,29.8663951 L227.749898,29.8663951 Z M228.594705,38.2647658 C228.594705,38.6126273 228.942566,38.6126273 229.340122,38.6126273 L229.5389,38.6126273 L229.5389,39.0598778 C228.942566,39.0101833 228.395927,39.0101833 227.799593,39.0101833 C227.153564,39.0101833 226.55723,39.0598778 225.960896,39.0598778 L225.960896,38.6126273 L226.060285,38.6126273 C226.507536,38.6126273 226.855397,38.6126273 226.855397,38.1653768 L226.855397,33.8419552 C226.855397,33.5934827 226.805703,33.4940937 226.507536,33.3947047 C226.308758,33.3450102 226.159674,33.2953157 225.960896,33.2456212 L225.960896,32.8977597 C226.408147,32.7983707 226.954786,32.5995927 227.352342,32.4505092 C227.700204,32.3014257 228.048065,32.1523422 228.445621,32.0032587 L228.644399,32.1523422 L228.594705,38.2647658 L228.594705,38.2647658 Z" id="Shape"></path>
                    <path d="M232.918126,38.3144603 C232.918126,38.6623218 233.365377,38.6623218 234.0611,38.6623218 L234.259878,38.6623218 L234.259878,39.1095723 C233.564155,39.1095723 232.818737,39.0598778 232.123014,39.0598778 C231.476986,39.0598778 230.830957,39.1095723 230.184929,39.1095723 L230.184929,38.6623218 L230.334012,38.6623218 C230.880652,38.6623218 231.178819,38.6126273 231.178819,38.2647658 L231.178819,34.0904277 C231.178819,33.5934827 231.07943,33.4443992 230.731568,33.3947047 C230.53279,33.3450102 230.433401,33.3450102 230.234623,33.2953157 L230.234623,32.9474542 C231.07943,32.7983707 231.874542,32.4505092 232.719348,32.0529532 L232.918126,32.1026477 L232.918126,33.1959267 L232.967821,33.1959267 C233.265988,32.7486762 233.912016,32.0529532 234.707128,32.0529532 C235.253768,32.0529532 235.651324,32.3014257 235.651324,32.9474542 C235.651324,33.5437882 235.253768,33.8419552 234.806517,33.8419552 C234.210183,33.8419552 234.210183,33.2456212 233.713238,33.2456212 C233.365377,33.2456212 232.868432,33.5437882 232.868432,34.2892057 L232.918126,38.3144603 L232.918126,38.3144603 Z" id="Shape"></path>
                    <path d="M240.571079,34.0407332 C240.521385,33.1959267 240.173523,32.5498982 239.179633,32.5498982 C238.632994,32.5498982 238.136049,32.8480652 238.136049,33.4940937 C238.136049,35.1837067 241.316497,34.7861507 241.316497,37.1217923 C241.316497,38.7617108 239.974745,39.3580448 238.682688,39.3580448 C237.937271,39.3580448 237.390631,39.1592668 236.843992,38.9604888 L236.694908,37.2211813 L237.142159,37.1217923 C237.241548,37.9665988 237.738493,38.7617108 238.632994,38.7617108 C239.229328,38.7617108 239.775967,38.4635438 239.775967,37.7678208 C239.775967,36.2769857 236.694908,36.5751527 236.694908,34.1898167 C236.694908,32.8480652 237.738493,32.0032587 239.129939,32.0032587 C239.825662,32.0032587 240.372301,32.1523422 240.968635,32.3511202 C240.918941,32.8977597 240.918941,33.4443992 240.918941,33.9910387 L240.571079,34.0407332 Z" id="Shape"></path>
                    <path d="M5.61547862,16.5979633 C5.61547862,17.7906314 5.61547862,18.8342159 8.05050916,18.8342159 C11.2806517,18.8342159 12.3242363,16.6476578 12.3242363,14.9580448 C12.3242363,11.0818737 9.9389002,10.2370672 7.25539715,10.2370672 L5.66517312,10.2370672 L5.66517312,16.5979633 L5.61547862,16.5979633 Z M5.61547862,9.29287169 L6.65906314,9.29287169 C8.84562118,9.29287169 10.7837067,8.59714868 10.7837067,5.16822811 C10.7837067,2.03747454 8.94501018,1.59022403 6.75845214,1.59022403 C6.41059063,1.59022403 6.06272912,1.63991853 5.61547862,1.63991853 L5.61547862,9.29287169 Z M0.546639511,18.9336049 C1.88839104,18.9832994 3.03136456,18.6354379 3.03136456,17.0949084 L3.03136456,3.37922607 C3.03136456,1.49083503 1.98778004,1.44114053 0.546639511,1.44114053 L0.546639511,0.745417515 C1.29205703,0.745417515 2.03747454,0.795112016 2.78289206,0.795112016 L3.62769857,0.795112016 C5.16822811,0.795112016 6.16211813,0.745417515 7.15600815,0.745417515 C9.14378819,0.745417515 13.4672098,1.34175153 13.4672098,5.1185336 C13.4672098,7.60325866 11.1812627,8.94501018 9.09409369,9.39226069 L9.09409369,9.44195519 C11.1315682,9.34256619 15.1568228,10.6843177 15.1568228,14.5107943 C15.1568228,17.3930754 12.6720978,19.5796334 7.90142566,19.5796334 C6.60936864,19.5796334 5.36700611,19.5299389 4.07494908,19.5299389 C2.88228106,19.5299389 1.68961303,19.5796334 0.546639511,19.5796334 L0.546639511,18.9336049 L0.546639511,18.9336049 Z" id="Shape"></path>
                    <path d="M22.1637475,9.29287169 L25.7417515,9.29287169 C27.9283096,9.29287169 27.9283096,7.55356415 28.0276986,6.95723014 L28.5743381,6.95723014 C28.5246436,7.55356415 28.4749491,8.99470468 28.4749491,9.9885947 C28.4749491,10.8334012 28.6240326,12.1254582 28.5743381,13.0199593 L28.0276986,13.0199593 C28.0276986,10.4358452 27.1828921,10.4358452 25.095723,10.4358452 L22.213442,10.4358452 L22.213442,15.0574338 C22.213442,18.0887984 22.312831,18.8342159 24.996334,18.8342159 L26.685947,18.8342159 C29.3197556,18.6851324 30.5124236,18.3372709 31.6057026,15.4549898 L32.2517312,15.5543788 C31.8044807,16.8961303 31.4069246,18.2875764 31.1584521,19.7287169 C28.4749491,19.7287169 25.7417515,19.6790224 23.008554,19.6790224 C21.0207739,19.6790224 18.9832994,19.6790224 16.9955193,19.7287169 L16.9955193,19.0329939 C19.3808554,19.0329939 19.5796334,18.5857434 19.5796334,16.0016293 L19.5796334,3.97556008 C19.5796334,1.73930754 19.1323829,1.63991853 16.9955193,1.59022403 L16.9955193,0.894501018 C18.8342159,0.944195519 20.6232179,0.944195519 22.4619145,0.944195519 C25.0460285,0.944195519 27.6301426,0.944195519 30.2639511,0.894501018 L30.2639511,4.9197556 L29.7173116,5.0688391 C29.3197556,2.53441955 28.1270876,1.78900204 25.39389,1.78900204 L22.2631365,1.78900204 L22.2631365,9.39226069 L22.1637475,9.39226069 L22.1637475,9.29287169 Z" id="Shape"></path>
                    <path d="M40.3519348,1.59022403 C39.6562118,1.59022403 39.2089613,1.63991853 38.7617108,1.73930754 L38.7617108,9.6904277 C39.1592668,9.7401222 39.7059063,9.8395112 40.2028513,9.8395112 C43.5323829,9.8395112 44.8244399,7.65295316 44.8244399,5.66517312 C44.7747454,3.37922607 43.5323829,1.59022403 40.3519348,1.59022403 L40.3519348,1.59022403 Z M38.7120163,10.7340122 L38.7120163,16.9955193 C38.7120163,18.8839104 39.7556008,18.9336049 41.1967413,18.9832994 L41.1967413,19.6790224 C39.9046843,19.6790224 38.7120163,19.6293279 37.5690428,19.6293279 C36.2769857,19.6293279 34.9849287,19.6790224 33.6431772,19.6790224 L33.6431772,18.9832994 C34.9849287,19.0329939 36.1279022,18.6851324 36.1279022,17.1446029 L36.1279022,3.37922607 C36.1279022,1.49083503 35.0843177,1.44114053 33.6431772,1.44114053 L33.6431772,0.745417515 C35.1340122,0.795112016 36.4260692,0.795112016 37.7678208,0.795112016 C38.7120163,0.795112016 39.6562118,0.745417515 41.3955193,0.745417515 C46.514053,0.745417515 47.6570265,3.62769857 47.6570265,5.56578411 C47.6570265,7.85173116 45.9177189,9.5910387 43.8305499,10.1873727 C46.3152749,13.8150713 47.607332,15.9519348 48.7503055,17.2936864 C49.595112,18.2378819 50.4399185,19.0329939 51.7816701,19.0329939 L51.7816701,19.7287169 C51.085947,19.7287169 50.4399185,19.6790224 49.7441955,19.6790224 C48.998778,19.6790224 48.203666,19.7287169 47.4582485,19.7287169 C44.9735234,16.9955193 43.1845214,13.8647658 41.2464358,10.7837067 L38.7120163,10.7837067 L38.7120163,10.7340122 Z" id="Shape"></path>
                    <path d="M63.3604888,3.57800407 C63.6586558,3.27983707 64.3543788,2.58411405 64.3543788,2.08716904 C64.3543788,1.49083503 63.5592668,1.49083503 62.8635438,1.49083503 L62.8635438,0.795112016 C64.0562118,0.844806517 65.2488798,0.844806517 66.3918534,0.844806517 C67.2863544,0.844806517 68.1311609,0.795112016 69.0256619,0.795112016 L69.0256619,1.49083503 C67.5348269,1.49083503 66.6403259,1.73930754 64.2052953,4.27372709 L59.5837067,9.09409369 C62.3169043,12.1254582 65.0004073,15.1568228 67.7832994,18.0887984 C68.6778004,18.9336049 69.5226069,18.9336049 70.1189409,18.9336049 L70.1189409,19.6293279 C69.2741344,19.5796334 68.3796334,19.5796334 67.4851324,19.5796334 C66.8391039,19.5796334 66.1930754,19.6293279 65.5470468,19.6293279 C62.8635438,16.3494908 59.9812627,13.3678208 57.1486762,10.2370672 L63.3604888,3.57800407 Z M51.7816701,18.9336049 C53.2228106,18.8839104 54.2663951,18.8839104 54.2663951,16.9458248 L54.2663951,3.37922607 C54.2663951,1.49083503 53.2228106,1.44114053 51.7816701,1.44114053 L51.7816701,0.745417515 C53.0737271,0.795112016 54.2663951,0.795112016 55.5087576,0.795112016 C56.7511202,0.795112016 57.9934827,0.745417515 58.9376782,0.745417515 L58.9376782,1.44114053 C57.8940937,1.49083503 56.9002037,1.49083503 56.9002037,3.37922607 L56.9002037,16.9955193 C56.9002037,18.8839104 57.9437882,18.9336049 59.0867617,18.9832994 L59.0867617,19.6790224 C58.0928717,19.6790224 56.9002037,19.6293279 55.7075356,19.6293279 C54.4154786,19.6293279 53.1234216,19.6790224 51.7816701,19.6790224 C51.7816701,19.6790224 51.7816701,18.9336049 51.7816701,18.9336049 Z" id="Shape"></path>
                    <path d="M85.6236253,19.6790224 C83.3376782,19.6293279 81.0517312,19.6293279 78.7657841,19.6293279 C76.3804481,19.6293279 73.9454175,19.6293279 71.609776,19.6790224 L71.609776,18.9832994 C72.9515275,19.0329939 74.094501,18.6851324 74.094501,17.1446029 L74.094501,3.42892057 C74.094501,1.54052953 73.0509165,1.49083503 71.609776,1.49083503 L71.609776,0.795112016 C72.8521385,0.844806517 74.094501,0.844806517 75.3368635,0.844806517 C76.5792261,0.844806517 77.8215886,0.795112016 79.1633401,0.795112016 L79.1633401,1.49083503 C77.7221996,1.54052953 76.6786151,1.54052953 76.6786151,3.42892057 L76.6786151,15.9519348 C76.6786151,17.9397149 77.1258656,18.7845214 80.9523422,18.7845214 C84.0830957,18.7845214 85.1763747,18.0391039 86.0211813,15.4052953 L86.6175153,15.5046843 L85.6236253,19.6790224 Z" id="Shape"></path>
                    <path d="M93.2765784,9.29287169 L96.8545825,9.29287169 C99.0411405,9.29287169 99.0411405,7.55356415 99.1405295,6.95723014 L99.687169,6.95723014 C99.6374745,7.55356415 99.58778,8.99470468 99.58778,9.9885947 C99.58778,10.8334012 99.7368635,12.1254582 99.687169,13.0199593 L99.1405295,13.0199593 C99.1405295,10.4358452 98.295723,10.4358452 96.1588595,10.4358452 L93.2765784,10.4358452 L93.2765784,15.0574338 C93.2765784,18.0887984 93.3759674,18.8342159 96.0594705,18.8342159 L97.7490835,18.8342159 C100.382892,18.6851324 101.57556,18.3372709 102.668839,15.4549898 L103.314868,15.5543788 C102.867617,16.8961303 102.470061,18.2875764 102.221589,19.7287169 C99.488391,19.7287169 96.804888,19.6790224 94.0716904,19.6790224 C92.0839104,19.6790224 90.0464358,19.6790224 88.0586558,19.7287169 L88.0586558,19.0329939 C90.4439919,19.0329939 90.6427699,18.5857434 90.6427699,16.0016293 L90.6427699,3.97556008 C90.6427699,1.73930754 90.1955193,1.63991853 88.0586558,1.59022403 L88.0586558,0.894501018 C89.8973523,0.944195519 91.6863544,0.944195519 93.5250509,0.944195519 C96.109165,0.944195519 98.693279,0.944195519 101.327088,0.894501018 L101.327088,4.9197556 L100.780448,5.0688391 C100.382892,2.53441955 99.190224,1.78900204 96.4570265,1.78900204 L93.3262729,1.78900204 L93.2765784,9.29287169 L93.2765784,9.29287169 Z" id="Shape"></path>
                    <path d="M115.191853,16.9955193 C115.191853,18.8839104 116.235438,18.9336049 117.676578,18.9832994 L117.676578,19.6790224 C116.334827,19.6293279 115.04277,19.6293279 113.850102,19.6293279 C112.657434,19.6293279 111.365377,19.6790224 110.123014,19.6790224 L110.123014,18.9832994 C111.564155,18.9336049 112.607739,18.9336049 112.607739,16.9955193 L112.607739,10.4358452 L106.942566,2.63380855 C106.147454,1.54052953 105.998371,1.54052953 104.457841,1.44114053 L104.457841,0.745417515 C104.954786,0.795112016 106.942566,0.795112016 108.234623,0.795112016 C109.327902,0.795112016 110.421181,0.745417515 111.51446,0.745417515 L111.51446,1.44114053 C111.06721,1.44114053 110.023625,1.44114053 110.023625,2.03747454 C110.023625,2.33564155 110.421181,2.98167006 110.918126,3.72708758 L114.694908,9.04439919 L118.223218,4.22403259 C118.521385,3.77678208 119.266802,2.88228106 119.266802,2.23625255 C119.266802,1.44114053 118.720163,1.44114053 117.328717,1.44114053 L117.328717,0.745417515 C118.372301,0.795112016 119.415886,0.795112016 120.45947,0.795112016 C121.155193,0.795112016 121.950305,0.745417515 122.695723,0.745417515 L122.695723,1.44114053 C121.552749,1.49083503 121.055804,2.18655804 120.45947,3.03136456 L115.291242,10.0382892 L115.191853,16.9955193 L115.191853,16.9955193 Z" id="Shape"></path>
                    <path d="M149.282281,5.66517312 L148.586558,5.66517312 C148.089613,2.53441955 145.85336,1.24236253 142.772301,1.24236253 C139.641548,1.24236253 135.169043,3.32953157 135.169043,9.8395112 C135.169043,15.3059063 139.094908,19.2317719 143.219552,19.2317719 C145.903055,19.2317719 148.139308,17.3930754 148.685947,14.5604888 L149.331976,14.7592668 L148.685947,18.6851324 C147.542974,19.3808554 144.511609,20.1262729 142.722607,20.1262729 C136.361711,20.1262729 132.386151,16.0513238 132.386151,9.9389002 C132.386151,4.37311609 137.305906,0.397556008 142.672912,0.397556008 C144.85947,0.397556008 146.94664,1.09327902 149.033809,1.83869654 L149.282281,5.66517312 Z" id="Shape"></path>
                    <path d="M156.438289,9.29287169 L160.016293,9.29287169 C162.202851,9.29287169 162.202851,7.55356415 162.252546,6.95723014 L162.799185,6.95723014 C162.749491,7.55356415 162.699796,8.99470468 162.699796,9.9885947 C162.699796,10.8334012 162.84888,12.1254582 162.799185,13.0199593 L162.252546,13.0199593 C162.252546,10.4358452 161.407739,10.4358452 159.32057,10.4358452 L156.438289,10.4358452 L156.438289,15.0574338 C156.438289,18.0887984 156.537678,18.8342159 159.221181,18.8342159 L160.910794,18.8342159 C163.544603,18.6851324 164.737271,18.3372709 165.83055,15.4549898 L166.476578,15.5543788 C166.029328,16.8961303 165.631772,18.2875764 165.383299,19.7287169 C162.650102,19.7287169 159.966599,19.6790224 157.233401,19.6790224 C155.245621,19.6790224 153.208147,19.6790224 151.220367,19.7287169 L151.220367,19.0329939 C153.605703,19.0329939 153.804481,18.5857434 153.804481,16.0016293 L153.804481,3.97556008 C153.804481,1.73930754 153.35723,1.63991853 151.220367,1.59022403 L151.220367,0.894501018 C153.059063,0.944195519 154.848065,0.944195519 156.686762,0.944195519 C159.32057,0.944195519 161.85499,0.944195519 164.488798,0.894501018 L164.488798,4.9197556 L163.942159,5.0688391 C163.544603,2.53441955 162.351935,1.78900204 159.618737,1.78900204 L156.487984,1.78900204 L156.438289,9.29287169 L156.438289,9.29287169 Z" id="Shape"></path>
                    <path d="M186.503462,19.9274949 L185.857434,19.9274949 L171.694501,4.37311609 L171.694501,14.4610998 C171.694501,18.1881874 171.992668,18.9832994 174.924644,18.9832994 L174.924644,19.6790224 C173.731976,19.6790224 172.539308,19.6293279 171.296945,19.6293279 C170.104277,19.6293279 168.911609,19.6790224 167.669246,19.6790224 L167.669246,18.9832994 C169.309165,18.9832994 170.551527,18.9832994 170.551527,15.5543788 L170.551527,4.6712831 C170.551527,2.33564155 169.557637,1.54052953 167.221996,1.54052953 L167.221996,0.844806517 C168.066802,0.894501018 168.861914,0.894501018 169.706721,0.894501018 C170.452138,0.894501018 171.197556,0.844806517 171.942974,0.844806517 C173.036253,2.48472505 175.570672,4.9694501 178.651731,8.34867617 C180.937678,10.8830957 183.472098,13.5665988 185.360489,15.6040733 L185.360489,4.8203666 C185.360489,2.33564155 184.764155,1.54052953 182.080652,1.54052953 L182.080652,0.844806517 C183.323014,0.894501018 184.565377,0.894501018 185.857434,0.894501018 C186.950713,0.894501018 187.944603,0.844806517 188.988187,0.844806517 L188.988187,1.54052953 C187.348269,1.54052953 186.453768,1.68961303 186.453768,4.32342159 L186.503462,19.9274949 L186.503462,19.9274949 Z" id="Shape"></path>
                    <path d="M206.778819,4.27372709 L206.083096,4.27372709 C206.033401,2.78289206 206.083096,1.83869654 203.946232,1.83869654 L199.821589,1.83869654 L199.821589,16.9955193 C199.821589,18.8839104 200.865173,18.9336049 202.306314,18.9832994 L202.306314,19.6790224 C201.014257,19.6790224 199.821589,19.6293279 198.678615,19.6293279 C197.386558,19.6293279 196.094501,19.6790224 194.752749,19.6790224 L194.752749,18.9832994 C196.19389,18.9336049 197.237475,18.9336049 197.237475,16.9955193 L197.237475,1.83869654 L193.709165,1.83869654 C191.274134,1.83869654 191.174745,2.53441955 190.6778,4.27372709 L189.982077,4.27372709 L190.280244,0 L190.826884,0 C191.125051,0.695723014 191.870468,0.745417515 192.566191,0.745417515 L204.840733,0.745417515 C205.784929,0.745417515 206.480652,0.49694501 206.580041,0 L207.176375,0 L206.778819,4.27372709 Z" id="Shape"></path>
                    <path d="M213.537271,9.29287169 L217.115275,9.29287169 C219.301833,9.29287169 219.301833,7.55356415 219.351527,6.95723014 L219.898167,6.95723014 C219.848473,7.55356415 219.798778,8.99470468 219.798778,9.9885947 C219.798778,10.8334012 219.947862,12.1254582 219.898167,13.0199593 L219.351527,13.0199593 C219.351527,10.4358452 218.506721,10.4358452 216.419552,10.4358452 L213.537271,10.4358452 L213.537271,15.0574338 C213.537271,18.0887984 213.63666,18.8342159 216.320163,18.8342159 L218.009776,18.8342159 C220.643585,18.6851324 221.836253,18.3372709 222.929532,15.4549898 L223.57556,15.5543788 C223.12831,16.8961303 222.730754,18.2875764 222.482281,19.7287169 C219.749084,19.7287169 217.06558,19.6790224 214.332383,19.6790224 C212.344603,19.6790224 210.307128,19.6790224 208.319348,19.7287169 L208.319348,19.0329939 C210.704684,19.0329939 210.903462,18.5857434 210.903462,16.0016293 L210.903462,3.97556008 C210.903462,1.73930754 210.456212,1.63991853 208.319348,1.59022403 L208.319348,0.894501018 C210.158045,0.944195519 211.947047,0.944195519 213.785743,0.944195519 C216.419552,0.944195519 218.953971,0.944195519 221.58778,0.894501018 L221.58778,4.9197556 L221.041141,5.0688391 C220.643585,2.53441955 219.450916,1.78900204 216.717719,1.78900204 L213.586965,1.78900204 L213.537271,9.29287169 L213.537271,9.29287169 Z" id="Shape"></path>
                    <path d="M231.725458,1.59022403 C231.029735,1.59022403 230.582485,1.63991853 230.135234,1.73930754 L230.135234,9.6904277 C230.53279,9.7401222 231.07943,9.8395112 231.576375,9.8395112 C234.905906,9.8395112 236.197963,7.65295316 236.197963,5.66517312 C236.148269,3.37922607 234.905906,1.59022403 231.725458,1.59022403 L231.725458,1.59022403 Z M230.08554,10.7340122 L230.08554,16.9955193 C230.08554,18.8839104 231.129124,18.9336049 232.570265,18.9832994 L232.570265,19.6790224 C231.278208,19.6790224 230.08554,19.6293279 228.942566,19.6293279 C227.650509,19.6293279 226.358452,19.6790224 225.016701,19.6790224 L225.016701,18.9832994 C226.358452,19.0329939 227.501426,18.6851324 227.501426,17.1446029 L227.501426,3.37922607 C227.501426,1.49083503 226.457841,1.44114053 225.016701,1.44114053 L225.016701,0.745417515 C226.507536,0.795112016 227.799593,0.795112016 229.141344,0.795112016 C230.08554,0.795112016 231.029735,0.745417515 232.769043,0.745417515 C237.887576,0.745417515 239.03055,3.62769857 239.03055,5.56578411 C239.03055,7.85173116 237.291242,9.5910387 235.204073,10.1873727 C237.688798,13.8150713 238.980855,15.9519348 240.123829,17.2439919 C240.968635,18.1881874 241.813442,18.9832994 243.155193,18.9832994 L243.155193,19.6790224 C242.45947,19.6790224 241.813442,19.6293279 241.117719,19.6293279 C240.372301,19.6293279 239.577189,19.6790224 238.831772,19.6790224 C236.347047,16.9458248 234.558045,13.8150713 232.619959,10.7340122 L230.08554,10.7340122 L230.08554,10.7340122 Z" id="Shape"></path>
                </g>
                <rect id="Rectangle-path" fill="#98846D" fill-rule="nonzero" x="0.149083503" y="48.998778" width="243.45336" height="1"></rect>
            </g>
        </g>
    </g>
</svg>