<?xml version="1.0" encoding="utf-8"?>
<!-- Generator: Adobe Illustrator 18.1.1, SVG Export Plug-In . SVG Version: 6.00 Build 0)  -->
<svg version="1.1" id="Layer_1" xmlns="http://www.w3.org/2000/svg" xmlns:xlink="http://www.w3.org/1999/xlink" x="0px" y="0px"
	 viewBox="12 278 586 224" enable-background="new 12 278 586 224" xml:space="preserve">
<g>
	<g>
		<g>
			<defs>
				<rect id="SVGID_1_" x="60.3" y="330" width="489.9" height="131.4"/>
			</defs>
			<clipPath id="SVGID_2_">
				<use xlink:href="#SVGID_1_"  overflow="visible"/>
			</clipPath>
			<path clip-path="url(#SVGID_2_)" fill="#98846D" d="M62.1,453.6L62.1,453.6c0-4.3,3.3-7.8,7.9-7.8c2.7,0,4.3,0.7,5.9,2.1
				l-2.1,2.5c-1.2-0.9-2.2-1.5-3.9-1.5c-2.4,0-4.3,2.1-4.3,4.7v0.1c0,2.7,1.9,4.8,4.5,4.8c1.2,0,2.2-0.3,3.1-0.9v-2.2h-3.3v-2.9h6.5
				v6.5c-1.5,1.3-3.7,2.4-6.4,2.4C65.2,461.4,62.1,458,62.1,453.6"/>
		</g>
	</g>
	<polygon fill="#98846D" points="88.3,446.1 88.3,461.1 99.7,461.1 99.7,458.1 91.6,458.1 91.6,454.9 98.7,454.9 98.7,452.1 
		91.6,452.1 91.6,449 99.6,449 99.6,446.1 	"/>
	<g>
		<g>
			<defs>
				<rect id="SVGID_3_" x="60.3" y="330" width="489.9" height="131.4"/>
			</defs>
			<clipPath id="SVGID_4_">
				<use xlink:href="#SVGID_3_"  overflow="visible"/>
			</clipPath>
			<path clip-path="url(#SVGID_4_)" fill="#98846D" d="M123.3,453.6L123.3,453.6c0-2.6-1.9-4.8-4.5-4.8c-2.7,0-4.5,2.1-4.5,4.7v0.1
				c0,2.6,1.9,4.7,4.5,4.7C121.5,458.3,123.3,456.2,123.3,453.6 M110.8,453.6L110.8,453.6c0-4.3,3.4-7.8,8-7.8s7.9,3.5,7.9,7.7v0.1
				c0,4.3-3.4,7.8-8,7.8S110.8,457.9,110.8,453.6"/>
		</g>
		<g>
			<defs>
				<rect id="SVGID_5_" x="60.3" y="330" width="489.9" height="131.4"/>
			</defs>
			<clipPath id="SVGID_6_">
				<use xlink:href="#SVGID_5_"  overflow="visible"/>
			</clipPath>
			<path clip-path="url(#SVGID_6_)" fill="#98846D" d="M145.1,453.4c1.6,0,2.5-0.9,2.5-2.2v-0.1c0-1.4-1-2.1-2.6-2.1h-3.2v4.3H145.1
				z M138.5,446.1h6.8c1.9,0,3.4,0.6,4.4,1.5c0.9,0.9,1.3,2,1.3,3.5v0.1c0,2.4-1.3,4-3.2,4.6l3.7,5.3h-3.9l-3.2-4.8h-0.1h-2.5v4.8
				h-3.3L138.5,446.1L138.5,446.1z"/>
		</g>
		<g>
			<defs>
				<rect id="SVGID_7_" x="60.3" y="330" width="489.9" height="131.4"/>
			</defs>
			<clipPath id="SVGID_8_">
				<use xlink:href="#SVGID_7_"  overflow="visible"/>
			</clipPath>
			<path clip-path="url(#SVGID_8_)" fill="#98846D" d="M162.1,453.6L162.1,453.6c0-4.3,3.3-7.8,7.9-7.8c2.7,0,4.3,0.7,5.9,2.1
				l-2.1,2.5c-1.2-0.9-2.2-1.5-3.9-1.5c-2.4,0-4.3,2.1-4.3,4.7v0.1c0,2.7,1.9,4.8,4.5,4.8c1.2,0,2.3-0.3,3.1-0.9v-2.2h-3.3v-2.9h6.6
				v6.5c-1.5,1.3-3.7,2.4-6.4,2.4C165.4,461.4,162.1,458,162.1,453.6"/>
		</g>
	</g>
	<polygon fill="#98846D" points="188.4,446.1 188.4,461.1 199.8,461.1 199.8,458.1 191.7,458.1 191.7,454.9 198.7,454.9 
		198.7,452.1 191.7,452.1 191.7,449 199.8,449 199.8,446.1 	"/>
	<polygon fill="#98846D" points="210.5,446.1 210.5,449.1 215,449.1 215,461.1 218.3,461.1 218.3,449.1 223,449.1 223,446.1 	"/>
	<g>
		<g>
			<defs>
				<rect id="SVGID_9_" x="60.3" y="330" width="489.9" height="131.4"/>
			</defs>
			<clipPath id="SVGID_10_">
				<use xlink:href="#SVGID_9_"  overflow="visible"/>
			</clipPath>
			<path clip-path="url(#SVGID_10_)" fill="#98846D" d="M245.4,453.6L245.4,453.6c0-2.6-1.9-4.8-4.5-4.8s-4.5,2.1-4.5,4.7v0.1
				c0,2.6,1.9,4.7,4.5,4.7S245.4,456.2,245.4,453.6 M233,453.6L233,453.6c0-4.3,3.4-7.8,8-7.8c4.6,0,7.9,3.5,7.9,7.7v0.1
				c0,4.3-3.4,7.8-8,7.8C236.3,461.4,233,457.9,233,453.6"/>
		</g>
	</g>
	<polygon fill="#98846D" points="268.6,446 265.3,456.2 262.2,446.1 258.6,446.1 263.7,461.2 266.6,461.2 270,451.3 273.4,461.2 
		276.3,461.2 281.4,446.1 277.9,446.1 274.8,456.2 271.5,446 	"/>
	<polygon fill="#98846D" points="302.7,446.1 302.7,455.3 295.7,446.1 292.6,446.1 292.6,461.1 295.9,461.1 295.9,451.6 
		303.2,461.1 306,461.1 306,446.1 	"/>
	<g>
		<path fill="#98846D" d="M333.4,454.7v-8.6h3.3v8.5c0,2.4,1.2,3.7,3.2,3.7c2,0,3.2-1.2,3.2-3.6v-8.6h3.3v8.4c0,4.5-2.5,6.8-6.6,6.8
			C335.8,461.3,333.4,459.1,333.4,454.7"/>
	</g>
	<polygon fill="#98846D" points="368.7,446.1 368.7,455.3 361.7,446.1 358.6,446.1 358.6,461.1 361.9,461.1 361.9,451.6 
		369.2,461.1 372,461.1 372,446.1 	"/>
	<rect x="384.5" y="446.1" fill="#98846D" width="3.3" height="15"/>
	<polygon fill="#98846D" points="410.5,446.1 406.6,456.6 402.7,446.1 399.1,446.1 405.1,461.2 408,461.2 414.1,446.1 	"/>
	<polygon fill="#98846D" points="425.2,446.1 425.2,461.1 436.7,461.1 436.7,458.1 428.5,458.1 428.5,454.9 435.6,454.9 
		435.6,452.1 428.5,452.1 428.5,449 436.5,449 436.5,446.1 	"/>
	<g>
		<path fill="#98846D" d="M455.1,453.4c1.6,0,2.5-0.9,2.5-2.2v-0.1c0-1.4-1-2.1-2.6-2.1h-3.3v4.3H455.1z M448.4,446.1h6.8
			c1.9,0,3.4,0.6,4.4,1.5c0.9,0.9,1.3,2,1.3,3.5v0.1c0,2.4-1.3,4-3.2,4.6l3.7,5.3h-3.9l-3.2-4.8h-0.1h-2.5v4.8h-3.3L448.4,446.1
			L448.4,446.1z"/>
		<path fill="#98846D" d="M471.6,458.9l1.9-2.3c1.4,1.1,2.7,1.8,4.5,1.8c1.4,0,2.2-0.5,2.2-1.4l0,0c0-0.9-0.5-1.3-3-1.9
			c-3-0.8-5-1.6-5-4.6v-0.1c0-2.7,2.2-4.5,5.3-4.5c2.2,0,4,0.6,5.5,1.9l-1.7,2.5c-1.3-0.9-2.7-1.4-3.9-1.4c-1.3,0-1.9,0.6-1.9,1.3
			v0.1c0,1,0.6,1.3,3.2,1.9c3,0.8,4.8,1.9,4.8,4.5v0.1c0,3-2.3,4.7-5.5,4.7C475.7,461.3,473.4,460.5,471.6,458.9"/>
	</g>
	<rect x="495.3" y="446.1" fill="#98846D" width="3.3" height="15"/>
	<polygon fill="#98846D" points="510.1,446.1 510.1,449.1 514.7,449.1 514.7,461.1 518,461.1 518,449.1 522.6,449.1 522.6,446.1 	
		"/>
	<polygon fill="#98846D" points="543.5,446.1 539.8,452.1 536.2,446.1 532.4,446.1 538.1,455.2 538.1,461.1 541.5,461.1 
		541.5,455.1 547.2,446.1 	"/>
	<g>
		<path fill="#98846D" d="M65.1,398.3h-2.5l0.3-1.3h2.6c0.8-5.1,4.2-8.2,7.3-8.2c0.6,0,1.2,0.4,1.2,1.1c0,0.8-0.2,1.7-0.9,1.7
			c-0.9,0-1.2-0.9-2.4-0.9c-1.2,0-1.4,1.6-1.7,3.1l-0.6,3.2h3l-0.3,1.3h-3c-1.1,5.5-2.8,10.7-4.4,16l-1.8,0.6l-0.3-0.2L65.1,398.3z"
			/>
		<path fill="#98846D" d="M80.4,400.4c0-1.4-0.3-2.8-2.1-2.8c-3.1,0-4.3,5.1-4.3,7.6c0,1.7,0.4,3,2.1,3
			C79.3,408.1,80.4,402.6,80.4,400.4 M83.3,401.6c0,3.8-2.8,7.5-7.1,7.5c-3.2,0-5.1-2.4-5.1-5c0-4.3,3.4-7.5,7.1-7.5
			C81.7,396.6,83.3,398.8,83.3,401.6"/>
		<path fill="#98846D" d="M87.3,402.2c0.1-0.6,0.5-1.9,0.5-2.3c0-0.2,0-0.6-0.4-0.6c-0.6,0-1.7,1.1-2,1.5l-0.5-0.6
			c0.9-1.2,3.2-3.7,4.7-3.7c0.8,0,1.1,0.4,1.1,1.2c0,1.4-0.8,3.5-1.2,4.7l0.1,0.1c1.1-1.6,3.2-5.9,5.3-5.9c0.7,0,1.1,0.4,1.1,1
			c0,0.8-0.4,1.9-1.3,1.9c-0.5,0-0.7-0.1-1.2-0.1c-1.3,0-3.3,3.4-4.7,6.9c-0.4,0.9-0.6,1.9-0.7,2.2c-0.2,0.4-0.6,0.4-1.4,0.4
			c-0.9,0-1.2-0.2-1.2-0.5c0-0.1,0.4-1.5,0.5-1.9L87.3,402.2z"/>
		<path fill="#98846D" d="M114.4,397.6h1.5c3.1,0,4.8-1.2,4.8-4.8c0-2.7-1.7-4.5-4.5-4.5c-0.9,0-1.3,0.1-1.7,0.1
			C114.4,388.4,114.4,397.6,114.4,397.6z M110.5,390.5c0-2.2-1.2-2.4-2.2-2.4h-0.6v-0.9c1,0,2.9,0.1,4.8,0.1c1.9,0,3.3-0.1,5-0.1
			c3.9,0,7.3,1.1,7.3,5.4c0,2.8-1.9,4.5-4.3,5.5l5.3,7.9c0.9,1.3,1.5,1.7,3,1.9v0.9c-1,0-2-0.1-3-0.1c-0.9,0-1.9,0.1-2.9,0.1
			c-2.4-3.1-4.4-6.5-6.4-10h-2v6.6c0,2.4,1.1,2.4,2.5,2.4h0.6v0.9c-1.7,0-3.5-0.1-5.3-0.1c-1.4,0-3,0.1-4.5,0.1v-0.9h0.6
			c1.2,0,2.2-0.5,2.2-1.7C110.5,406.2,110.5,390.5,110.5,390.5z"/>
		<path fill="#98846D" d="M137.2,399.2c1.7,0,1.9,0,1.9-1.2c0-1.2-0.8-2.6-2.2-2.6c-1.9,0-3,1.8-3.3,3.7L137.2,399.2L137.2,399.2z
			 M142.6,405.3c-1.2,2.2-3.3,3.9-5.9,3.9c-3.9,0-6-3.6-6-7.1c0-3.9,2.6-7.7,6.8-7.7c3.2,0,4.9,2.4,4.8,5.4l-0.4,0.4h-8.4
			c0,3.2,1.4,6.3,4.8,6.3c1.4,0,2.7-0.6,3.7-1.7L142.6,405.3z"/>
		<path fill="#98846D" d="M145.9,389.3c0-0.6-0.1-0.9-0.8-1.2c-0.4-0.1-0.6-0.3-1-0.4v-0.7c1.4-0.4,3.5-1.2,5-1.8l0.4,0.3v21.5
			c0,0.9,0.7,0.9,1.6,0.9h0.4v0.9c-1.2-0.1-2.3-0.1-3.5-0.1c-1.3,0-2.5,0.1-3.7,0.1v-0.9c1,0,1.8,0,1.8-0.9L145.9,389.3L145.9,389.3
			z"/>
		<path fill="#98846D" d="M156.3,390.1c-1.1,0-1.9-0.9-1.9-1.9s0.9-1.9,1.9-1.9c1.1,0,1.9,0.9,1.9,1.9
			C158.3,389.2,157.4,390.1,156.3,390.1 M158,407c0,0.7,0.7,0.7,1.5,0.7h0.4v0.9c-1.2-0.1-2.4-0.1-3.5-0.1c-1.3,0-2.5,0.1-3.7,0.1
			v-0.9h0.2c0.9,0,1.6,0,1.6-0.9v-8.7c0-0.5-0.1-0.7-0.7-0.9c-0.4-0.1-0.7-0.2-1.1-0.3v-0.7c0.9-0.2,2-0.6,2.8-0.9
			c0.7-0.3,1.4-0.6,2.1-0.9l0.4,0.3L158,407L158,407z"/>
		<path fill="#98846D" d="M167.9,403.1c1.9,0,2.3-1.9,2.3-3.5c0-1.5-0.6-4.3-2.5-4.3c-2,0-2.4,2.2-2.4,3.7
			C165.2,400.5,166,403.1,167.9,403.1 M169.2,409.2c-1.9,0-5,0.4-5,2.7c0,2.1,1.7,2.7,4,2.7c2.1,0,5-1.1,5-3.2
			C173,409.4,170.9,409.2,169.2,409.2 M164.8,403.6c-1.7-0.8-3-2.3-3-4.3c0-3.1,3.1-4.9,5.9-4.9c1.4,0,2.6,0.2,3.7,0.8
			c0.4,0.2,0.9,0.2,1.4,0.2h2.7v1.5h-2.4c0.4,0.9,0.5,1.6,0.5,2.4c0,3-2.9,4.9-5.8,4.9c-0.6,0-1.4-0.1-2-0.3l-0.7,0.6
			c-0.1,1.6,1.2,1.6,2.3,1.6c1.4,0,2.7-0.1,4.1-0.1c2.2,0,4,0.9,4,3.3c0,4.8-4.8,6.4-8.1,6.4c-2.9,0-5.9-1-5.9-3.3
			c0-2,1.4-2.7,3.7-3.6v-0.1c-2.1-0.2-3.1-1.2-3.1-3.3L164.8,403.6z"/>
		<path fill="#98846D" d="M180.7,390.1c-1.1,0-1.9-0.9-1.9-1.9s0.9-1.9,1.9-1.9c1.1,0,1.9,0.9,1.9,1.9
			C182.5,389.2,181.7,390.1,180.7,390.1 M182.4,407c0,0.7,0.7,0.7,1.4,0.7h0.4v0.9c-1.2-0.1-2.4-0.1-3.5-0.1c-1.3,0-2.5,0.1-3.7,0.1
			v-0.9h0.2c0.9,0,1.6,0,1.6-0.9v-8.7c0-0.5-0.1-0.7-0.7-0.9c-0.4-0.1-0.7-0.2-1.1-0.3v-0.7c0.9-0.2,2-0.6,2.8-0.9
			c0.7-0.3,1.4-0.6,2.2-0.9l0.4,0.3V407z"/>
		<path fill="#98846D" d="M190.1,401.8c0,2.6,0.8,6.2,3.8,6.2c2.9,0,3.5-3,3.5-5.8c0-2.2-0.7-6.8-3.7-6.8
			C190.4,395.5,190.1,399.4,190.1,401.8 M193.8,394.4c4.5,0,7.4,2.9,7.4,7.2c0,4.2-3.2,7.6-7.4,7.6c-4.3,0-7.4-3.2-7.4-7.4
			C186.4,397.6,189.4,394.4,193.8,394.4"/>
		<path fill="#98846D" d="M203.2,407.8h0.2c0.9,0,1.6,0,1.6-0.9v-8.7c0-0.5-0.1-0.7-0.7-0.9c-0.4-0.1-0.7-0.2-1.1-0.3v-0.7
			c0.9-0.2,2-0.6,2.8-0.9c0.7-0.3,1.4-0.6,2.2-0.9l0.4,0.3v1.9c1.4-0.9,3-2.2,4.8-2.2c2.2,0,3.8,1.1,3.8,4v8.6
			c0,0.9,0.8,0.9,1.5,0.9h0.4v0.9c-1.2-0.1-2.3-0.1-3.5-0.1c-1.2,0-2.4,0.1-3.7,0.1v-0.9h0.3c0.6,0,1.5,0,1.5-0.8v-7.7
			c0-1.9-0.9-2.6-2.3-2.6c-1,0-2.2,0.6-2.8,1v9.3c0,0.7,0.7,0.7,1.5,0.7h0.4v0.9c-1.2-0.1-2.4-0.1-3.5-0.1c-1.3,0-2.5,0.1-3.7,0.1
			v-0.9H203.2z"/>
		<path fill="#98846D" d="M220.9,413.2c1.4-0.4,3.5-1.3,3.5-3c0-2.2-2.7-1.1-2.7-3.5c0-1.2,1-2.4,2.3-2.4c2,0,3,1.7,3,3.5
			c0,3.4-2.4,5.4-5.5,6.2L220.9,413.2z"/>
		<path fill="#98846D" d="M245.2,405.2c0,2.5,1.4,2.5,3,2.5h0.5v0.9c-1.6,0-3.1-0.1-4.7-0.1c-1.7,0-3.4,0.1-5.1,0.1v-0.9h0.5
			c0.9,0,1.9,0,1.9-2.5v-14.8c0-2.1-0.6-2.4-2.1-2.4h-0.4v-0.9c1.1,0,2.7,0.1,4.3,0.1s3.1-0.1,4.5-0.1c4.2,0,7.3,1.4,7.3,5.9
			c0,3.6-2.6,5.9-6,6.3c-0.9,0.1-1.7,0.1-2.4,0.1v-0.9h0.6c2.5,0,3.7-2.2,3.7-5.3c0-3-1.5-4.9-4.7-4.9h-0.9v17H245.2z"/>
		<path fill="#98846D" d="M263.1,399.2c1.7,0,1.9,0,1.9-1.2c0-1.2-0.8-2.6-2.2-2.6c-1.9,0-3,1.8-3.3,3.7L263.1,399.2L263.1,399.2z
			 M268.5,405.3c-1.2,2.2-3.3,3.9-5.9,3.9c-3.9,0-6-3.6-6-7.1c0-3.9,2.7-7.7,6.8-7.7c3.2,0,4.9,2.4,4.8,5.4l-0.4,0.4h-8.4
			c0,3.2,1.4,6.3,4.8,6.3c1.5,0,2.7-0.6,3.7-1.7L268.5,405.3z"/>
		<path fill="#98846D" d="M278.7,401.8c-1.7,0.6-4.5,1.2-4.5,3.3c0,1.3,0.7,2,1.9,2c1.4,0,2.3-1.2,2.7-1.7L278.7,401.8L278.7,401.8z
			 M278.7,399c0-1.8-1.1-2.5-2.4-2.5c-1.8,0-2.2,0.4-2.4,2.2c-0.1,0.9-1.7,1.2-2.2,1.2c-0.4,0-0.6-0.3-0.6-0.7
			c0-1.2,0.7-2.1,1.7-2.6c1-0.5,2.2-1.2,3.3-1.8c0.6-0.4,1.2-0.4,1.9-0.4c2.7,0,4.2,1.4,4.2,4.1v6.3c0,1.4,0.1,2.3,0.9,2.3
			c0.3,0,0.6-0.2,0.9-0.4l0.4,0.6c-0.9,1.2-1.7,1.9-3.2,1.9c-1.5,0-2.2-1-2.4-2.4c-1.4,1.3-2.7,2.4-4.8,2.4c-1.9,0-3.4-1.2-3.4-3.2
			c0-2.4,2-3.2,4.2-4l3.8-1.4V399H278.7z"/>
		<path fill="#98846D" d="M298.3,405.4c-1.5,2.2-3,3.7-5.8,3.7c-4.1,0-6.5-2.8-6.5-6.8c0-4.3,3.5-7.9,7.8-7.9c2.1,0,4,0.5,4,2.3
			c0,0.9-0.7,1.7-1.7,1.7c-1.7,0-1.4-2.6-3.7-2.6c-2.2,0-3.2,1.8-3.2,4.3c0,3,1.3,6.6,4.8,6.6c1.7,0,2.4-0.6,3.7-1.9L298.3,405.4z"
			/>
		<path fill="#98846D" d="M306.4,399.2c1.7,0,1.9,0,1.9-1.2c0-1.2-0.8-2.6-2.2-2.6c-1.9,0-3,1.8-3.2,3.7L306.4,399.2L306.4,399.2z
			 M311.8,405.3c-1.2,2.2-3.3,3.9-5.9,3.9c-3.9,0-6-3.6-6-7.1c0-3.9,2.6-7.7,6.8-7.7c3.2,0,4.9,2.4,4.8,5.4l-0.4,0.4h-8.4
			c0,3.2,1.4,6.3,4.8,6.3c1.5,0,2.7-0.6,3.7-1.7L311.8,405.3z"/>
		<path fill="#98846D" d="M333.4,390.8c0-1.4-1-2.5-2.4-2.5c-1.3,0-2.2,1.1-2.2,2.3c0,1.7,1.4,2.9,2.7,3.6
			C332.6,393.3,333.4,392.3,333.4,390.8 M326.6,400.9c0,3,2.5,5.3,5.5,5.3c2.3,0,3.5-0.9,5-2.4c-2.1-3-4.8-5.4-7.9-7.3
			C327.7,397.6,326.6,399,326.6,400.9 M340.6,392.6c1.4,0.1,2.9,0.1,4.3,0.1c1.4,0,2.9-0.1,4.3-0.1v0.9c-0.6,0-1.1,0.1-1.7,0.1
			c-3.1,0.2-5.8,5.8-7.6,8c1.3,1.9,3.5,5.2,6.1,5.2c1.4,0,2.4-0.6,3.2-1.8l0.6,0.5c-1.3,2-3.4,3.7-5.9,3.7c-3.2,0-5-2.4-6.6-4.8
			c-1.9,2.4-4.5,4.6-7.7,4.6c-3.7,0-6.3-2.7-6.3-6.3c0-3,2.4-5.5,4.8-6.8c-1.4-1.1-2.3-2.5-2.3-4.3c0-2.7,2.6-4.5,5.2-4.5
			c1.9,0,4.4,0.9,4.4,3.2c0,2.2-1.7,3.2-3.5,4.3c2.8,1.5,5.2,3.8,7.1,6.3c0.7-1.2,3.2-5,3.2-6.3c0-1.1-1.2-1.2-2-1.2v-0.8H340.6z"/>
		<path fill="#98846D" d="M380.4,390.3c0.2-0.6,0.4-1,0.4-1.3c0-0.8-0.7-0.9-1.7-0.9c-0.8,0-1.5,0.1-1.5,0.8c0,0.4,0.2,0.9,0.5,1.5
			l1.2,2.7h0.1L380.4,390.3z M377.9,399.5l-4.1,9.7h-1.1l-7.8-18.4c-0.6-1.4-1-2.7-2.7-2.7h-0.4v-0.9c1.2,0,3,0.1,4.5,0.1
			c1.3,0,2.9-0.1,3.9-0.1v0.9h-0.3c-0.7,0-1.3,0.1-1.3,0.7c0,0.4,0.3,1.3,1.1,3.2l5,11.9l2.5-6.1l-3.8-8.9c-0.3-0.7-1.1-0.9-1.9-0.9
			v-0.9c1.4,0,2.9,0.1,4.3,0.1c1.2,0,2.2-0.1,3.4-0.1c1,0,2,0.1,3,0.1s1.9-0.1,2.8-0.1v0.9h-0.4c-1.6,0-1.9,0.6-2.7,2.4l-1.8,4.3
			l3.8,8.9l4.8-13c0.1-0.5,0.4-1.3,0.4-1.7c0-0.6-0.6-0.9-1.9-0.9h-0.4v-0.9c1,0,2,0.1,3,0.1c0.9,0,1.8-0.1,2.7-0.1v0.9h-0.4
			c-0.9,0-1.4,1-1.8,2l-7.4,19.2H382L377.9,399.5z"/>
		<path fill="#98846D" d="M394.9,401.8c0,2.6,0.8,6.2,3.8,6.2c2.9,0,3.5-3,3.5-5.8c0-2.2-0.7-6.8-3.7-6.8
			C395.2,395.5,394.9,399.4,394.9,401.8 M398.5,394.4c4.5,0,7.4,2.9,7.4,7.2c0,4.2-3.2,7.6-7.4,7.6c-4.3,0-7.4-3.2-7.4-7.4
			C391.1,397.6,394.2,394.4,398.5,394.4"/>
		<path fill="#98846D" d="M413.2,407.1c0,0.7,0.9,0.7,2.3,0.7h0.5v0.9c-1.4,0-2.9-0.1-4.4-0.1c-1.3,0-2.5,0.1-3.9,0.1v-0.9h0.3
			c1.1,0,1.7-0.1,1.7-0.8v-8.4c0-1-0.1-1.3-0.9-1.4c-0.4-0.1-0.6-0.1-1-0.2v-0.7c1.7-0.3,3.3-1,5-1.8l0.4,0.1v2.2h0.1
			c0.6-0.9,1.9-2.3,3.5-2.3c1.1,0,1.9,0.5,1.9,1.8c0,1.2-0.8,1.8-1.7,1.8c-1.2,0-1.2-1.2-2.2-1.2c-0.7,0-1.7,0.6-1.7,2.1v8.1H413.2z
			"/>
		<path fill="#98846D" d="M421.9,389.3c0-0.6-0.1-0.9-0.8-1.2c-0.4-0.1-0.7-0.3-1-0.4v-0.7c1.4-0.4,3.5-1.2,5-1.8l0.4,0.3v21.5
			c0,0.9,0.7,0.9,1.6,0.9h0.4v0.9c-1.2-0.1-2.4-0.1-3.5-0.1c-1.3,0-2.5,0.1-3.7,0.1v-0.9c1,0,1.8,0,1.8-0.9L421.9,389.3L421.9,389.3
			z"/>
		<path fill="#98846D" d="M439.4,397.7c-0.6-1.2-1.8-1.9-3.1-1.9c-2.7,0-3.6,3-3.6,5.4c0,3.3,1.7,5.9,4.1,5.9c1,0,2-0.5,2.5-0.9
			L439.4,397.7L439.4,397.7z M442.9,407.2l1.8-0.1v0.8c-0.4,0.1-1.4,0.3-2.4,0.6c-1.1,0.4-2.2,0.6-2.5,0.7l-0.2-0.2v-1.9
			c-1.5,1.3-2.5,2.1-4.7,2.1c-3,0-5.5-2.9-5.5-6.5c0-4.8,3.7-8.3,7.6-8.3c1.1,0,1.8,0.1,2.5,0.4v-6.3l-2.1-0.7v-0.6
			c1.7-0.6,3.5-1.3,5.2-2.2l0.4,0.3L442.9,407.2L442.9,407.2z"/>
		<path fill="#98846D" d="M466.1,390.6L466.1,390.6l-3,8.7h5.8L466.1,390.6z M461.5,404.3c-0.3,1.1-0.6,1.9-0.6,2.4
			c0,0.9,1.3,1.1,2.3,1.1h0.4v0.9c-1.2-0.1-2.5-0.1-3.7-0.1c-1.1,0-2.2,0.1-3.3,0.1v-0.9h0.2c1.2,0,2.2-0.7,2.7-2l5-14.2
			c0.4-1.2,0.9-2.7,1.2-3.8c0.9-0.4,2.2-0.9,2.8-1.3c0.1-0.1,0.1-0.1,0.2-0.1c0.1,0,0.1,0,0.2,0.1c0.1,0.2,0.1,0.5,0.3,0.8l5.7,16.1
			c0.4,1.1,0.7,2.2,1.2,3.2c0.4,0.9,1,1.2,2,1.2h0.2v0.9c-1.4-0.1-2.8-0.1-4.3-0.1c-1.5,0-3,0.1-4.6,0.1v-0.9h0.4
			c0.7,0,1.9-0.1,1.9-0.9c0-0.4-0.3-1.2-0.6-2.2l-1.2-3.6h-7L461.5,404.3z"/>
		<path fill="#98846D" d="M485.2,406.6c0,1.1,0.6,1.2,2.2,1.2h0.6v0.9c-1.5-0.1-3-0.1-4.6-0.1c-1.3,0-2.6,0.1-3.9,0.1v-0.9h0.7
			c0.9,0,1.5,0,1.5-1.2v-10h-2.2v-0.6c0.7-0.4,1.4-0.8,2.2-1.2v-2.2c0-2.2,0.9-3.9,2.5-5.4c1.4-1.4,2.4-2.1,3.6-2.1
			c1.2,0,2.2,0.5,2.2,1.9c0,0.9-0.6,1.7-1.5,1.7c-0.9,0-0.9-1.5-2.1-1.5c-1,0-1.2,1-1.2,2.1v5.5h3.5v1.7h-3.5L485.2,406.6
			L485.2,406.6z"/>
		<path fill="#98846D" d="M495.6,406.6c0,1.1,0.6,1.2,2.2,1.2h0.6v0.9c-1.5-0.1-3-0.1-4.6-0.1c-1.3,0-2.6,0.1-3.9,0.1v-0.9h0.7
			c0.9,0,1.5,0,1.5-1.2v-10h-2.2v-0.6c0.7-0.4,1.4-0.8,2.2-1.2v-2.2c0-2.2,0.9-3.9,2.5-5.4c1.4-1.4,2.4-2.1,3.6-2.1
			c1.2,0,2.2,0.5,2.2,1.9c0,0.9-0.6,1.7-1.5,1.7c-0.9,0-0.9-1.5-2.1-1.5c-1,0-1.2,1-1.2,2.1v5.5h3.5v1.7h-3.5L495.6,406.6
			L495.6,406.6z"/>
		<path fill="#98846D" d="M508.8,401.8c-1.7,0.6-4.5,1.2-4.5,3.3c0,1.3,0.7,2,1.9,2c1.4,0,2.3-1.2,2.7-1.7V401.8z M508.8,399
			c0-1.8-1.1-2.5-2.5-2.5c-1.8,0-2.2,0.4-2.4,2.2c-0.1,0.9-1.7,1.2-2.2,1.2c-0.4,0-0.6-0.3-0.6-0.7c0-1.2,0.7-2.1,1.7-2.6
			c1-0.5,2.2-1.2,3.3-1.8c0.6-0.4,1.2-0.4,1.9-0.4c2.7,0,4.2,1.4,4.2,4.1v6.3c0,1.4,0.1,2.3,0.9,2.3c0.3,0,0.6-0.2,0.9-0.4l0.4,0.6
			c-0.9,1.2-1.7,1.9-3.2,1.9s-2.2-1-2.4-2.4c-1.4,1.3-2.7,2.4-4.8,2.4c-1.9,0-3.4-1.2-3.4-3.2c0-2.4,1.9-3.2,4.2-4l3.8-1.4
			L508.8,399L508.8,399z"/>
		<path fill="#98846D" d="M519.3,390.1c-1.1,0-1.9-0.9-1.9-1.9s0.9-1.9,1.9-1.9c1.1,0,1.9,0.9,1.9,1.9S520.3,390.1,519.3,390.1
			 M521,407c0,0.7,0.7,0.7,1.5,0.7h0.4v0.9c-1.2-0.1-2.3-0.1-3.5-0.1c-1.3,0-2.5,0.1-3.7,0.1v-0.9h0.2c0.9,0,1.6,0,1.6-0.9v-8.7
			c0-0.5-0.1-0.7-0.7-0.9c-0.4-0.1-0.7-0.2-1.1-0.3v-0.7c0.9-0.2,2-0.6,2.8-0.9c0.7-0.3,1.4-0.6,2.2-0.9l0.4,0.3L521,407L521,407z"
			/>
		<path fill="#98846D" d="M529.7,407.1c0,0.7,0.9,0.7,2.3,0.7h0.4v0.9c-1.4,0-2.9-0.1-4.3-0.1c-1.3,0-2.6,0.1-3.9,0.1v-0.9h0.3
			c1.1,0,1.7-0.1,1.7-0.8v-8.4c0-1-0.2-1.3-0.9-1.4c-0.4-0.1-0.6-0.1-1-0.2v-0.7c1.7-0.3,3.3-1,5-1.8l0.4,0.1v2.2h0.1
			c0.6-0.9,1.9-2.3,3.5-2.3c1.1,0,1.9,0.5,1.9,1.8c0,1.2-0.8,1.8-1.7,1.8c-1.2,0-1.2-1.2-2.2-1.2c-0.7,0-1.7,0.6-1.7,2.1
			L529.7,407.1L529.7,407.1z"/>
		<path fill="#98846D" d="M545.1,398.5c-0.1-1.7-0.8-3-2.8-3c-1.1,0-2.1,0.6-2.1,1.9c0,3.4,6.4,2.6,6.4,7.3c0,3.3-2.7,4.5-5.3,4.5
			c-1.5,0-2.6-0.4-3.7-0.8l-0.3-3.5l0.9-0.2c0.2,1.7,1.2,3.3,3,3.3c1.2,0,2.3-0.6,2.3-2c0-3-6.2-2.4-6.2-7.2c0-2.7,2.1-4.4,4.9-4.4
			c1.4,0,2.5,0.3,3.7,0.7c-0.1,1.1-0.1,2.2-0.1,3.3L545.1,398.5z"/>
		<path fill="#98846D" d="M72.3,363.4c0,2.4,0,4.5,4.9,4.5c6.5,0,8.6-4.4,8.6-7.8c0-7.8-4.8-9.5-10.2-9.5h-3.2V363.4z M72.3,348.7
			h2.1c4.4,0,8.3-1.4,8.3-8.3c0-6.3-3.7-7.2-8.1-7.2c-0.7,0-1.4,0.1-2.3,0.1V348.7z M62.1,368.1c2.7,0.1,5-0.6,5-3.7v-27.6
			c0-3.8-2.1-3.9-5-3.9v-1.4c1.5,0,3,0.1,4.5,0.1h1.7c3.1,0,5.1-0.1,7.1-0.1c4,0,12.7,1.2,12.7,8.8c0,5-4.6,7.7-8.8,8.6v0.1
			c4.1-0.2,12.2,2.5,12.2,10.2c0,5.8-5,10.2-14.6,10.2c-2.6,0-5.1-0.1-7.7-0.1c-2.4,0-4.8,0.1-7.1,0.1L62.1,368.1L62.1,368.1z"/>
		<path fill="#98846D" d="M105.6,348.7h7.2c4.4,0,4.4-3.5,4.6-4.7h1.1c-0.1,1.2-0.2,4.1-0.2,6.1c0,1.7,0.3,4.3,0.2,6.1h-1.1
			c0-5.2-1.7-5.2-5.9-5.2h-5.8v9.3c0,6.1,0.2,7.6,5.6,7.6h3.4c5.3-0.3,7.7-1,9.9-6.8l1.3,0.2c-0.9,2.7-1.7,5.5-2.2,8.4
			c-5.4,0-10.9-0.1-16.4-0.1c-4,0-8.1,0-12.1,0.1v-1.4c4.8,0,5.2-0.9,5.2-6.1v-24.2c0-4.5-0.9-4.7-5.2-4.8v-1.4
			c3.7,0.1,7.3,0.1,11,0.1c5.2,0,10.4,0,15.7-0.1v8.1l-1.1,0.3c-0.8-5.1-3.2-6.6-8.7-6.6h-6.3v15.3H105.6z"/>
		<path fill="#98846D" d="M142.2,333.2c-1.4,0-2.3,0.1-3.2,0.3v16c0.8,0.1,1.9,0.3,2.9,0.3c6.7,0,9.3-4.4,9.3-8.4
			C151.1,336.8,148.6,333.2,142.2,333.2 M138.9,351.6v12.6c0,3.8,2.1,3.9,5,4v1.4c-2.6,0-5-0.1-7.3-0.1c-2.6,0-5.2,0.1-7.9,0.1v-1.4
			c2.7,0.1,5-0.6,5-3.7v-27.7c0-3.8-2.1-3.9-5-3.9v-1.4c3,0.1,5.6,0.1,8.3,0.1c1.9,0,3.8-0.1,7.3-0.1c10.3,0,12.6,5.8,12.6,9.7
			c0,4.6-3.5,8.1-7.7,9.3c5,7.3,7.6,11.6,9.9,14.3c1.7,1.9,3.4,3.5,6.1,3.5v1.4c-1.4,0-2.7-0.1-4.1-0.1c-1.5,0-3.1,0.1-4.6,0.1
			c-5-5.5-8.6-11.8-12.5-18H138.9z"/>
		<path fill="#98846D" d="M188.5,337.2c0.6-0.6,2-2,2-3c0-1.2-1.6-1.2-3-1.2v-1.4c2.4,0.1,4.8,0.1,7.1,0.1c1.8,0,3.5-0.1,5.3-0.1
			v1.4c-3,0-4.8,0.5-9.7,5.6l-9.3,9.7c5.5,6.1,10.9,12.2,16.5,18.1c1.8,1.7,3.5,1.7,4.7,1.7v1.4c-1.7-0.1-3.5-0.1-5.3-0.1
			c-1.3,0-2.6,0.1-3.9,0.1c-5.4-6.6-11.2-12.6-16.9-18.9L188.5,337.2z M165.2,368.1c2.9-0.1,5-0.1,5-4v-27.3c0-3.8-2.1-3.9-5-3.9
			v-1.4c2.6,0.1,5,0.1,7.5,0.1c2.5,0,5-0.1,6.9-0.1v1.4c-2.1,0.1-4.1,0.1-4.1,3.9v27.4c0,3.8,2.1,3.9,4.4,4v1.4
			c-2,0-4.4-0.1-6.8-0.1c-2.6,0-5.2,0.1-7.9,0.1C165.2,369.6,165.2,368.1,165.2,368.1z"/>
		<path fill="#98846D" d="M233.3,369.6c-4.6-0.1-9.2-0.1-13.8-0.1c-4.8,0-9.7,0-14.4,0.1v-1.4c2.7,0.1,5-0.6,5-3.7v-27.6
			c0-3.8-2.1-3.9-5-3.9v-1.4c2.5,0.1,5,0.1,7.5,0.1c2.5,0,5-0.1,7.7-0.1v1.4c-2.9,0.1-5,0.1-5,3.9v25.2c0,4,0.9,5.7,8.6,5.7
			c6.3,0,8.5-1.5,10.2-6.8l1.2,0.2L233.3,369.6z"/>
		<path fill="#98846D" d="M248.7,348.7h7.2c4.4,0,4.4-3.5,4.6-4.7h1.1c-0.1,1.2-0.2,4.1-0.2,6.1c0,1.7,0.3,4.3,0.2,6.1h-1.1
			c0-5.2-1.7-5.2-6-5.2h-5.8v9.3c0,6.1,0.2,7.6,5.6,7.6h3.4c5.3-0.3,7.7-1,9.9-6.8l1.3,0.2c-0.9,2.7-1.7,5.5-2.2,8.4
			c-5.5,0-10.9-0.1-16.4-0.1c-4,0-8.1,0-12.1,0.1v-1.4c4.8,0,5.2-0.9,5.2-6.1v-24.2c0-4.5-0.9-4.7-5.2-4.8v-1.4
			c3.7,0.1,7.3,0.1,11,0.1c5.2,0,10.4,0,15.7-0.1v8.1l-1.1,0.3c-0.8-5.1-3.2-6.6-8.7-6.6h-6.3L248.7,348.7L248.7,348.7z"/>
		<path fill="#98846D" d="M292.8,364.2c0,3.8,2.1,3.9,5,4v1.4c-2.7-0.1-5.3-0.1-7.7-0.1c-2.4,0-5,0.1-7.5,0.1v-1.4
			c2.9-0.1,5-0.1,5-4V351l-11.4-15.7c-1.6-2.2-1.9-2.2-5-2.4v-1.4c1,0.1,5,0.1,7.6,0.1c2.2,0,4.4-0.1,6.6-0.1v1.4c-0.9,0-3,0-3,1.2
			c0,0.6,0.8,1.9,1.8,3.4l7.6,10.7l7.1-9.7c0.6-0.9,2.1-2.7,2.1-4c0-1.6-1.1-1.6-3.9-1.6v-1.4c2.1,0.1,4.2,0.1,6.3,0.1
			c1.4,0,3-0.1,4.5-0.1v1.4c-2.3,0.1-3.3,1.5-4.5,3.2l-10.4,14.1L292.8,364.2L292.8,364.2z"/>
		<path fill="#98846D" d="M361.4,341.4H360c-1-6.3-5.5-8.9-11.7-8.9c-6.3,0-15.3,4.2-15.3,17.3c0,11,7.9,18.9,16.2,18.9
			c5.4,0,9.9-3.7,11-9.4l1.3,0.4l-1.3,7.9c-2.3,1.4-8.4,2.9-12,2.9c-12.8,0-20.8-8.2-20.8-20.5c0-11.2,9.9-19.2,20.7-19.2
			c4.4,0,8.6,1.4,12.8,2.9L361.4,341.4z"/>
		<path fill="#98846D" d="M375.8,348.7h7.2c4.4,0,4.4-3.5,4.5-4.7h1.1c-0.1,1.2-0.2,4.1-0.2,6.1c0,1.7,0.3,4.3,0.2,6.1h-1.1
			c0-5.2-1.7-5.2-5.9-5.2h-5.8v9.3c0,6.1,0.2,7.6,5.6,7.6h3.4c5.3-0.3,7.7-1,9.9-6.8l1.3,0.2c-0.9,2.7-1.7,5.5-2.2,8.4
			c-5.5,0-10.9-0.1-16.4-0.1c-4,0-8.1,0-12.1,0.1v-1.4c4.8,0,5.2-0.9,5.2-6.1v-24.2c0-4.5-0.9-4.7-5.2-4.8v-1.4
			c3.7,0.1,7.3,0.1,11,0.1c5.3,0,10.4,0,15.7-0.1v8.1l-1.1,0.3c-0.8-5.1-3.2-6.6-8.7-6.6h-6.3L375.8,348.7L375.8,348.7z"/>
		<path fill="#98846D" d="M436.3,370.1H435l-28.5-31.3v20.3c0,7.5,0.6,9.1,6.5,9.1v1.4c-2.4,0-4.8-0.1-7.3-0.1
			c-2.4,0-4.8,0.1-7.3,0.1v-1.4c3.3,0,5.8,0,5.8-6.9v-21.9c0-4.7-2-6.3-6.7-6.3v-1.4c1.7,0.1,3.3,0.1,5,0.1c1.5,0,3-0.1,4.5-0.1
			c2.2,3.3,7.3,8.3,13.5,15.1c4.6,5.1,9.7,10.5,13.5,14.6v-21.7c0-5-1.2-6.6-6.6-6.6v-1.4c2.5,0.1,5,0.1,7.6,0.1
			c2.2,0,4.2-0.1,6.3-0.1v1.4c-3.3,0-5.1,0.3-5.1,5.6L436.3,370.1L436.3,370.1z"/>
		<path fill="#98846D" d="M477.1,338.6h-1.4c-0.1-3,0-4.9-4.3-4.9h-8.3v30.5c0,3.8,2.1,3.9,5,4v1.4c-2.6,0-5-0.1-7.3-0.1
			c-2.6,0-5.2,0.1-7.9,0.1v-1.4c2.9-0.1,5-0.1,5-4v-30.5h-7.1c-4.9,0-5.1,1.4-6.1,4.9h-1.4l0.6-8.6h1.1c0.6,1.4,2.1,1.5,3.5,1.5
			h24.7c1.9,0,3.3-0.5,3.5-1.5h1.2L477.1,338.6z"/>
		<path fill="#98846D" d="M490.7,348.7h7.2c4.4,0,4.4-3.5,4.5-4.7h1.1c-0.1,1.2-0.2,4.1-0.2,6.1c0,1.7,0.3,4.3,0.2,6.1h-1.1
			c0-5.2-1.7-5.2-5.9-5.2h-5.8v9.3c0,6.1,0.2,7.6,5.6,7.6h3.4c5.3-0.3,7.7-1,9.9-6.8l1.3,0.2c-0.9,2.7-1.7,5.5-2.2,8.4
			c-5.5,0-10.9-0.1-16.4-0.1c-4,0-8.1,0-12.1,0.1v-1.4c4.8,0,5.2-0.9,5.2-6.1v-24.2c0-4.5-0.9-4.7-5.2-4.8v-1.4
			c3.7,0.1,7.3,0.1,11,0.1c5.3,0,10.4,0,15.7-0.1v8.1l-1.1,0.3c-0.8-5.1-3.2-6.6-8.7-6.6h-6.3L490.7,348.7L490.7,348.7z"/>
		<path fill="#98846D" d="M527.3,333.2c-1.4,0-2.3,0.1-3.2,0.3v16c0.8,0.1,1.9,0.3,2.9,0.3c6.7,0,9.3-4.4,9.3-8.4
			C536.2,336.8,533.7,333.2,527.3,333.2 M524,351.6v12.6c0,3.8,2.1,3.9,5,4v1.4c-2.6,0-5-0.1-7.3-0.1c-2.6,0-5.2,0.1-7.9,0.1v-1.4
			c2.7,0.1,5-0.6,5-3.7v-27.7c0-3.8-2.1-3.9-5-3.9v-1.4c3,0.1,5.6,0.1,8.3,0.1c1.9,0,3.8-0.1,7.3-0.1c10.3,0,12.6,5.8,12.6,9.7
			c0,4.6-3.5,8.1-7.7,9.3c5,7.3,7.6,11.6,9.9,14.2c1.7,1.9,3.4,3.5,6.1,3.5v1.4c-1.4,0-2.7-0.1-4.1-0.1c-1.5,0-3.1,0.1-4.6,0.1
			c-5-5.5-8.6-11.8-12.5-18L524,351.6L524,351.6z"/>
	</g>
	<rect x="60.3" y="428.6" fill="#98846D" width="489.9" height="1.8"/>
</g>
</svg>
