<svg id="cndls-watermark" xmlns="http://www.w3.org/2000/svg" viewBox="0 0 479.37 261.7">
    <title>
        CNDLS-wordmark
    </title>
    <g fill="#97846d">
        <path d="M31.37 160.06c-13.27-11.91-16.56-27.5-16.56-40.5 0-9.17 3.15-25.18 15.33-37.36C38.35 74 50.8 67.55 71.88 67.55a117.29 117.29 0 0 1 19.84 1.65 118.85 118.85 0 0 0 14 2.05c1.5.14 1.78.68 1.78 1.5 0 1.09-.41 2.74-.68 7.66-.27 4.52-.27 12-.41 14.09s-.41 2.87-1.23 2.87-1.09-1-1.09-2.87c0-5.34-2.19-10.95-5.75-14-4.79-4.1-15.33-7.8-27.37-7.8-18.2 0-26.68 5.34-31.47 10-10 9.58-12.31 21.76-12.31 35.71 0 26.14 20.11 50.08 49.4 50.08 10.26 0 18.34-1.23 23.81-6.84 2.87-3 4.65-9 5.06-11.49.27-1.5.55-2.05 1.37-2.05s1 1 1 2.05-1.64 12.86-3 17.51c-.82 2.6-1.09 2.87-3.56 4-5.47 2.19-15.87 3.15-24.63 3.15-20.64.01-34.46-5.05-45.27-14.76zM128 154.31c.27 11.22 1.64 14.78 5.34 15.87a30 30 0 0 0 6.84.82c.68 0 1.09.27 1.09.82 0 .82-.82 1.09-2.46 1.09-7.8 0-13.27-.41-14.5-.41s-7 .41-13.14.41c-1.37 0-2.19-.13-2.19-1.09 0-.55.41-.82 1.1-.82a19.62 19.62 0 0 0 5.61-.82c3.42-1 4.11-4.93 4.11-17.38l.14-78.41c0-5.34.41-6.84 1.51-6.84s3.42 3 4.79 4.38c2.05 2.33 22.44 24.36 43.51 46.93 13.55 14.5 28.46 31.2 32.84 35.71l-1.5-69.51c-.14-8.89-1.09-11.9-5.34-13a36.52 36.52 0 0 0-6.7-.68c-1 0-1.1-.41-1.1-1 0-.82 1.1-1 2.74-1 6.16 0 12.73.41 14.23.41s6-.41 11.63-.41c1.5 0 2.46.14 2.46 1 0 .55-.55 1-1.51 1a12.08 12.08 0 0 0-3.28.41c-4.52 1-5.06 4-5.06 12.18l-.27 80.18c0 9-.27 9.72-1.23 9.72s-2.74-1.5-10-8.76c-1.51-1.37-21.21-21.48-35.71-37.08-15.87-17.1-31.33-34.35-35.71-39.27zM360.75 133.51c0 20.11.55 28.87 3 31.33C366 167 369.51 168 380.18 168c7.25 0 13.27-.14 16.56-4.11a19.06 19.06 0 0 0 3.56-8.21c.14-1.1.41-1.78 1.23-1.78s.82.55.82 2.05a87.4 87.4 0 0 1-2.05 13.68c-1 3.15-1.37 3.69-8.62 3.69-9.85 0-17-.27-22.71-.41s-10-.41-14-.41c-.55 0-2.87.14-5.61.14s-5.75.27-7.8.27c-1.5 0-2.19-.27-2.19-1.09 0-.41.27-.82 1.1-.82a21.22 21.22 0 0 0 4.1-.55c2.74-.55 3.42-3.56 4-7.53.68-5.75.68-16.56.68-29.69v-24.08c0-21.35 0-25.18-.27-29.56-.27-4.65-1.37-6.84-5.88-7.8a25.6 25.6 0 0 0-4.65-.41c-.55 0-1.09-.27-1.09-.82 0-.82.68-1.09 2.19-1.09 6.16 0 14.78.41 15.46.41s10.67-.41 14.78-.41c1.5 0 2.19.27 2.19 1.09 0 .55-.55.82-1.09.82a32.16 32.16 0 0 0-4.52.41c-4 .68-5.06 3-5.34 7.8-.27 4.38-.27 8.21-.27 29.56zM413.67 171.14c-1.92-1-2.05-1.5-2.05-5.2 0-6.84.55-12.32.68-14.51.14-1.5.41-2.19 1.09-2.19s1 .41 1 1.51a24.13 24.13 0 0 0 .41 5.06c2.05 10.13 11.08 14 20.25 14 13.14 0 19.57-9.44 19.57-18.2 0-9.44-4-14.91-15.74-24.63l-6.16-5.06C418.19 110 414.9 101.49 414.9 92.19c0-14.64 10.95-24.63 28.33-24.63A53.09 53.09 0 0 1 456 68.92a22.37 22.37 0 0 0 4.79.68c1.09 0 1.37.27 1.37 1s-.55 5.2-.55 14.5c0 2.19-.27 3.15-1 3.15s-1-.68-1.09-1.78a24 24 0 0 0-1.78-6.84c-.82-1.5-4.51-7.25-17.1-7.25-9.44 0-16.83 5.88-16.83 15.87 0 7.8 3.56 12.73 16.69 23l3.83 3c16.15 12.73 20 21.21 20 32.16 0 5.61-2.19 16-11.63 22.72-5.88 4.1-13.27 5.75-20.66 5.75-6.46-.05-12.76-1-18.37-3.74z"/>
        <path d="M279.91 152l8.85-25.2c-5.37 6.78-38.9 43.56-57.63 47.81h45.95c-3.69-2.11.42-15.26 2.83-22.61zM294.49 153.52c-2 6.62.61 7.61.61 7.61l.36.14 8.84-6.86 1.84 2.33-11.38 9.26s-7.88 6.92-12.9 8.61h44.7a4.23 4.23 0 0 0 4.23-4.23V73.6a4.23 4.23 0 0 0-4.23-4.23h-5.83c-2.62 7.12-5.16 14.58-7.58 22-8.85 27.19-16.22 53.98-18.66 62.15zM260.81 96.58c22.36-16.45 42.4-16 42.4-16 1.2-2.82 2.94-6.72 5.12-11.24h-78.59a4.23 4.23 0 0 0-4.23 4.23v84.35c4.83-26.47 19.6-49.79 35.3-61.34z"/>
        <path d="M370.32 13.87c-4.45-5.85-20.58-3.43-35.83 14-11.11 12.69-20.28 29.37-26.16 41.53h12.39c7.79-21.13 16.31-39.26 24.57-44.7a11.26 11.26 0 0 1 10.54-1.5A103.44 103.44 0 0 1 367 27.59s7.77-7.88 3.32-13.72zM277.61 132.52c-19.35 24.16-31.95 30.78-35.59 29.72s0-12.33 2.47-20.32 9.63-31.11 21.73-42.62 23.39-7.17 33.36-8.12c-.01 0-3.06 17.73-21.97 41.34z"/>
        <path d="M17.48 218.13a9.12 9.12 0 0 1-2.88-7 9.5 9.5 0 0 1 2.67-6.5c1.43-1.43 3.59-2.55 7.26-2.55a20.43 20.43 0 0 1 3.45.29 20.84 20.84 0 0 0 2.43.36c.26 0 .31.12.31.26s-.07.48-.12 1.33 0 2.09-.07 2.45-.07.5-.21.5-.19-.17-.19-.5a3.29 3.29 0 0 0-1-2.43 7.92 7.92 0 0 0-4.76-1.36c-3.17 0-4.64.93-5.47 1.74-1.74 1.67-2.14 3.78-2.14 6.21a8.59 8.59 0 0 0 8.59 8.71c1.79 0 3.19-.21 4.14-1.19a4.53 4.53 0 0 0 .88-2c0-.26.1-.36.24-.36s.17.17.17.36a24.64 24.64 0 0 1-.52 3c-.14.45-.19.5-.62.69a13.78 13.78 0 0 1-4.28.55c-3.59.01-6-.87-7.88-2.56zM38.59 209.28v-5.14s-.24-1.19-1-1.36a4.52 4.52 0 0 0-.81-.07c-.1 0-.19 0-.19-.14s.12-.19.38-.19h8.16a6.31 6.31 0 0 0 1-.12c.12 0 .21-.12.33-.12s.1.09.1.21-.12.45-.19 1.12c0 .24-.07 1.29-.12 1.57 0 .12-.07.26-.17.26s-.19-.12-.19-.31a2.54 2.54 0 0 0-.14-.86c-.17-.38-.4-.67-1.69-.81-.4 0-3-.07-3.26-.07-.1 0-.14.07-.14.24v6.57c0 .17 0 .24.14.24h3.78s.9-.09 1.12-.33.26-.31.36-.31.12 0 .12.19-.12.55-.19 1.33c0 .48-.09 1.36-.09 1.52s0 .45-.17.45-.17-.09-.17-.21a2.42 2.42 0 0 0-.1-.79c-.1-.33-.31-.74-1.24-.83-.64-.07-3-.12-3.4-.12a.15.15 0 0 0-.17.17v6.16c.07 1.64.43 2 2.76 2a6.83 6.83 0 0 0 2.28-.26c.62-.26.9-.74 1.07-1.71 0-.26.1-.36.21-.36s.14.19.14.36a23.2 23.2 0 0 1-.31 2.31c-.17.62-.36.62-1.29.62-1.79 0-3.09 0-4-.07s-1.5-.07-1.86-.07h-2.38s-.38 0-.38-.19 0-.14.19-.14a3.66 3.66 0 0 0 .71-.1c.48-.1.6-.62.69-1.31.12-1 .12-2.88.12-5.17zM55.87 217.13c0 2 .29 2.57.93 2.76a5.22 5.22 0 0 0 1.2.11c.12 0 .19 0 .19.14s-.14.19-.43.19c-1.36 0-2.31-.07-2.52-.07s-1.21.07-2.28.07c-.24 0-.38 0-.38-.19s.07-.14.19-.14a3.41 3.41 0 0 0 1-.14c.6-.17.71-.86.71-3v-13.64c0-.93.07-1.19.26-1.19s.59.52.83.76c.36.41 3.9 4.24 7.57 8.16 2.36 2.52 5 5.43 5.71 6.21l-.26-12.09c0-1.55-.19-2.07-.93-2.26a6.39 6.39 0 0 0-1.17-.12c-.17 0-.19-.07-.19-.17s.19-.17.48-.17c1.07 0 2.21.07 2.47.07s1-.07 2-.07c.26 0 .43 0 .43.17s-.09.17-.26.17a2.1 2.1 0 0 0-.57.07c-.79.17-.88.69-.88 2.12v13.95c0 1.57 0 1.69-.21 1.69s-.48-.26-1.74-1.52c-.26-.24-3.69-3.74-6.21-6.45-2.76-3-5.45-6-6.21-6.83zM84.95 213.47c0 2.29 0 4.17.12 5.17.07.69.21 1.21.93 1.31a10.35 10.35 0 0 0 1.07.1c.14 0 .19.07.19.14s-.12.19-.38.19c-1.31 0-2.81-.07-2.93-.07s-1.62.07-2.33.07c-.26 0-.38 0-.38-.19s0-.14.19-.14a3.65 3.65 0 0 0 .71-.1c.48-.1.6-.62.69-1.31.12-1 .12-2.88.12-5.17V203.4h-3.52c-1.48 0-2 .19-2.43.76a4.1 4.1 0 0 0-.4.74c-.07.19-.14.24-.24.24s-.12-.07-.12-.21.48-2.28.52-2.48.14-.45.24-.45a4.44 4.44 0 0 0 1 .29c.69.07 1.59.12 1.88.12h8.92a9.54 9.54 0 0 0 1.69-.12c.36 0 .57-.12.67-.12s.12.14.12.28c0 .71-.07 2.36-.07 2.62s-.07.31-.17.31-.17-.07-.19-.4v-.26c-.07-.71-.64-1.26-2.93-1.31h-3zM98.44 209.28v-5.14s-.24-1.19-1-1.36a4.53 4.53 0 0 0-.81-.07c-.1 0-.19 0-.19-.14s.12-.19.38-.19h8.16a6.31 6.31 0 0 0 1-.12c.12 0 .21-.12.33-.12s.09.09.09.21-.12.45-.19 1.12c0 .24-.07 1.29-.12 1.57 0 .12-.07.26-.17.26s-.19-.12-.19-.31a2.57 2.57 0 0 0-.14-.86c-.17-.38-.4-.67-1.69-.81-.4 0-3-.07-3.26-.07-.1 0-.14.07-.14.24v6.57c0 .17 0 .24.14.24h3.78s.9-.09 1.12-.33.26-.31.36-.31.12 0 .12.19-.12.55-.19 1.33c0 .48-.1 1.36-.1 1.52s0 .45-.17.45-.17-.09-.17-.21a2.44 2.44 0 0 0-.09-.79c-.1-.33-.31-.74-1.24-.83-.64-.07-3-.12-3.4-.12a.15.15 0 0 0-.17.17v6.16c.07 1.64.43 2 2.76 2a6.83 6.83 0 0 0 2.29-.26c.62-.26.9-.74 1.07-1.71 0-.26.1-.36.21-.36s.14.19.14.36a23.25 23.25 0 0 1-.31 2.31c-.17.62-.36.62-1.29.62-1.79 0-3.09 0-4-.07s-1.5-.07-1.86-.07h-2.38s-.38 0-.38-.19 0-.14.19-.14a3.66 3.66 0 0 0 .71-.1c.48-.1.6-.62.69-1.31.12-1 .12-2.88.12-5.17zM115.07 209.28v-5.14s-.24-1.19-1-1.36a4.53 4.53 0 0 0-.81-.07c-.1 0-.19 0-.19-.14s.12-.19.38-.19c1.07 0 2.57.07 2.69.07s2.07-.07 2.81-.07a7.33 7.33 0 0 1 4.36 1 4.16 4.16 0 0 1 1.64 3.24c0 1.76-.74 3.52-2.88 5.5 2 2.5 3.57 4.62 5 6.09a4.93 4.93 0 0 0 2.9 1.71 5.71 5.71 0 0 0 .93.07c.12 0 .21.07.21.14s-.14.19-.57.19h-1.69a4.84 4.84 0 0 1-2.55-.45c-1-.55-1.86-1.71-3.21-3.5-1-1.31-2.12-2.9-2.59-3.52a.38.38 0 0 0-.31-.14h-2.93c-.12 0-.17.07-.17.19v.57c0 2.29 0 4.17.12 5.17.07.69.21 1.21.93 1.31a10.33 10.33 0 0 0 1.07.1c.14 0 .19.07.19.14s-.12.19-.38.19c-1.31 0-2.81-.07-2.93-.07s-1.52.07-2.24.07c-.26 0-.38 0-.38-.19s0-.14.19-.14a3.66 3.66 0 0 0 .71-.1c.48-.1.59-.62.69-1.31.12-1 .12-2.88.12-5.17zm1.9 2.07a.31.31 0 0 0 .17.29 6.57 6.57 0 0 0 2.5.38 3.08 3.08 0 0 0 1.78-.45 4.34 4.34 0 0 0 1.45-3.67c0-3-1.57-4.76-4.12-4.76a7.18 7.18 0 0 0-1.59.14.29.29 0 0 0-.19.29zM145 209.28v-5.14s-.24-1.19-1-1.36a4.52 4.52 0 0 0-.81-.07c-.1 0-.19 0-.19-.14s.12-.19.38-.19H151.94a5.19 5.19 0 0 0 1-.09c.14 0 .24-.14.33-.14s.14.09.14.21-.12.45-.19 1.12c0 .24-.07 1.29-.12 1.57 0 .12-.07.26-.19.26s-.17-.12-.17-.29a2.57 2.57 0 0 0-.21-.9 1.81 1.81 0 0 0-1.62-.76l-3.67-.07c-.14 0-.21.07-.21.26v6.57c0 .14 0 .21.17.21h4.07c.57 0 .88-.12 1.09-.43.1-.12.17-.24.26-.24s.12.07.12.19-.12.55-.19 1.33c0 .48-.09 1.43-.09 1.59s0 .45-.17.45-.17-.09-.17-.21a4 4 0 0 0-.14-.86 1.44 1.44 0 0 0-1.24-.86c-.6-.07-3.19-.07-3.59-.07-.12 0-.17 0-.17.21v2c0 2.29 0 4.17.12 5.17.07.69.21 1.21.93 1.31a10.36 10.36 0 0 0 1.07.1c.14 0 .19.07.19.14s-.12.19-.38.19c-1.31 0-2.81-.07-2.93-.07s-1.62.07-2.33.07c-.26 0-.38 0-.38-.19s0-.14.19-.14a3.66 3.66 0 0 0 .71-.1c.48-.1.59-.62.69-1.31.12-1 .12-2.88.12-5.17zM167.85 202c5.36 0 9.35 3.38 9.35 8.92 0 5.33-3.76 9.73-9.5 9.73-6.52 0-9.23-5.07-9.23-9.35a9.21 9.21 0 0 1 9.38-9.3zm.5 17.75c2.14 0 6.57-1.24 6.57-8.16 0-5.71-3.47-8.78-7.24-8.78-4 0-6.95 2.62-6.95 7.83.01 5.59 3.34 9.16 7.62 9.16zM184.37 209.28v-5.14s-.24-1.19-1-1.36a4.52 4.52 0 0 0-.81-.07c-.1 0-.19 0-.19-.14s.12-.19.38-.19c1.07 0 2.57.07 2.69.07s2.07-.07 2.81-.07a7.33 7.33 0 0 1 4.36 1 4.17 4.17 0 0 1 1.64 3.24c0 1.76-.74 3.52-2.88 5.5 2 2.5 3.57 4.62 5 6.09a4.93 4.93 0 0 0 2.9 1.71 5.72 5.72 0 0 0 .93.07c.12 0 .21.07.21.14s-.14.19-.57.19H198a4.85 4.85 0 0 1-2.55-.45c-1-.55-1.86-1.71-3.21-3.5-1-1.31-2.12-2.9-2.59-3.52a.38.38 0 0 0-.31-.14h-2.93c-.12 0-.17.07-.17.19v.57c0 2.29 0 4.17.12 5.17.07.69.21 1.21.93 1.31a10.34 10.34 0 0 0 1.07.1c.14 0 .19.07.19.14s-.12.19-.38.19c-1.31 0-2.81-.07-2.93-.07s-1.52.07-2.24.07c-.26 0-.38 0-.38-.19s0-.14.19-.14a3.66 3.66 0 0 0 .71-.1c.48-.1.6-.62.69-1.31.12-1 .12-2.88.12-5.17zm1.9 2.07a.31.31 0 0 0 .17.29 6.57 6.57 0 0 0 2.5.38 3.08 3.08 0 0 0 1.79-.45 4.35 4.35 0 0 0 1.45-3.67c0-3-1.57-4.76-4.12-4.76a7.19 7.19 0 0 0-1.6.14.29.29 0 0 0-.19.29zM214.92 217.13c0 2 .29 2.57.93 2.76a5.22 5.22 0 0 0 1.15.11c.12 0 .19 0 .19.14s-.14.19-.43.19c-1.36 0-2.31-.07-2.52-.07s-1.21.07-2.29.07c-.24 0-.38 0-.38-.19s.07-.14.19-.14a3.41 3.41 0 0 0 1-.14c.6-.17.71-.86.71-3v-13.64c0-.93.07-1.19.26-1.19s.6.52.83.76c.36.41 3.9 4.24 7.57 8.16 2.36 2.52 5 5.43 5.71 6.21l-.26-12.09c0-1.55-.19-2.07-.93-2.26a6.39 6.39 0 0 0-1.17-.12c-.17 0-.19-.07-.19-.17s.19-.17.48-.17c1.07 0 2.21.07 2.48.07s1-.07 2-.07c.26 0 .43 0 .43.17s-.1.17-.26.17a2.1 2.1 0 0 0-.57.07c-.79.17-.88.69-.88 2.12v13.95c0 1.57 0 1.69-.21 1.69s-.48-.26-1.74-1.52c-.26-.24-3.69-3.74-6.21-6.45-2.76-3-5.45-6-6.21-6.83zM238.93 209.28v-5.14s-.24-1.19-1-1.36a4.53 4.53 0 0 0-.81-.07c-.1 0-.19 0-.19-.14s.12-.19.38-.19h8.16a6.29 6.29 0 0 0 1-.12c.12 0 .21-.12.33-.12s.09.09.09.21-.12.45-.19 1.12c0 .24-.07 1.29-.12 1.57 0 .12-.07.26-.17.26s-.19-.12-.19-.31a2.55 2.55 0 0 0-.14-.86c-.17-.38-.4-.67-1.69-.81-.41 0-3-.07-3.26-.07-.09 0-.14.07-.14.24v6.57c0 .17 0 .24.14.24h3.79s.9-.09 1.12-.33.26-.31.36-.31.12 0 .12.19-.12.55-.19 1.33c0 .48-.1 1.36-.1 1.52s0 .45-.17.45-.17-.09-.17-.21a2.41 2.41 0 0 0-.1-.79c-.1-.33-.31-.74-1.24-.83-.64-.07-3-.12-3.4-.12a.15.15 0 0 0-.17.17v6.16c.07 1.64.43 2 2.76 2a6.83 6.83 0 0 0 2.29-.26c.62-.26.9-.74 1.07-1.71 0-.26.09-.36.21-.36s.14.19.14.36a23.26 23.26 0 0 1-.31 2.31c-.17.62-.36.62-1.29.62-1.79 0-3.09 0-4-.07s-1.5-.07-1.86-.07h-2.38s-.38 0-.38-.19 0-.14.19-.14a3.66 3.66 0 0 0 .71-.1c.48-.1.6-.62.69-1.31.12-1 .12-2.88.12-5.17zM271 217.09h.09c.64-2.19 2.83-9.09 3.67-12.14a5.31 5.31 0 0 0 .26-1.52c0-.43-.26-.71-1.36-.71a.19.19 0 0 1-.21-.17c0-.12.12-.17.41-.17 1.21 0 2.21.07 2.43.07s1.19-.07 1.93-.07c.21 0 .33 0 .33.14s-.07.19-.21.19a3.14 3.14 0 0 0-.81.12c-.71.26-1.09 1.26-1.55 2.57-1 3-3.45 10.59-4.38 13.26-.62 1.76-.74 2-1 2s-.38-.31-.71-1.24l-4.66-13.23c-.86 2.29-4.12 11-5 13.21-.38 1-.5 1.26-.79 1.26s-.36-.26-.83-1.88l-4.24-14.11c-.38-1.26-.69-1.62-1.31-1.86a3.94 3.94 0 0 0-1.07-.14c-.12 0-.21 0-.21-.17s.14-.17.38-.17c1.24 0 2.55.07 2.81.07s1.26-.07 2.45-.07c.33 0 .43.07.43.17s-.12.17-.24.17a2.32 2.32 0 0 0-.93.14.62.62 0 0 0-.31.57 18.45 18.45 0 0 0 .45 2.19c.36 1.52 2.83 10.26 3.19 11.52l5-13.57c.36-1 .45-1.1.59-1.1s.31.31.6 1.12zM294.43 209.28v-5.14s-.24-1.19-1-1.36a4.51 4.51 0 0 0-.81-.07c-.09 0-.19 0-.19-.14s.12-.19.38-.19c1.07 0 2.57.07 2.69.07.29 0 1.79-.07 3.21-.07 2.36 0 6.71-.21 9.54 2.71a8.51 8.51 0 0 1 2.31 6 9.73 9.73 0 0 1-2.57 6.71 9.46 9.46 0 0 1-7.21 2.74c-1 0-2.29-.07-3.31-.14l-2-.14h-2.38s-.38 0-.38-.19 0-.14.19-.14a3.65 3.65 0 0 0 .71-.1c.48-.1.6-.62.69-1.31.12-1 .12-2.88.12-5.17zm2 2.57v5.16a5.19 5.19 0 0 0 .26 1.81c.31.45 1.24 1 4 1a8 8 0 0 0 5.66-2.21 8.33 8.33 0 0 0 1.9-5.69 8.51 8.51 0 0 0-2.28-6c-2.24-2.36-5-2.69-7.78-2.69a6.36 6.36 0 0 0-1.55.17.43.43 0 0 0-.29.48v5.07zM318.13 209.28v-5.14s-.24-1.19-1-1.36a4.53 4.53 0 0 0-.81-.07c-.09 0-.19 0-.19-.14s.12-.19.38-.19h8.16a6.32 6.32 0 0 0 1-.12c.12 0 .21-.12.33-.12s.1.09.1.21-.12.45-.19 1.12c0 .24-.07 1.29-.12 1.57 0 .12-.07.26-.17.26s-.19-.12-.19-.31a2.57 2.57 0 0 0-.14-.86c-.17-.38-.41-.67-1.69-.81-.4 0-3-.07-3.26-.07-.09 0-.14.07-.14.24v6.57c0 .17 0 .24.14.24h3.78s.9-.09 1.12-.33.26-.31.36-.31.12 0 .12.19-.12.55-.19 1.33c0 .48-.09 1.36-.09 1.52s0 .45-.17.45-.17-.09-.17-.21a2.41 2.41 0 0 0-.1-.79c-.09-.33-.31-.74-1.24-.83-.64-.07-3-.12-3.4-.12a.15.15 0 0 0-.17.17v6.16c.07 1.64.43 2 2.76 2a6.83 6.83 0 0 0 2.29-.26c.62-.26.9-.74 1.07-1.71 0-.26.09-.36.21-.36s.14.19.14.36-.19 1.81-.31 2.31-.36.62-1.29.62c-1.78 0-3.09 0-4-.07s-1.5-.07-1.86-.07h-2.38s-.38 0-.38-.19 0-.14.19-.14a3.66 3.66 0 0 0 .71-.1c.48-.1.59-.62.69-1.31.12-1 .12-2.88.12-5.17zM333.24 220.06c-.33-.17-.36-.26-.36-.9 0-1.19.1-2.14.12-2.52s.07-.38.19-.38.17.07.17.26a4.21 4.21 0 0 0 .07.88c.36 1.76 1.93 2.43 3.52 2.43a3.18 3.18 0 0 0 3.41-3.17c0-1.64-.69-2.59-2.74-4.28l-1.07-.88c-2.52-2.07-3.09-3.55-3.09-5.16 0-2.55 1.9-4.28 4.93-4.28a9.24 9.24 0 0 1 2.21.24 3.87 3.87 0 0 0 .83.12c.19 0 .24 0 .24.17s-.1.9-.1 2.52c0 .38 0 .55-.17.55s-.17-.12-.19-.31a4.22 4.22 0 0 0-.31-1.19c-.14-.26-.79-1.26-3-1.26a2.71 2.71 0 0 0-2.93 2.76c0 1.36.62 2.21 2.9 4l.67.52c2.81 2.21 3.47 3.69 3.47 5.59a4.93 4.93 0 0 1-2 4 6.26 6.26 0 0 1-3.59 1 7.21 7.21 0 0 1-3.18-.71zM352.44 213.47c0 2.29 0 4.17.12 5.17.07.69.21 1.21.93 1.31a10.37 10.37 0 0 0 1.07.1c.14 0 .19.07.19.14s-.12.19-.38.19c-1.31 0-2.81-.07-2.93-.07s-1.62.07-2.33.07c-.26 0-.38 0-.38-.19s0-.14.19-.14a3.68 3.68 0 0 0 .71-.1c.48-.1.59-.62.69-1.31.12-1 .12-2.88.12-5.17v-4.19-5.14s-.29-1.21-.81-1.33a3.18 3.18 0 0 0-.74-.09c-.09 0-.19 0-.19-.14s.12-.19.38-.19c.79 0 2.29.07 2.41.07s1.62-.07 2.33-.07c.26 0 .38 0 .38.19s-.09.14-.19.14a3.63 3.63 0 0 0-.6.07c-.64.12-.83.52-.88 1.36s0 1.43 0 5.14zM374 214.3c0-1.93-.12-2.19-1.07-2.45a4.42 4.42 0 0 0-.81-.07c-.1 0-.19 0-.19-.14s.12-.19.38-.19c1.07 0 2.57.07 2.69.07s1.62-.07 2.33-.07c.26 0 .38 0 .38.19s-.09.14-.19.14a3.52 3.52 0 0 0-.59.07c-.64.12-.83.52-.88 1.36s0 1.48 0 2.48v2.67c0 1.07 0 1.12-.31 1.28a13 13 0 0 1-12.88-1.47 9.29 9.29 0 0 1-2.83-6.78 9 9 0 0 1 4-7.83 11.69 11.69 0 0 1 6.33-1.5 20.55 20.55 0 0 1 3.64.4 11.79 11.79 0 0 0 1.93.24c.24 0 .29.12.29.21a30.22 30.22 0 0 0-.17 3.38c0 .38 0 .5-.21.5s-.14-.14-.17-.36a3.65 3.65 0 0 0-.5-1.57c-.59-.9-2.52-1.93-5.59-1.93a7.6 7.6 0 0 0-5.09 1.57c-1.38 1.09-2.36 3.26-2.36 6a9.71 9.71 0 0 0 2.52 6.59 8.66 8.66 0 0 0 6.24 2.55 6.49 6.49 0 0 0 2.71-.5.86.86 0 0 0 .48-.83zM385.95 217.13c0 2 .29 2.57.93 2.76a5.22 5.22 0 0 0 1.19.14c.12 0 .19 0 .19.14s-.14.19-.43.19c-1.36 0-2.31-.07-2.52-.07s-1.21.07-2.29.07c-.24 0-.38 0-.38-.19s.07-.14.19-.14a3.42 3.42 0 0 0 1-.14c.59-.17.71-.86.71-3v-13.64c0-.93.07-1.19.26-1.19s.59.52.83.76c.36.41 3.9 4.24 7.57 8.16 2.36 2.52 5 5.43 5.71 6.21l-.26-12.09c0-1.55-.19-2.07-.93-2.26a6.38 6.38 0 0 0-1.17-.12c-.17 0-.19-.07-.19-.17s.19-.17.48-.17c1.07 0 2.21.07 2.47.07s1-.07 2-.07c.26 0 .43 0 .43.17s-.1.17-.26.17a2.1 2.1 0 0 0-.57.07c-.79.17-.88.69-.88 2.12v13.95c0 1.57 0 1.69-.21 1.69s-.48-.26-1.74-1.52c-.26-.24-3.69-3.74-6.21-6.45-2.76-3-5.45-6-6.21-6.83zM408.44 220.06c-.33-.17-.36-.26-.36-.9 0-1.19.1-2.14.12-2.52s.07-.38.19-.38.17.07.17.26a4.15 4.15 0 0 0 .07.88c.36 1.76 1.93 2.43 3.52 2.43a3.18 3.18 0 0 0 3.4-3.17c0-1.64-.69-2.59-2.74-4.28l-1.07-.88c-2.52-2.07-3.09-3.55-3.09-5.16 0-2.55 1.9-4.28 4.93-4.28a9.25 9.25 0 0 1 2.21.24 3.86 3.86 0 0 0 .83.12c.19 0 .24 0 .24.17s-.1.9-.1 2.52c0 .38 0 .55-.17.55s-.17-.12-.19-.31a4.18 4.18 0 0 0-.31-1.19c-.14-.26-.79-1.26-3-1.26a2.71 2.71 0 0 0-2.93 2.76c0 1.36.62 2.21 2.9 4l.67.52c2.81 2.21 3.47 3.69 3.47 5.59a4.93 4.93 0 0 1-2 4 6.26 6.26 0 0 1-3.59 1 7.22 7.22 0 0 1-3.17-.71zM437.49 213.47c0 2.29 0 4.17.12 5.17.07.69.21 1.21.93 1.31a10.37 10.37 0 0 0 1.07.1c.14 0 .19.07.19.14s-.12.19-.38.19c-1.31 0-2.81-.07-2.93-.07s-1.62.07-2.33.07c-.26 0-.38 0-.38-.19s0-.14.19-.14a3.66 3.66 0 0 0 .71-.1c.48-.1.6-.62.69-1.31.12-1 .12-2.88.12-5.17v-4.19-5.14s-.29-1.21-.81-1.33a3.17 3.17 0 0 0-.74-.09c-.09 0-.19 0-.19-.14s.12-.19.38-.19c.79 0 2.28.07 2.4.07s1.62-.07 2.33-.07c.26 0 .38 0 .38.19s-.09.14-.19.14a3.61 3.61 0 0 0-.59.07c-.64.12-.83.52-.88 1.36s0 1.43 0 5.14zM448.72 217.13c0 2 .29 2.57.93 2.76a5.2 5.2 0 0 0 1.19.14c.12 0 .19 0 .19.14s-.14.19-.43.19c-1.36 0-2.31-.07-2.52-.07s-1.21.07-2.29.07c-.24 0-.38 0-.38-.19s.07-.14.19-.14a3.41 3.41 0 0 0 1-.14c.59-.17.71-.86.71-3v-13.64c0-.93.07-1.19.26-1.19s.59.52.83.76c.36.41 3.9 4.24 7.57 8.16 2.36 2.52 5 5.43 5.71 6.21l-.26-12.09c0-1.55-.19-2.07-.93-2.26a6.41 6.41 0 0 0-1.17-.12c-.17 0-.19-.07-.19-.17s.19-.17.48-.17c1.07 0 2.21.07 2.47.07s1-.07 2-.07c.26 0 .43 0 .43.17s-.1.17-.26.17a2.11 2.11 0 0 0-.57.07c-.79.17-.88.69-.88 2.12v13.95c0 1.57 0 1.69-.21 1.69s-.48-.26-1.74-1.52c-.26-.24-3.69-3.74-6.21-6.45-2.76-3-5.45-6-6.21-6.83zM19.89 243.51c0 3.5.1 5 .52 5.45s1 .55 2.86.55c1.26 0 2.31 0 2.88-.71a3.32 3.32 0 0 0 .62-1.43c0-.19.07-.31.21-.31s.14.1.14.36a15.19 15.19 0 0 1-.36 2.38c-.17.55-.24.64-1.5.64-1.71 0-3 0-4-.07s-1.74-.07-2.43-.07H16.47s-.38 0-.38-.19 0-.14.19-.14a3.67 3.67 0 0 0 .71-.1c.48-.09.59-.62.69-1.31.12-1 .12-2.88.12-5.17v-4.19-5.14s-.24-1.19-1-1.36a4.52 4.52 0 0 0-.81-.07c-.1 0-.19 0-.19-.14s.12-.19.38-.19c1.07 0 2.57.07 2.69.07s1.86-.07 2.57-.07c.26 0 .38 0 .38.19s-.1.14-.19.14a5.66 5.66 0 0 0-.78.07c-.69.12-.88.52-.93 1.36s0 1.43 0 5.14zM36.38 239.27v-5.14s-.24-1.19-1-1.36a4.51 4.51 0 0 0-.81-.07c-.1 0-.19 0-.19-.14s.12-.19.38-.19h8.16a6.26 6.26 0 0 0 1-.12c.12 0 .21-.12.33-.12s.1.09.1.21-.12.45-.19 1.12c0 .24-.07 1.29-.12 1.57 0 .12-.07.26-.17.26s-.19-.12-.19-.31a2.55 2.55 0 0 0-.14-.86c-.17-.38-.4-.67-1.69-.81-.4 0-3-.07-3.26-.07-.1 0-.14.07-.14.24v6.57c0 .17 0 .24.14.24h3.78s.9-.1 1.12-.33.26-.31.36-.31.12 0 .12.19-.12.55-.19 1.33c0 .48-.1 1.36-.1 1.52s0 .45-.17.45-.17-.1-.17-.21a2.43 2.43 0 0 0-.1-.79c-.1-.33-.31-.74-1.24-.83-.64-.07-3-.12-3.4-.12a.15.15 0 0 0-.17.17v6.16c.07 1.64.43 2 2.76 2a6.8 6.8 0 0 0 2.28-.26c.62-.26.9-.74 1.07-1.71 0-.26.1-.36.21-.36s.14.19.14.36a23.19 23.19 0 0 1-.31 2.31c-.17.62-.36.62-1.29.62-1.79 0-3.09 0-4-.07s-1.5-.07-1.86-.07h-2.38s-.38 0-.38-.19 0-.14.19-.14a3.66 3.66 0 0 0 .71-.1c.48-.09.6-.62.69-1.31.12-1 .12-2.88.12-5.17zM58.72 233c.29-.79.38-.93.52-.93s.24.12.52.86c.36.91 4.09 10.73 5.54 14.35.86 2.12 1.55 2.5 2 2.64a3.07 3.07 0 0 0 1 .14c.14 0 .24 0 .24.14s-.21.19-.48.19h-3.74c-.45 0-.71 0-.71-.17s.07-.14.17-.17.29-.26.14-.64l-2.21-5.86a.21.21 0 0 0-.21-.14h-5.11a.25.25 0 0 0-.24.19l-1.43 4.21a5 5 0 0 0-.33 1.59c0 .48.5.69.9.69h.24c.17 0 .24 0 .24.14s-.14.19-.36.19c-.57 0-1.6-.07-1.86-.07s-1.57.07-2.69.07c-.31 0-.45 0-.45-.19s.1-.14.21-.14h.69c1.1-.14 1.57-1 2-2.24zm2.48 9.52c.12 0 .12-.07.1-.17l-2.3-6.46q-.18-.54-.36 0l-2.09 6.43c0 .12 0 .17.07.17zM76.36 239.27v-5.14s-.24-1.19-1-1.36a4.51 4.51 0 0 0-.81-.07c-.1 0-.19 0-.19-.14s.12-.19.38-.19c1.07 0 2.57.07 2.69.07s2.07-.07 2.81-.07a7.33 7.33 0 0 1 4.36 1 4.17 4.17 0 0 1 1.64 3.24c0 1.76-.74 3.52-2.88 5.5 2 2.5 3.57 4.62 5 6.09a4.92 4.92 0 0 0 2.9 1.71 5.72 5.72 0 0 0 .93.07c.12 0 .21.07.21.14s-.14.19-.57.19H90a4.85 4.85 0 0 1-2.55-.45c-1-.55-1.86-1.71-3.21-3.5-1-1.31-2.12-2.9-2.59-3.52a.38.38 0 0 0-.31-.14h-2.93c-.12 0-.17.07-.17.19v.57c0 2.29 0 4.17.12 5.17.07.69.21 1.21.93 1.31a10.33 10.33 0 0 0 1.07.1c.14 0 .19.07.19.14s-.12.19-.38.19c-1.31 0-2.81-.07-2.93-.07s-1.52.07-2.24.07c-.26 0-.38 0-.38-.19s0-.14.19-.14a3.66 3.66 0 0 0 .71-.1c.48-.09.6-.62.69-1.31.12-1 .12-2.88.12-5.17zm1.9 2.07a.31.31 0 0 0 .17.29 6.56 6.56 0 0 0 2.5.38 3.09 3.09 0 0 0 1.79-.45 4.35 4.35 0 0 0 1.45-3.67c0-3-1.57-4.76-4.12-4.76a7.21 7.21 0 0 0-1.59.14.29.29 0 0 0-.19.29zM99.34 247.12c0 2 .29 2.57.93 2.76a5.21 5.21 0 0 0 1.19.14c.12 0 .19 0 .19.14s-.14.19-.43.19c-1.36 0-2.31-.07-2.52-.07s-1.21.07-2.28.07c-.24 0-.38 0-.38-.19s.07-.14.19-.14a3.41 3.41 0 0 0 1-.14c.59-.17.71-.86.71-3v-13.64c0-.93.07-1.19.26-1.19s.6.52.83.76c.36.4 3.9 4.24 7.57 8.16 2.36 2.52 5 5.43 5.71 6.21l-.26-12.09c0-1.55-.19-2.07-.93-2.26a6.37 6.37 0 0 0-1.17-.12c-.17 0-.19-.07-.19-.17s.19-.17.48-.17c1.07 0 2.21.07 2.48.07s1-.07 2-.07c.26 0 .43 0 .43.17s-.1.17-.26.17a2.13 2.13 0 0 0-.57.07c-.79.17-.88.69-.88 2.12v13.95c0 1.57 0 1.69-.21 1.69s-.48-.26-1.74-1.52c-.26-.24-3.69-3.74-6.21-6.45-2.76-3-5.45-6-6.21-6.83zM127.64 243.46c0 2.29 0 4.17.12 5.17.07.69.21 1.21.93 1.31a10.36 10.36 0 0 0 1.07.1c.14 0 .19.07.19.14s-.12.19-.38.19c-1.31 0-2.81-.07-2.93-.07s-1.62.07-2.33.07c-.26 0-.38 0-.38-.19s0-.14.19-.14a3.67 3.67 0 0 0 .71-.1c.48-.09.59-.62.69-1.31.12-1 .12-2.88.12-5.17v-4.19-5.14s-.29-1.21-.81-1.33a3.12 3.12 0 0 0-.74-.09c-.1 0-.19 0-.19-.14s.12-.19.38-.19c.79 0 2.28.07 2.4.07s1.62-.07 2.33-.07c.26 0 .38 0 .38.19s-.1.14-.19.14a3.59 3.59 0 0 0-.59.07c-.64.12-.83.52-.88 1.36s0 1.43 0 5.14zM141.15 247.12c0 2 .29 2.57.93 2.76a5.21 5.21 0 0 0 1.19.14c.12 0 .19 0 .19.14s-.14.19-.43.19c-1.36 0-2.31-.07-2.52-.07s-1.21.07-2.28.07c-.24 0-.38 0-.38-.19s.07-.14.19-.14a3.41 3.41 0 0 0 1-.14c.59-.17.71-.86.71-3v-13.64c0-.93.07-1.19.26-1.19s.6.52.83.76c.36.4 3.9 4.24 7.57 8.16 2.36 2.52 5 5.43 5.71 6.21l-.26-12.09c0-1.55-.19-2.07-.93-2.26a6.37 6.37 0 0 0-1.17-.12c-.17 0-.19-.07-.19-.17s.19-.17.48-.17c1.07 0 2.21.07 2.48.07s1-.07 2-.07c.26 0 .43 0 .43.17s-.1.17-.26.17a2.13 2.13 0 0 0-.57.07c-.79.17-.88.69-.88 2.12v13.95c0 1.57 0 1.69-.21 1.69s-.48-.26-1.74-1.52c-.26-.24-3.69-3.74-6.21-6.45-2.76-3-5.45-6-6.21-6.83zM178.4 244.29c0-1.93-.12-2.19-1.07-2.45a4.42 4.42 0 0 0-.81-.07c-.09 0-.19 0-.19-.14s.12-.19.38-.19c1.07 0 2.57.07 2.69.07s1.62-.07 2.33-.07c.26 0 .38 0 .38.19s-.09.14-.19.14a3.51 3.51 0 0 0-.59.07c-.64.12-.83.52-.88 1.36s0 1.47 0 2.47v2.66c0 1.07 0 1.12-.31 1.29a13 13 0 0 1-12.88-1.48 9.29 9.29 0 0 1-2.83-6.78 9 9 0 0 1 4-7.83 11.69 11.69 0 0 1 6.33-1.5 20.31 20.31 0 0 1 3.64.41 11.91 11.91 0 0 0 1.93.24c.24 0 .29.12.29.21a30.17 30.17 0 0 0-.17 3.38c0 .38 0 .5-.21.5s-.14-.14-.17-.36a3.66 3.66 0 0 0-.5-1.57c-.59-.9-2.52-1.93-5.59-1.93a7.6 7.6 0 0 0-5.09 1.57c-1.38 1.09-2.36 3.26-2.36 6a9.7 9.7 0 0 0 2.52 6.59 8.66 8.66 0 0 0 6.24 2.55 6.48 6.48 0 0 0 2.71-.5.87.87 0 0 0 .48-.83zM201.1 245.43a6.68 6.68 0 0 1 3.64-5.74 5.33 5.33 0 0 1-1.17-3.28 4.92 4.92 0 0 1 5.12-4.38 6.2 6.2 0 0 1 2.88.59.54.54 0 0 1 .31.6 26.79 26.79 0 0 1-.17 2.74c-.07.36-.14.4-.24.4s-.14-.09-.14-.45a2.86 2.86 0 0 0-.74-2 3.28 3.28 0 0 0-2.38-1 2.9 2.9 0 0 0-3 3.12c0 1.86 1.29 3.4 3.76 6.09.81.88 3.74 3.62 4.5 4.26a7.27 7.27 0 0 0 1.21-4 1.62 1.62 0 0 0-.45-1.17 1.68 1.68 0 0 0-1.17-.38c-.14 0-.29 0-.29-.17s.19-.17.38-.17a26.58 26.58 0 0 1 2.86.17c.36 0 .43.24.43.48a10.41 10.41 0 0 1-2.36 5.62 20.88 20.88 0 0 0 3.28 2.36 6.54 6.54 0 0 0 2.83.93c.21 0 .33 0 .33.17s-.19.17-.4.17h-2.33c-1.76 0-2.33-.17-5-2.24a8 8 0 0 1-6 2.57 5.43 5.43 0 0 1-5.69-5.29zm11.11 2.24c-1.33-1.09-3.69-3.36-4.31-4a38.65 38.65 0 0 1-2.81-3.33 4.56 4.56 0 0 0-2.14 4 4.84 4.84 0 0 0 4.76 5.12 6.15 6.15 0 0 0 4.5-1.79zM237.6 250.05c-.33-.17-.36-.26-.36-.9 0-1.19.09-2.14.12-2.52s.07-.38.19-.38.17.07.17.26a4.17 4.17 0 0 0 .07.88c.36 1.76 1.93 2.43 3.52 2.43a3.18 3.18 0 0 0 3.4-3.16c0-1.64-.69-2.59-2.74-4.28l-1.07-.88c-2.52-2.07-3.09-3.55-3.09-5.16 0-2.55 1.9-4.28 4.93-4.28a9.23 9.23 0 0 1 2.21.24 3.92 3.92 0 0 0 .83.12c.19 0 .24 0 .24.17s-.09.9-.09 2.52c0 .38 0 .55-.17.55s-.17-.12-.19-.31a4.27 4.27 0 0 0-.31-1.19c-.14-.26-.79-1.26-3-1.26a2.71 2.71 0 0 0-2.93 2.76c0 1.36.62 2.21 2.9 4l.67.52c2.81 2.21 3.47 3.69 3.47 5.59a4.93 4.93 0 0 1-2 4 6.26 6.26 0 0 1-3.59 1 7.21 7.21 0 0 1-3.18-.72zM257.26 248.12a9.12 9.12 0 0 1-2.88-7 9.5 9.5 0 0 1 2.67-6.5c1.43-1.43 3.59-2.55 7.26-2.55a20.33 20.33 0 0 1 3.45.29 20.83 20.83 0 0 0 2.43.36c.26 0 .31.12.31.26s-.07.48-.12 1.33 0 2.09-.07 2.45-.07.5-.21.5-.19-.17-.19-.5a3.29 3.29 0 0 0-1-2.43 7.92 7.92 0 0 0-4.76-1.36c-3.17 0-4.64.93-5.47 1.74-1.74 1.67-2.14 3.78-2.14 6.21a8.59 8.59 0 0 0 8.59 8.71c1.78 0 3.19-.21 4.14-1.19a4.53 4.53 0 0 0 .88-2c0-.26.1-.36.24-.36s.17.17.17.36a24.64 24.64 0 0 1-.52 3c-.14.45-.19.5-.62.69a13.78 13.78 0 0 1-4.28.55c-3.6.01-6-.87-7.88-2.56zM295 243.46c0 2.29 0 4.17.12 5.17.07.69.21 1.21.93 1.31a10.33 10.33 0 0 0 1.07.1c.14 0 .19.07.19.14s-.12.19-.38.19c-1.31 0-2.81-.07-2.93-.07s-1.62.07-2.33.07c-.26 0-.38 0-.38-.19s0-.14.19-.14a3.66 3.66 0 0 0 .71-.1c.48-.09.59-.62.69-1.31.12-1 .12-2.88.12-5.17V241a.14.14 0 0 0-.14-.14h-10.07a.12.12 0 0 0-.14.14v2.5c0 2.29 0 4.17.12 5.17.07.69.21 1.21.93 1.31a10.35 10.35 0 0 0 1.07.1c.14 0 .19.07.19.14s-.12.19-.38.19c-1.31 0-2.81-.07-2.93-.07s-1.62.07-2.33.07c-.26 0-.38 0-.38-.19s0-.14.19-.14a3.64 3.64 0 0 0 .71-.1c.48-.09.6-.62.69-1.31.12-1 .12-2.88.12-5.17v-4.19-5.14s-.24-1.19-1-1.36a4.52 4.52 0 0 0-.81-.07c-.09 0-.19 0-.19-.14s.12-.19.38-.19c1.07 0 2.57.07 2.69.07s1.62-.07 2.33-.07c.26 0 .38 0 .38.19s-.09.14-.19.14a3.59 3.59 0 0 0-.59.07c-.64.12-.83.52-.88 1.36s0 1.43 0 5.14v.5a.12.12 0 0 0 .14.14H293a.13.13 0 0 0 .14-.14v-.5-5.14s-.24-1.19-1-1.36a4.5 4.5 0 0 0-.81-.07c-.09 0-.19 0-.19-.14s.12-.19.38-.19c1.07 0 2.57.07 2.69.07s1.62-.07 2.33-.07c.26 0 .38 0 .38.19s-.1.14-.19.14a3.57 3.57 0 0 0-.59.07c-.64.12-.83.52-.88 1.36s0 1.43 0 5.14zM314 232c5.36 0 9.35 3.38 9.35 8.92 0 5.33-3.76 9.73-9.5 9.73-6.52 0-9.23-5.07-9.23-9.35A9.21 9.21 0 0 1 314 232zm.5 17.75c2.14 0 6.57-1.24 6.57-8.16 0-5.71-3.48-8.78-7.24-8.78-4 0-6.95 2.62-6.95 7.83-.03 5.58 3.3 9.15 7.59 9.15zM334.76 243.51c0 3.5.1 5 .52 5.45s1 .55 2.86.55c1.26 0 2.31 0 2.88-.71a3.33 3.33 0 0 0 .62-1.43c0-.19.07-.31.21-.31s.14.1.14.36a15.17 15.17 0 0 1-.36 2.38c-.17.55-.24.64-1.5.64-1.71 0-3 0-4-.07s-1.74-.07-2.43-.07H331.34s-.38 0-.38-.19 0-.14.19-.14a3.65 3.65 0 0 0 .71-.1c.48-.09.6-.62.69-1.31.12-1 .12-2.88.12-5.17v-4.19-5.14s-.24-1.19-1-1.36a4.52 4.52 0 0 0-.81-.07c-.09 0-.19 0-.19-.14s.12-.19.38-.19c1.07 0 2.57.07 2.69.07s1.86-.07 2.57-.07c.26 0 .38 0 .38.19s-.1.14-.19.14a5.65 5.65 0 0 0-.79.07c-.69.12-.88.52-.93 1.36s0 1.43 0 5.14zM354.92 233c.29-.79.38-.93.52-.93s.24.12.52.86c.36.91 4.09 10.73 5.54 14.35.86 2.12 1.55 2.5 2 2.64a3.07 3.07 0 0 0 1 .14c.14 0 .24 0 .24.14s-.21.19-.48.19h-3.74c-.45 0-.71 0-.71-.17s.07-.14.17-.17.29-.26.14-.64l-2.21-5.86a.21.21 0 0 0-.21-.14h-5.12a.25.25 0 0 0-.24.19l-1.43 4.21a5 5 0 0 0-.33 1.59c0 .48.5.69.91.69h.24c.17 0 .24 0 .24.14s-.14.19-.36.19c-.57 0-1.59-.07-1.86-.07s-1.57.07-2.69.07c-.31 0-.45 0-.45-.19s.1-.14.21-.14h.69c1.09-.14 1.57-1 2-2.24zm2.48 9.52c.12 0 .12-.07.1-.17l-2.26-6.43q-.18-.54-.36 0l-2.09 6.43c0 .12 0 .17.07.17zM372.55 239.27v-5.14s-.24-1.19-1-1.36a4.51 4.51 0 0 0-.81-.07c-.09 0-.19 0-.19-.14s.12-.19.38-.19c1.07 0 2.57.07 2.69.07s2.07-.07 2.81-.07a7.33 7.33 0 0 1 4.36 1 4.17 4.17 0 0 1 1.64 3.24c0 1.76-.74 3.52-2.88 5.5 2 2.5 3.57 4.62 5 6.09a4.93 4.93 0 0 0 2.9 1.71 5.71 5.71 0 0 0 .93.07c.12 0 .21.07.21.14s-.14.19-.57.19h-1.69a4.84 4.84 0 0 1-2.55-.45c-1-.55-1.86-1.71-3.21-3.5-1-1.31-2.12-2.9-2.59-3.52a.38.38 0 0 0-.31-.14h-2.93c-.12 0-.17.07-.17.19v.57c0 2.29 0 4.17.12 5.17.07.69.21 1.21.93 1.31a10.33 10.33 0 0 0 1.07.1c.14 0 .19.07.19.14s-.12.19-.38.19c-1.31 0-2.81-.07-2.93-.07s-1.52.07-2.24.07c-.26 0-.38 0-.38-.19s0-.14.19-.14a3.66 3.66 0 0 0 .71-.1c.48-.09.6-.62.69-1.31.12-1 .12-2.88.12-5.17zm1.9 2.07a.31.31 0 0 0 .17.29 6.56 6.56 0 0 0 2.5.38 3.09 3.09 0 0 0 1.79-.45 4.34 4.34 0 0 0 1.45-3.67c0-3-1.57-4.76-4.12-4.76a7.2 7.2 0 0 0-1.59.14.29.29 0 0 0-.19.29zM393.14 250.05c-.33-.17-.36-.26-.36-.9 0-1.19.1-2.14.12-2.52s.07-.38.19-.38.17.07.17.26a4.14 4.14 0 0 0 .07.88c.36 1.76 1.93 2.43 3.52 2.43a3.18 3.18 0 0 0 3.4-3.16c0-1.64-.69-2.59-2.74-4.28l-1.07-.88c-2.52-2.07-3.09-3.55-3.09-5.16 0-2.55 1.9-4.28 4.93-4.28a9.25 9.25 0 0 1 2.21.24 3.92 3.92 0 0 0 .83.12c.19 0 .24 0 .24.17s-.1.9-.1 2.52c0 .38 0 .55-.17.55s-.17-.12-.19-.31a4.18 4.18 0 0 0-.31-1.19c-.14-.26-.79-1.26-3-1.26a2.71 2.71 0 0 0-2.93 2.76c0 1.36.62 2.21 2.9 4l.67.52c2.81 2.21 3.48 3.69 3.48 5.59a4.93 4.93 0 0 1-2 4 6.26 6.26 0 0 1-3.59 1 7.21 7.21 0 0 1-3.18-.72zM427 243.46c0 2.29 0 4.17.12 5.17.07.69.21 1.21.93 1.31a10.37 10.37 0 0 0 1.07.1c.14 0 .19.07.19.14s-.12.19-.38.19c-1.31 0-2.81-.07-2.93-.07s-1.62.07-2.33.07c-.26 0-.38 0-.38-.19s0-.14.19-.14a3.66 3.66 0 0 0 .71-.1c.48-.09.6-.62.69-1.31.12-1 .12-2.88.12-5.17V241a.14.14 0 0 0-.14-.14h-10.09a.12.12 0 0 0-.14.14v2.5c0 2.29 0 4.17.12 5.17.07.69.21 1.21.93 1.31a10.33 10.33 0 0 0 1.07.1c.14 0 .19.07.19.14s-.12.19-.38.19c-1.31 0-2.81-.07-2.93-.07s-1.62.07-2.33.07c-.26 0-.38 0-.38-.19s0-.14.19-.14a3.66 3.66 0 0 0 .71-.1c.48-.09.59-.62.69-1.31.12-1 .12-2.88.12-5.17v-4.19-5.14s-.24-1.19-1-1.36a4.52 4.52 0 0 0-.81-.07c-.09 0-.19 0-.19-.14s.12-.19.38-.19c1.07 0 2.57.07 2.69.07s1.62-.07 2.33-.07c.26 0 .38 0 .38.19s-.09.14-.19.14a3.59 3.59 0 0 0-.6.07c-.64.12-.83.52-.88 1.36s0 1.43 0 5.14v.5a.13.13 0 0 0 .14.14h10.09a.13.13 0 0 0 .14-.14v-.5-5.14s-.24-1.19-1-1.36a4.52 4.52 0 0 0-.81-.07c-.09 0-.19 0-.19-.14s.12-.19.38-.19c1.07 0 2.57.07 2.69.07s1.62-.07 2.33-.07c.26 0 .38 0 .38.19s-.09.14-.19.14a3.6 3.6 0 0 0-.59.07c-.64.12-.83.52-.88 1.36s0 1.43 0 5.14zM441.87 243.46c0 2.29 0 4.17.12 5.17.07.69.21 1.21.93 1.31a10.33 10.33 0 0 0 1.07.1c.14 0 .19.07.19.14s-.12.19-.38.19c-1.31 0-2.81-.07-2.93-.07s-1.62.07-2.33.07c-.26 0-.38 0-.38-.19s0-.14.19-.14a3.66 3.66 0 0 0 .71-.1c.48-.09.59-.62.69-1.31.12-1 .12-2.88.12-5.17v-4.19-5.14s-.29-1.21-.81-1.33a3.13 3.13 0 0 0-.74-.09c-.1 0-.19 0-.19-.14s.12-.19.38-.19c.79 0 2.29.07 2.4.07s1.62-.07 2.33-.07c.26 0 .38 0 .38.19s-.09.14-.19.14a3.58 3.58 0 0 0-.6.07c-.64.12-.83.52-.88 1.36s0 1.43 0 5.14zM454.74 239.27v-5.14s-.24-1.19-1-1.36a4.52 4.52 0 0 0-.81-.07c-.09 0-.19 0-.19-.14s.12-.19.38-.19c1.07 0 2.5.07 2.69.07.52 0 1.9-.07 3-.07 3 0 4 1 4.43 1.36a4.14 4.14 0 0 1 1.19 2.83 5.52 5.52 0 0 1-5.86 5.66 3.58 3.58 0 0 1-.5 0c-.12 0-.26 0-.26-.17s.14-.21.64-.21a4 4 0 0 0 4.12-3.88 5 5 0 0 0-1.33-3.67 4.14 4.14 0 0 0-3.26-1.19 2.94 2.94 0 0 0-1 .14c-.14 0-.19.21-.19.45v9.78c0 2.29 0 4.17.12 5.17.07.69.21 1.21.93 1.31a10.29 10.29 0 0 0 1.07.1c.14 0 .19.07.19.14s-.12.19-.38.19c-1.31 0-2.81-.07-2.93-.07s-1.57.07-2.28.07c-.26 0-.38 0-.38-.19s0-.14.19-.14a3.66 3.66 0 0 0 .71-.1c.48-.09.59-.62.69-1.31.12-1 .12-2.88.12-5.17zM14.56 190.81h449.99v.94H14.56z"/>
    </g>
</svg>