<?xml version="1.0" encoding="utf-8"?>
<!-- Generator: Adobe Illustrator 18.1.1, SVG Export Plug-In . SVG Version: 6.00 Build 0)  -->
<svg version="1.1" id="Layer_1" xmlns="http://www.w3.org/2000/svg" xmlns:xlink="http://www.w3.org/1999/xlink" x="0px" y="0px"
	 viewBox="50 240 546 306" enable-background="new 50 240 546 306" xml:space="preserve">
<g>
	<path fill="#98846D" d="M102.8,427c-14.1-12.6-17.6-29.2-17.6-43c0-9.8,3.3-26.8,16.3-39.7c8.7-8.7,22-15.5,44.3-15.5
		c5.8,0,13.9,0.4,21,1.7c5.5,1.1,10.2,1.9,14.9,2.2c1.6,0.1,1.9,0.7,1.9,1.6c0,1.2-0.4,2.9-0.7,8.2c-0.3,4.8-0.3,12.8-0.4,15
		s-0.4,3.1-1.3,3.1c-1.1,0-1.2-1.1-1.2-3.1c0-5.6-2.3-11.6-6.1-14.9c-5.1-4.4-16.3-8.3-29.1-8.3c-19.3,0-28.4,5.6-33.5,10.6
		c-10.6,10.2-13.1,23.2-13.1,37.9c0,27.7,21.4,53.2,52.5,53.2c10.9,0,19.4-1.3,25.3-7.2c3.1-3.2,5-9.6,5.4-12.2
		c0.3-1.6,0.5-2.2,1.5-2.2c0.7,0,1.1,1.1,1.1,2.2c0,1.1-1.7,13.7-3.2,18.6c-0.9,2.8-1.2,3.1-3.8,4.2c-5.8,2.3-16.9,3.3-26.1,3.3
		C128.9,442.8,114.3,437.3,102.8,427z"/>
	<path fill="#98846D" d="M205.4,421c0.3,11.9,1.7,15.7,5.6,16.9c2.8,0.7,6,0.9,7.2,0.9c0.7,0,1.2,0.3,1.2,0.8c0,0.8-0.9,1.2-2.7,1.2
		c-8.3,0-14.1-0.4-15.4-0.4c-1.3,0-7.4,0.4-13.9,0.4c-1.5,0-2.3-0.1-2.3-1.2c0-0.5,0.4-0.8,1.2-0.8c1.2,0,3.8-0.1,6-0.9
		c3.6-1.1,4.4-5.2,4.4-18.5l0.1-83.3c0-5.6,0.4-7.2,1.6-7.2c1.2,0,3.6,3.2,5.1,4.7c2.2,2.4,23.8,25.9,46.2,49.8
		c14.3,15.4,30.3,33.1,34.8,37.9l-1.6-73.8c-0.1-9.5-1.2-12.6-5.6-13.8c-2.7-0.5-6-0.7-7.1-0.7c-1.1,0-1.2-0.4-1.2-1.1
		c0-0.9,1.2-1.1,2.9-1.1c6.6,0,13.5,0.4,15.1,0.4s6.4-0.4,12.3-0.4c1.6,0,2.7,0.1,2.7,1.1c0,0.5-0.5,1.1-1.6,1.1
		c-0.7,0-1.7,0-3.5,0.4c-4.8,1.1-5.4,4.2-5.4,13l-0.3,85.2c0,9.6-0.3,10.3-1.3,10.3c-1.2,0-2.9-1.6-10.6-9.4
		c-1.6-1.5-22.5-22.8-37.9-39.4c-16.9-18.2-33.3-36.4-37.9-41.8L205.4,421z"/>
	<path fill="#98846D" d="M452.8,398.9c0,21.4,0.5,30.7,3.2,33.3c2.3,2.3,6.1,3.3,17.4,3.3c7.8,0,14.1-0.1,17.6-4.4
		c1.9-2.3,3.3-6,3.8-8.7c0.1-1.2,0.4-1.9,1.3-1.9c0.7,0,0.8,0.5,0.8,2.2c0,1.6-1.1,10.3-2.2,14.6c-1.1,3.3-1.5,3.9-9.1,3.9
		c-10.5,0-18.1-0.3-24.1-0.4c-6.1-0.3-10.6-0.4-14.9-0.4c-0.5,0-3.1,0.1-6,0.1c-2.9,0.1-6.1,0.3-8.3,0.3c-1.6,0-2.3-0.3-2.3-1.2
		c0-0.4,0.3-0.8,1.2-0.8c1.3,0,3.1-0.3,4.4-0.5c2.9-0.5,3.6-3.8,4.2-8c0.7-6.1,0.7-17.6,0.7-31.6v-25.6c0-22.6,0-26.8-0.3-31.5
		c-0.3-5-1.5-7.2-6.3-8.3c-1.2-0.3-3.6-0.4-5-0.4c-0.5,0-1.2-0.3-1.2-0.9c0-0.8,0.7-1.2,2.3-1.2c6.6,0,15.7,0.4,16.5,0.4
		c0.7,0,11.4-0.4,15.7-0.4c1.6,0,2.3,0.3,2.3,1.2c0,0.5-0.5,0.9-1.2,0.9c-1.1,0-3.1,0.1-4.8,0.4c-4.2,0.7-5.4,3.2-5.6,8.3
		c-0.3,4.7-0.3,8.7-0.3,31.5L452.8,398.9L452.8,398.9z"/>
	<path fill="#98846D" d="M509,438.8c-2-1.1-2.2-1.6-2.2-5.5c0-7.2,0.5-13.1,0.7-15.4c0.1-1.6,0.4-2.3,1.2-2.3c0.9,0,1.1,0.4,1.1,1.6
		c0,1.3,0,3.3,0.4,5.4c2.2,10.7,11.8,14.9,21.6,14.9c13.9,0,20.8-10,20.8-19.3c0-10-4.2-15.8-16.7-26.1l-6.6-5.4
		c-15.4-12.6-18.9-21.7-18.9-31.6c0-15.5,11.6-26.1,30.1-26.1c5.6,0,9.9,0.5,13.5,1.5c2.8,0.5,3.9,0.7,5.1,0.7
		c1.2,0,1.5,0.3,1.5,1.1s-0.5,5.5-0.5,15.4c0,2.3-0.3,3.3-1.1,3.3c-0.8,0-1.1-0.7-1.2-1.9c-0.1-1.7-1.1-5.6-1.9-7.2
		s-4.8-7.8-18.2-7.8c-10,0-17.8,6.3-17.8,16.9c0,8.3,3.8,13.5,17.7,24.4l4,3.2c17.1,13.5,21.2,22.5,21.2,34.2
		c0,5.9-2.3,17-12.3,24.1c-6.3,4.4-14.1,6.1-22,6.1C521.6,442.8,514.9,441.7,509,438.8z"/>
	<g>
		<path fill="#98846D" d="M366.9,418.5l9.5-26.8c-5.7,7.2-41.3,46.3-61.2,50.8h48.8C359.9,440.3,364.3,426.3,366.9,418.5z"/>
		<path fill="#98846D" d="M382.3,420.1c-2.1,7,0.6,8.1,0.6,8.1l0.4,0.1l9.4-7.3l1.9,2.4l-12.1,9.9c0,0-8.4,7.3-13.7,9.1h47.6
			c2.4,0,4.5-2,4.5-4.5V335.1c0-2.4-2-4.5-4.5-4.5h-6.2c-2.8,7.5-5.5,15.5-8.1,23.4C392.7,382.9,385,411.4,382.3,420.1z"/>
		<path fill="#98846D" d="M346.6,359.6c23.8-17.5,45.1-17,45.1-17c1.3-3,3.1-7.1,5.4-11.9h-83.5c-2.4,0-4.5,2-4.5,4.5v89.6
			C314.2,396.6,329.8,371.9,346.6,359.6z"/>
		<path fill="#98846D" d="M463,271.7c-4.7-6.2-21.9-3.6-38,14.9c-11.8,13.5-21.6,31.2-27.8,44.1h13.2c8.3-22.4,17.3-41.8,26.1-47.5
			c0,0,4.5-3.8,11.2-1.6c6.9,2.3,11.9,4.7,11.9,4.7S467.7,278,463,271.7z"/>
		<path fill="#98846D" d="M364.4,397.8c-20.6,25.7-33.9,32.7-37.8,31.6c-3.8-1.2,0-13.1,2.7-21.6s10.2-33,23.1-45.3
			s24.9-7.6,35.5-8.6C387.8,353.8,384.6,372.7,364.4,397.8z"/>
	</g>
	<g>
		<path fill="#98846D" d="M88,488.8c-2.4-2.2-3.1-5.1-3.1-7.4c0-1.7,0.5-4.7,2.9-6.9c1.5-1.5,3.8-2.7,7.8-2.7c1.1,0,2.4,0.1,3.7,0.3
			c1,0.2,1.8,0.3,2.6,0.4c0.3,0,0.3,0.1,0.3,0.3c0,0.2-0.1,0.5-0.1,1.4c0,0.8,0,2.2-0.1,2.7c0,0.4-0.1,0.5-0.2,0.5
			c-0.2,0-0.2-0.2-0.2-0.5c0-1-0.4-2-1.1-2.5c-0.8-0.7-2.9-1.5-5.1-1.5c-3.4,0-4.9,1-5.8,1.8c-1.8,1.8-2.2,4-2.2,6.6
			c0,4.8,3.7,9.2,9.1,9.2c1.9,0,3.4-0.2,4.4-1.3c0.5-0.5,0.8-1.7,1-2.1c0-0.3,0.1-0.4,0.2-0.4s0.2,0.2,0.2,0.4s-0.3,2.3-0.5,3.2
			c-0.1,0.5-0.2,0.5-0.6,0.7c-1.1,0.4-3,0.5-4.6,0.5C92.6,491.5,90,490.6,88,488.8z"/>
		<path fill="#98846D" d="M110.4,479.3c0-3.9,0-4.7,0-5.4c0-0.8-0.2-1.3-1.1-1.5c-0.2,0-0.6-0.1-0.9-0.1c-0.1,0-0.2,0-0.2-0.1
			c0-0.1,0.1-0.2,0.4-0.2c0.5,0,1.3,0,1.8,0h1.1c0.2,0,5.2,0,5.8,0c0.5,0,0.9-0.1,1.1-0.1c0.1,0,0.2-0.1,0.3-0.1
			c0.1,0,0.1,0.1,0.1,0.2c0,0.2-0.1,0.5-0.2,1.2c0,0.2-0.1,1.4-0.1,1.7c0,0.1-0.1,0.3-0.2,0.3s-0.2-0.1-0.2-0.3c0-0.2,0-0.6-0.1-1
			c-0.2-0.4-0.4-0.7-1.8-0.8c-0.4,0-3.2-0.1-3.5-0.1c-0.1,0-0.1,0.1-0.1,0.2v7c0,0.2,0,0.2,0.1,0.2c0.3,0,3.4,0,4,0
			c0.6,0,1-0.1,1.2-0.3c0.2-0.2,0.3-0.3,0.4-0.3s0.1,0,0.1,0.2c0,0.1-0.1,0.5-0.2,1.4c0,0.5-0.1,1.5-0.1,1.6c0,0.2,0,0.5-0.2,0.5
			c-0.1,0-0.2-0.1-0.2-0.2c0-0.2,0-0.5-0.1-0.9c-0.1-0.3-0.3-0.7-1.3-0.8c-0.6-0.1-3.2-0.1-3.6-0.1c-0.1,0-0.2,0.1-0.2,0.2v2.2
			c0,0.8,0,3.8,0,4.4c0.1,1.7,0.4,2.1,3,2.1c0.6,0,1.8,0,2.4-0.3c0.6-0.3,1-0.7,1.2-1.8c0-0.3,0.1-0.4,0.2-0.4s0.1,0.2,0.1,0.4
			s-0.2,1.9-0.3,2.4c-0.2,0.6-0.4,0.6-1.4,0.6c-1.9,0-3.3,0-4.2-0.1c-1,0-1.6-0.1-2-0.1c0,0-0.5,0-1.1,0s-1.1,0-1.5,0
			c-0.3,0-0.4,0-0.4-0.2c0-0.1,0-0.1,0.2-0.1s0.5,0,0.7-0.1c0.5-0.1,0.6-0.6,0.7-1.4c0.1-1.1,0.1-3.1,0.1-5.5v-4.5H110.4z"/>
		<path fill="#98846D" d="M128.8,487.7c0,2.1,0.3,2.8,1,3c0.5,0.1,1.1,0.1,1.3,0.1c0.1,0,0.2,0,0.2,0.1c0,0.1-0.1,0.2-0.4,0.2
			c-1.5,0-2.4-0.1-2.7-0.1s-1.3,0.1-2.4,0.1c-0.2,0-0.4,0-0.4-0.2c0-0.1,0.1-0.1,0.2-0.1c0.2,0,0.6,0,1.1-0.1c0.6-0.2,0.7-1,0.7-3.2
			V473c0-1,0.1-1.3,0.3-1.3s0.6,0.5,0.8,0.9c0.4,0.4,4.1,4.5,8.1,8.7c2.5,2.7,5.3,5.7,6.1,6.6l-0.3-12.9c0-1.6-0.2-2.2-1-2.4
			c-0.4-0.1-1.1-0.1-1.3-0.1c-0.2,0-0.2-0.1-0.2-0.2c0-0.1,0.2-0.2,0.5-0.2c1.2,0,2.3,0.1,2.7,0.1s1.1-0.1,2.1-0.1
			c0.3,0,0.4,0,0.4,0.2c0,0.1-0.1,0.2-0.3,0.2c-0.1,0-0.3,0-0.6,0.1c-0.9,0.2-1,0.7-1,2.2v14.8c0,1.7,0,1.8-0.2,1.8
			c-0.2,0-0.5-0.3-1.8-1.6c-0.3-0.2-3.9-3.9-6.6-6.9c-3-3.2-5.8-6.4-6.6-7.2L128.8,487.7z"/>
		<path fill="#98846D" d="M159.7,483.8c0,2.4,0,4.5,0.1,5.5c0.1,0.7,0.2,1.3,1,1.4c0.3,0,1,0.1,1.2,0.1c0.1,0,0.2,0.1,0.2,0.1
			c0,0.1-0.1,0.2-0.4,0.2c-1.4,0-3-0.1-3.1-0.1s-1.7,0.1-2.4,0.1c-0.3,0-0.4,0-0.4-0.2c0-0.1,0-0.1,0.2-0.1c0.2,0,0.5,0,0.7-0.1
			c0.5-0.1,0.6-0.6,0.7-1.4c0.1-1.1,0.1-3.1,0.1-5.5V473h-3.7c-1.6,0-2.1,0.2-2.5,0.8c-0.3,0.4-0.3,0.6-0.4,0.7
			c-0.1,0.2-0.1,0.2-0.2,0.2s-0.1-0.1-0.1-0.2c0-0.2,0.5-2.4,0.5-2.7c0-0.1,0.1-0.5,0.2-0.5c0.2,0,0.4,0.2,1.1,0.3
			c0.7,0.1,1.7,0.1,2,0.1h9.5c0.9,0,1.4,0,1.8-0.1c0.4,0,0.6-0.1,0.7-0.1c0.1,0,0.1,0.1,0.1,0.3c0,0.7-0.1,2.5-0.1,2.8
			c0,0.2-0.1,0.3-0.2,0.3c-0.1,0-0.2-0.1-0.2-0.4v-0.3c-0.1-0.7-0.6-1.4-3.1-1.4h-3.2L159.7,483.8L159.7,483.8z"/>
		<path fill="#98846D" d="M174.1,479.3c0-3.9,0-4.7,0-5.4c0-0.8-0.2-1.3-1.1-1.5c-0.2,0-0.6-0.1-0.8-0.1c-0.1,0-0.2,0-0.2-0.1
			c0-0.1,0.1-0.2,0.4-0.2c0.5,0,1.3,0,1.8,0h1.1c0.2,0,5.2,0,5.8,0c0.5,0,0.9-0.1,1.1-0.1c0.1,0,0.2-0.1,0.3-0.1
			c0.1,0,0.1,0.1,0.1,0.2c0,0.2-0.1,0.5-0.2,1.2c0,0.2-0.1,1.4-0.1,1.7c0,0.1-0.1,0.3-0.2,0.3s-0.2-0.1-0.2-0.3c0-0.2,0-0.6-0.1-1
			c-0.2-0.4-0.4-0.7-1.8-0.8c-0.4,0-3.2-0.1-3.5-0.1c-0.1,0-0.1,0.1-0.1,0.2v7c0,0.2,0,0.2,0.1,0.2c0.3,0,3.4,0,4,0
			c0.6,0,1-0.1,1.2-0.3c0.2-0.2,0.3-0.3,0.4-0.3c0.1,0,0.1,0,0.1,0.2c0,0.1-0.1,0.5-0.2,1.4c0,0.5-0.1,1.5-0.1,1.6
			c0,0.2,0,0.5-0.2,0.5c-0.1,0-0.2-0.1-0.2-0.2c0-0.2,0-0.5-0.1-0.9c-0.1-0.3-0.3-0.7-1.3-0.8c-0.6-0.1-3.2-0.1-3.6-0.1
			c-0.1,0-0.2,0.1-0.2,0.2v2.2c0,0.8,0,3.8,0,4.4c0.1,1.7,0.4,2.1,3,2.1c0.6,0,1.8,0,2.4-0.3c0.6-0.3,1-0.7,1.2-1.8
			c0-0.3,0.1-0.4,0.2-0.4s0.1,0.2,0.1,0.4s-0.2,1.9-0.3,2.4c-0.2,0.6-0.4,0.6-1.4,0.6c-1.9,0-3.3,0-4.2-0.1c-1,0-1.6-0.1-2-0.1
			c0,0-0.5,0-1.1,0s-1.1,0-1.5,0c-0.3,0-0.4,0-0.4-0.2c0-0.1,0-0.1,0.2-0.1s0.5,0,0.7-0.1c0.5-0.1,0.6-0.6,0.7-1.4
			c0.1-1.1,0.1-3.1,0.1-5.5v-4.5H174.1z"/>
		<path fill="#98846D" d="M191.7,479.3c0-3.9,0-4.7,0-5.4c0-0.8-0.2-1.3-1.1-1.5c-0.2,0-0.6-0.1-0.9-0.1c-0.1,0-0.2,0-0.2-0.1
			c0-0.1,0.1-0.2,0.4-0.2c1.2,0,2.8,0.1,2.9,0.1c0.3,0,2.2-0.1,3-0.1c1.6,0,3.3,0.1,4.7,1.1c0.6,0.4,1.7,1.7,1.7,3.4
			c0,1.9-0.7,3.7-3.1,5.8c2.1,2.7,3.8,4.9,5.3,6.5c1.4,1.5,2.4,1.7,3.1,1.8c0.5,0.1,0.9,0.1,1,0.1s0.2,0.1,0.2,0.1
			c0,0.1-0.1,0.2-0.6,0.2h-1.8c-1.4,0-2-0.1-2.7-0.5c-1.1-0.5-2-1.8-3.4-3.7c-1.1-1.4-2.2-3.1-2.8-3.7c-0.1-0.1-0.2-0.1-0.3-0.1
			h-3.1c-0.1,0-0.2,0.1-0.2,0.2v0.6c0,2.4,0,4.5,0.1,5.5c0.1,0.7,0.2,1.3,1,1.4c0.3,0,1,0.1,1.2,0.1c0.1,0,0.2,0.1,0.2,0.1
			c0,0.1-0.1,0.2-0.4,0.2c-1.4,0-3-0.1-3.1-0.1c0,0-1.6,0.1-2.3,0.1c-0.3,0-0.4,0-0.4-0.2c0-0.1,0-0.1,0.2-0.1c0.2,0,0.5,0,0.7-0.1
			c0.5-0.1,0.6-0.6,0.7-1.4c0.1-1.1,0.1-3.1,0.1-5.5v-4.5H191.7z M193.7,481.5c0,0.1,0,0.2,0.2,0.3c0.4,0.2,1.6,0.4,2.7,0.4
			c0.6,0,1.3-0.1,1.9-0.5c0.9-0.6,1.6-2,1.6-3.9c0-3.2-1.7-5.1-4.4-5.1c-0.7,0-1.5,0.1-1.7,0.1c-0.1,0-0.2,0.1-0.2,0.3v8.4H193.7z"
			/>
		<path fill="#98846D" d="M223.5,479.3c0-3.9,0-4.7,0-5.4c0-0.8-0.2-1.3-1.1-1.5c-0.2,0-0.6-0.1-0.8-0.1c-0.1,0-0.2,0-0.2-0.1
			c0-0.1,0.1-0.2,0.4-0.2c0.5,0,1.3,0,1.8,0h1.1c0.5,0,5.6,0,6.3,0c0.5,0,0.9,0,1.1-0.1c0.1,0,0.2-0.1,0.3-0.1
			c0.1,0,0.1,0.1,0.1,0.2c0,0.2-0.1,0.5-0.2,1.2c0,0.2-0.1,1.4-0.1,1.7c0,0.1-0.1,0.3-0.2,0.3c-0.1,0-0.2-0.1-0.2-0.3
			c0-0.2-0.1-0.6-0.2-1c-0.1-0.3-0.7-0.7-1.7-0.8l-3.9-0.1c-0.1,0-0.2,0.1-0.2,0.3v7c0,0.1,0,0.2,0.2,0.2h3.2c0.4,0,0.7,0,1.2,0
			c0.6,0,1-0.1,1.2-0.4c0.1-0.1,0.2-0.2,0.3-0.2c0.1,0,0.1,0.1,0.1,0.2s-0.1,0.5-0.2,1.4c0,0.5-0.1,1.5-0.1,1.7s0,0.5-0.2,0.5
			c-0.1,0-0.2-0.1-0.2-0.2c0-0.2,0-0.6-0.1-1c-0.1-0.3-0.5-0.8-1.3-1c-0.6-0.1-3.4-0.1-3.8-0.1c-0.1,0-0.2,0-0.2,0.2v2.1
			c0,2.4,0,4.5,0.1,5.5c0.1,0.7,0.2,1.3,1,1.4c0.3,0,1,0.1,1.2,0.1c0.1,0,0.2,0.1,0.2,0.1c0,0.1-0.1,0.2-0.4,0.2
			c-1.4,0-3-0.1-3.1-0.1s-1.7,0.1-2.4,0.1c-0.3,0-0.4,0-0.4-0.2c0-0.1,0-0.1,0.2-0.1c0.2,0,0.5,0,0.7-0.1c0.5-0.1,0.6-0.6,0.7-1.4
			c0.1-1.1,0.1-3.1,0.1-5.5L223.5,479.3L223.5,479.3z"/>
		<path fill="#98846D" d="M247.8,471.7c5.7,0,10,3.6,10,9.5c0,5.6-4,10.3-10.1,10.3c-6.9,0-9.8-5.4-9.8-10
			C237.8,477.4,240.8,471.7,247.8,471.7z M248.4,490.5c2.2,0,7-1.3,7-8.7c0-6.1-3.7-9.4-7.6-9.4c-4.2,0-7.3,2.8-7.3,8.3
			C240.3,486.7,243.8,490.5,248.4,490.5z"/>
		<path fill="#98846D" d="M265.4,479.3c0-3.9,0-4.7,0-5.4c0-0.8-0.2-1.3-1.1-1.5c-0.2,0-0.6-0.1-0.9-0.1c-0.1,0-0.2,0-0.2-0.1
			c0-0.1,0.1-0.2,0.4-0.2c1.2,0,2.8,0.1,2.9,0.1c0.3,0,2.2-0.1,3-0.1c1.6,0,3.3,0.1,4.7,1.1c0.6,0.4,1.7,1.7,1.7,3.4
			c0,1.9-0.7,3.7-3.1,5.8c2.1,2.7,3.8,4.9,5.3,6.5c1.4,1.5,2.4,1.7,3.1,1.8c0.5,0.1,0.8,0.1,1,0.1s0.2,0.1,0.2,0.1
			c0,0.1-0.1,0.2-0.6,0.2h-1.8c-1.4,0-2-0.1-2.7-0.5c-1.1-0.5-2-1.8-3.4-3.7c-1.1-1.4-2.2-3.1-2.8-3.7c-0.1-0.1-0.2-0.1-0.3-0.1
			h-3.1c-0.1,0-0.2,0.1-0.2,0.2v0.6c0,2.4,0,4.5,0.1,5.5c0.1,0.7,0.2,1.3,1,1.4c0.3,0,1,0.1,1.2,0.1c0.1,0,0.2,0.1,0.2,0.1
			c0,0.1-0.1,0.2-0.4,0.2c-1.4,0-3-0.1-3.1-0.1c0,0-1.6,0.1-2.3,0.1c-0.3,0-0.4,0-0.4-0.2c0-0.1,0-0.1,0.2-0.1s0.5,0,0.7-0.1
			c0.5-0.1,0.6-0.6,0.7-1.4c0.1-1.1,0.1-3.1,0.1-5.5v-4.5H265.4z M267.4,481.5c0,0.1,0,0.2,0.2,0.3c0.4,0.2,1.6,0.4,2.7,0.4
			c0.6,0,1.3-0.1,1.9-0.5c0.8-0.6,1.6-2,1.6-3.9c0-3.2-1.7-5.1-4.4-5.1c-0.7,0-1.5,0.1-1.7,0.1c-0.1,0-0.2,0.1-0.2,0.3v8.4H267.4z"
			/>
		<path fill="#98846D" d="M297.9,487.7c0,2.1,0.3,2.8,1,3c0.5,0.1,1.1,0.1,1.3,0.1c0.1,0,0.2,0,0.2,0.1c0,0.1-0.1,0.2-0.4,0.2
			c-1.5,0-2.4-0.1-2.7-0.1c-0.2,0-1.3,0.1-2.4,0.1c-0.2,0-0.4,0-0.4-0.2c0-0.1,0.1-0.1,0.2-0.1c0.2,0,0.6,0,1.1-0.1
			c0.6-0.2,0.7-1,0.7-3.2V473c0-1,0.1-1.3,0.3-1.3c0.2,0,0.6,0.5,0.9,0.9c0.4,0.4,4.1,4.5,8.1,8.7c2.5,2.7,5.3,5.7,6.1,6.6
			l-0.3-12.9c0-1.6-0.2-2.2-1-2.4c-0.4-0.1-1.1-0.1-1.3-0.1s-0.2-0.1-0.2-0.2c0-0.1,0.2-0.2,0.5-0.2c1.2,0,2.3,0.1,2.7,0.1
			c0.3,0,1.1-0.1,2.1-0.1c0.3,0,0.4,0,0.4,0.2c0,0.1-0.1,0.2-0.3,0.2c-0.1,0-0.3,0-0.6,0.1c-0.8,0.2-1,0.7-1,2.2v14.8
			c0,1.7,0,1.8-0.2,1.8c-0.2,0-0.5-0.3-1.8-1.6c-0.3-0.2-3.9-3.9-6.6-6.9c-3-3.2-5.7-6.4-6.6-7.2L297.9,487.7z"/>
		<path fill="#98846D" d="M323.4,479.3c0-3.9,0-4.7,0-5.4c0-0.8-0.2-1.3-1.1-1.5c-0.2,0-0.6-0.1-0.8-0.1c-0.1,0-0.2,0-0.2-0.1
			c0-0.1,0.1-0.2,0.4-0.2c0.5,0,1.3,0,1.8,0h1.1c0.2,0,5.2,0,5.7,0s0.9-0.1,1.1-0.1c0.1,0,0.2-0.1,0.3-0.1s0.1,0.1,0.1,0.2
			c0,0.2-0.1,0.5-0.2,1.2c0,0.2-0.1,1.4-0.1,1.7c0,0.1-0.1,0.3-0.2,0.3c-0.1,0-0.2-0.1-0.2-0.3c0-0.2,0-0.6-0.1-1
			c-0.2-0.4-0.4-0.7-1.8-0.8c-0.4,0-3.2-0.1-3.5-0.1c-0.1,0-0.1,0.1-0.1,0.2v7c0,0.2,0,0.2,0.1,0.2c0.3,0,3.4,0,4,0
			c0.6,0,1-0.1,1.2-0.3c0.2-0.2,0.3-0.3,0.4-0.3s0.1,0,0.1,0.2c0,0.1-0.1,0.5-0.2,1.4c0,0.5-0.1,1.5-0.1,1.6c0,0.2,0,0.5-0.2,0.5
			c-0.1,0-0.2-0.1-0.2-0.2c0-0.2,0-0.5-0.1-0.9c-0.1-0.3-0.3-0.7-1.3-0.8c-0.6-0.1-3.2-0.1-3.6-0.1c-0.1,0-0.2,0.1-0.2,0.2v2.2
			c0,0.8,0,3.8,0,4.4c0.1,1.7,0.4,2.1,3,2.1c0.6,0,1.8,0,2.4-0.3c0.6-0.3,1-0.7,1.2-1.8c0-0.3,0.1-0.4,0.2-0.4s0.1,0.2,0.1,0.4
			s-0.2,1.9-0.3,2.4c-0.2,0.6-0.4,0.6-1.4,0.6c-1.9,0-3.3,0-4.2-0.1c-1,0-1.6-0.1-2-0.1c0,0-0.5,0-1.1,0s-1.1,0-1.5,0
			c-0.3,0-0.4,0-0.4-0.2c0-0.1,0-0.1,0.2-0.1c0.2,0,0.5,0,0.7-0.1c0.5-0.1,0.6-0.6,0.7-1.4c0.1-1.1,0.1-3.1,0.1-5.5v-4.5H323.4z"/>
		<path fill="#98846D" d="M357.5,487.6L357.5,487.6c0.7-2.3,3.1-9.7,4-12.9c0.2-1,0.3-1.3,0.3-1.6c0-0.4-0.3-0.7-1.5-0.7
			c-0.1,0-0.2-0.1-0.2-0.2c0-0.1,0.1-0.2,0.4-0.2c1.3,0,2.3,0.1,2.5,0.1c0.2,0,1.3-0.1,2-0.1c0.2,0,0.3,0,0.3,0.1s-0.1,0.2-0.2,0.2
			s-0.5,0-0.8,0.1c-0.7,0.3-1.2,1.4-1.6,2.8c-1.1,3.2-3.7,11.3-4.7,14.1c-0.6,1.9-0.7,2.1-1.1,2.1c-0.2,0-0.4-0.3-0.7-1.3l-5-14l0,0
			c-1,2.4-4.4,11.7-5.3,14c-0.4,1.1-0.5,1.4-0.8,1.4c-0.2,0-0.4-0.3-0.8-2l-4.5-15c-0.4-1.4-0.7-1.7-1.4-2c-0.3-0.1-1-0.1-1.2-0.1
			c-0.1,0-0.2,0-0.2-0.2c0-0.1,0.1-0.2,0.4-0.2c1.3,0,2.7,0.1,3,0.1c0.2,0,1.4-0.1,2.7-0.1c0.3,0,0.4,0.1,0.4,0.2
			c0,0.1-0.1,0.2-0.2,0.2c-0.2,0-0.6,0-1,0.1c-0.1,0.1-0.3,0.3-0.3,0.6c0,0.3,0.2,1.2,0.5,2.3c0.4,1.6,3,10.9,3.4,12.2l0,0l5.3-14.4
			c0.4-1.1,0.5-1.2,0.6-1.2c0.2,0,0.3,0.3,0.6,1.2L357.5,487.6z"/>
		<path fill="#98846D" d="M382.3,479.3c0-3.9,0-4.7,0-5.4c0-0.8-0.2-1.3-1.1-1.5c-0.2,0-0.6-0.1-0.8-0.1c-0.1,0-0.2,0-0.2-0.1
			c0-0.1,0.1-0.2,0.4-0.2c1.2,0,2.8,0.1,2.9,0.1c0.3,0,1.9-0.1,3.4-0.1c2.5,0,7.1-0.2,10.1,2.9c1.3,1.3,2.4,3.4,2.4,6.4
			c0,3.2-1.3,5.6-2.8,7.1c-1.1,1.2-3.4,2.9-7.6,2.9c-1.1,0-2.4-0.1-3.5-0.1c-1.1-0.1-2-0.1-2.1-0.1c0,0-0.5,0-1.1,0s-1.1,0-1.5,0
			c-0.3,0-0.4,0-0.4-0.2c0-0.1,0-0.1,0.2-0.1c0.2,0,0.5,0,0.7-0.1c0.5-0.1,0.6-0.6,0.7-1.4c0.1-1.1,0.1-3.1,0.1-5.5v-4.4H382.3z
			 M384.5,482.1c0,2.7,0,5,0,5.5c0,0.6,0.1,1.6,0.3,1.9c0.3,0.5,1.3,1.1,4.2,1.1c2.3,0,4.6-0.8,6.1-2.3c1.3-1.3,2-3.7,2-6.1
			c0-3.2-1.4-5.3-2.4-6.4c-2.3-2.5-5.3-2.9-8.3-2.9c-0.5,0-1.5,0.1-1.6,0.2c-0.2,0.1-0.3,0.2-0.3,0.5c0,0.8,0,3.4,0,5.4L384.5,482.1
			L384.5,482.1z"/>
		<path fill="#98846D" d="M407.5,479.3c0-3.9,0-4.7,0-5.4c0-0.8-0.2-1.3-1.1-1.5c-0.2,0-0.6-0.1-0.9-0.1c-0.1,0-0.2,0-0.2-0.1
			c0-0.1,0.1-0.2,0.4-0.2c0.5,0,1.3,0,1.8,0h1.1c0.2,0,5.2,0,5.8,0c0.5,0,0.8-0.1,1.1-0.1c0.1,0,0.2-0.1,0.3-0.1
			c0.1,0,0.1,0.1,0.1,0.2c0,0.2-0.1,0.5-0.2,1.2c0,0.2-0.1,1.4-0.1,1.7c0,0.1-0.1,0.3-0.2,0.3s-0.2-0.1-0.2-0.3c0-0.2,0-0.6-0.1-1
			c-0.2-0.4-0.4-0.7-1.8-0.8c-0.4,0-3.2-0.1-3.5-0.1c-0.1,0-0.1,0.1-0.1,0.2v7c0,0.2,0,0.2,0.1,0.2c0.3,0,3.4,0,4,0
			c0.6,0,1-0.1,1.2-0.3c0.2-0.2,0.3-0.3,0.4-0.3s0.1,0,0.1,0.2c0,0.1-0.1,0.5-0.2,1.4c0,0.5-0.1,1.5-0.1,1.6c0,0.2,0,0.5-0.2,0.5
			c-0.1,0-0.2-0.1-0.2-0.2c0-0.2,0-0.5-0.1-0.9c-0.1-0.3-0.3-0.7-1.3-0.8c-0.6-0.1-3.2-0.1-3.6-0.1c-0.1,0-0.2,0.1-0.2,0.2v2.2
			c0,0.8,0,3.8,0,4.4c0.1,1.7,0.4,2.1,3,2.1c0.6,0,1.8,0,2.4-0.3c0.6-0.3,1-0.7,1.2-1.8c0-0.3,0.1-0.4,0.2-0.4s0.1,0.2,0.1,0.4
			s-0.2,1.9-0.3,2.4c-0.2,0.6-0.4,0.6-1.4,0.6c-1.9,0-3.3,0-4.2-0.1c-1,0-1.6-0.1-2-0.1c0,0-0.5,0-1.1,0s-1.1,0-1.5,0
			c-0.3,0-0.4,0-0.4-0.2c0-0.1,0-0.1,0.2-0.1s0.5,0,0.7-0.1c0.5-0.1,0.6-0.6,0.7-1.4c0.1-1.1,0.1-3.1,0.1-5.5v-4.5H407.5z"/>
		<path fill="#98846D" d="M423.6,490.8c-0.3-0.2-0.4-0.3-0.4-1c0-1.3,0.1-2.2,0.1-2.7c0-0.3,0.1-0.4,0.2-0.4s0.2,0.1,0.2,0.3
			s0,0.5,0.1,1c0.4,1.9,2,2.5,3.7,2.5c2.4,0,3.6-1.7,3.6-3.4c0-1.7-0.7-2.8-2.9-4.6l-1.2-1c-2.7-2.2-3.3-3.7-3.3-5.5
			c0-2.7,2-4.6,5.2-4.6c1,0,1.7,0.1,2.3,0.2c0.5,0.1,0.6,0.1,0.8,0.1c0.2,0,0.2,0,0.2,0.2c0,0.1-0.1,1-0.1,2.7c0,0.4,0,0.5-0.2,0.5
			c-0.1,0-0.2-0.1-0.2-0.3c0-0.3-0.2-1-0.3-1.3c-0.1-0.3-0.9-1.4-3.2-1.4c-1.7,0-3.1,1.1-3.1,3c0,1.5,0.6,2.3,3.1,4.2l0.7,0.5
			c3,2.3,3.7,3.9,3.7,6c0,1.1-0.4,3-2.1,4.2c-1.1,0.7-2.4,1.1-3.8,1.1C425.8,491.5,424.6,491.3,423.6,490.8z"/>
		<path fill="#98846D" d="M444,483.8c0,2.4,0,4.5,0.1,5.5c0.1,0.7,0.2,1.3,1,1.4c0.3,0,1,0.1,1.2,0.1c0.1,0,0.2,0.1,0.2,0.1
			c0,0.1-0.1,0.2-0.4,0.2c-1.4,0-3-0.1-3.1-0.1s-1.7,0.1-2.4,0.1c-0.3,0-0.4,0-0.4-0.2c0-0.1,0-0.1,0.2-0.1c0.2,0,0.5,0,0.7-0.1
			c0.5-0.1,0.6-0.6,0.7-1.4c0.1-1.1,0.1-3.1,0.1-5.5v-4.5c0-3.9,0-4.7,0-5.4c0-0.8-0.3-1.3-0.8-1.4c-0.3-0.1-0.6-0.1-0.7-0.1
			c-0.1,0-0.2,0-0.2-0.1c0-0.1,0.1-0.2,0.4-0.2c0.8,0,2.4,0.1,2.5,0.1s1.7-0.1,2.4-0.1c0.3,0,0.4,0,0.4,0.2c0,0.1-0.1,0.1-0.2,0.1
			c-0.2,0-0.3,0-0.6,0.1c-0.6,0.1-0.8,0.5-1,1.5c0,0.9,0,1.5,0,5.4v4.4H444z"/>
		<path fill="#98846D" d="M466.8,484.7c0-2-0.1-2.3-1.2-2.7c-0.2,0-0.6-0.1-0.8-0.1c-0.1,0-0.2,0-0.2-0.1c0-0.1,0.1-0.2,0.4-0.2
			c1.2,0,2.8,0.1,2.9,0.1s1.7-0.1,2.4-0.1c0.3,0,0.4,0,0.4,0.2c0,0.1-0.1,0.1-0.2,0.1c-0.2,0-0.3,0-0.6,0.1c-0.6,0.1-0.8,0.5-1,1.5
			c0,0.9,0,1.6,0,2.7v2.9c0,1.2,0,1.2-0.3,1.4c-1.6,0.9-3.9,1.2-5.3,1.2c-1.9,0-5.5-0.2-8.3-2.7c-1.6-1.4-3-4-3-7.2
			c0-4,2-6.9,4.2-8.3c2.2-1.4,4.8-1.6,6.7-1.6c1.6,0,3.4,0.3,3.8,0.4c0.5,0.1,1.4,0.2,2,0.2c0.2,0,0.3,0.1,0.3,0.2
			c0,0.3-0.2,1.1-0.2,3.6c0,0.4,0,0.5-0.2,0.5c-0.1,0-0.1-0.1-0.2-0.4c0-0.3-0.1-1.1-0.5-1.7c-0.6-1-2.7-2-6-2
			c-1.6,0-3.5,0.1-5.4,1.7c-1.5,1.2-2.5,3.5-2.5,6.4c0,3.6,1.8,6.2,2.7,7c2,1.9,4.2,2.7,6.6,2.7c1,0,2.2-0.1,2.9-0.5
			c0.3-0.2,0.5-0.4,0.5-0.8v-4.4H466.8z"/>
		<path fill="#98846D" d="M479.5,487.7c0,2.1,0.3,2.8,1,3c0.5,0.1,1.1,0.1,1.3,0.1c0.1,0,0.2,0,0.2,0.1c0,0.1-0.1,0.2-0.4,0.2
			c-1.5,0-2.4-0.1-2.7-0.1c-0.2,0-1.3,0.1-2.4,0.1c-0.2,0-0.4,0-0.4-0.2c0-0.1,0.1-0.1,0.2-0.1c0.2,0,0.6,0,1.1-0.1
			c0.6-0.2,0.7-1,0.7-3.2V473c0-1,0.1-1.3,0.3-1.3c0.2,0,0.6,0.5,0.9,0.9c0.4,0.4,4.1,4.5,8.1,8.7c2.5,2.7,5.3,5.7,6.1,6.6L493,475
			c0-1.6-0.2-2.2-1-2.4c-0.4-0.1-1.1-0.1-1.3-0.1s-0.2-0.1-0.2-0.2c0-0.1,0.2-0.2,0.5-0.2c1.2,0,2.3,0.1,2.7,0.1
			c0.3,0,1.1-0.1,2.1-0.1c0.3,0,0.4,0,0.4,0.2c0,0.1-0.1,0.2-0.3,0.2c-0.1,0-0.3,0-0.6,0.1c-0.8,0.2-1,0.7-1,2.2v14.8
			c0,1.7,0,1.8-0.2,1.8c-0.2,0-0.5-0.3-1.8-1.6c-0.3-0.2-3.9-3.9-6.6-6.9c-3-3.2-5.8-6.4-6.6-7.2L479.5,487.7z"/>
		<path fill="#98846D" d="M503.5,490.8c-0.3-0.2-0.4-0.3-0.4-1c0-1.3,0.1-2.2,0.1-2.7c0-0.3,0.1-0.4,0.2-0.4c0.1,0,0.2,0.1,0.2,0.3
			s0,0.5,0.1,1c0.4,1.9,2,2.5,3.7,2.5c2.4,0,3.6-1.7,3.6-3.4c0-1.7-0.7-2.8-2.9-4.6l-1.2-1c-2.7-2.2-3.3-3.7-3.3-5.5
			c0-2.7,2-4.6,5.2-4.6c1,0,1.7,0.1,2.3,0.2c0.5,0.1,0.6,0.1,0.8,0.1c0.2,0,0.2,0,0.2,0.2c0,0.1-0.1,1-0.1,2.7c0,0.4,0,0.5-0.2,0.5
			c-0.1,0-0.2-0.1-0.2-0.3c0-0.3-0.2-1-0.3-1.3c-0.1-0.3-0.8-1.4-3.2-1.4c-1.7,0-3.1,1.1-3.1,3c0,1.5,0.6,2.3,3.1,4.2l0.7,0.5
			c3,2.3,3.7,3.9,3.7,6c0,1.1-0.4,3-2.1,4.2c-1.1,0.7-2.4,1.1-3.8,1.1C505.6,491.5,504.5,491.3,503.5,490.8z"/>
		<path fill="#98846D" d="M534.3,483.8c0,2.4,0,4.5,0.1,5.5c0.1,0.7,0.2,1.3,1,1.4c0.3,0,1,0.1,1.2,0.1c0.1,0,0.2,0.1,0.2,0.1
			c0,0.1-0.1,0.2-0.4,0.2c-1.4,0-3-0.1-3.1-0.1s-1.7,0.1-2.4,0.1c-0.3,0-0.4,0-0.4-0.2c0-0.1,0-0.1,0.2-0.1s0.5,0,0.7-0.1
			c0.5-0.1,0.6-0.6,0.7-1.4c0.1-1.1,0.1-3.1,0.1-5.5v-4.5c0-3.9,0-4.7,0-5.4c0-0.8-0.3-1.3-0.9-1.4c-0.3-0.1-0.6-0.1-0.7-0.1
			s-0.2,0-0.2-0.1c0-0.1,0.1-0.2,0.4-0.2c0.8,0,2.4,0.1,2.5,0.1s1.7-0.1,2.4-0.1c0.3,0,0.4,0,0.4,0.2c0,0.1-0.1,0.1-0.2,0.1
			c-0.2,0-0.3,0-0.6,0.1c-0.6,0.1-0.9,0.5-1,1.5c0,0.9,0,1.5,0,5.4v4.4H534.3z"/>
		<path fill="#98846D" d="M546.3,487.7c0,2.1,0.3,2.8,1,3c0.5,0.1,1.1,0.1,1.3,0.1c0.1,0,0.2,0,0.2,0.1c0,0.1-0.1,0.2-0.4,0.2
			c-1.5,0-2.4-0.1-2.7-0.1c-0.2,0-1.3,0.1-2.4,0.1c-0.2,0-0.4,0-0.4-0.2c0-0.1,0.1-0.1,0.2-0.1c0.2,0,0.6,0,1.1-0.1
			c0.6-0.2,0.7-1,0.7-3.2V473c0-1,0.1-1.3,0.3-1.3c0.2,0,0.6,0.5,0.9,0.9c0.4,0.4,4.1,4.5,8.1,8.7c2.6,2.7,5.3,5.7,6.1,6.6
			l-0.3-12.9c0-1.6-0.2-2.2-1-2.4c-0.4-0.1-1.1-0.1-1.3-0.1s-0.2-0.1-0.2-0.2c0-0.1,0.2-0.2,0.5-0.2c1.2,0,2.3,0.1,2.7,0.1
			c0.3,0,1.1-0.1,2.1-0.1c0.3,0,0.4,0,0.4,0.2c0,0.1-0.1,0.2-0.3,0.2c-0.1,0-0.3,0-0.6,0.1c-0.8,0.2-1,0.7-1,2.2v14.8
			c0,1.7,0,1.8-0.2,1.8s-0.5-0.3-1.8-1.6c-0.3-0.2-3.9-3.9-6.6-6.9c-3-3.2-5.8-6.4-6.6-7.2L546.3,487.7z"/>
		<path fill="#98846D" d="M90.6,515.7c0,3.7,0.1,5.3,0.5,5.8c0.4,0.4,1.1,0.5,3.1,0.5c1.4,0,2.4,0,3.1-0.7c0.3-0.4,0.5-1.1,0.6-1.5
			c0-0.2,0.1-0.3,0.2-0.3s0.1,0.1,0.1,0.4s-0.2,1.8-0.4,2.5c-0.2,0.5-0.2,0.6-1.6,0.6c-1.8,0-3.2,0-4.2-0.1c-1.1,0-1.8-0.1-2.6-0.1
			c-0.1,0-0.5,0-1.1,0s-1.1,0-1.5,0c-0.3,0-0.4,0-0.4-0.2c0-0.1,0-0.1,0.2-0.1c0.2,0,0.5,0,0.7-0.1c0.5-0.1,0.6-0.6,0.7-1.4
			c0.1-1.1,0.1-3.1,0.1-5.5v-4.5c0-3.9,0-4.7,0-5.4c0-0.8-0.2-1.3-1.1-1.5c-0.2,0-0.6-0.1-0.9-0.1c-0.1,0-0.2,0-0.2-0.1
			c0-0.1,0.1-0.2,0.4-0.2c1.2,0,2.8,0.1,2.9,0.1s2-0.1,2.8-0.1c0.3,0,0.4,0,0.4,0.2c0,0.1-0.1,0.1-0.2,0.1c-0.2,0-0.5,0-0.9,0.1
			c-0.7,0.1-1,0.5-1,1.5c0,0.9,0,1.5,0,5.4L90.6,515.7L90.6,515.7z"/>
		<path fill="#98846D" d="M108.1,511.2c0-3.9,0-4.7,0-5.4c0-0.8-0.2-1.3-1.1-1.5c-0.2,0-0.6-0.1-0.9-0.1c-0.1,0-0.2,0-0.2-0.1
			c0-0.1,0.1-0.2,0.4-0.2c0.5,0,1.3,0,1.8,0h1.1c0.2,0,5.2,0,5.8,0c0.5,0,0.8-0.1,1.1-0.1c0.1,0,0.2-0.1,0.3-0.1s0.1,0.1,0.1,0.2
			c0,0.2-0.1,0.5-0.2,1.2c0,0.2-0.1,1.4-0.1,1.7c0,0.1-0.1,0.3-0.2,0.3c-0.1,0-0.2-0.1-0.2-0.3c0-0.2,0-0.6-0.1-1
			c-0.2-0.4-0.4-0.7-1.8-0.8c-0.4,0-3.2-0.1-3.5-0.1c-0.1,0-0.1,0.1-0.1,0.2v7c0,0.2,0,0.2,0.1,0.2c0.3,0,3.4,0,4,0
			c0.6,0,1-0.1,1.2-0.3c0.2-0.2,0.3-0.3,0.4-0.3s0.1,0,0.1,0.2c0,0.1-0.1,0.5-0.2,1.4c0,0.5-0.1,1.5-0.1,1.6c0,0.2,0,0.5-0.2,0.5
			c-0.1,0-0.2-0.1-0.2-0.2c0-0.2,0-0.5-0.1-0.8c-0.1-0.3-0.3-0.7-1.3-0.8c-0.6-0.1-3.2-0.1-3.6-0.1c-0.1,0-0.2,0.1-0.2,0.2v2.2
			c0,0.8,0,3.8,0,4.4c0.1,1.7,0.4,2.1,3,2.1c0.6,0,1.8,0,2.4-0.3c0.6-0.3,1-0.7,1.2-1.8c0-0.3,0.1-0.4,0.2-0.4s0.1,0.2,0.1,0.4
			s-0.2,1.9-0.3,2.4c-0.2,0.6-0.4,0.6-1.4,0.6c-1.9,0-3.3,0-4.2-0.1c-1,0-1.6-0.1-2-0.1c0,0-0.5,0-1.1,0s-1.1,0-1.5,0
			c-0.3,0-0.4,0-0.4-0.2c0-0.1,0-0.1,0.2-0.1c0.2,0,0.5,0,0.7-0.1c0.5-0.1,0.6-0.6,0.7-1.4c0.1-1.1,0.1-3.1,0.1-5.5v-4.5H108.1z"/>
		<path fill="#98846D" d="M131.9,504.5c0.3-0.9,0.4-1,0.5-1s0.2,0.1,0.5,1c0.4,1,4.4,11.4,5.8,15.3c1,2.2,1.6,2.7,2.1,2.8
			c0.4,0.1,0.7,0.1,1.1,0.1c0.1,0,0.2,0,0.2,0.1s-0.2,0.2-0.5,0.2c-0.4,0-2.2,0-3.9,0c-0.5,0-0.7,0-0.7-0.2c0-0.1,0.1-0.1,0.2-0.2
			c0.1,0,0.3-0.3,0.1-0.6l-2.3-6.3c0-0.1-0.1-0.1-0.2-0.1h-5.4c-0.1,0-0.2,0.1-0.2,0.2l-1.5,4.5c-0.2,0.6-0.3,1.3-0.3,1.7
			c0,0.5,0.5,0.7,1,0.7h0.2c0.2,0,0.2,0,0.2,0.1s-0.1,0.2-0.4,0.2c-0.6,0-1.7-0.1-2-0.1c-0.3,0-1.7,0.1-2.9,0.1
			c-0.3,0-0.5,0-0.5-0.2c0-0.1,0.1-0.1,0.2-0.1c0.2,0,0.5,0,0.7,0c1.2-0.1,1.7-1.1,2.1-2.3L131.9,504.5z M134.4,514.6
			c0.1,0,0.1-0.1,0.1-0.2l-2.4-6.8c-0.1-0.4-0.2-0.4-0.4,0l-2.2,6.8c0,0.1,0,0.2,0.1,0.2H134.4z"/>
		<path fill="#98846D" d="M150.6,511.2c0-3.9,0-4.7,0-5.4c0-0.8-0.2-1.3-1.1-1.5c-0.2,0-0.6-0.1-0.9-0.1c-0.1,0-0.2,0-0.2-0.1
			c0-0.1,0.1-0.2,0.4-0.2c1.2,0,2.8,0.1,2.9,0.1c0.3,0,2.2-0.1,3-0.1c1.6,0,3.3,0.1,4.7,1.1c0.6,0.4,1.7,1.7,1.7,3.4
			c0,1.9-0.7,3.7-3.1,5.8c2.1,2.7,3.8,4.9,5.3,6.5c1.4,1.5,2.4,1.7,3.1,1.8c0.5,0.1,0.9,0.1,1,0.1s0.2,0.1,0.2,0.1
			c0,0.1-0.1,0.2-0.6,0.2h-1.8c-1.4,0-2-0.1-2.7-0.5c-1.1-0.5-2-1.8-3.4-3.7c-1.1-1.4-2.2-3.1-2.8-3.7c-0.1-0.1-0.2-0.1-0.3-0.1
			h-3.1c-0.1,0-0.2,0.1-0.2,0.2v0.6c0,2.4,0,4.5,0.1,5.5c0.1,0.7,0.2,1.3,1,1.4c0.3,0,1,0.1,1.2,0.1c0.1,0,0.2,0.1,0.2,0.1
			c0,0.1-0.1,0.2-0.4,0.2c-1.4,0-3-0.1-3.1-0.1c0,0-1.6,0.1-2.3,0.1c-0.3,0-0.4,0-0.4-0.2c0-0.1,0-0.1,0.2-0.1c0.2,0,0.5,0,0.7-0.1
			c0.5-0.1,0.6-0.6,0.7-1.4c0.1-1.1,0.1-3.1,0.1-5.5v-4.5H150.6z M152.6,513.4c0,0.1,0,0.2,0.2,0.3c0.4,0.2,1.6,0.4,2.7,0.4
			c0.6,0,1.3-0.1,1.9-0.5c0.9-0.6,1.6-2,1.6-3.9c0-3.2-1.7-5.1-4.4-5.1c-0.7,0-1.5,0.1-1.7,0.1c-0.1,0-0.2,0.1-0.2,0.3v8.4H152.6z"
			/>
		<path fill="#98846D" d="M175,519.6c0,2.1,0.3,2.8,1,3c0.5,0.1,1.1,0.1,1.3,0.1c0.1,0,0.2,0,0.2,0.1s-0.1,0.2-0.4,0.2
			c-1.5,0-2.4-0.1-2.7-0.1s-1.3,0.1-2.4,0.1c-0.2,0-0.4,0-0.4-0.2c0-0.1,0.1-0.1,0.2-0.1c0.2,0,0.6,0,1.1-0.1c0.6-0.2,0.7-1,0.7-3.2
			v-14.4c0-1,0.1-1.3,0.3-1.3s0.6,0.5,0.9,0.9c0.4,0.4,4.1,4.5,8.1,8.7c2.5,2.7,5.3,5.7,6.1,6.6l-0.3-12.9c0-1.6-0.2-2.2-1-2.4
			c-0.4-0.1-1.1-0.1-1.3-0.1c-0.2,0-0.2-0.1-0.2-0.2c0-0.1,0.2-0.2,0.5-0.2c1.2,0,2.3,0.1,2.7,0.1s1.1-0.1,2.1-0.1
			c0.3,0,0.4,0,0.4,0.2c0,0.1-0.1,0.2-0.3,0.2c-0.1,0-0.3,0-0.6,0.1c-0.9,0.2-1,0.7-1,2.2v14.8c0,1.7,0,1.8-0.2,1.8
			c-0.2,0-0.5-0.3-1.8-1.6c-0.3-0.2-3.9-3.9-6.6-6.9c-3-3.2-5.8-6.4-6.6-7.2L175,519.6z"/>
		<path fill="#98846D" d="M205.1,515.6c0,2.4,0,4.5,0.1,5.5c0.1,0.7,0.2,1.3,1,1.4c0.3,0,1,0.1,1.2,0.1c0.1,0,0.2,0.1,0.2,0.1
			c0,0.1-0.1,0.2-0.4,0.2c-1.4,0-3-0.1-3.1-0.1c-0.1,0-1.7,0.1-2.4,0.1c-0.3,0-0.4,0-0.4-0.2c0-0.1,0-0.1,0.2-0.1
			c0.2,0,0.5,0,0.7-0.1c0.5-0.1,0.6-0.6,0.7-1.4c0.1-1.1,0.1-3.1,0.1-5.5v-4.5c0-3.9,0-4.7,0-5.4c0-0.8-0.3-1.3-0.9-1.4
			c-0.3-0.1-0.6-0.1-0.7-0.1c-0.1,0-0.2,0-0.2-0.1c0-0.1,0.1-0.2,0.4-0.2c0.9,0,2.4,0.1,2.5,0.1c0.1,0,1.7-0.1,2.4-0.1
			c0.3,0,0.4,0,0.4,0.2c0,0.1-0.1,0.1-0.2,0.1c-0.2,0-0.3,0-0.6,0.1c-0.6,0.1-0.9,0.5-1,1.5c0,0.9,0,1.5,0,5.4v4.4H205.1z"/>
		<path fill="#98846D" d="M219.5,519.6c0,2.1,0.3,2.8,1,3c0.5,0.1,1.1,0.1,1.3,0.1c0.1,0,0.2,0,0.2,0.1s-0.1,0.2-0.4,0.2
			c-1.5,0-2.4-0.1-2.7-0.1s-1.3,0.1-2.4,0.1c-0.2,0-0.4,0-0.4-0.2c0-0.1,0.1-0.1,0.2-0.1c0.2,0,0.6,0,1.1-0.1c0.6-0.2,0.7-1,0.7-3.2
			v-14.4c0-1,0.1-1.3,0.3-1.3s0.6,0.5,0.9,0.9c0.4,0.4,4.1,4.5,8.1,8.7c2.6,2.7,5.3,5.7,6.1,6.6l-0.3-12.9c0-1.6-0.2-2.2-1-2.4
			c-0.4-0.1-1.1-0.1-1.3-0.1s-0.2-0.1-0.2-0.2c0-0.1,0.2-0.2,0.5-0.2c1.2,0,2.3,0.1,2.7,0.1s1.1-0.1,2.1-0.1c0.3,0,0.4,0,0.4,0.2
			c0,0.1-0.1,0.2-0.3,0.2c-0.1,0-0.3,0-0.6,0.1c-0.9,0.2-1,0.7-1,2.2v14.8c0,1.7,0,1.8-0.2,1.8c-0.2,0-0.5-0.3-1.8-1.6
			c-0.3-0.2-3.9-3.9-6.6-6.9c-3-3.2-5.8-6.4-6.6-7.2L219.5,519.6z"/>
		<path fill="#98846D" d="M259,516.5c0-2-0.1-2.3-1.2-2.7c-0.2,0-0.6-0.1-0.9-0.1c-0.1,0-0.2,0-0.2-0.1s0.1-0.2,0.4-0.2
			c1.2,0,2.8,0.1,2.9,0.1c0.1,0,1.7-0.1,2.4-0.1c0.3,0,0.4,0,0.4,0.2c0,0.1-0.1,0.1-0.2,0.1c-0.2,0-0.3,0-0.6,0.1
			c-0.6,0.1-0.9,0.5-1,1.5c0,0.8,0,1.6,0,2.7v2.9c0,1.2,0,1.2-0.3,1.4c-1.6,0.8-3.9,1.2-5.3,1.2c-1.9,0-5.5-0.2-8.3-2.7
			c-1.6-1.4-3-4-3-7.2c0-4,2-6.9,4.2-8.3c2.2-1.4,4.8-1.6,6.7-1.6c1.6,0,3.4,0.3,3.8,0.4c0.5,0.1,1.4,0.2,2,0.2
			c0.2,0,0.3,0.1,0.3,0.2c0,0.3-0.2,1.1-0.2,3.6c0,0.4,0,0.5-0.2,0.5c-0.1,0-0.1-0.1-0.2-0.4c0-0.3-0.1-1.1-0.5-1.7
			c-0.6-1-2.7-2-5.9-2c-1.6,0-3.5,0.1-5.4,1.7c-1.5,1.2-2.5,3.5-2.5,6.4c0,3.6,1.8,6.2,2.7,7c2,1.9,4.2,2.7,6.6,2.7
			c1,0,2.2-0.1,2.9-0.5c0.3-0.2,0.5-0.4,0.5-0.8v-4.4H259z"/>
		<path fill="#98846D" d="M283.1,517.8c0-3,1.9-4.9,3.8-6.1c-1-1.3-1.3-2.3-1.3-3.5c0-2,2-4.7,5.4-4.7c1.3,0,2.3,0.2,3.1,0.6
			c0.3,0.2,0.3,0.3,0.3,0.6c0,0.7-0.1,2.5-0.2,2.9c-0.1,0.4-0.1,0.4-0.2,0.4c-0.1,0-0.1-0.1-0.1-0.5c0-0.6-0.1-1.5-0.7-2.1
			c-0.5-0.5-1.4-1.1-2.5-1.1c-1.5,0-3.2,1-3.2,3.3c0,2,1.4,3.6,4,6.5c0.8,1,3.9,3.8,4.8,4.6c0.7-1,1.3-2.7,1.3-4.2
			c0-0.4-0.1-0.9-0.5-1.3c-0.3-0.3-0.9-0.4-1.3-0.4c-0.1,0-0.3,0-0.3-0.2c0-0.1,0.2-0.2,0.4-0.2c0.6,0,1.6,0,3.1,0.2
			c0.4,0,0.4,0.2,0.4,0.5c0,2-1.4,4.6-2.5,6c1.7,1.4,2.8,2.1,3.5,2.5c0.9,0.5,2.1,1,3,1c0.2,0,0.3,0,0.3,0.2c0,0.1-0.2,0.2-0.4,0.2
			h-2.4c-1.9,0-2.4-0.2-5.3-2.3c-0.5,0.5-2.6,2.8-6.4,2.8C284.9,523.3,283.1,520,283.1,517.8z M295,520.1c-1.4-1.2-3.9-3.6-4.6-4.2
			c-0.6-0.7-2.2-2.5-3-3.5c-1.3,0.8-2.2,2.2-2.2,4.2c0,3.2,2.2,5.4,5.1,5.4C292.5,522,294,521.1,295,520.1z"/>
		<path fill="#98846D" d="M321.9,522.7c-0.3-0.2-0.4-0.3-0.4-1c0-1.3,0.1-2.2,0.1-2.7c0-0.3,0.1-0.4,0.2-0.4s0.2,0.1,0.2,0.3
			c0,0.2,0,0.5,0.1,1c0.4,1.9,2,2.5,3.7,2.5c2.4,0,3.6-1.7,3.6-3.4s-0.7-2.8-2.9-4.6l-1.2-1c-2.7-2.2-3.3-3.7-3.3-5.5
			c0-2.7,2-4.6,5.2-4.6c1,0,1.7,0.1,2.3,0.2c0.5,0.1,0.6,0.1,0.9,0.1c0.2,0,0.2,0,0.2,0.2c0,0.1-0.1,1-0.1,2.7c0,0.4,0,0.5-0.2,0.5
			c-0.1,0-0.2-0.1-0.2-0.3c0-0.3-0.2-1-0.3-1.3c-0.1-0.3-0.8-1.4-3.2-1.4c-1.7,0-3.1,1.1-3.1,3c0,1.5,0.6,2.3,3.1,4.2l0.7,0.5
			c3,2.3,3.7,3.9,3.7,5.9c0,1.1-0.4,3-2.1,4.2c-1.1,0.7-2.4,1.1-3.8,1.1C324.1,523.3,322.9,523.2,321.9,522.7z"/>
		<path fill="#98846D" d="M342.8,520.6c-2.4-2.2-3.1-5.1-3.1-7.4c0-1.7,0.5-4.7,2.9-6.9c1.5-1.5,3.8-2.7,7.8-2.7
			c1.1,0,2.4,0.1,3.7,0.3c1,0.2,1.8,0.3,2.6,0.4c0.3,0,0.3,0.1,0.3,0.3c0,0.2-0.1,0.5-0.1,1.4c0,0.8,0,2.2-0.1,2.7
			c0,0.4-0.1,0.5-0.2,0.5c-0.2,0-0.2-0.2-0.2-0.5c0-1-0.4-2-1.1-2.5c-0.8-0.7-2.9-1.5-5.1-1.5c-3.4,0-4.9,1-5.8,1.8
			c-1.8,1.8-2.2,4-2.2,6.6c0,4.8,3.7,9.2,9.1,9.2c1.9,0,3.4-0.2,4.4-1.3c0.5-0.5,0.8-1.7,1-2.1c0-0.3,0.1-0.4,0.2-0.4
			c0.1,0,0.2,0.2,0.2,0.4c0,0.2-0.3,2.3-0.5,3.2c-0.1,0.5-0.2,0.5-0.6,0.7c-1.1,0.4-3,0.5-4.6,0.5
			C347.4,523.3,344.8,522.4,342.8,520.6z"/>
		<path fill="#98846D" d="M383,515.6c0,2.4,0,4.5,0.1,5.5c0.1,0.7,0.2,1.3,1,1.4c0.3,0,1,0.1,1.2,0.1c0.1,0,0.2,0.1,0.2,0.1
			c0,0.1-0.1,0.2-0.4,0.2c-1.4,0-3-0.1-3.1-0.1s-1.7,0.1-2.4,0.1c-0.3,0-0.4,0-0.4-0.2c0-0.1,0-0.1,0.2-0.1s0.5,0,0.7-0.1
			c0.5-0.1,0.6-0.6,0.7-1.4c0.1-1.1,0.1-3.1,0.1-5.5V513c0-0.1-0.1-0.1-0.1-0.1H370c-0.1,0-0.1,0-0.1,0.1v2.7c0,2.4,0,4.5,0.1,5.5
			c0.1,0.7,0.2,1.3,1,1.4c0.3,0,1,0.1,1.2,0.1c0.1,0,0.2,0.1,0.2,0.1c0,0.1-0.1,0.2-0.4,0.2c-1.4,0-3-0.1-3.1-0.1s-1.7,0.1-2.4,0.1
			c-0.3,0-0.4,0-0.4-0.2c0-0.1,0-0.1,0.2-0.1s0.5,0,0.7-0.1c0.5-0.1,0.6-0.6,0.7-1.4c0.1-1.1,0.1-3.1,0.1-5.5v-4.5
			c0-3.9,0-4.7,0-5.4c0-0.8-0.2-1.3-1.1-1.5c-0.2,0-0.6-0.1-0.8-0.1c-0.1,0-0.2,0-0.2-0.1c0-0.1,0.1-0.2,0.4-0.2
			c1.2,0,2.8,0.1,2.9,0.1s1.7-0.1,2.4-0.1c0.3,0,0.4,0,0.4,0.2c0,0.1-0.1,0.1-0.2,0.1c-0.2,0-0.3,0-0.6,0.1c-0.6,0.1-0.8,0.5-1,1.5
			c0,0.9,0,1.5,0,5.4v0.5c0,0.1,0.1,0.1,0.1,0.1h10.7c0.1,0,0.1,0,0.1-0.1v-0.5c0-3.9,0-4.7,0-5.4c0-0.8-0.2-1.3-1.1-1.5
			c-0.2,0-0.6-0.1-0.8-0.1c-0.1,0-0.2,0-0.2-0.1c0-0.1,0.1-0.2,0.4-0.2c1.2,0,2.8,0.1,2.9,0.1s1.7-0.1,2.4-0.1c0.3,0,0.4,0,0.4,0.2
			c0,0.1-0.1,0.1-0.2,0.1c-0.2,0-0.3,0-0.6,0.1c-0.6,0.1-0.8,0.5-1,1.5c0,0.9,0,1.5,0,5.4v4.5H383z"/>
		<path fill="#98846D" d="M403,503.5c5.7,0,10,3.6,10,9.5c0,5.6-4,10.3-10.1,10.3c-6.9,0-9.8-5.4-9.8-10
			C393.1,509.3,396,503.5,403,503.5z M403.6,522.3c2.2,0,7-1.3,7-8.7c0-6.1-3.7-9.3-7.7-9.3c-4.2,0-7.3,2.8-7.3,8.3
			C395.5,518.6,399,522.3,403.6,522.3z"/>
		<path fill="#98846D" d="M425.2,515.7c0,3.7,0.1,5.3,0.5,5.8c0.4,0.4,1.1,0.5,3.1,0.5c1.4,0,2.4,0,3.1-0.7c0.3-0.4,0.5-1.1,0.6-1.5
			c0-0.2,0.1-0.3,0.2-0.3c0.1,0,0.1,0.1,0.1,0.4s-0.2,1.8-0.4,2.5c-0.2,0.5-0.2,0.6-1.6,0.6c-1.8,0-3.2,0-4.2-0.1
			c-1.1,0-1.8-0.1-2.5-0.1c-0.1,0-0.5,0-1.1,0s-1.1,0-1.5,0c-0.3,0-0.4,0-0.4-0.2c0-0.1,0-0.1,0.2-0.1s0.5,0,0.7-0.1
			c0.5-0.1,0.6-0.6,0.7-1.4c0.1-1.1,0.1-3.1,0.1-5.5v-4.5c0-3.9,0-4.7,0-5.4c0-0.8-0.2-1.3-1.1-1.5c-0.2,0-0.6-0.1-0.8-0.1
			c-0.1,0-0.2,0-0.2-0.1c0-0.1,0.1-0.2,0.4-0.2c1.2,0,2.8,0.1,2.9,0.1s2-0.1,2.8-0.1c0.3,0,0.4,0,0.4,0.2c0,0.1-0.1,0.1-0.2,0.1
			c-0.2,0-0.5,0-0.8,0.1c-0.7,0.1-1,0.5-1,1.5c0,0.9,0,1.5,0,5.4L425.2,515.7L425.2,515.7z"/>
		<path fill="#98846D" d="M446.6,504.5c0.3-0.9,0.4-1,0.5-1s0.2,0.1,0.5,1c0.4,1,4.4,11.4,5.8,15.3c1,2.2,1.6,2.7,2.1,2.8
			c0.4,0.1,0.7,0.1,1.1,0.1c0.1,0,0.2,0,0.2,0.1s-0.2,0.2-0.5,0.2c-0.4,0-2.2,0-3.9,0c-0.5,0-0.7,0-0.7-0.2c0-0.1,0.1-0.1,0.2-0.2
			c0.1,0,0.3-0.3,0.1-0.6l-2.3-6.3c0-0.1-0.1-0.1-0.2-0.1h-5.4c-0.1,0-0.2,0.1-0.2,0.2l-1.5,4.5c-0.2,0.6-0.3,1.3-0.3,1.7
			c0,0.5,0.5,0.7,1,0.7h0.2c0.2,0,0.2,0,0.2,0.1s-0.1,0.2-0.4,0.2c-0.6,0-1.7-0.1-2-0.1c-0.3,0-1.7,0.1-2.9,0.1
			c-0.3,0-0.5,0-0.5-0.2c0-0.1,0.1-0.1,0.2-0.1c0.2,0,0.5,0,0.7,0c1.2-0.1,1.7-1.1,2.1-2.3L446.6,504.5z M449.2,514.6
			c0.1,0,0.1-0.1,0.1-0.2l-2.4-6.8c-0.1-0.4-0.2-0.4-0.4,0l-2.2,6.8c0,0.1,0,0.2,0.1,0.2H449.2z"/>
		<path fill="#98846D" d="M465.3,511.2c0-3.9,0-4.7,0-5.4c0-0.8-0.2-1.3-1.1-1.5c-0.2,0-0.6-0.1-0.8-0.1c-0.1,0-0.2,0-0.2-0.1
			c0-0.1,0.1-0.2,0.4-0.2c1.2,0,2.8,0.1,2.9,0.1c0.3,0,2.2-0.1,3-0.1c1.6,0,3.3,0.1,4.7,1.1c0.6,0.4,1.7,1.7,1.7,3.4
			c0,1.9-0.7,3.7-3.1,5.8c2.1,2.7,3.8,4.9,5.3,6.5c1.4,1.5,2.4,1.7,3.1,1.8c0.5,0.1,0.9,0.1,1,0.1c0.1,0,0.2,0.1,0.2,0.1
			c0,0.1-0.1,0.2-0.6,0.2h-1.8c-1.4,0-2-0.1-2.7-0.5c-1.1-0.5-2-1.8-3.4-3.7c-1.1-1.4-2.2-3.1-2.8-3.7c-0.1-0.1-0.2-0.1-0.3-0.1
			h-3.1c-0.1,0-0.2,0.1-0.2,0.2v0.6c0,2.4,0,4.5,0.1,5.5c0.1,0.7,0.2,1.3,1,1.4c0.3,0,1,0.1,1.2,0.1c0.1,0,0.2,0.1,0.2,0.1
			c0,0.1-0.1,0.2-0.4,0.2c-1.4,0-3-0.1-3.1-0.1c0,0-1.6,0.1-2.3,0.1c-0.3,0-0.4,0-0.4-0.2c0-0.1,0-0.1,0.2-0.1c0.2,0,0.5,0,0.7-0.1
			c0.5-0.1,0.6-0.6,0.7-1.4c0.1-1.1,0.1-3.1,0.1-5.5v-4.5H465.3z M467.3,513.4c0,0.1,0,0.2,0.2,0.3c0.4,0.2,1.6,0.4,2.7,0.4
			c0.6,0,1.3-0.1,1.9-0.5c0.9-0.6,1.6-2,1.6-3.9c0-3.2-1.7-5.1-4.4-5.1c-0.7,0-1.5,0.1-1.7,0.1c-0.1,0-0.2,0.1-0.2,0.3v8.4H467.3z"
			/>
		<path fill="#98846D" d="M487.2,522.7c-0.3-0.2-0.4-0.3-0.4-1c0-1.3,0.1-2.2,0.1-2.7c0-0.3,0.1-0.4,0.2-0.4s0.2,0.1,0.2,0.3
			c0,0.2,0,0.5,0.1,1c0.4,1.9,2,2.5,3.7,2.5c2.4,0,3.6-1.7,3.6-3.4s-0.7-2.8-2.9-4.6l-1.2-1c-2.7-2.2-3.3-3.7-3.3-5.5
			c0-2.7,2-4.6,5.2-4.6c1,0,1.7,0.1,2.3,0.2c0.5,0.1,0.6,0.1,0.9,0.1s0.2,0,0.2,0.2c0,0.1-0.1,1-0.1,2.7c0,0.4,0,0.5-0.2,0.5
			c-0.1,0-0.2-0.1-0.2-0.3c0-0.3-0.2-1-0.3-1.3c-0.1-0.3-0.9-1.4-3.2-1.4c-1.7,0-3.1,1.1-3.1,3c0,1.5,0.6,2.3,3.1,4.2l0.7,0.5
			c3,2.3,3.7,3.9,3.7,5.9c0,1.1-0.4,3-2.1,4.2c-1.1,0.7-2.4,1.1-3.8,1.1C489.3,523.3,488.3,523.2,487.2,522.7z"/>
		<path fill="#98846D" d="M523.1,515.6c0,2.4,0,4.5,0.1,5.5c0.1,0.7,0.2,1.3,1,1.4c0.3,0,1,0.1,1.2,0.1c0.1,0,0.2,0.1,0.2,0.1
			c0,0.1-0.1,0.2-0.4,0.2c-1.4,0-3-0.1-3.1-0.1s-1.7,0.1-2.4,0.1c-0.3,0-0.4,0-0.4-0.2c0-0.1,0-0.1,0.2-0.1s0.5,0,0.7-0.1
			c0.5-0.1,0.6-0.6,0.7-1.4c0.1-1.1,0.1-3.1,0.1-5.5V513c0-0.1-0.1-0.1-0.1-0.1h-10.7c-0.1,0-0.1,0-0.1,0.1v2.7c0,2.4,0,4.5,0.1,5.5
			c0.1,0.7,0.2,1.3,1,1.4c0.3,0,1,0.1,1.2,0.1c0.1,0,0.2,0.1,0.2,0.1c0,0.1-0.1,0.2-0.4,0.2c-1.4,0-3-0.1-3.1-0.1s-1.7,0.1-2.4,0.1
			c-0.3,0-0.4,0-0.4-0.2c0-0.1,0-0.1,0.2-0.1s0.5,0,0.7-0.1c0.5-0.1,0.6-0.6,0.7-1.4c0.1-1.1,0.1-3.1,0.1-5.5v-4.5
			c0-3.9,0-4.7,0-5.4c0-0.8-0.2-1.3-1.1-1.5c-0.2,0-0.6-0.1-0.8-0.1c-0.1,0-0.2,0-0.2-0.1c0-0.1,0.1-0.2,0.4-0.2
			c1.2,0,2.8,0.1,2.9,0.1s1.7-0.1,2.4-0.1c0.3,0,0.4,0,0.4,0.2c0,0.1-0.1,0.1-0.2,0.1c-0.2,0-0.3,0-0.6,0.1c-0.6,0.1-0.8,0.5-1,1.5
			c0,0.9,0,1.5,0,5.4v0.5c0,0.1,0.1,0.1,0.1,0.1H521c0.1,0,0.1,0,0.1-0.1v-0.5c0-3.9,0-4.7,0-5.4c0-0.8-0.2-1.3-1.1-1.5
			c-0.2,0-0.6-0.1-0.9-0.1c-0.1,0-0.2,0-0.2-0.1c0-0.1,0.1-0.2,0.4-0.2c1.2,0,2.8,0.1,2.9,0.1c0.1,0,1.7-0.1,2.4-0.1
			c0.3,0,0.4,0,0.4,0.2c0,0.1-0.1,0.1-0.2,0.1c-0.2,0-0.3,0-0.6,0.1c-0.6,0.1-0.8,0.5-1,1.5c0,0.9,0,1.5,0,5.4v4.5H523.1z"/>
		<path fill="#98846D" d="M538.9,515.6c0,2.4,0,4.5,0.1,5.5c0.1,0.7,0.2,1.3,1,1.4c0.3,0,1,0.1,1.2,0.1c0.1,0,0.2,0.1,0.2,0.1
			c0,0.1-0.1,0.2-0.4,0.2c-1.4,0-3-0.1-3.1-0.1s-1.7,0.1-2.4,0.1c-0.3,0-0.4,0-0.4-0.2c0-0.1,0-0.1,0.2-0.1s0.5,0,0.7-0.1
			c0.5-0.1,0.6-0.6,0.7-1.4c0.1-1.1,0.1-3.1,0.1-5.5v-4.5c0-3.9,0-4.7,0-5.4c0-0.8-0.3-1.3-0.8-1.4c-0.3-0.1-0.6-0.1-0.7-0.1
			s-0.2,0-0.2-0.1c0-0.1,0.1-0.2,0.4-0.2c0.8,0,2.4,0.1,2.5,0.1s1.7-0.1,2.4-0.1c0.3,0,0.4,0,0.4,0.2c0,0.1-0.1,0.1-0.2,0.1
			c-0.2,0-0.3,0-0.6,0.1c-0.6,0.1-0.8,0.5-1,1.5c0,0.9,0,1.5,0,5.4v4.4H538.9z"/>
		<path fill="#98846D" d="M552.7,511.2c0-3.9,0-4.7,0-5.4c0-0.8-0.2-1.3-1.1-1.5c-0.2,0-0.6-0.1-0.8-0.1c-0.1,0-0.2,0-0.2-0.1
			c0-0.1,0.1-0.2,0.4-0.2c1.2,0,2.7,0.1,2.9,0.1c0.5,0,2-0.1,3.2-0.1c3.2,0,4.2,1.1,4.7,1.5c0.5,0.5,1.3,1.7,1.3,3
			c0,3.6-2.7,6.1-6.3,6.1c-0.1,0-0.4,0-0.5,0s-0.3,0-0.3-0.2s0.1-0.2,0.6-0.2c2.4,0,4.4-1.8,4.4-4.1c0-0.9-0.1-2.5-1.4-3.9
			c-1.4-1.4-2.9-1.3-3.5-1.3c-0.4,0-0.8,0-1.1,0.1c-0.1,0-0.2,0.2-0.2,0.5v10.4c0,2.4,0,4.5,0.1,5.5c0.1,0.7,0.2,1.3,1,1.4
			c0.3,0,1,0.1,1.2,0.1c0.1,0,0.2,0.1,0.2,0.1c0,0.1-0.1,0.2-0.4,0.2c-1.4,0-3-0.1-3.1-0.1c-0.1,0-1.7,0.1-2.4,0.1
			c-0.3,0-0.4,0-0.4-0.2c0-0.1,0-0.1,0.2-0.1c0.2,0,0.5,0,0.7-0.1c0.5-0.1,0.6-0.6,0.7-1.4c0.1-1.1,0.1-3.1,0.1-5.5v-4.5H552.7z"/>
	</g>
	<rect x="84.9" y="459.8" fill="#98846D" width="478.1" height="1"/>
</g>
</svg>
