<?xml version="1.0" encoding="utf-8"?>
<!-- Generator: Adobe Illustrator 16.0.0, SVG Export Plug-In . SVG Version: 6.00 Build 0)  -->
<!DOCTYPE svg PUBLIC "-//W3C//DTD SVG 1.1//EN" "http://www.w3.org/Graphics/SVG/1.1/DTD/svg11.dtd">
<svg version="1.1" id="Layer_1" xmlns="http://www.w3.org/2000/svg" xmlns:xlink="http://www.w3.org/1999/xlink" x="0px" y="0px"
	 width="124.073px" height="85.185px" viewBox="0 0 124.073 85.185" enable-background="new 0 0 124.073 85.185"
	 xml:space="preserve">
<g>
	<defs>
		<rect id="SVGID_1_" x="20.37" y="19.036" width="87.268" height="46.482"/>
	</defs>
	<clipPath id="SVGID_2_">
		<use xlink:href="#SVGID_1_"  overflow="visible"/>
	</clipPath>
	<path clip-path="url(#SVGID_2_)" fill="#98846D" d="M23.63,47.941c-2.574-2.31-3.211-5.334-3.211-7.855
		c0-1.778,0.61-4.883,2.972-7.244c1.592-1.593,4.007-2.84,8.094-2.84c1.061,0,2.547,0.08,3.848,0.319
		c1.008,0.185,1.857,0.345,2.707,0.397c0.291,0.026,0.345,0.132,0.345,0.292c0,0.212-0.08,0.53-0.133,1.486
		c-0.053,0.875-0.053,2.335-0.08,2.732c-0.026,0.398-0.079,0.558-0.239,0.558c-0.185,0-0.212-0.187-0.212-0.558
		c0-1.034-0.424-2.122-1.114-2.706c-0.929-0.797-2.973-1.513-5.308-1.513c-3.529,0-5.175,1.035-6.103,1.938
		c-1.937,1.856-2.389,4.219-2.389,6.926c0,5.068,3.901,9.712,9.58,9.712c1.99,0,3.556-0.238,4.618-1.326
		c0.557-0.584,0.902-1.752,0.981-2.229c0.054-0.291,0.107-0.398,0.266-0.398c0.133,0,0.186,0.187,0.186,0.398
		c0,0.186-0.319,2.495-0.584,3.396c-0.159,0.504-0.213,0.558-0.69,0.771c-1.062,0.424-3.078,0.609-4.777,0.609
		C28.407,50.807,25.726,49.825,23.63,47.941"/>
	<path clip-path="url(#SVGID_2_)" fill="#98846D" d="M42.368,46.826c0.053,2.177,0.319,2.866,1.035,3.078
		c0.504,0.133,1.088,0.159,1.327,0.159c0.133,0,0.212,0.053,0.212,0.159c0,0.16-0.159,0.213-0.478,0.213
		c-1.512,0-2.574-0.08-2.812-0.08c-0.239,0-1.354,0.08-2.548,0.08c-0.265,0-0.425-0.026-0.425-0.213c0-0.106,0.08-0.159,0.213-0.159
		c0.212,0,0.69-0.026,1.088-0.159c0.663-0.186,0.796-0.955,0.796-3.37l0.026-15.206c0-1.034,0.08-1.326,0.292-1.326
		c0.213,0,0.664,0.584,0.929,0.85c0.398,0.451,4.352,4.723,8.439,9.102c2.627,2.813,5.519,6.051,6.369,6.927l-0.292-13.481
		c-0.027-1.725-0.213-2.308-1.035-2.521c-0.478-0.106-1.088-0.133-1.301-0.133c-0.185,0-0.212-0.079-0.212-0.186
		c0-0.16,0.212-0.186,0.531-0.186c1.194,0,2.468,0.079,2.76,0.079s1.167-0.079,2.255-0.079c0.292,0,0.478,0.025,0.478,0.186
		c0,0.106-0.106,0.186-0.292,0.186c-0.132,0-0.318,0-0.637,0.079c-0.875,0.187-0.982,0.771-0.982,2.362l-0.053,15.55
		c0,1.752-0.053,1.885-0.239,1.885c-0.212,0-0.53-0.292-1.937-1.698c-0.292-0.266-4.113-4.166-6.926-7.191
		c-3.078-3.316-6.077-6.661-6.926-7.616L42.368,46.826z"/>
	<path clip-path="url(#SVGID_2_)" fill="#98846D" d="M87.507,42.793c0,3.901,0.105,5.599,0.584,6.077
		c0.425,0.424,1.115,0.61,3.184,0.61c1.407,0,2.574-0.026,3.211-0.797c0.346-0.425,0.611-1.088,0.69-1.592
		c0.026-0.213,0.08-0.345,0.239-0.345c0.133,0,0.158,0.106,0.158,0.398s-0.185,1.884-0.397,2.653
		c-0.185,0.61-0.265,0.716-1.671,0.716c-1.911,0-3.291-0.053-4.405-0.08c-1.114-0.052-1.938-0.078-2.707-0.078
		c-0.106,0-0.558,0.026-1.088,0.026c-0.53,0.026-1.114,0.052-1.513,0.052c-0.292,0-0.426-0.052-0.426-0.212
		c0-0.08,0.055-0.158,0.213-0.158c0.24,0,0.558-0.054,0.797-0.106c0.531-0.105,0.663-0.69,0.77-1.46
		c0.133-1.114,0.133-3.211,0.133-5.758v-4.671c0-4.14,0-4.883-0.054-5.732c-0.053-0.902-0.265-1.327-1.141-1.512
		c-0.212-0.053-0.663-0.08-0.902-0.08c-0.106,0-0.213-0.053-0.213-0.159c0-0.159,0.134-0.212,0.425-0.212
		c1.194,0,2.866,0.079,2.999,0.079c0.132,0,2.069-0.079,2.866-0.079c0.291,0,0.424,0.053,0.424,0.212
		c0,0.106-0.105,0.159-0.212,0.159c-0.187,0-0.557,0.027-0.876,0.08c-0.77,0.132-0.982,0.584-1.035,1.512
		c-0.053,0.85-0.053,1.593-0.053,5.732V42.793z"/>
	<path clip-path="url(#SVGID_2_)" fill="#98846D" d="M97.771,50.09c-0.371-0.186-0.398-0.292-0.398-1.008
		c0-1.327,0.105-2.388,0.133-2.812c0.025-0.292,0.079-0.425,0.212-0.425c0.159,0,0.187,0.079,0.187,0.292
		c0,0.238,0,0.609,0.078,0.981c0.398,1.964,2.15,2.707,3.929,2.707c2.547,0,3.795-1.831,3.795-3.53c0-1.831-0.771-2.892-3.052-4.775
		l-1.194-0.982c-2.813-2.309-3.45-3.954-3.45-5.759c0-2.839,2.123-4.776,5.493-4.776c1.035,0,1.804,0.106,2.468,0.266
		c0.504,0.105,0.717,0.133,0.93,0.133c0.211,0,0.265,0.053,0.265,0.186c0,0.132-0.106,1.009-0.106,2.812
		c0,0.425-0.053,0.61-0.186,0.61c-0.159,0-0.186-0.133-0.212-0.345c-0.027-0.318-0.187-1.035-0.345-1.327
		c-0.16-0.292-0.877-1.405-3.317-1.405c-1.831,0-3.265,1.141-3.265,3.077c0,1.513,0.69,2.469,3.237,4.458l0.743,0.584
		c3.132,2.469,3.875,4.113,3.875,6.236c0,1.088-0.425,3.105-2.256,4.405c-1.141,0.796-2.574,1.115-4.008,1.115
		C100.079,50.808,98.858,50.621,97.771,50.09"/>
	<path clip-path="url(#SVGID_2_)" fill="#98846D" d="M71.83,46.383l1.717-4.886c-1.042,1.315-7.543,8.448-11.176,9.272h8.909
		C70.565,50.355,71.362,47.803,71.83,46.383"/>
	<path clip-path="url(#SVGID_2_)" fill="#98846D" d="M74.657,46.674c-0.384,1.284,0.118,1.476,0.118,1.476l0.07,0.027l1.714-1.33
		l0.355,0.451L74.708,49.1c0,0-1.528,1.341-2.502,1.67h8.67c0.453,0,0.819-0.367,0.819-0.82V31.174c0-0.453-0.366-0.82-0.819-0.82
		h-1.131c-0.509,1.381-1.002,2.827-1.471,4.268C76.56,39.895,75.13,45.089,74.657,46.674"/>
	<path clip-path="url(#SVGID_2_)" fill="#98846D" d="M68.125,35.631c4.337-3.19,8.224-3.098,8.224-3.098
		c0.233-0.549,0.569-1.304,0.994-2.18H62.1c-0.453,0-0.82,0.367-0.82,0.82v16.358C62.216,42.394,65.08,37.871,68.125,35.631"/>
	<path clip-path="url(#SVGID_2_)" fill="#98846D" d="M89.364,19.59c-0.863-1.134-3.992-0.665-6.949,2.711
		c-2.155,2.461-3.934,5.696-5.072,8.053h2.402c1.511-4.098,3.164-7.613,4.765-8.669c0,0,0.817-0.698,2.044-0.292
		c1.257,0.418,2.169,0.858,2.169,0.858S90.226,20.723,89.364,19.59"/>
	<path clip-path="url(#SVGID_2_)" fill="#98846D" d="M71.383,42.602c-3.753,4.685-6.196,5.969-6.902,5.764
		c-0.707-0.205,0-2.392,0.478-3.94c0.478-1.551,1.868-6.034,4.214-8.268c2.348-2.231,4.535-1.39,6.47-1.574
		C75.643,34.583,75.05,38.022,71.383,42.602"/>
	<path clip-path="url(#SVGID_2_)" fill="#98846D" d="M20.936,59.204c-0.448-0.401-0.559-0.928-0.559-1.366
		c0-0.31,0.107-0.849,0.517-1.26c0.277-0.276,0.697-0.494,1.408-0.494c0.185,0,0.443,0.015,0.669,0.056
		c0.176,0.031,0.324,0.06,0.471,0.068c0.051,0.005,0.06,0.023,0.06,0.052c0,0.036-0.014,0.092-0.023,0.259
		c-0.009,0.151-0.009,0.406-0.014,0.475c-0.004,0.069-0.014,0.098-0.041,0.098c-0.032,0-0.037-0.032-0.037-0.098
		c0-0.18-0.074-0.369-0.194-0.471c-0.162-0.138-0.517-0.263-0.923-0.263c-0.614,0-0.9,0.18-1.062,0.337
		c-0.337,0.322-0.415,0.733-0.415,1.205c0,0.881,0.678,1.688,1.666,1.688c0.346,0,0.619-0.041,0.803-0.23
		c0.097-0.102,0.157-0.305,0.171-0.388c0.009-0.051,0.018-0.069,0.046-0.069c0.023,0,0.032,0.032,0.032,0.069
		c0,0.032-0.055,0.435-0.101,0.591c-0.028,0.088-0.037,0.097-0.12,0.134c-0.185,0.073-0.535,0.105-0.831,0.105
		C21.767,59.702,21.301,59.532,20.936,59.204"/>
	<path clip-path="url(#SVGID_2_)" fill="#98846D" d="M25.029,57.487c0-0.72,0-0.849-0.009-0.997
		c-0.009-0.157-0.046-0.23-0.199-0.263c-0.037-0.009-0.115-0.014-0.157-0.014c-0.018,0-0.036-0.01-0.036-0.028
		c0-0.028,0.023-0.037,0.073-0.037c0.107,0,0.231,0,0.333,0.005l0.189,0.009c0.032,0,0.951,0,1.057-0.005
		c0.088-0.004,0.161-0.013,0.198-0.021c0.023-0.005,0.042-0.024,0.065-0.024c0.014,0,0.018,0.02,0.018,0.042
		c0,0.032-0.023,0.088-0.036,0.217c-0.005,0.046-0.014,0.249-0.024,0.306c-0.004,0.022-0.013,0.05-0.032,0.05
		c-0.028,0-0.037-0.023-0.037-0.061c0-0.031-0.004-0.109-0.028-0.166c-0.032-0.073-0.078-0.129-0.327-0.156
		c-0.079-0.01-0.582-0.015-0.633-0.015c-0.018,0-0.027,0.015-0.027,0.047v1.274c0,0.032,0.004,0.046,0.027,0.046
		c0.06,0,0.628,0,0.734-0.01c0.111-0.009,0.176-0.019,0.217-0.064c0.033-0.037,0.051-0.06,0.069-0.06
		c0.014,0,0.024,0.009,0.024,0.037c0,0.026-0.024,0.105-0.037,0.258c-0.01,0.093-0.019,0.263-0.019,0.296
		c0,0.036,0,0.087-0.032,0.087c-0.023,0-0.032-0.018-0.032-0.041c0-0.046,0-0.093-0.019-0.151c-0.018-0.065-0.06-0.145-0.24-0.162
		c-0.125-0.015-0.581-0.023-0.66-0.023c-0.023,0-0.032,0.014-0.032,0.032V58.3c0,0.156-0.005,0.691,0,0.789
		c0.014,0.318,0.083,0.379,0.535,0.379c0.12,0,0.323,0,0.443-0.052c0.12-0.05,0.176-0.143,0.208-0.332
		c0.009-0.051,0.018-0.068,0.042-0.068c0.027,0,0.027,0.037,0.027,0.068c0,0.037-0.037,0.352-0.06,0.448
		c-0.032,0.12-0.069,0.12-0.249,0.12c-0.346,0-0.6-0.01-0.78-0.014c-0.18-0.01-0.291-0.015-0.36-0.015c-0.009,0-0.088,0-0.185,0.005
		c-0.092,0-0.198,0.01-0.267,0.01c-0.051,0-0.074-0.01-0.074-0.037c0-0.014,0.009-0.028,0.037-0.028
		c0.041,0,0.097-0.009,0.138-0.018c0.092-0.02,0.116-0.12,0.134-0.254c0.023-0.194,0.023-0.56,0.023-1.002V57.487z"/>
	<path clip-path="url(#SVGID_2_)" fill="#98846D" d="M28.38,59.011c0.009,0.378,0.055,0.498,0.18,0.535
		c0.088,0.023,0.189,0.027,0.231,0.027c0.023,0,0.037,0.009,0.037,0.028c0,0.027-0.028,0.037-0.083,0.037
		c-0.263,0-0.448-0.015-0.49-0.015c-0.041,0-0.235,0.015-0.443,0.015c-0.046,0-0.074-0.005-0.074-0.037
		c0-0.02,0.014-0.028,0.037-0.028c0.037,0,0.12-0.004,0.19-0.027c0.115-0.032,0.138-0.166,0.138-0.587l0.005-2.645
		c0-0.179,0.013-0.23,0.05-0.23s0.116,0.102,0.162,0.147c0.069,0.079,0.757,0.822,1.468,1.584c0.457,0.489,0.96,1.052,1.107,1.204
		l-0.05-2.345c-0.005-0.301-0.037-0.401-0.18-0.438c-0.083-0.018-0.19-0.022-0.226-0.022c-0.033,0-0.037-0.015-0.037-0.032
		c0-0.028,0.037-0.033,0.092-0.033c0.208,0,0.429,0.014,0.48,0.014c0.051,0,0.203-0.014,0.392-0.014
		c0.051,0,0.083,0.005,0.083,0.033c0,0.018-0.018,0.032-0.05,0.032c-0.024,0-0.056,0-0.111,0.014
		c-0.153,0.032-0.171,0.134-0.171,0.411l-0.009,2.704c0,0.305-0.009,0.328-0.042,0.328c-0.037,0-0.092-0.052-0.337-0.296
		c-0.05-0.046-0.715-0.725-1.204-1.251c-0.536-0.576-1.057-1.158-1.205-1.324L28.38,59.011z"/>
	<path clip-path="url(#SVGID_2_)" fill="#98846D" d="M34.02,58.3c0,0.442,0,0.808,0.023,1.002c0.014,0.134,0.042,0.234,0.18,0.254
		c0.065,0.009,0.166,0.018,0.208,0.018c0.028,0,0.037,0.015,0.037,0.028c0,0.022-0.023,0.037-0.074,0.037
		c-0.254,0-0.545-0.015-0.568-0.015s-0.314,0.015-0.452,0.015c-0.051,0-0.074-0.01-0.074-0.037c0-0.014,0.009-0.028,0.037-0.028
		c0.042,0,0.097-0.009,0.138-0.018c0.093-0.02,0.116-0.12,0.134-0.254c0.023-0.194,0.023-0.56,0.023-1.002v-1.952l-0.683,0.009
		c-0.286,0.005-0.397,0.037-0.47,0.148c-0.051,0.077-0.065,0.11-0.079,0.143c-0.014,0.037-0.028,0.046-0.046,0.046
		c-0.014,0-0.023-0.014-0.023-0.042c0-0.046,0.092-0.443,0.101-0.479c0.01-0.027,0.028-0.088,0.047-0.088
		c0.032,0,0.078,0.047,0.203,0.056c0.134,0.014,0.309,0.022,0.364,0.022h1.731c0.148,0,0.254-0.009,0.328-0.022
		c0.069-0.009,0.111-0.023,0.129-0.023c0.023,0,0.023,0.028,0.023,0.056c0,0.139-0.014,0.457-0.014,0.508
		c0,0.041-0.014,0.06-0.032,0.06c-0.023,0-0.032-0.014-0.037-0.078l-0.005-0.051c-0.014-0.139-0.124-0.245-0.567-0.254l-0.582-0.009
		V58.3z"/>
	<path clip-path="url(#SVGID_2_)" fill="#98846D" d="M36.636,57.487c0-0.72,0-0.849-0.009-0.997
		c-0.009-0.157-0.047-0.23-0.199-0.263c-0.037-0.009-0.115-0.014-0.157-0.014c-0.018,0-0.037-0.01-0.037-0.028
		c0-0.028,0.024-0.037,0.074-0.037c0.106,0,0.231,0,0.333,0.005l0.189,0.009c0.032,0,0.951,0,1.057-0.005
		c0.087-0.004,0.161-0.013,0.198-0.021c0.023-0.005,0.042-0.024,0.065-0.024c0.014,0,0.018,0.02,0.018,0.042
		c0,0.032-0.023,0.088-0.037,0.217c-0.004,0.046-0.014,0.249-0.023,0.306c-0.004,0.022-0.013,0.05-0.032,0.05
		c-0.028,0-0.037-0.023-0.037-0.061c0-0.031-0.005-0.109-0.028-0.166c-0.032-0.073-0.078-0.129-0.327-0.156
		c-0.079-0.01-0.582-0.015-0.633-0.015c-0.018,0-0.027,0.015-0.027,0.047v1.274c0,0.032,0.004,0.046,0.027,0.046
		c0.06,0,0.628,0,0.734-0.01c0.111-0.009,0.176-0.019,0.217-0.064c0.032-0.037,0.051-0.06,0.069-0.06
		c0.014,0,0.024,0.009,0.024,0.037c0,0.026-0.024,0.105-0.037,0.258c-0.01,0.093-0.019,0.263-0.019,0.296
		c0,0.036,0,0.087-0.032,0.087c-0.023,0-0.033-0.018-0.033-0.041c0-0.046,0-0.093-0.018-0.151c-0.018-0.065-0.06-0.145-0.24-0.162
		c-0.125-0.015-0.582-0.023-0.66-0.023c-0.023,0-0.032,0.014-0.032,0.032V58.3c0,0.156-0.005,0.691,0,0.789
		c0.014,0.318,0.083,0.379,0.535,0.379c0.12,0,0.323,0,0.443-0.052c0.12-0.05,0.176-0.143,0.208-0.332
		c0.009-0.051,0.018-0.068,0.041-0.068c0.028,0,0.028,0.037,0.028,0.068c0,0.037-0.037,0.352-0.06,0.448
		c-0.032,0.12-0.069,0.12-0.249,0.12c-0.346,0-0.6-0.01-0.78-0.014c-0.18-0.01-0.291-0.015-0.36-0.015c-0.009,0-0.088,0-0.185,0.005
		c-0.092,0-0.198,0.01-0.268,0.01c-0.05,0-0.073-0.01-0.073-0.037c0-0.014,0.009-0.028,0.037-0.028c0.041,0,0.096-0.009,0.138-0.018
		c0.092-0.02,0.115-0.12,0.134-0.254c0.023-0.194,0.023-0.56,0.023-1.002V57.487z"/>
	<path clip-path="url(#SVGID_2_)" fill="#98846D" d="M40.23,57.889c0,0.023,0.01,0.042,0.033,0.056
		c0.069,0.041,0.281,0.074,0.484,0.074c0.111,0,0.24-0.014,0.346-0.088c0.162-0.111,0.282-0.36,0.282-0.711
		c0-0.577-0.305-0.923-0.799-0.923c-0.138,0-0.263,0.014-0.309,0.027c-0.023,0.009-0.037,0.027-0.037,0.056V57.889z M39.862,57.487
		c0-0.72,0-0.849-0.009-0.997c-0.009-0.157-0.046-0.23-0.199-0.263c-0.037-0.009-0.115-0.014-0.157-0.014
		c-0.018,0-0.037-0.01-0.037-0.028c0-0.028,0.024-0.037,0.074-0.037c0.208,0,0.499,0.014,0.522,0.014
		c0.051,0,0.402-0.014,0.545-0.014c0.29,0,0.6,0.028,0.844,0.203c0.116,0.083,0.319,0.31,0.319,0.628
		c0,0.342-0.143,0.683-0.559,1.067c0.379,0.483,0.693,0.895,0.96,1.181c0.249,0.263,0.448,0.313,0.563,0.332
		c0.088,0.014,0.153,0.014,0.18,0.014c0.023,0,0.042,0.015,0.042,0.028c0,0.027-0.028,0.037-0.111,0.037h-0.328
		c-0.258,0-0.374-0.023-0.493-0.088c-0.199-0.106-0.361-0.332-0.624-0.679c-0.193-0.254-0.41-0.563-0.503-0.684
		c-0.018-0.018-0.032-0.027-0.06-0.027l-0.567-0.009c-0.023,0-0.033,0.013-0.033,0.036V58.3c0,0.442,0,0.808,0.023,1.002
		c0.014,0.134,0.042,0.234,0.18,0.254c0.065,0.009,0.167,0.018,0.208,0.018c0.028,0,0.037,0.015,0.037,0.028
		c0,0.022-0.023,0.037-0.074,0.037c-0.254,0-0.545-0.015-0.567-0.015c-0.005,0-0.296,0.015-0.434,0.015
		c-0.051,0-0.074-0.01-0.074-0.037c0-0.014,0.009-0.028,0.037-0.028c0.041,0,0.097-0.009,0.138-0.018
		c0.093-0.02,0.116-0.12,0.134-0.254c0.023-0.194,0.023-0.56,0.023-1.002V57.487z"/>
	<path clip-path="url(#SVGID_2_)" fill="#98846D" d="M45.663,57.487c0-0.72,0-0.849-0.009-0.997
		c-0.009-0.157-0.046-0.23-0.199-0.263c-0.037-0.009-0.115-0.014-0.157-0.014c-0.018,0-0.037-0.01-0.037-0.028
		c0-0.028,0.024-0.037,0.074-0.037c0.107,0,0.231,0,0.333,0.005l0.189,0.009c0.092,0.005,1.029,0,1.135-0.005
		c0.088-0.004,0.162-0.004,0.203-0.018c0.028-0.009,0.047-0.028,0.065-0.028s0.028,0.02,0.028,0.042
		c0,0.032-0.023,0.088-0.037,0.217c-0.005,0.046-0.014,0.249-0.023,0.306c-0.005,0.022-0.014,0.05-0.037,0.05
		s-0.033-0.023-0.033-0.055c0-0.037-0.013-0.115-0.041-0.176c-0.028-0.061-0.134-0.144-0.314-0.147l-0.711-0.015
		c-0.027,0-0.041,0.015-0.041,0.052v1.273c0,0.027,0.004,0.041,0.032,0.041l0.591-0.004c0.078,0,0.143,0,0.208-0.005
		c0.11-0.009,0.17-0.023,0.212-0.083c0.018-0.023,0.032-0.046,0.051-0.046c0.018,0,0.023,0.013,0.023,0.037
		c0,0.026-0.023,0.105-0.037,0.258c-0.009,0.093-0.019,0.277-0.019,0.309c0,0.042,0,0.089-0.032,0.089
		c-0.023,0-0.032-0.019-0.032-0.041c-0.005-0.048-0.009-0.111-0.028-0.166c-0.023-0.065-0.097-0.148-0.24-0.167
		c-0.115-0.015-0.619-0.015-0.697-0.015c-0.023,0-0.032,0.01-0.032,0.042V58.3c0,0.442,0,0.808,0.023,1.002
		c0.014,0.134,0.041,0.234,0.18,0.254c0.064,0.009,0.166,0.018,0.208,0.018c0.027,0,0.036,0.015,0.036,0.028
		c0,0.022-0.023,0.037-0.073,0.037c-0.254,0-0.545-0.015-0.568-0.015s-0.314,0.015-0.452,0.015c-0.051,0-0.074-0.01-0.074-0.037
		c0-0.014,0.009-0.028,0.037-0.028c0.041,0,0.097-0.009,0.138-0.018c0.092-0.02,0.115-0.12,0.134-0.254
		c0.023-0.194,0.023-0.56,0.023-1.002V57.487z"/>
	<path clip-path="url(#SVGID_2_)" fill="#98846D" d="M50.195,59.527c0.415,0,1.274-0.24,1.274-1.583
		c0-1.108-0.674-1.703-1.403-1.703c-0.771,0-1.348,0.508-1.348,1.52C48.718,58.835,49.364,59.527,50.195,59.527 M50.098,56.084
		c1.039,0,1.814,0.655,1.814,1.731c0,1.034-0.729,1.888-1.842,1.888c-1.264,0-1.79-0.982-1.79-1.813
		C48.28,57.142,48.824,56.084,50.098,56.084"/>
	<path clip-path="url(#SVGID_2_)" fill="#98846D" d="M53.669,57.889c0,0.023,0.01,0.042,0.033,0.056
		c0.069,0.041,0.281,0.074,0.484,0.074c0.111,0,0.24-0.014,0.346-0.088c0.162-0.111,0.282-0.36,0.282-0.711
		c0-0.577-0.305-0.923-0.799-0.923c-0.138,0-0.263,0.014-0.309,0.027c-0.023,0.009-0.037,0.027-0.037,0.056V57.889z M53.3,57.487
		c0-0.72,0-0.849-0.009-0.997c-0.009-0.157-0.046-0.23-0.199-0.263c-0.037-0.009-0.115-0.014-0.157-0.014
		c-0.018,0-0.037-0.01-0.037-0.028c0-0.028,0.024-0.037,0.074-0.037c0.208,0,0.499,0.014,0.522,0.014
		c0.051,0,0.401-0.014,0.545-0.014c0.29,0,0.6,0.028,0.844,0.203c0.116,0.083,0.319,0.31,0.319,0.628
		c0,0.342-0.143,0.683-0.559,1.067c0.379,0.483,0.693,0.895,0.96,1.181c0.249,0.263,0.448,0.313,0.563,0.332
		c0.088,0.014,0.153,0.014,0.18,0.014c0.023,0,0.042,0.015,0.042,0.028c0,0.027-0.028,0.037-0.111,0.037h-0.328
		c-0.258,0-0.373-0.023-0.493-0.088c-0.199-0.106-0.361-0.332-0.624-0.679c-0.193-0.254-0.41-0.563-0.503-0.684
		c-0.018-0.018-0.032-0.027-0.06-0.027l-0.567-0.009c-0.023,0-0.033,0.013-0.033,0.036V58.3c0,0.442,0,0.808,0.023,1.002
		c0.014,0.134,0.042,0.234,0.18,0.254c0.065,0.009,0.167,0.018,0.208,0.018c0.028,0,0.037,0.015,0.037,0.028
		c0,0.022-0.023,0.037-0.074,0.037c-0.254,0-0.544-0.015-0.568-0.015c-0.004,0-0.295,0.015-0.433,0.015
		c-0.051,0-0.074-0.01-0.074-0.037c0-0.014,0.009-0.028,0.037-0.028c0.041,0,0.097-0.009,0.138-0.018
		c0.092-0.02,0.116-0.12,0.134-0.254C53.3,59.107,53.3,58.742,53.3,58.3V57.487z"/>
	<path clip-path="url(#SVGID_2_)" fill="#98846D" d="M59.226,59.011c0.009,0.378,0.055,0.498,0.18,0.535
		c0.088,0.023,0.189,0.027,0.231,0.027c0.023,0,0.037,0.009,0.037,0.028c0,0.027-0.028,0.037-0.083,0.037
		c-0.263,0-0.448-0.015-0.49-0.015c-0.041,0-0.235,0.015-0.443,0.015c-0.046,0-0.074-0.005-0.074-0.037
		c0-0.02,0.014-0.028,0.037-0.028c0.037,0,0.12-0.004,0.19-0.027c0.115-0.032,0.138-0.166,0.138-0.587l0.005-2.645
		c0-0.179,0.014-0.23,0.05-0.23c0.037,0,0.116,0.102,0.162,0.147c0.069,0.079,0.757,0.822,1.468,1.584
		c0.457,0.489,0.96,1.052,1.108,1.204l-0.051-2.345c-0.005-0.301-0.037-0.401-0.18-0.438c-0.083-0.018-0.19-0.022-0.226-0.022
		c-0.033,0-0.037-0.015-0.037-0.032c0-0.028,0.037-0.033,0.092-0.033c0.208,0,0.429,0.014,0.48,0.014
		c0.051,0,0.203-0.014,0.392-0.014c0.051,0,0.083,0.005,0.083,0.033c0,0.018-0.018,0.032-0.05,0.032c-0.023,0-0.056,0-0.111,0.014
		c-0.153,0.032-0.171,0.134-0.171,0.411l-0.009,2.704c0,0.305-0.009,0.328-0.042,0.328c-0.037,0-0.092-0.052-0.337-0.296
		c-0.05-0.046-0.715-0.725-1.204-1.251c-0.536-0.576-1.057-1.158-1.205-1.324L59.226,59.011z"/>
	<path clip-path="url(#SVGID_2_)" fill="#98846D" d="M63.882,57.487c0-0.72,0-0.849-0.009-0.997
		c-0.009-0.157-0.046-0.23-0.199-0.263c-0.037-0.009-0.115-0.014-0.157-0.014c-0.018,0-0.037-0.01-0.037-0.028
		c0-0.028,0.023-0.037,0.074-0.037c0.106,0,0.231,0,0.333,0.005l0.189,0.009c0.032,0,0.951,0,1.057-0.005
		c0.088-0.004,0.161-0.013,0.198-0.021c0.023-0.005,0.042-0.024,0.065-0.024c0.015,0,0.019,0.02,0.019,0.042
		c0,0.032-0.023,0.088-0.037,0.217c-0.004,0.046-0.013,0.249-0.023,0.306c-0.004,0.022-0.014,0.05-0.032,0.05
		c-0.028,0-0.037-0.023-0.037-0.061c0-0.031-0.005-0.109-0.028-0.166c-0.032-0.073-0.078-0.129-0.327-0.156
		c-0.079-0.01-0.582-0.015-0.633-0.015c-0.018,0-0.027,0.015-0.027,0.047v1.274c0,0.032,0.004,0.046,0.027,0.046
		c0.06,0,0.628,0,0.734-0.01c0.111-0.009,0.176-0.019,0.217-0.064c0.032-0.037,0.051-0.06,0.069-0.06
		c0.014,0,0.023,0.009,0.023,0.037c0,0.026-0.023,0.105-0.036,0.258c-0.01,0.093-0.019,0.263-0.019,0.296
		c0,0.036,0,0.087-0.032,0.087c-0.023,0-0.032-0.018-0.032-0.041c0-0.046,0-0.093-0.019-0.151c-0.019-0.065-0.06-0.145-0.24-0.162
		c-0.125-0.015-0.582-0.023-0.66-0.023c-0.023,0-0.032,0.014-0.032,0.032V58.3c0,0.156-0.005,0.691,0,0.789
		c0.013,0.318,0.083,0.379,0.535,0.379c0.12,0,0.323,0,0.443-0.052c0.12-0.05,0.174-0.143,0.208-0.332
		c0.01-0.051,0.019-0.068,0.041-0.068c0.028,0,0.028,0.037,0.028,0.068c0,0.037-0.037,0.352-0.06,0.448
		c-0.032,0.12-0.069,0.12-0.25,0.12c-0.346,0-0.6-0.01-0.78-0.014c-0.18-0.01-0.291-0.015-0.36-0.015c-0.009,0-0.088,0-0.185,0.005
		c-0.092,0-0.198,0.01-0.267,0.01c-0.051,0-0.074-0.01-0.074-0.037c0-0.014,0.009-0.028,0.037-0.028
		c0.041,0,0.097-0.009,0.138-0.018c0.092-0.02,0.115-0.12,0.134-0.254c0.023-0.194,0.023-0.56,0.023-1.002V57.487z"/>
	<path clip-path="url(#SVGID_2_)" fill="#98846D" d="M70.108,59.001h0.018c0.125-0.425,0.551-1.763,0.711-2.354
		c0.047-0.171,0.051-0.235,0.051-0.295c0-0.083-0.051-0.14-0.262-0.14c-0.023,0-0.043-0.014-0.043-0.031
		c0-0.023,0.023-0.032,0.08-0.032c0.234,0,0.428,0.013,0.471,0.013c0.031,0,0.229-0.013,0.373-0.013
		c0.041,0,0.064,0.009,0.064,0.026c0,0.023-0.014,0.037-0.042,0.037c-0.019,0-0.106,0.005-0.155,0.023
		c-0.14,0.051-0.213,0.245-0.301,0.499c-0.203,0.586-0.67,2.054-0.85,2.571c-0.12,0.341-0.143,0.396-0.194,0.396
		c-0.046,0-0.073-0.06-0.138-0.24l-0.905-2.566h-0.009c-0.166,0.443-0.799,2.133-0.965,2.562c-0.073,0.194-0.098,0.245-0.152,0.245
		c-0.046,0-0.068-0.051-0.161-0.365l-0.821-2.736c-0.074-0.245-0.135-0.314-0.254-0.36c-0.061-0.023-0.176-0.028-0.209-0.028
		c-0.022,0-0.041-0.004-0.041-0.031c0-0.023,0.027-0.032,0.074-0.032c0.24,0,0.494,0.013,0.544,0.013
		c0.042,0,0.245-0.013,0.476-0.013c0.064,0,0.084,0.013,0.084,0.032c0,0.027-0.023,0.031-0.047,0.031c-0.037,0-0.125,0-0.18,0.028
		c-0.027,0.014-0.06,0.051-0.06,0.111c0,0.06,0.041,0.221,0.087,0.424c0.07,0.296,0.55,1.99,0.619,2.233h0.009l0.979-2.63
		c0.068-0.189,0.086-0.213,0.114-0.213c0.032,0,0.06,0.061,0.115,0.217L70.108,59.001z"/>
	<path clip-path="url(#SVGID_2_)" fill="#98846D" d="M75.032,57.985c0,0.49,0.004,0.914,0.01,1.002
		c0.004,0.115,0.014,0.3,0.051,0.351c0.059,0.089,0.24,0.185,0.783,0.185c0.43,0,0.826-0.156,1.1-0.429
		c0.24-0.235,0.369-0.679,0.369-1.104c0-0.586-0.254-0.965-0.443-1.163c-0.434-0.457-0.96-0.521-1.509-0.521
		c-0.093,0-0.265,0.014-0.3,0.032c-0.042,0.019-0.057,0.041-0.057,0.093c-0.004,0.156-0.004,0.628-0.004,0.982V57.985z
		 M74.645,57.487c0-0.72,0-0.849-0.009-0.997c-0.01-0.157-0.047-0.23-0.199-0.263c-0.037-0.009-0.115-0.015-0.156-0.015
		c-0.019,0-0.037-0.009-0.037-0.027c0-0.028,0.023-0.037,0.073-0.037c0.208,0,0.499,0.014,0.522,0.014
		c0.055,0,0.346-0.014,0.623-0.014c0.457,0,1.302-0.041,1.851,0.527c0.229,0.239,0.447,0.623,0.447,1.172
		c0,0.581-0.24,1.028-0.498,1.301c-0.199,0.208-0.614,0.531-1.399,0.531c-0.197,0-0.443-0.014-0.641-0.027
		c-0.203-0.014-0.359-0.028-0.383-0.028c-0.01,0-0.088,0-0.186,0.004c-0.092,0-0.197,0.011-0.268,0.011
		c-0.051,0-0.074-0.011-0.074-0.037c0-0.015,0.01-0.028,0.038-0.028c0.041,0,0.097-0.009,0.138-0.018
		c0.092-0.02,0.115-0.12,0.135-0.254c0.022-0.194,0.022-0.56,0.022-1.002V57.487z"/>
	<path clip-path="url(#SVGID_2_)" fill="#98846D" d="M79.241,57.487c0-0.72,0-0.849-0.01-0.997c-0.01-0.157-0.045-0.23-0.198-0.263
		c-0.037-0.009-0.115-0.014-0.157-0.014c-0.018,0-0.037-0.01-0.037-0.028c0-0.028,0.023-0.037,0.074-0.037
		c0.105,0,0.23,0,0.333,0.005l0.188,0.009c0.032,0,0.951,0,1.058-0.005c0.087-0.004,0.161-0.013,0.198-0.021
		c0.022-0.005,0.041-0.024,0.064-0.024c0.014,0,0.018,0.02,0.018,0.042c0,0.032-0.022,0.088-0.037,0.217
		c-0.004,0.046-0.012,0.249-0.022,0.306c-0.004,0.022-0.014,0.05-0.032,0.05c-0.027,0-0.037-0.023-0.037-0.061
		c0-0.031-0.004-0.109-0.026-0.166c-0.033-0.073-0.079-0.129-0.328-0.156c-0.079-0.01-0.582-0.015-0.633-0.015
		c-0.019,0-0.027,0.015-0.027,0.047v1.274c0,0.032,0.004,0.046,0.027,0.046c0.06,0,0.628,0,0.733-0.01
		c0.111-0.009,0.176-0.019,0.217-0.064c0.033-0.037,0.052-0.06,0.069-0.06c0.015,0,0.023,0.009,0.023,0.037
		c0,0.026-0.023,0.105-0.037,0.258c-0.009,0.093-0.019,0.263-0.019,0.296c0,0.036,0,0.087-0.031,0.087
		c-0.023,0-0.033-0.018-0.033-0.041c0-0.046,0-0.093-0.018-0.151c-0.02-0.065-0.061-0.145-0.24-0.162
		c-0.125-0.015-0.582-0.023-0.66-0.023c-0.023,0-0.032,0.014-0.032,0.032V58.3c0,0.156-0.005,0.691,0,0.789
		c0.013,0.318,0.083,0.379,0.535,0.379c0.12,0,0.323,0,0.442-0.052c0.121-0.05,0.177-0.143,0.209-0.332
		c0.009-0.051,0.018-0.068,0.041-0.068c0.027,0,0.027,0.037,0.027,0.068c0,0.037-0.037,0.352-0.06,0.448
		c-0.032,0.12-0.069,0.12-0.249,0.12c-0.346,0-0.6-0.01-0.78-0.014c-0.18-0.01-0.291-0.015-0.36-0.015c-0.01,0-0.088,0-0.185,0.005
		c-0.092,0-0.198,0.01-0.269,0.01c-0.049,0-0.072-0.01-0.072-0.037c0-0.014,0.009-0.028,0.037-0.028
		c0.041,0,0.097-0.009,0.138-0.018c0.092-0.02,0.115-0.12,0.134-0.254c0.023-0.194,0.023-0.56,0.023-1.002V57.487z"/>
	<path clip-path="url(#SVGID_2_)" fill="#98846D" d="M82.171,59.578c-0.064-0.032-0.069-0.051-0.069-0.175
		c0-0.231,0.019-0.416,0.024-0.49c0.004-0.05,0.014-0.073,0.037-0.073c0.026,0,0.031,0.015,0.031,0.05c0,0.042,0,0.107,0.014,0.172
		c0.069,0.342,0.375,0.471,0.684,0.471c0.443,0,0.66-0.319,0.66-0.614c0-0.318-0.135-0.503-0.531-0.831l-0.208-0.17
		c-0.489-0.402-0.601-0.688-0.601-1.002c0-0.494,0.371-0.831,0.957-0.831c0.18,0,0.313,0.02,0.429,0.046
		c0.088,0.02,0.125,0.023,0.161,0.023c0.037,0,0.047,0.009,0.047,0.033c0,0.022-0.02,0.175-0.02,0.488
		c0,0.074-0.009,0.106-0.031,0.106c-0.028,0-0.032-0.023-0.037-0.061c-0.006-0.055-0.032-0.18-0.061-0.23
		c-0.027-0.051-0.152-0.244-0.576-0.244c-0.32,0-0.568,0.198-0.568,0.535c0,0.263,0.119,0.429,0.562,0.774l0.131,0.103
		c0.543,0.429,0.674,0.716,0.674,1.085c0,0.188-0.074,0.54-0.394,0.766c-0.198,0.139-0.446,0.194-0.696,0.194
		C82.572,59.703,82.36,59.67,82.171,59.578"/>
	<path clip-path="url(#SVGID_2_)" fill="#98846D" d="M85.896,58.3c0,0.442,0,0.808,0.023,1.002c0.014,0.134,0.041,0.234,0.18,0.254
		c0.064,0.009,0.166,0.018,0.208,0.018c0.026,0,0.037,0.015,0.037,0.028c0,0.022-0.024,0.037-0.074,0.037
		c-0.254,0-0.545-0.015-0.567-0.015c-0.023,0-0.314,0.015-0.453,0.015c-0.051,0-0.073-0.01-0.073-0.037
		c0-0.014,0.009-0.028,0.037-0.028c0.041,0,0.097-0.009,0.138-0.018c0.094-0.02,0.116-0.12,0.135-0.254
		c0.022-0.194,0.022-0.56,0.022-1.002v-0.812c0-0.72,0-0.849-0.009-0.997c-0.01-0.157-0.055-0.234-0.157-0.259
		c-0.052-0.013-0.111-0.018-0.144-0.018c-0.019,0-0.037-0.01-0.037-0.028c0-0.028,0.023-0.037,0.074-0.037
		c0.152,0,0.443,0.014,0.467,0.014c0.022,0,0.313-0.014,0.451-0.014c0.051,0,0.074,0.009,0.074,0.037
		c0,0.019-0.018,0.028-0.037,0.028c-0.031,0-0.06,0.005-0.115,0.014c-0.125,0.022-0.162,0.101-0.17,0.263
		c-0.01,0.148-0.01,0.277-0.01,0.997V58.3z"/>
	<path clip-path="url(#SVGID_2_)" fill="#98846D" d="M90.073,58.461c0-0.374-0.023-0.425-0.209-0.475
		c-0.037-0.01-0.115-0.014-0.156-0.014c-0.019,0-0.037-0.011-0.037-0.028c0-0.028,0.022-0.037,0.074-0.037
		c0.207,0,0.498,0.014,0.521,0.014s0.314-0.014,0.452-0.014c0.051,0,0.073,0.009,0.073,0.037c0,0.018-0.019,0.028-0.037,0.028
		c-0.031,0-0.06,0.004-0.114,0.014c-0.125,0.022-0.162,0.101-0.171,0.263c-0.01,0.147-0.01,0.286-0.01,0.48v0.517
		c0,0.207-0.004,0.217-0.06,0.249c-0.296,0.157-0.711,0.208-0.979,0.208c-0.35,0-1.006-0.047-1.518-0.494
		c-0.281-0.245-0.55-0.738-0.55-1.315c0-0.738,0.36-1.261,0.771-1.519c0.416-0.259,0.873-0.291,1.229-0.291
		c0.291,0,0.618,0.061,0.706,0.078c0.097,0.024,0.258,0.042,0.374,0.047c0.046,0.004,0.055,0.023,0.055,0.041
		c0,0.065-0.031,0.194-0.031,0.656c0,0.073-0.01,0.096-0.043,0.096c-0.022,0-0.026-0.026-0.031-0.068
		c-0.006-0.065-0.027-0.194-0.098-0.306c-0.115-0.175-0.488-0.373-1.084-0.373c-0.291,0-0.637,0.027-0.988,0.305
		c-0.268,0.213-0.457,0.633-0.457,1.173c0,0.649,0.328,1.121,0.49,1.278c0.364,0.355,0.784,0.493,1.209,0.493
		c0.166,0,0.406-0.026,0.526-0.097c0.06-0.032,0.093-0.083,0.093-0.161V58.461z"/>
	<path clip-path="url(#SVGID_2_)" fill="#98846D" d="M92.394,59.011c0.009,0.378,0.055,0.498,0.18,0.535
		c0.088,0.023,0.189,0.027,0.23,0.027c0.023,0,0.037,0.009,0.037,0.028c0,0.027-0.027,0.037-0.082,0.037
		c-0.264,0-0.448-0.015-0.49-0.015c-0.041,0-0.235,0.015-0.443,0.015c-0.046,0-0.072-0.005-0.072-0.037
		c0-0.02,0.013-0.028,0.035-0.028c0.037,0,0.12-0.004,0.19-0.027c0.114-0.032,0.138-0.166,0.138-0.587l0.006-2.645
		c0-0.179,0.012-0.23,0.049-0.23s0.117,0.102,0.162,0.147c0.069,0.079,0.758,0.822,1.469,1.584c0.457,0.489,0.959,1.052,1.107,1.204
		l-0.051-2.345c-0.005-0.301-0.037-0.401-0.18-0.438c-0.084-0.018-0.189-0.022-0.228-0.022c-0.032,0-0.036-0.015-0.036-0.032
		c0-0.028,0.036-0.033,0.092-0.033c0.209,0,0.43,0.014,0.48,0.014s0.203-0.014,0.393-0.014c0.051,0,0.082,0.005,0.082,0.033
		c0,0.018-0.018,0.032-0.049,0.032c-0.025,0-0.057,0-0.111,0.014c-0.153,0.032-0.172,0.134-0.172,0.411l-0.008,2.704
		c0,0.305-0.011,0.328-0.043,0.328c-0.037,0-0.092-0.052-0.337-0.296c-0.051-0.046-0.715-0.725-1.204-1.251
		c-0.535-0.576-1.058-1.158-1.205-1.324L92.394,59.011z"/>
	<path clip-path="url(#SVGID_2_)" fill="#98846D" d="M96.755,59.578c-0.065-0.032-0.069-0.051-0.069-0.175
		c0-0.231,0.019-0.416,0.022-0.49c0.006-0.05,0.015-0.073,0.037-0.073c0.027,0,0.032,0.015,0.032,0.05c0,0.042,0,0.107,0.015,0.172
		c0.068,0.342,0.373,0.471,0.683,0.471c0.442,0,0.659-0.319,0.659-0.614c0-0.318-0.133-0.503-0.53-0.831l-0.207-0.17
		c-0.489-0.402-0.601-0.688-0.601-1.002c0-0.494,0.369-0.831,0.955-0.831c0.181,0,0.314,0.02,0.43,0.046
		c0.088,0.02,0.125,0.023,0.162,0.023s0.046,0.009,0.046,0.033c0,0.022-0.019,0.175-0.019,0.488c0,0.074-0.01,0.106-0.033,0.106
		c-0.027,0-0.031-0.023-0.037-0.061c-0.004-0.055-0.031-0.18-0.059-0.23s-0.152-0.244-0.578-0.244c-0.317,0-0.566,0.198-0.566,0.535
		c0,0.263,0.119,0.429,0.562,0.774l0.129,0.103c0.545,0.429,0.674,0.716,0.674,1.085c0,0.188-0.073,0.54-0.393,0.766
		c-0.197,0.139-0.447,0.194-0.695,0.194C97.157,59.703,96.943,59.67,96.755,59.578"/>
	<path clip-path="url(#SVGID_2_)" fill="#98846D" d="M102.39,58.3c0,0.442,0,0.808,0.022,1.002c0.015,0.134,0.042,0.234,0.181,0.254
		c0.064,0.009,0.166,0.018,0.207,0.018c0.027,0,0.037,0.015,0.037,0.028c0,0.022-0.022,0.037-0.074,0.037
		c-0.254,0-0.545-0.015-0.567-0.015s-0.313,0.015-0.452,0.015c-0.051,0-0.074-0.01-0.074-0.037c0-0.014,0.01-0.028,0.037-0.028
		c0.041,0,0.098-0.009,0.139-0.018c0.093-0.02,0.115-0.12,0.134-0.254c0.024-0.194,0.024-0.56,0.024-1.002v-0.812
		c0-0.72,0-0.849-0.011-0.997c-0.009-0.157-0.055-0.234-0.157-0.259c-0.051-0.013-0.111-0.018-0.143-0.018
		c-0.018,0-0.037-0.01-0.037-0.028c0-0.028,0.023-0.037,0.074-0.037c0.152,0,0.443,0.014,0.466,0.014s0.313-0.014,0.453-0.014
		c0.05,0,0.073,0.009,0.073,0.037c0,0.019-0.019,0.028-0.037,0.028c-0.032,0-0.061,0.005-0.115,0.014
		c-0.125,0.022-0.161,0.101-0.171,0.263c-0.009,0.148-0.009,0.277-0.009,0.997V58.3z"/>
	<path clip-path="url(#SVGID_2_)" fill="#98846D" d="M104.567,59.011c0.009,0.378,0.055,0.498,0.18,0.535
		c0.088,0.023,0.189,0.027,0.231,0.027c0.022,0,0.037,0.009,0.037,0.028c0,0.027-0.028,0.037-0.083,0.037
		c-0.264,0-0.448-0.015-0.489-0.015c-0.042,0-0.235,0.015-0.444,0.015c-0.045,0-0.072-0.005-0.072-0.037
		c0-0.02,0.014-0.028,0.035-0.028c0.037,0,0.121-0.004,0.19-0.027c0.115-0.032,0.138-0.166,0.138-0.587l0.006-2.645
		c0-0.179,0.014-0.23,0.051-0.23c0.035,0,0.115,0.102,0.16,0.147c0.069,0.079,0.758,0.822,1.469,1.584
		c0.457,0.489,0.96,1.052,1.107,1.204l-0.051-2.345c-0.005-0.301-0.037-0.401-0.18-0.438c-0.083-0.018-0.189-0.022-0.227-0.022
		c-0.033,0-0.037-0.015-0.037-0.032c0-0.028,0.037-0.033,0.093-0.033c0.208,0,0.429,0.014,0.479,0.014s0.203-0.014,0.393-0.014
		c0.051,0,0.082,0.005,0.082,0.033c0,0.018-0.018,0.032-0.049,0.032c-0.023,0-0.057,0-0.111,0.014
		c-0.152,0.032-0.172,0.134-0.172,0.411l-0.008,2.704c0,0.305-0.01,0.328-0.043,0.328c-0.037,0-0.092-0.052-0.336-0.296
		c-0.051-0.046-0.716-0.725-1.205-1.251c-0.535-0.576-1.057-1.158-1.205-1.324L104.567,59.011z"/>
	<path clip-path="url(#SVGID_2_)" fill="#98846D" d="M21.402,64.125c0,0.678,0.018,0.974,0.102,1.057
		c0.073,0.074,0.193,0.106,0.553,0.106c0.245,0,0.448-0.005,0.559-0.139c0.06-0.074,0.106-0.189,0.12-0.276
		c0.005-0.037,0.014-0.061,0.041-0.061c0.024,0,0.028,0.019,0.028,0.069s-0.032,0.328-0.069,0.462
		c-0.032,0.105-0.046,0.124-0.291,0.124c-0.332,0-0.572-0.009-0.766-0.014c-0.194-0.01-0.337-0.015-0.471-0.015
		c-0.018,0-0.097,0.005-0.189,0.005c-0.092,0.005-0.194,0.01-0.263,0.01c-0.051,0-0.074-0.01-0.074-0.037
		c0-0.014,0.009-0.027,0.037-0.027c0.041,0,0.097-0.01,0.138-0.019c0.093-0.019,0.116-0.12,0.134-0.255
		c0.023-0.193,0.023-0.558,0.023-1.001v-0.812c0-0.72,0-0.849-0.009-0.997c-0.009-0.157-0.046-0.23-0.198-0.263
		c-0.037-0.01-0.116-0.014-0.157-0.014c-0.019,0-0.037-0.01-0.037-0.027c0-0.028,0.023-0.037,0.074-0.037
		c0.207,0,0.498,0.014,0.521,0.014s0.36-0.014,0.499-0.014c0.05,0,0.074,0.009,0.074,0.037c0,0.018-0.019,0.027-0.037,0.027
		c-0.033,0-0.097,0.004-0.153,0.014c-0.134,0.022-0.171,0.102-0.18,0.263c-0.009,0.148-0.009,0.277-0.009,0.997V64.125z"/>
	<path clip-path="url(#SVGID_2_)" fill="#98846D" d="M24.6,63.303c0-0.72,0-0.849-0.009-0.996c-0.009-0.157-0.046-0.231-0.199-0.264
		c-0.037-0.009-0.115-0.014-0.157-0.014c-0.018,0-0.037-0.009-0.037-0.028c0-0.026,0.024-0.037,0.074-0.037
		c0.107,0,0.231,0,0.333,0.005l0.189,0.01c0.032,0,0.951,0,1.057-0.004c0.088-0.006,0.161-0.015,0.198-0.023
		c0.023-0.005,0.042-0.023,0.065-0.023c0.014,0,0.018,0.019,0.018,0.041c0,0.032-0.023,0.089-0.037,0.218
		c-0.004,0.046-0.013,0.249-0.023,0.305c-0.004,0.022-0.013,0.05-0.032,0.05c-0.028,0-0.037-0.021-0.037-0.06
		c0-0.032-0.004-0.11-0.028-0.166c-0.032-0.074-0.078-0.129-0.327-0.157c-0.079-0.009-0.582-0.014-0.633-0.014
		c-0.018,0-0.027,0.014-0.027,0.047v1.273c0,0.032,0.004,0.046,0.027,0.046c0.06,0,0.628,0,0.734-0.009
		c0.111-0.01,0.176-0.019,0.217-0.064c0.033-0.037,0.051-0.061,0.069-0.061c0.014,0,0.024,0.009,0.024,0.037
		c0,0.027-0.024,0.106-0.037,0.258c-0.01,0.094-0.019,0.264-0.019,0.296c0,0.037,0,0.087-0.032,0.087
		c-0.023,0-0.032-0.018-0.032-0.041c0-0.046,0-0.092-0.019-0.152c-0.018-0.064-0.06-0.144-0.24-0.161
		c-0.125-0.014-0.582-0.023-0.66-0.023c-0.023,0-0.032,0.015-0.032,0.032v0.406c0,0.157-0.005,0.693,0,0.789
		c0.014,0.319,0.083,0.379,0.535,0.379c0.12,0,0.323,0,0.443-0.051c0.12-0.05,0.176-0.144,0.208-0.332
		c0.009-0.051,0.018-0.069,0.042-0.069c0.027,0,0.027,0.037,0.027,0.069c0,0.037-0.037,0.351-0.06,0.448
		c-0.032,0.119-0.069,0.119-0.249,0.119c-0.346,0-0.6-0.01-0.78-0.014c-0.18-0.009-0.291-0.014-0.36-0.014
		c-0.009,0-0.088,0-0.185,0.005c-0.092,0-0.198,0.009-0.267,0.009c-0.051,0-0.074-0.009-0.074-0.037
		c0-0.014,0.009-0.028,0.037-0.028c0.041,0,0.097-0.009,0.138-0.018c0.092-0.019,0.116-0.12,0.134-0.254
		c0.023-0.194,0.023-0.559,0.023-1.002V63.303z"/>
	<path clip-path="url(#SVGID_2_)" fill="#98846D" d="M29.414,63.926c0.023,0,0.023-0.013,0.018-0.031l-0.438-1.246
		c-0.023-0.07-0.046-0.07-0.069,0l-0.406,1.246c-0.01,0.022,0,0.031,0.013,0.031H29.414z M28.934,62.08
		c0.055-0.152,0.074-0.18,0.102-0.18c0.027,0,0.046,0.022,0.101,0.166c0.069,0.176,0.794,2.082,1.075,2.782
		c0.167,0.411,0.301,0.485,0.397,0.514c0.07,0.022,0.139,0.026,0.185,0.026c0.028,0,0.046,0.006,0.046,0.028
		c0,0.028-0.041,0.037-0.092,0.037c-0.069,0-0.406,0-0.725-0.009c-0.088-0.005-0.138-0.005-0.138-0.033
		c0-0.018,0.014-0.027,0.032-0.032c0.028-0.009,0.055-0.051,0.028-0.125l-0.43-1.135c-0.009-0.018-0.018-0.028-0.041-0.028h-0.992
		c-0.023,0-0.037,0.015-0.046,0.037l-0.277,0.817c-0.042,0.116-0.065,0.226-0.065,0.309c0,0.093,0.097,0.134,0.175,0.134h0.046
		c0.033,0,0.047,0.01,0.047,0.028c0,0.028-0.028,0.037-0.07,0.037c-0.11,0-0.309-0.014-0.36-0.014c-0.05,0-0.304,0.014-0.521,0.014
		c-0.06,0-0.088-0.009-0.088-0.037c0-0.019,0.019-0.028,0.042-0.028c0.032,0,0.097-0.004,0.133-0.009
		c0.213-0.027,0.305-0.203,0.388-0.434L28.934,62.08z"/>
	<path clip-path="url(#SVGID_2_)" fill="#98846D" d="M32.722,63.705c0,0.023,0.01,0.041,0.033,0.055
		c0.069,0.041,0.281,0.074,0.484,0.074c0.111,0,0.24-0.014,0.346-0.088c0.162-0.111,0.282-0.36,0.282-0.711
		c0-0.577-0.305-0.923-0.799-0.923c-0.138,0-0.263,0.014-0.309,0.028c-0.023,0.009-0.037,0.026-0.037,0.055V63.705z M32.353,63.303
		c0-0.72,0-0.849-0.009-0.996c-0.009-0.157-0.046-0.231-0.199-0.264c-0.037-0.009-0.115-0.014-0.156-0.014
		c-0.019,0-0.038-0.009-0.038-0.028c0-0.026,0.024-0.037,0.074-0.037c0.208,0,0.499,0.015,0.522,0.015
		c0.051,0,0.401-0.015,0.545-0.015c0.29,0,0.6,0.028,0.844,0.203c0.116,0.084,0.319,0.311,0.319,0.628
		c0,0.342-0.143,0.684-0.559,1.066c0.379,0.484,0.693,0.896,0.96,1.182c0.249,0.264,0.448,0.314,0.563,0.332
		c0.088,0.014,0.153,0.014,0.18,0.014c0.023,0,0.042,0.015,0.042,0.028c0,0.028-0.028,0.037-0.111,0.037h-0.328
		c-0.258,0-0.373-0.022-0.493-0.088c-0.199-0.106-0.361-0.332-0.624-0.678c-0.193-0.254-0.41-0.563-0.503-0.684
		c-0.018-0.019-0.032-0.027-0.06-0.027l-0.567-0.01c-0.023,0-0.033,0.015-0.033,0.037v0.11c0,0.443,0,0.808,0.023,1.002
		c0.014,0.134,0.042,0.235,0.18,0.254c0.065,0.009,0.167,0.018,0.208,0.018c0.028,0,0.037,0.015,0.037,0.028
		c0,0.023-0.023,0.037-0.074,0.037c-0.254,0-0.545-0.014-0.568-0.014c-0.004,0-0.295,0.014-0.433,0.014
		c-0.051,0-0.074-0.009-0.074-0.037c0-0.014,0.009-0.028,0.037-0.028c0.041,0,0.097-0.009,0.138-0.018
		c0.092-0.019,0.116-0.12,0.134-0.254c0.023-0.194,0.023-0.559,0.023-1.002V63.303z"/>
	<path clip-path="url(#SVGID_2_)" fill="#98846D" d="M36.812,64.826c0.009,0.378,0.055,0.498,0.18,0.536
		c0.088,0.022,0.189,0.026,0.231,0.026c0.023,0,0.037,0.01,0.037,0.028c0,0.028-0.028,0.037-0.083,0.037
		c-0.263,0-0.448-0.014-0.49-0.014c-0.041,0-0.235,0.014-0.443,0.014c-0.046,0-0.074-0.005-0.074-0.037
		c0-0.019,0.014-0.028,0.037-0.028c0.037,0,0.12-0.004,0.19-0.026c0.115-0.033,0.138-0.167,0.138-0.587l0.005-2.645
		c0-0.18,0.013-0.23,0.05-0.23s0.116,0.101,0.162,0.146c0.069,0.079,0.757,0.822,1.468,1.584c0.457,0.489,0.96,1.053,1.108,1.204
		l-0.051-2.344c-0.005-0.3-0.037-0.402-0.18-0.439c-0.083-0.018-0.19-0.022-0.227-0.022c-0.032,0-0.036-0.014-0.036-0.032
		c0-0.028,0.036-0.033,0.092-0.033c0.208,0,0.429,0.015,0.48,0.015c0.051,0,0.203-0.015,0.392-0.015
		c0.051,0,0.083,0.005,0.083,0.033c0,0.019-0.018,0.032-0.05,0.032c-0.023,0-0.056,0-0.111,0.014
		c-0.153,0.032-0.171,0.134-0.171,0.411l-0.009,2.705c0,0.304-0.009,0.327-0.042,0.327c-0.037,0-0.092-0.051-0.337-0.295
		c-0.051-0.046-0.715-0.726-1.204-1.251c-0.536-0.577-1.057-1.159-1.205-1.325L36.812,64.826z"/>
	<path clip-path="url(#SVGID_2_)" fill="#98846D" d="M42.298,64.115c0,0.443,0,0.809,0.023,1.002
		c0.014,0.134,0.042,0.235,0.18,0.253c0.065,0.01,0.166,0.02,0.208,0.02c0.028,0,0.037,0.014,0.037,0.027
		c0,0.023-0.023,0.037-0.074,0.037c-0.254,0-0.545-0.014-0.568-0.014s-0.314,0.014-0.452,0.014c-0.051,0-0.074-0.01-0.074-0.037
		c0-0.014,0.009-0.027,0.037-0.027c0.041,0,0.097-0.01,0.138-0.02c0.093-0.018,0.116-0.119,0.134-0.253
		c0.023-0.193,0.023-0.559,0.023-1.002v-0.812c0-0.721,0-0.851-0.009-0.997c-0.009-0.157-0.055-0.236-0.157-0.26
		c-0.051-0.014-0.111-0.018-0.143-0.018c-0.018,0-0.037-0.009-0.037-0.028c0-0.027,0.023-0.037,0.074-0.037
		c0.152,0,0.443,0.015,0.466,0.015s0.314-0.015,0.452-0.015c0.051,0,0.074,0.01,0.074,0.037c0,0.02-0.018,0.028-0.037,0.028
		c-0.032,0-0.06,0.004-0.115,0.014c-0.125,0.023-0.162,0.102-0.171,0.264c-0.009,0.146-0.009,0.276-0.009,0.997V64.115z"/>
	<path clip-path="url(#SVGID_2_)" fill="#98846D" d="M44.92,64.826c0.009,0.378,0.055,0.498,0.18,0.536
		c0.088,0.022,0.189,0.026,0.231,0.026c0.023,0,0.037,0.01,0.037,0.028c0,0.028-0.028,0.037-0.083,0.037
		c-0.263,0-0.448-0.014-0.49-0.014c-0.041,0-0.235,0.014-0.443,0.014c-0.046,0-0.074-0.005-0.074-0.037
		c0-0.019,0.014-0.028,0.037-0.028c0.037,0,0.12-0.004,0.19-0.026c0.115-0.033,0.138-0.167,0.138-0.587l0.005-2.645
		c0-0.18,0.013-0.23,0.05-0.23s0.116,0.101,0.162,0.146c0.069,0.079,0.757,0.822,1.468,1.584c0.457,0.489,0.96,1.053,1.108,1.204
		l-0.051-2.344c-0.005-0.3-0.037-0.402-0.18-0.439c-0.083-0.018-0.19-0.022-0.226-0.022c-0.033,0-0.037-0.014-0.037-0.032
		c0-0.028,0.037-0.033,0.092-0.033c0.208,0,0.429,0.015,0.48,0.015c0.051,0,0.203-0.015,0.392-0.015
		c0.051,0,0.083,0.005,0.083,0.033c0,0.019-0.018,0.032-0.05,0.032c-0.024,0-0.056,0-0.111,0.014
		c-0.153,0.032-0.171,0.134-0.171,0.411l-0.009,2.705c0,0.304-0.009,0.327-0.042,0.327c-0.037,0-0.092-0.051-0.337-0.295
		c-0.05-0.046-0.715-0.726-1.204-1.251c-0.536-0.577-1.057-1.159-1.205-1.325L44.92,64.826z"/>
	<path clip-path="url(#SVGID_2_)" fill="#98846D" d="M52.143,64.277c0-0.374-0.023-0.425-0.208-0.477
		c-0.037-0.009-0.115-0.013-0.157-0.013c-0.018,0-0.037-0.009-0.037-0.028c0-0.027,0.023-0.036,0.074-0.036
		c0.208,0,0.499,0.014,0.522,0.014s0.314-0.014,0.452-0.014c0.051,0,0.074,0.009,0.074,0.036c0,0.02-0.018,0.028-0.037,0.028
		c-0.032,0-0.06,0.004-0.115,0.013c-0.125,0.023-0.162,0.103-0.171,0.265c-0.009,0.146-0.009,0.286-0.009,0.479v0.517
		c0,0.208-0.005,0.217-0.06,0.25c-0.296,0.156-0.711,0.207-0.979,0.207c-0.351,0-1.006-0.047-1.518-0.493
		c-0.282-0.245-0.55-0.739-0.55-1.316c0-0.738,0.36-1.26,0.771-1.518c0.416-0.259,0.873-0.291,1.228-0.291
		c0.291,0,0.618,0.06,0.706,0.078c0.097,0.022,0.259,0.042,0.374,0.046c0.046,0.005,0.055,0.023,0.055,0.042
		c0,0.064-0.032,0.193-0.032,0.654c0,0.074-0.009,0.098-0.042,0.098c-0.023,0-0.027-0.027-0.032-0.069
		c-0.004-0.064-0.027-0.194-0.097-0.305c-0.115-0.175-0.489-0.373-1.084-0.373c-0.291,0-0.637,0.027-0.988,0.304
		c-0.268,0.212-0.457,0.633-0.457,1.172c0,0.652,0.328,1.122,0.489,1.279c0.365,0.356,0.785,0.494,1.209,0.494
		c0.167,0,0.407-0.027,0.527-0.097c0.06-0.032,0.092-0.083,0.092-0.162V64.277z"/>
	<path clip-path="url(#SVGID_2_)" fill="#98846D" d="M58.701,64.933c-0.259-0.212-0.716-0.651-0.836-0.78s-0.415-0.457-0.545-0.646
		c-0.24,0.156-0.415,0.405-0.415,0.774c0,0.577,0.406,0.993,0.923,0.993C58.257,65.274,58.544,65.094,58.701,64.933 M56.545,64.499
		c0-0.54,0.346-0.9,0.706-1.112c-0.171-0.24-0.226-0.43-0.226-0.637c0-0.365,0.374-0.851,0.992-0.851
		c0.236,0,0.434,0.047,0.559,0.116c0.055,0.032,0.06,0.06,0.06,0.115c0,0.139-0.019,0.462-0.032,0.53
		c-0.014,0.069-0.028,0.078-0.047,0.078c-0.023,0-0.027-0.018-0.027-0.087c0-0.12-0.028-0.271-0.143-0.393
		c-0.102-0.106-0.259-0.203-0.462-0.203c-0.277,0-0.586,0.171-0.586,0.604c0,0.36,0.249,0.66,0.729,1.183
		c0.157,0.17,0.725,0.701,0.872,0.826c0.13-0.177,0.236-0.485,0.236-0.767c0-0.069-0.019-0.157-0.088-0.227
		c-0.06-0.06-0.157-0.073-0.226-0.073c-0.028,0-0.055-0.01-0.055-0.033c0-0.022,0.036-0.032,0.074-0.032
		c0.11,0,0.295,0.006,0.553,0.032c0.07,0.009,0.083,0.047,0.083,0.093c0,0.373-0.254,0.841-0.457,1.09
		c0.305,0.258,0.508,0.383,0.637,0.457c0.148,0.087,0.384,0.18,0.55,0.18c0.041,0,0.064,0.004,0.064,0.032
		c0,0.019-0.037,0.031-0.078,0.031H59.78c-0.341,0-0.452-0.031-0.96-0.433c-0.106,0.106-0.47,0.498-1.153,0.498
		C56.859,65.519,56.545,64.9,56.545,64.499"/>
	<path clip-path="url(#SVGID_2_)" fill="#98846D" d="M63.624,65.394c-0.065-0.031-0.069-0.051-0.069-0.175
		c0-0.23,0.018-0.416,0.023-0.49c0.004-0.05,0.014-0.072,0.037-0.072c0.027,0,0.032,0.013,0.032,0.05c0,0.042,0,0.105,0.014,0.171
		c0.069,0.342,0.374,0.471,0.683,0.471c0.443,0,0.66-0.318,0.66-0.613c0-0.319-0.134-0.504-0.531-0.831l-0.207-0.171
		c-0.49-0.401-0.601-0.688-0.601-1.002c0-0.493,0.37-0.83,0.956-0.83c0.18,0,0.314,0.019,0.429,0.046
		c0.088,0.019,0.125,0.022,0.162,0.022s0.046,0.01,0.046,0.033s-0.019,0.175-0.019,0.489c0,0.074-0.009,0.105-0.032,0.105
		c-0.028,0-0.032-0.022-0.037-0.06c-0.004-0.055-0.032-0.18-0.06-0.231c-0.027-0.051-0.152-0.244-0.577-0.244
		c-0.318,0-0.567,0.198-0.567,0.535c0,0.264,0.12,0.43,0.563,0.775l0.129,0.102c0.545,0.43,0.674,0.717,0.674,1.085
		c0,0.189-0.074,0.54-0.393,0.767c-0.198,0.138-0.447,0.193-0.697,0.193C64.026,65.519,63.813,65.486,63.624,65.394"/>
	<path clip-path="url(#SVGID_2_)" fill="#98846D" d="M67.437,65.021c-0.449-0.401-0.559-0.929-0.559-1.366
		c0-0.311,0.105-0.85,0.518-1.26c0.275-0.277,0.695-0.494,1.406-0.494c0.186,0,0.443,0.014,0.67,0.055
		c0.176,0.033,0.323,0.06,0.471,0.069c0.051,0.005,0.06,0.023,0.06,0.051c0,0.037-0.015,0.092-0.022,0.259
		c-0.01,0.152-0.01,0.406-0.015,0.475c-0.004,0.069-0.013,0.098-0.041,0.098c-0.032,0-0.037-0.032-0.037-0.098
		c0-0.18-0.073-0.368-0.194-0.471c-0.16-0.138-0.517-0.263-0.922-0.263c-0.615,0-0.9,0.18-1.062,0.337
		c-0.337,0.323-0.415,0.734-0.415,1.205c0,0.881,0.678,1.688,1.666,1.688c0.346,0,0.619-0.041,0.803-0.23
		c0.097-0.102,0.157-0.304,0.171-0.387c0.01-0.052,0.02-0.069,0.047-0.069c0.022,0,0.031,0.032,0.031,0.069
		c0,0.031-0.055,0.434-0.101,0.591c-0.028,0.087-0.037,0.096-0.12,0.133c-0.186,0.074-0.535,0.105-0.831,0.105
		C68.267,65.518,67.801,65.348,67.437,65.021"/>
	<path clip-path="url(#SVGID_2_)" fill="#98846D" d="M74.761,64.115c0,0.443,0,0.809,0.022,1.002
		c0.014,0.134,0.042,0.235,0.18,0.253c0.065,0.01,0.166,0.02,0.208,0.02c0.028,0,0.037,0.014,0.037,0.027
		c0,0.023-0.023,0.037-0.074,0.037c-0.254,0-0.545-0.014-0.568-0.014c-0.022,0-0.313,0.014-0.451,0.014
		c-0.051,0-0.074-0.01-0.074-0.037c0-0.014,0.01-0.027,0.037-0.027c0.042,0,0.098-0.01,0.139-0.02
		c0.092-0.018,0.115-0.119,0.133-0.253c0.023-0.193,0.023-0.559,0.023-1.002V63.63c0-0.018-0.014-0.026-0.027-0.026h-1.957
		c-0.014,0-0.027,0.004-0.027,0.026v0.485c0,0.443,0,0.809,0.023,1.002c0.014,0.134,0.041,0.235,0.18,0.253
		c0.064,0.01,0.166,0.02,0.207,0.02c0.027,0,0.037,0.014,0.037,0.027c0,0.023-0.023,0.037-0.074,0.037
		c-0.254,0-0.545-0.014-0.567-0.014s-0.313,0.014-0.452,0.014c-0.051,0-0.074-0.01-0.074-0.037c0-0.014,0.01-0.027,0.037-0.027
		c0.041,0,0.098-0.01,0.139-0.02c0.093-0.018,0.115-0.119,0.134-0.253c0.022-0.193,0.022-0.559,0.022-1.002v-0.812
		c0-0.721,0-0.851-0.009-0.997c-0.009-0.157-0.046-0.231-0.198-0.264c-0.037-0.01-0.115-0.014-0.156-0.014
		c-0.02,0-0.037-0.009-0.037-0.028c0-0.027,0.023-0.037,0.074-0.037c0.207,0,0.498,0.015,0.521,0.015s0.313-0.015,0.452-0.015
		c0.051,0,0.074,0.01,0.074,0.037c0,0.02-0.018,0.028-0.037,0.028c-0.032,0-0.061,0.004-0.115,0.014
		c-0.125,0.023-0.162,0.102-0.171,0.264c-0.009,0.146-0.009,0.276-0.009,0.997V63.4c0,0.023,0.014,0.027,0.027,0.027h1.957
		c0.014,0,0.027-0.004,0.027-0.027v-0.097c0-0.721,0-0.851-0.009-0.997c-0.009-0.157-0.046-0.231-0.198-0.264
		c-0.037-0.01-0.115-0.014-0.156-0.014c-0.02,0-0.037-0.009-0.037-0.028c0-0.027,0.022-0.037,0.073-0.037
		c0.207,0,0.498,0.015,0.521,0.015c0.023,0,0.314-0.015,0.453-0.015c0.051,0,0.074,0.01,0.074,0.037c0,0.02-0.019,0.028-0.037,0.028
		c-0.033,0-0.061,0.004-0.115,0.014c-0.125,0.023-0.161,0.102-0.172,0.264c-0.008,0.146-0.008,0.276-0.008,0.997V64.115z"/>
	<path clip-path="url(#SVGID_2_)" fill="#98846D" d="M78.53,65.343c0.415,0,1.274-0.24,1.274-1.583c0-1.107-0.675-1.703-1.403-1.703
		c-0.771,0-1.348,0.509-1.348,1.52C77.054,64.651,77.7,65.343,78.53,65.343 M78.434,61.9c1.039,0,1.813,0.654,1.813,1.73
		c0,1.034-0.729,1.888-1.84,1.888c-1.266,0-1.791-0.982-1.791-1.813C76.616,62.957,77.159,61.9,78.434,61.9"/>
	<path clip-path="url(#SVGID_2_)" fill="#98846D" d="M82.467,64.125c0,0.678,0.019,0.974,0.103,1.057
		c0.072,0.074,0.192,0.106,0.553,0.106c0.244,0,0.447-0.005,0.559-0.139c0.061-0.074,0.106-0.189,0.12-0.276
		c0.005-0.037,0.015-0.061,0.042-0.061c0.023,0,0.027,0.019,0.027,0.069s-0.032,0.328-0.069,0.462
		c-0.032,0.105-0.046,0.124-0.291,0.124c-0.332,0-0.571-0.009-0.766-0.014c-0.194-0.01-0.337-0.015-0.472-0.015
		c-0.018,0-0.097,0.005-0.188,0.005c-0.093,0.005-0.194,0.01-0.263,0.01c-0.051,0-0.074-0.01-0.074-0.037
		c0-0.014,0.009-0.027,0.037-0.027c0.041,0,0.097-0.01,0.138-0.019c0.093-0.019,0.116-0.12,0.134-0.255
		c0.023-0.193,0.023-0.558,0.023-1.001v-0.812c0-0.72,0-0.849-0.01-0.997c-0.008-0.157-0.045-0.23-0.197-0.263
		c-0.037-0.01-0.116-0.014-0.157-0.014c-0.019,0-0.037-0.01-0.037-0.027c0-0.028,0.022-0.037,0.074-0.037
		c0.207,0,0.498,0.014,0.521,0.014c0.023,0,0.36-0.014,0.5-0.014c0.049,0,0.073,0.009,0.073,0.037c0,0.018-0.019,0.027-0.036,0.027
		c-0.033,0-0.098,0.004-0.154,0.014c-0.133,0.022-0.17,0.102-0.18,0.263c-0.009,0.148-0.009,0.277-0.009,0.997V64.125z"/>
	<path clip-path="url(#SVGID_2_)" fill="#98846D" d="M86.855,63.926c0.022,0,0.022-0.013,0.019-0.031l-0.438-1.246
		c-0.022-0.07-0.046-0.07-0.069,0l-0.406,1.246c-0.01,0.022,0,0.031,0.014,0.031H86.855z M86.376,62.08
		c0.055-0.152,0.074-0.18,0.102-0.18s0.046,0.022,0.102,0.166c0.068,0.176,0.793,2.082,1.076,2.782
		c0.166,0.411,0.299,0.485,0.396,0.514c0.069,0.022,0.139,0.026,0.185,0.026c0.028,0,0.047,0.006,0.047,0.028
		c0,0.028-0.041,0.037-0.093,0.037c-0.069,0-0.405,0-0.725-0.009c-0.087-0.005-0.138-0.005-0.138-0.033
		c0-0.018,0.014-0.027,0.031-0.032c0.028-0.009,0.057-0.051,0.028-0.125l-0.429-1.135c-0.01-0.018-0.02-0.028-0.043-0.028h-0.991
		c-0.023,0-0.037,0.015-0.046,0.037l-0.277,0.817c-0.042,0.116-0.064,0.226-0.064,0.309c0,0.093,0.097,0.134,0.174,0.134h0.048
		c0.032,0,0.046,0.01,0.046,0.028c0,0.028-0.028,0.037-0.069,0.037c-0.11,0-0.31-0.014-0.36-0.014s-0.305,0.014-0.521,0.014
		c-0.061,0-0.088-0.009-0.088-0.037c0-0.019,0.02-0.028,0.042-0.028c0.032,0,0.097-0.004,0.134-0.009
		c0.213-0.027,0.305-0.203,0.387-0.434L86.376,62.08z"/>
	<path clip-path="url(#SVGID_2_)" fill="#98846D" d="M90.165,63.705c0,0.023,0.009,0.041,0.033,0.055
		c0.068,0.041,0.28,0.074,0.483,0.074c0.11,0,0.239-0.014,0.347-0.088c0.161-0.111,0.281-0.36,0.281-0.711
		c0-0.577-0.305-0.923-0.799-0.923c-0.139,0-0.264,0.014-0.309,0.028c-0.023,0.009-0.037,0.026-0.037,0.055V63.705z M89.796,63.303
		c0-0.72,0-0.849-0.01-0.996c-0.01-0.157-0.047-0.231-0.199-0.264c-0.036-0.009-0.114-0.014-0.156-0.014
		c-0.018,0-0.037-0.009-0.037-0.028c0-0.026,0.023-0.037,0.074-0.037c0.208,0,0.498,0.015,0.521,0.015
		c0.051,0,0.401-0.015,0.545-0.015c0.291,0,0.6,0.028,0.844,0.203c0.115,0.084,0.318,0.311,0.318,0.628
		c0,0.342-0.143,0.684-0.558,1.066c0.378,0.484,0.692,0.896,0.96,1.182c0.249,0.264,0.447,0.314,0.562,0.332
		c0.088,0.014,0.152,0.014,0.181,0.014c0.022,0,0.042,0.015,0.042,0.028c0,0.028-0.028,0.037-0.111,0.037h-0.328
		c-0.259,0-0.373-0.022-0.494-0.088c-0.197-0.106-0.359-0.332-0.623-0.678c-0.193-0.254-0.41-0.563-0.502-0.684
		c-0.019-0.019-0.033-0.027-0.061-0.027l-0.566-0.01c-0.024,0-0.033,0.015-0.033,0.037v0.11c0,0.443,0,0.808,0.022,1.002
		c0.015,0.134,0.042,0.235,0.181,0.254c0.064,0.009,0.166,0.018,0.207,0.018c0.028,0,0.037,0.015,0.037,0.028
		c0,0.023-0.022,0.037-0.074,0.037c-0.254,0-0.545-0.014-0.567-0.014c-0.005,0-0.295,0.014-0.435,0.014
		c-0.049,0-0.074-0.009-0.074-0.037c0-0.014,0.011-0.028,0.039-0.028c0.041,0,0.096-0.009,0.138-0.018
		c0.092-0.019,0.114-0.12,0.134-0.254c0.023-0.194,0.023-0.559,0.023-1.002V63.303z"/>
	<path clip-path="url(#SVGID_2_)" fill="#98846D" d="M93.787,65.394c-0.065-0.031-0.069-0.051-0.069-0.175
		c0-0.23,0.019-0.416,0.023-0.49c0.004-0.05,0.014-0.072,0.037-0.072c0.027,0,0.032,0.013,0.032,0.05c0,0.042,0,0.105,0.014,0.171
		c0.069,0.342,0.374,0.471,0.683,0.471c0.443,0,0.66-0.318,0.66-0.613c0-0.319-0.134-0.504-0.531-0.831l-0.207-0.171
		c-0.489-0.401-0.601-0.688-0.601-1.002c0-0.493,0.37-0.83,0.956-0.83c0.18,0,0.314,0.019,0.43,0.046
		c0.088,0.019,0.125,0.022,0.162,0.022c0.036,0,0.045,0.01,0.045,0.033s-0.019,0.175-0.019,0.489c0,0.074-0.009,0.105-0.032,0.105
		c-0.027,0-0.031-0.022-0.037-0.06c-0.004-0.055-0.031-0.18-0.06-0.231c-0.028-0.051-0.152-0.244-0.577-0.244
		c-0.318,0-0.568,0.198-0.568,0.535c0,0.264,0.121,0.43,0.563,0.775l0.13,0.102c0.544,0.43,0.674,0.717,0.674,1.085
		c0,0.189-0.074,0.54-0.393,0.767c-0.198,0.138-0.447,0.193-0.697,0.193C94.189,65.519,93.976,65.486,93.787,65.394"/>
	<path clip-path="url(#SVGID_2_)" fill="#98846D" d="M100.354,64.115c0,0.443,0,0.809,0.023,1.002
		c0.014,0.134,0.042,0.235,0.18,0.253c0.064,0.01,0.166,0.02,0.208,0.02c0.028,0,0.037,0.014,0.037,0.027
		c0,0.023-0.022,0.037-0.074,0.037c-0.254,0-0.545-0.014-0.567-0.014c-0.023,0-0.314,0.014-0.453,0.014
		c-0.051,0-0.073-0.01-0.073-0.037c0-0.014,0.009-0.027,0.037-0.027c0.042,0,0.097-0.01,0.139-0.02
		c0.093-0.018,0.115-0.119,0.134-0.253c0.022-0.193,0.022-0.559,0.022-1.002V63.63c0-0.018-0.015-0.026-0.026-0.026h-1.957
		c-0.015,0-0.029,0.004-0.029,0.026v0.485c0,0.443,0,0.809,0.023,1.002c0.014,0.134,0.042,0.235,0.18,0.253
		c0.065,0.01,0.166,0.02,0.209,0.02c0.027,0,0.037,0.014,0.037,0.027c0,0.023-0.023,0.037-0.074,0.037
		c-0.254,0-0.545-0.014-0.568-0.014s-0.314,0.014-0.452,0.014c-0.051,0-0.073-0.01-0.073-0.037c0-0.014,0.008-0.027,0.036-0.027
		c0.041,0,0.097-0.01,0.138-0.02c0.094-0.018,0.117-0.119,0.135-0.253c0.023-0.193,0.023-0.559,0.023-1.002v-0.812
		c0-0.721,0-0.851-0.01-0.997c-0.009-0.157-0.046-0.231-0.197-0.264c-0.037-0.01-0.117-0.014-0.158-0.014
		c-0.019,0-0.037-0.009-0.037-0.028c0-0.027,0.023-0.037,0.074-0.037c0.207,0,0.498,0.015,0.521,0.015s0.314-0.015,0.453-0.015
		c0.05,0,0.072,0.01,0.072,0.037c0,0.02-0.018,0.028-0.035,0.028c-0.033,0-0.061,0.004-0.116,0.014
		c-0.125,0.023-0.161,0.102-0.171,0.264c-0.01,0.146-0.01,0.276-0.01,0.997V63.4c0,0.023,0.015,0.027,0.029,0.027h1.957
		c0.012,0,0.026-0.004,0.026-0.027v-0.097c0-0.721,0-0.851-0.009-0.997c-0.01-0.157-0.047-0.231-0.198-0.264
		c-0.037-0.01-0.116-0.014-0.157-0.014c-0.02,0-0.037-0.009-0.037-0.028c0-0.027,0.023-0.037,0.074-0.037
		c0.207,0,0.498,0.015,0.521,0.015c0.022,0,0.313-0.015,0.453-0.015c0.049,0,0.072,0.01,0.072,0.037c0,0.02-0.018,0.028-0.037,0.028
		c-0.031,0-0.059,0.004-0.115,0.014c-0.125,0.023-0.16,0.102-0.17,0.264c-0.01,0.146-0.01,0.276-0.01,0.997V64.115z"/>
	<path clip-path="url(#SVGID_2_)" fill="#98846D" d="M103.239,64.115c0,0.443,0,0.809,0.022,1.002
		c0.015,0.134,0.042,0.235,0.181,0.253c0.064,0.01,0.166,0.02,0.207,0.02c0.027,0,0.037,0.014,0.037,0.027
		c0,0.023-0.022,0.037-0.074,0.037c-0.254,0-0.545-0.014-0.567-0.014s-0.313,0.014-0.452,0.014c-0.051,0-0.074-0.01-0.074-0.037
		c0-0.014,0.01-0.027,0.037-0.027c0.041,0,0.098-0.01,0.139-0.02c0.093-0.018,0.115-0.119,0.134-0.253
		c0.022-0.193,0.022-0.559,0.022-1.002v-0.812c0-0.721,0-0.851-0.009-0.997c-0.009-0.157-0.055-0.236-0.157-0.26
		c-0.051-0.014-0.111-0.018-0.143-0.018c-0.02,0-0.037-0.009-0.037-0.028c0-0.027,0.023-0.037,0.074-0.037
		c0.152,0,0.443,0.015,0.466,0.015s0.313-0.015,0.452-0.015c0.051,0,0.074,0.01,0.074,0.037c0,0.02-0.019,0.028-0.037,0.028
		c-0.032,0-0.061,0.004-0.115,0.014c-0.125,0.023-0.161,0.102-0.171,0.264c-0.009,0.146-0.009,0.276-0.009,0.997V64.115z"/>
	<path clip-path="url(#SVGID_2_)" fill="#98846D" d="M105.735,63.303c0-0.72,0-0.849-0.009-0.996
		c-0.011-0.157-0.046-0.231-0.199-0.264c-0.037-0.009-0.114-0.014-0.157-0.014c-0.018,0-0.037-0.009-0.037-0.028
		c0-0.026,0.023-0.037,0.074-0.037c0.208,0,0.485,0.015,0.521,0.015c0.102,0,0.369-0.015,0.582-0.015
		c0.576,0,0.785,0.194,0.859,0.265c0.1,0.097,0.23,0.304,0.23,0.549c0,0.655-0.48,1.098-1.137,1.098c-0.022,0-0.073,0-0.097-0.004
		c-0.022,0-0.05-0.01-0.05-0.033c0-0.037,0.027-0.041,0.124-0.041c0.448,0,0.798-0.328,0.798-0.753c0-0.151-0.013-0.461-0.258-0.71
		c-0.245-0.25-0.525-0.23-0.632-0.23c-0.079,0-0.157,0.009-0.199,0.027c-0.026,0.01-0.037,0.041-0.037,0.087v1.897
		c0,0.443,0,0.808,0.022,1.002c0.015,0.134,0.043,0.235,0.182,0.254c0.064,0.009,0.166,0.018,0.207,0.018
		c0.027,0,0.037,0.015,0.037,0.028c0,0.023-0.023,0.037-0.074,0.037c-0.254,0-0.544-0.014-0.568-0.014
		c-0.013,0-0.304,0.014-0.442,0.014c-0.05,0-0.073-0.009-0.073-0.037c0-0.014,0.01-0.028,0.037-0.028
		c0.041,0,0.098-0.009,0.139-0.018c0.092-0.019,0.114-0.12,0.133-0.254c0.023-0.194,0.023-0.559,0.023-1.002V63.303z"/>
</g>
<rect x="20.37" y="53.904" fill="#98846D" width="87.268" height="0.184"/>
</svg>
